<svg id="Layer_1" data-name="Layer 1" xmlns="http://www.w3.org/2000/svg" viewBox="0 0 1920 400"><defs><style>.cls-1{fill:#808184;opacity:0.2;isolation:isolate;}.cls-2{fill:#37b34a;}.cls-3{fill:#fff;stroke:#fff;stroke-miterlimit:10;stroke-width:10px;}.cls-4{fill:#1b8bdd;}</style></defs><ellipse class="cls-1" cx="1118.23" cy="313.98" rx="140.33" ry="55.42"/><rect class="cls-2" x="1033.35" y="167.38" width="166.5" height="158.15" rx="34.82"/><path class="cls-2" d="M1128.73,172.91c0,1.81-.63,4.57-2,5.25-5.35,2.71-21.58-5.79-21.33-11.34.39-8.73-4.35-13.13-12.62-16.69-17-7.29-33.65-15.27-50.26-23.3-12.6-6.09-22.66-15.06-24-28.28-2-20.14-2.3-40.44-2.64-60.68-.1-6.09,4.78-8.92,10.84-6.28,23.55,10.21,47.11,20.43,70.41,31.1,18.62,8.51,28.68,22.5,29.79,41.48.75,12.91,1.36,25.82,1.84,35.19C1128.82,152.92,1128.91,162.91,1128.73,172.91Z"/><path class="cls-2" d="M1217.25,74.65h-.1c0,7.3.25,14.62-.06,21.91-.42,9.77-4.12,18.72-12.31,23.4-19.68,11.24-39.94,21.44-60.09,31.78-4.14,2.13-7.67.54-7.31-4.81,1.2-18.38,2.15-36.8,4.51-55,.64-5,4.7-11.08,9-13.55,19.35-11.16,39.28-21.28,59.14-31.5,4.27-2.2,7.23-.36,7.27,4.93C1217.28,59.4,1217.25,67,1217.25,74.65Z"/><path class="cls-3" d="M1136.32,245.17c0,7-3.79,12.39-9,12.5s-9.32-5.25-9.44-12.3c-.11-6.8,4.1-12.66,9.16-12.72S1136.28,238.06,1136.32,245.17Z"/><path class="cls-3" d="M1076.54,245.4c-.09,7.1-4.11,12.35-9.42,12.29-5-.06-9.07-5.68-9-12.53s4.24-12.57,9.33-12.55S1076.62,238.51,1076.54,245.4Z"/><ellipse class="cls-1" cx="807.33" cy="304.81" rx="124.01" ry="35.84"/><path class="cls-4" d="M793.54,207l-25.37-45.12c-.55-1-1.07-2-1.67-2.91-1.51-2.37-2-2.58-4.56-1.32s-4.84,2.67-7.25,4c-3.84,2.15-7.65,4.37-11.53,6.44-5,2.64-8.62,1.71-11.42-3q-4-6.72-7.68-13.63c-2.59-4.87-1.43-8.81,3.48-11.72,5.19-3.07,10.49-5.95,15.74-8.91,1-.56,2-1.14,2.94-1.71,1.66-1,2.26-2.24,1.23-4-1.54-2.69-3.08-5.38-4.54-8.12-1-1.82-2.68-2-4.44-2.22a33,33,0,0,1-21.13-10.85c-6.71-7.41-8.92-16.33-7.85-25.95,2.08-18.61,20.82-33.4,41.64-28.09,18.78,4.79,29.61,24.41,22.33,43.05-1.79,4.59-1.68,8,.9,12,4,6.17,2.87,6.84,10.06,2.77,4.81-2.72,9.61-5.46,14.47-8.11,5.82-3.16,10-2.12,13.36,3.4q3.48,5.73,6.57,11.68c3.09,5.94,1.91,9.76-3.92,13.11-5.56,3.19-11.18,6.27-16.74,9.45-3.91,2.23-4,2.63-1.95,6.35q26.53,47.25,53.11,94.47c.12.22.24.44.37.65,1.79,2.88,2.18,3,4.85.87a115.08,115.08,0,0,0,21.61-22.42,76.83,76.83,0,0,0,13.4-29.49c.73-3.41.81-3.44-2.54-4.39-4.09-1.16-8.2-2.22-12.3-3.35a18.06,18.06,0,0,1-3.19-1c-2.73-1.37-3-4-.6-6a16.3,16.3,0,0,1,2.53-1.63q18.22-10.28,36.48-20.51c4.59-2.57,5.77-2.26,8.35,2.29q10,17.65,19.9,35.37c.25.44.49.87.7,1.32.84,1.73,1.41,3.51.11,5.28s-3.29,1.56-5.14,1.08c-4.23-1.1-8.43-2.33-12.67-3.41-2.93-.74-3.18-.56-3.85,2.33-4.45,19.22-14.29,35.58-27.27,50.31-13.67,15.52-30.38,27-48.87,35.89A135.74,135.74,0,0,1,774.45,295a92.76,92.76,0,0,1-26.09-4.85c-3-1-3.31-.91-4.21,2.19-1.09,3.72-2,7.49-3,11.21a12.1,12.1,0,0,1-1.41,3.44,3.42,3.42,0,0,1-5.48.54,10.59,10.59,0,0,1-1.71-2.42q-10.34-18.33-20.64-36.68c-.3-.54-.58-1.1-.85-1.66a3.43,3.43,0,0,1,1.33-4.85c.95-.61,1.93-1.19,2.92-1.74l34.5-19.4a10.41,10.41,0,0,1,3-1.52c1.38-.22,3.24-.45,4.14.26a4.65,4.65,0,0,1,1.06,3.92c-1,4.63-2.3,9.2-3.51,13.78-1.12,4.28-1.09,4.19,3.21,5.75,12.83,4.65,26.06,4.69,39.3,2.41,7.37-1.27,14.57-3.67,21.79-5.78,3.31-1,3.42-1.49,1.75-4.51-4.82-8.69-9.71-17.33-14.58-26Q799.76,218,793.54,207ZM736.83,71.59a11.66,11.66,0,0,0-4.88,16,12.11,12.11,0,0,0,16.2,4.61,11.52,11.52,0,0,0,4.7-16A11.38,11.38,0,0,0,736.83,71.59Z"/></svg>