<svg id="Layer_1" data-name="Layer 1" xmlns="http://www.w3.org/2000/svg" viewBox="0 0 1920 400"><defs><style>.cls-1{fill:#35b14a;}.cls-2{fill:#818282;}.cls-3{fill:#fdc76e;}.cls-4{fill:#9697ca;}.cls-5{fill:#35b24a;}.cls-6{fill:#c36b51;}.cls-7{fill:#010101;}.cls-8{fill:#54476b;}.cls-9{fill:#54486b;}.cls-10{fill:#f89d1d;}.cls-11{fill:#f79d1d;}.cls-12{fill:#36b24b;}.cls-13{fill:#c04d57;}.cls-14{fill:#1175bb;}.cls-15{fill:#070707;}.cls-16{fill:#080808;}.cls-17{fill:#0e0e0e;}.cls-18{fill:#030303;}.cls-19{fill:#d99e82;}.cls-20{fill:#964238;}.cls-21{fill:#040404;}.cls-22{fill:#3cac4d;}</style></defs><path class="cls-1" d="M1473.94,306.75c-15-1.69-25.6-13.6-25.71-29.12q-.21-29.61-.11-59.23a56.24,56.24,0,0,1,1.2-13.37c3-12.14,14.81-20.82,27.58-20.94,7.49-.07,15-.11,22.47-.22,2,0,4.37.33,5.33-1.83s-.63-4.11-2.16-5.45a33.79,33.79,0,0,0-7.25-5.15c-12.67-6.05-25.53-11.7-38.13-17.89a83.93,83.93,0,0,1-13.56-8.77,18.06,18.06,0,0,1-7.07-13.81c-.79-14.12-1.42-28.25-2.07-42.39a36,36,0,0,1,.09-5.49c.43-4.24,2.91-6.08,7-5a48.63,48.63,0,0,1,7.25,2.61c16.3,7.07,32.64,14.09,48.86,21.36,6,2.68,11.78,5.91,16.39,10.75,6.44,6.75,8.79,15.13,9.1,24.2.48,13.72.85,27.45,1.23,41.17.13,4.75.83,5.56,5.52,5.59,7.07,0,14.15,0,21.23,0a29.21,29.21,0,0,1,29.29,29.12c.08,17.91.2,35.82.17,53.73,0,5.56.08,11.21-.76,16.68-1.9,12.35-12.46,22.36-24.95,23.29-9.52.71-19.12.34-28.69.46-.23-4.54-1-8.93-3.55-12.81-.37-.56-1.27-1.26-1.8-1.16-5.86,1.08-11.67,2.73-15.88,7.14-2.68,2.82-5.66,1.5-8.53,1.9-.34,0-.85-.47-1.14-.84-4.07-5.08-9.68-7-15.85-8-1.49-.22-2.5.18-2.85,1.63C1475.68,298.85,1474.83,302.8,1473.94,306.75Zm58.55-43.49c1.17-.61,2.35-1.2,3.5-1.84,4-2.21,6.1-6,8.35-9.69a12.47,12.47,0,0,1,3.47-3.76c2-1.34,2.5-4.59.78-6.26-2.43-2.37-4.9-4.73-7.13-7.28-4.6-5.28-10.18-8.09-17.29-7.52a19.13,19.13,0,0,0-14.87,8.8,7.18,7.18,0,0,1-3,2.79c-4.47,1.53-8.93-.1-11.84-4-6.53-8.72-19.33-10.47-27.61-3.44-4,3.41-7.55,7.44-11.25,11.24-1,1-.75,4.86.44,5.2,2.59.73,3.7,2.77,4.72,4.82a23.64,23.64,0,0,0,9.32,10.08c-3.9,1.09-5.7,3.95-6,7.72a12.73,12.73,0,0,0,5.75,12c6.94,4.76,23.5,5.33,30.31-2.88,6.54,8.19,23.78,7.76,30.9,2.45C1536.37,277.73,1538.65,268,1532.49,263.26Z"/><path class="cls-1" d="M441.39,191.49c11.25,5.69,16.62,15,16.68,27.46q.06,10.83.11,21.65c-3.19,1-6.43,2.52-9.21-.91a3.55,3.55,0,0,0-1.33-.67,10.8,10.8,0,0,0-14,4.94,9.45,9.45,0,0,0,5.69,12.76,2.82,2.82,0,0,1,1.34,2.19c0,4.36,1.85,7.87,4.7,11,.42.46.82.94,1.27,1.45a6.18,6.18,0,0,1-.83.45c-10.06,3.39-15.39,11-14.91,21.54.14,3,.78,5.82,3.91,7.25l.55.45c-3,2.89-4.76,6.24-4.09,10.55-2.65.09-5.31.24-8,.25q-32.92.1-65.87.14c-10.93,0-20.21-3.64-26.73-12.85a25,25,0,0,1-4.81-14.46c-.15-21.3-.18-42.61-.26-63.91,0-7.1.88-13.94,5.37-19.82a28.62,28.62,0,0,1,13.35-10,10.76,10.76,0,0,0,2.51.59c6.05.06,12.1.05,18.15,0a17.71,17.71,0,0,0,2.39-.37l.45,0,45,0a.9.9,0,0,0,.46.11,9.85,9.85,0,0,0,1.68.29Q428.2,191.53,441.39,191.49Zm-25.64,59a56.41,56.41,0,0,0-2-7.61,10.91,10.91,0,0,0-20.77,1.49,29.25,29.25,0,0,0-.33,11,11.17,11.17,0,0,0,18.51,6C414.25,258.57,415.26,254.76,415.75,250.53Zm-71.46,1.13c.54,1.56,1.13,4.65,2.58,7.24,3.73,6.64,11.49,7.62,16.85,2.42,6.17-6,5.83-17.22-.69-22.78a9.88,9.88,0,0,0-13.78.25C346,241.85,344.6,245.77,344.29,251.66Z"/><path class="cls-2" d="M553.68,198.16V173c0-11.45,7.05-19.48,18.5-20,9.79-.45,19.65-.31,29.44.21,10.08.53,17.87,9.38,17.93,19.55.05,8.32,0,16.65,0,25.36,2,0,3.75,0,5.54,0,4.55.11,7.07,2.37,7.68,6.86a18.82,18.82,0,0,1,.16,2.49q0,23.24,0,46.47c0,2.62-.06,5.35-2.35,7.06a9.1,9.1,0,0,1-4.85,2.08c-26,.13-52.1.11-78.15.08-4.27,0-7.28-3-7.3-7.55q-.12-25,0-50c0-4.77,3.3-7.58,8.1-7.5C550.05,198.18,551.69,198.16,553.68,198.16Zm53.45-.18c0-8.62.15-17-.07-25.42-.11-4.33-3.32-7-7.8-7q-12.74-.09-25.45,0c-4.69,0-7.63,3-7.7,7.63-.08,6.15-.08,12.31-.11,18.47,0,2.06,0,4.11,0,6.33Zm-20.62,50.23c2.16,0,4.33-.07,6.49,0s2.41-.75,1.85-2.59c-1.21-4.06-2.23-8.17-3.43-12.23-.49-1.67-.42-2.82,1.1-4.11a8.25,8.25,0,0,0,2.88-8.3,8.9,8.9,0,0,0-8-7.43,8.78,8.78,0,0,0-8.89,5.11,8.89,8.89,0,0,0,2.16,10.68,3.15,3.15,0,0,1,1.12,3.86c-1.28,4.12-2.34,8.3-3.52,12.46-.5,1.78-.08,2.68,2,2.55S584.44,248.21,586.51,248.21Z"/><path class="cls-2" d="M1310.88,198.08c0-8.91,0-17.39,0-25.87a19.18,19.18,0,0,1,8-15.88,17.35,17.35,0,0,1,10.73-3.51c9.81,0,19.64-.17,29.44.29,9.48.45,17.35,9.11,17.69,18.77.13,3.56,0,7.12,0,10.86H1364.4c0-2.9,0-5.63,0-8.36-.06-6.25-2.78-8.95-9-9h-23.72c-5.59,0-8.37,2.84-8.38,8.49,0,7.9,0,15.81,0,24.11H1381c6.46,0,9.13,2.65,9.13,9,0,15.66-.09,31.32,0,47,0,5.31-2.81,9.19-9.16,9.13-25-.22-49.94-.09-74.91-.09-5.86,0-8.65-2.81-8.66-8.76,0-15.83.07-31.66,0-47.48,0-5.11,3-9.48,8.89-8.8A42.68,42.68,0,0,0,1310.88,198.08Zm32.84,50c2.16,0,4.32-.07,6.48,0s2.4-.77,1.86-2.59c-1.23-4.14-2.32-8.32-3.5-12.47a3.06,3.06,0,0,1,1-3.7,9,9,0,0,0,.56-13.28,8.71,8.71,0,0,0-12.5-.13,9,9,0,0,0,.31,13.32,3.14,3.14,0,0,1,1.09,3.85c-1.26,4.13-2.28,8.33-3.48,12.47-.54,1.86-.08,2.65,1.94,2.54S1341.64,248.09,1343.72,248.09Z"/><path class="cls-3" d="M774.42,122.88c4.73-1.54,9.37-3.49,14.21-4.55a75.24,75.24,0,0,1,48,5c32.43,14.59,51.67,40,58.34,74.66a79.52,79.52,0,0,1-6.59,50.61,67.35,67.35,0,0,1-33.49,32.87c-.83.38-1.6.86-2.41,1.29l-.77.53,0,0a9,9,0,0,0-1.95.26,73.38,73.38,0,0,1-35.52,3.32c-18.54-2.73-34.35-10.91-48.06-23.42a98.56,98.56,0,0,1-19.49-24.48c-8-14.14-12.62-29.24-12.86-45.53a109.41,109.41,0,0,1,1-15.13,72.51,72.51,0,0,1,12.75-32.62,29.19,29.19,0,0,0,1.7-3.23l11.12-10.7Zm30.48,5.18c-1.71.14-4.63.24-7.5.63-15.8,2.17-28.84,9.41-38.55,22.08-12.62,16.45-15.77,35.26-12.28,55.28a83.81,83.81,0,0,0,27.27,49c16.45,14.79,35.53,22.53,58,20.2,16.07-1.67,29.36-8.87,39.37-21.53,13.18-16.66,16.45-35.86,12.76-56.33-3.72-20.67-14-37.78-30.08-51.2C840.07,134.69,824.24,128.26,804.9,128.06Z"/><path class="cls-4" d="M1132.89,124.8a76.61,76.61,0,0,1,21.46-6.15,78.06,78.06,0,0,1,37,4.31c27.19,10.25,45.83,29.37,57,56a89.57,89.57,0,0,1,6.93,41.68c-1.36,18.61-8,35.08-21.2,48.52a63.79,63.79,0,0,1-19.55,13.59c-1,.44-1.9,1-2.85,1.5l-.78.54,0,0a31.39,31.39,0,0,0-3.36.74,73.09,73.09,0,0,1-39.31,1.92c-20.73-4.54-37.81-15.26-51.36-31.46-17.22-20.59-25.71-44.17-23.48-71.23A75.55,75.55,0,0,1,1108,145.46a12,12,0,0,0,1-2.17l10.49-10Zm111.67,85.82a119.44,119.44,0,0,0-1.37-12c-4-20.4-13.92-37.49-29.92-50.78-14.84-12.33-31.79-19.06-51.38-18.17-15.11.69-28.29,6.16-38.82,16.94-16.81,17.21-21.28,38.3-17.2,61.38,3.39,19.21,12.67,35.46,27.17,48.51,16.52,14.87,35.68,22.63,58.2,20.23,16-1.71,29.08-9,39.16-21.5C1240.3,242.94,1244.42,228.62,1244.56,210.62Z"/><path class="cls-5" d="M1594.3,113.42c0,5.32.09,10.65,0,16-.2,8.91-4.2,15.56-12.17,19.69q-20.58,10.66-41.16,21.3a30.23,30.23,0,0,1-3.84,1.76c-4.26,1.48-6.53,0-6.42-4.55.15-6.15.39-12.3.9-18.43.62-7.54,1.5-15.06,2.36-22.57a15.18,15.18,0,0,1,8.29-12.31q21.27-11.2,42.62-22.25c6.76-3.49,9.46-1.78,9.52,5.9,0,5.16,0,10.32,0,15.49Z"/><path class="cls-3" d="M1132.89,124.8l-13.39,8.48c-5.72,0-11.49-.62-17.14,0a55.28,55.28,0,0,0-37.79,20.57c-14,17-17.26,36.89-13.22,57.89,4.69,24.38,17.91,43.45,38.86,56.89a70.26,70.26,0,0,0,36.88,11.56l19.58,10a13.82,13.82,0,0,1-1.66.51,77.77,77.77,0,0,1-22.49,1.11A82.84,82.84,0,0,1,1096,284.7a96.47,96.47,0,0,1-32.86-24.58,103.69,103.69,0,0,1-19.05-32.19,92.39,92.39,0,0,1-5-42.62,74.84,74.84,0,0,1,10.12-30.47c1.43-2.41,2.92-4.78,4.39-7.17l0,0,.53-.52,0,0,.54-.53,0,0c.07,0,.21-.09.2-.12a2.67,2.67,0,0,0-.14-.36c9.1-9.69,19.38-17.61,32.28-21.66C1102.25,119.73,1117.58,120.12,1132.89,124.8Z"/><path class="cls-4" d="M774.42,122.88l-14,8.82c-5.12,0-10.3-.53-15.34.08a55.93,55.93,0,0,0-39.17,22.38c-12.81,16.86-15.74,36.12-11.73,56.36,4.93,24.93,18.61,44.2,40.28,57.55a70.14,70.14,0,0,0,33.38,10.57l21,10.45a82.82,82.82,0,0,1-24,1.23,84.64,84.64,0,0,1-29.68-8.81,95,95,0,0,1-32.31-26.58c-12.91-16.59-20.55-35.21-21.5-56.37-.75-16.63,2.62-32.24,11.41-46.52l3.63-5.87,0,0,.54-.53,0,0,.54-.53,0,0,.54-.79C708.7,132.3,721.81,124,737.94,121A78.48,78.48,0,0,1,774.42,122.88Z"/><path class="cls-6" d="M434.79,300.57c-3.13-1.43-3.77-4.29-3.91-7.25-.48-10.53,4.85-18.15,14.91-21.54a6.18,6.18,0,0,0,.83-.45c-.45-.51-.85-1-1.27-1.45-2.85-3.1-4.68-6.61-4.7-11a2.82,2.82,0,0,0-1.34-2.19A9.45,9.45,0,0,1,433.62,244a10.8,10.8,0,0,1,14-4.94,3.55,3.55,0,0,1,1.33.67c2.78,3.43,6,1.86,9.21.91,3.85.47,7.69,1.05,11.55,1.34a4.68,4.68,0,0,0,2.94-1.23c5.74-4.85,15.17-2.4,17.14,4.53a9.11,9.11,0,0,1-5.39,11.05,3,3,0,0,0-2.13,3.12c-.05,4.69-2.48,8.33-5.82,11.76,1.36.62,2.53,1.14,3.69,1.69a20.82,20.82,0,0,1,12,20.92c-.28,2.91-1.34,5.5-4.15,7l-.28-.24c-.38-.64-.67-1.74-1.14-1.83-2.11-.36-4.27-.42-6.41-.62-.82-.08-2.24-.05-2.35-.4a7.2,7.2,0,0,1-.18-3.54c.17-.81,1.1-1.44,1.54-2.23a5.52,5.52,0,0,0,1-2.62,43.87,43.87,0,0,0-1-7.59c-.29-1.21-.2-3.68-2.42-2.92-2.06.7-.16,2.38-.11,3.62.11,2.7,1.31,6.13.1,7.93-1.95,2.89-2.1,5.54-1.69,8.56a30.12,30.12,0,0,0-3.89,2c-2.64,1.88-5.21,3.89-5.31,7.59l-.17.17a7,7,0,0,0-8.29,0l-.17-.17c-.22-.84-.19-1.93-.72-2.48-2.15-2.24-4.52-4.27-6.7-6.47-.64-.66-1.49-1.77-1.33-2.44.58-2.31-.33-4-1.55-5.75a4.91,4.91,0,0,1-1.07-2.85c.24-2.7.87-5.37,1.2-8.07.07-.55-.39-1.6-.77-1.69-.54-.12-1.69.33-1.79.73-1.12,4.53-3.67,9.13.27,13.58a4.63,4.63,0,0,1,.87,1.78c.62,2-.25,3.18-2.35,3.22a35.49,35.49,0,0,0-4.73.07c-1.51.22-3.54,0-3.7,2.41Zm38-33.31c-.15-3.09-1.6-4.57-3.69-5.21-5.32-1.64-10.69-1.88-15.87.53-3.39,1.58-4,5-1.48,7.74,4.71,5.27,14.35,5.43,19.14.21A14.69,14.69,0,0,0,472.84,267.26Zm-35.72-19.4a33.52,33.52,0,0,0,3.32,3.88,2.33,2.33,0,0,0,2.14-.43c1.42-1.47,2.56-3.21,3.95-4.72,1.1-1.2.9-2.39-.38-2.75-1.64-.46-3.72-.83-5.15-.2S438.55,246.21,437.12,247.86ZM475.84,245c1.56,2,3.19,3.86,4.53,5.92,1,1.53,1.78,1.28,3,.36,1.66-1.29,1.69-3,1.31-4.73a4.4,4.4,0,0,0-3.87-3.4C478.84,242.8,477,243,475.84,245Zm-22.56,15.09,1.14,0c.62-1,1.66-1.87,1.79-2.88.19-1.62-1.11-2.23-2.63-2.18s-2.74.9-2.46,2.4C451.31,258.38,452.52,259.19,453.28,260.08Zm15.33-.05,1.17,0c.73-.92,1.92-1.77,2.08-2.78a2,2,0,0,0-2.54-2.23c-1,.24-2.35,1.3-2.42,2.09S468,259.07,468.61,260Z"/><path class="cls-7" d="M950,215.22H907.35c-3,0-3.24-.27-3.23-3.33,0-2.58,0-5.16.07-7.75,0-3.1.32-3.42,3.45-3.41l69.4.07c5.41,0,10.82.05,16.23,0,.89,0,2.32-.38,2.52-.94a3.78,3.78,0,0,0-.65-2.84c-2.31-3.48-2.21-6.4.46-8.64,1.39-1.17,2.86-1.44,4.28-.18,6,5.3,12,10.57,17.8,16,2.49,2.32,2.35,5.56-.19,7.93-5.6,5.22-11.31,10.31-17,15.43a3.51,3.51,0,0,1-5,.18,5.36,5.36,0,0,1-1.56-6.5c.36-.73,1.06-1.31,1.37-2s.91-2,.59-2.66-1.59-.88-2.48-1.16a4.93,4.93,0,0,0-1.49,0H950Z"/><path class="cls-8" d="M1146.67,290.19l-19.58-10c-4.22-3.48-8.6-6.79-12.62-10.48-7.77-7.15-13.69-15.77-18.87-24.92-.85-1.85-1.67-3.72-2.58-5.54-.79-1.57-1.69-3.08-2.54-4.62a7.42,7.42,0,0,0-.06-1.89c-1.09-3.69-2.24-7.35-3.37-11-.82-5.82-2.1-11.62-2.35-17.47a80.59,80.59,0,0,1,7.21-37.81,5.63,5.63,0,0,0,.16-1.72c1.41-2.11,2.66-4.34,4.26-6.3,4.14-5.1,8.44-10.09,12.68-15.12a12,12,0,0,1-1,2.17,75.55,75.55,0,0,0-14.52,39.24c-2.23,27.06,6.26,50.64,23.48,71.23,13.55,16.2,30.63,26.92,51.36,31.46a73.09,73.09,0,0,0,39.31-1.92,31.39,31.39,0,0,1,3.36-.74,63.5,63.5,0,0,1-26.68,9.46,78.19,78.19,0,0,1-33-2.68c-.47-.14-1-.19-1.45-.29Z"/><path class="cls-9" d="M696.33,146.17,692.7,152c-8.79,14.28-12.16,29.89-11.41,46.52,1,21.16,8.59,39.78,21.5,56.37a95,95,0,0,0,32.31,26.58,84.64,84.64,0,0,0,29.68,8.81,82.82,82.82,0,0,0,24-1.23l3.19,1a69.13,69.13,0,0,1-33.45,6.28c-42.9-2.13-78.59-38.11-84.73-80.64-3-20.94.31-40.62,12.36-58.35,2.55-3.75,5.82-7,8.79-10.49A4.53,4.53,0,0,1,696.33,146.17Z"/><path class="cls-10" d="M1146.67,290.19l3.2,1a56.9,56.9,0,0,1-24.11,6.44c-38.93,1.49-66.24-17.1-84.72-50.13a87.61,87.61,0,0,1-10.9-47.83c1-19.49,7.57-36.7,21.5-50.72a12.26,12.26,0,0,1,1.92-1.31c-1.47,2.39-3,4.76-4.39,7.17a74.84,74.84,0,0,0-10.12,30.47,92.39,92.39,0,0,0,5,42.62,103.69,103.69,0,0,0,19.05,32.19A96.47,96.47,0,0,0,1096,284.7a82.84,82.84,0,0,0,26.52,7.11A77.77,77.77,0,0,0,1145,290.7,13.82,13.82,0,0,0,1146.67,290.19Z"/><path class="cls-11" d="M792,290.12l-3.19-1-21-10.45c-2.85-2.23-5.75-4.42-8.56-6.72-6.5-5.35-11.75-11.83-16.81-18.5q-2.46-4.08-4.94-8.15l-4.24-8.45q-2.43-7-4.85-14.09l-.24-1.08c-.21-.89-.43-1.77-.62-2.66-3.22-15.21-3-30.29,1.75-45.19.92-2.9,2-5.76,3-8.64l0,.07.57-1.22c.69-1.13,1.41-2.23,2.06-3.38a65.86,65.86,0,0,1,14.4-18.23,29.19,29.19,0,0,1-1.7,3.23,72.51,72.51,0,0,0-12.75,32.62,109.41,109.41,0,0,0-1,15.13c.24,16.29,4.86,31.39,12.86,45.53a98.56,98.56,0,0,0,19.49,24.48c13.71,12.51,29.52,20.69,48.06,23.42a73.38,73.38,0,0,0,35.52-3.32,9,9,0,0,1,1.95-.26,61.3,61.3,0,0,1-23.29,8.95,77.46,77.46,0,0,1-34.78-1.68C793.15,290.35,792.57,290.25,792,290.12Z"/><path class="cls-3" d="M412.87,191.11l-45,0c1.34-4.28,2.57-8.59,4-12.83,4.5-13.09,9.84-25.77,18.81-36.56l10.25.43c2,4,4.32,7.89,5.95,12C411.52,166,412.69,178.5,412.87,191.11Z"/><path class="cls-12" d="M342.61,91.07c4.83,1.14,10.24,2.41,15.65,3.7,3.72.88,7.4,2,11.15,2.66a13,13,0,0,1,9.31,6.48c5.83,10.16,11.51,20.41,17.12,30.69.56,1,.3,2.51.42,3.77-1.26.12-2.59.56-3.77.3q-13.75-3-27.44-6.29c-5.39-1.29-9-5-11.49-9.69-4.6-8.75-8.83-17.69-13.19-26.57a9.82,9.82,0,0,1-.72-2.12C339.16,91.86,339.86,91,342.61,91.07Z"/><path class="cls-12" d="M432,144.83l-16.52-2.44c-4.27-.63-8.56-1.16-12.81-1.94a14.62,14.62,0,0,1-3.6-1.76c.63-1.18,1-2.7,1.93-3.5q13.23-11,26.66-21.77a13.39,13.39,0,0,1,10.95-2.94c9,1.45,18.08,2.65,27.11,4,1,.16,2.68.86,2.78,1.51a4.28,4.28,0,0,1-1.28,3.23c-5,4.76-10.1,9.4-15.22,14-2.84,2.56-5.67,5.14-8.69,7.48A19.41,19.41,0,0,1,432,144.83Z"/><path class="cls-13" d="M412.87,191.11c-.18-12.61-1.35-25.09-6-37-1.63-4.15-3.95-8-5.95-12a43.48,43.48,0,0,1,21.77,8.51c13.2,9.52,20,22.6,21,38.76a5.58,5.58,0,0,1,0,1,2.86,2.86,0,0,1-.24.65l-2.07.15-28,0A.9.9,0,0,1,412.87,191.11Z"/><path class="cls-14" d="M390.67,141.69c-9,10.79-14.31,23.47-18.81,36.56-1.46,4.24-2.69,8.55-4,12.83l-.45,0H344.81v-5c1.05-19.53,16.89-38.11,36.78-43C384.56,142.39,387.64,142.16,390.67,141.69Z"/><path class="cls-13" d="M1473.94,306.75c.89-3.95,1.74-7.9,2.69-11.83.35-1.45,1.36-1.85,2.85-1.63,6.17.93,11.78,2.89,15.85,8,.29.37.8.89,1.14.84,2.87-.4,5.85.92,8.53-1.9,4.21-4.41,10-6.06,15.88-7.14.53-.1,1.43.6,1.8,1.16,2.54,3.88,3.32,8.27,3.55,12.81-.7,3.05-1.43,6.1-2.1,9.16-.42,1.9-1.63,2.19-3.31,1.89-6.26-1.13-12.43-2.41-16.88-7.59a2.68,2.68,0,0,0-1.72-.53,12.89,12.89,0,0,0-10.14,3.56c-3.93,3.53-9.26,4.28-14.45,4.55a2.55,2.55,0,0,1-1.91-1.56C1475,313.29,1474.51,310,1473.94,306.75Z"/><path class="cls-15" d="M979.64,254.6c0,7.74,0,15.49,0,23.23,0,1.83-.57,2.51-2.42,2.5q-19.6-.07-39.2,0c-1.87,0-2.43-.7-2.42-2.51q.08-23.24,0-46.47c0-2.15.81-2.68,2.81-2.67q19.21.09,38.44,0c2.28,0,2.83.84,2.8,2.94C979.59,239.27,979.64,246.93,979.64,254.6ZM976,277V232.13H939.22V277Z"/><path class="cls-16" d="M958.8,151.19v-3.9c9-1,19.15,9.2,19.83,19.68.82,12.5-8.29,23.56-19.76,23.81v-4c9.59-2.37,15.57-8.22,15.23-18.54C973.78,158.7,967.87,153.41,958.8,151.19Z"/><path class="cls-6" d="M488,300.75c.06.37,0,.85.19,1.09,5.17,6.05,4.89,12.13-1.09,17.09A13,13,0,0,1,472.83,321a9.41,9.41,0,0,1-5.73-7.63,34.58,34.58,0,0,0-1.42-4.69l.17-.17c.92-.38,2.29-.5,2.69-1.19,3.25-5.61,8.25-7.24,14.33-6.78,1.6.13,3.23,0,4.85,0Zm-9.83,18.3c4.68,0,9-3.83,9.08-8.14.06-3.14-2.92-5.64-6.41-5.93-4.38-.36-9.24,3.76-9.09,7.94A6.22,6.22,0,0,0,478.17,319.05Z"/><path class="cls-6" d="M431.25,311.57c-.67-4.31,1.12-7.66,4.09-10.55h0a18,18,0,0,0,2.21-.13c6.89-1.23,12.72.17,16.84,6.38.47.72,1.87.82,2.84,1.21l.17.17a13.32,13.32,0,0,0-1.24,3.44c-.58,8.2-8.08,11.32-14.64,9.63A13.38,13.38,0,0,1,431.25,311.57ZM442.4,305c-3.68,0-6.54,2.57-6.59,5.95-.05,4.05,4.32,8,8.87,8.06,3.75,0,6.6-2.51,6.63-5.91C451.34,308.67,447.37,305.06,442.4,305Z"/><path class="cls-17" d="M967.69,175.45,966,178.3c-3.67-2.22-7.28-4.36-10.83-6.58a2.2,2.2,0,0,1-.9-1.56c-.07-4,0-7.95,0-12.15h3.45c0,3.33-.1,6.56.06,9.77a3.65,3.65,0,0,0,1.42,2.44C961.9,172.06,964.78,173.69,967.69,175.45Z"/><path class="cls-17" d="M954.12,147c.75,4.05.75,4-2.73,5.24a20.92,20.92,0,0,0-2.5,1c-3.52,1.74-3.52,1.75-6.25-1.43A19.44,19.44,0,0,1,954.12,147Z"/><path class="cls-17" d="M942.53,186.11l2.94-2.79,8.87,3.83v4A21.15,21.15,0,0,1,942.53,186.11Z"/><path class="cls-16" d="M938.72,166.6H934c1.68-4.14,3.21-7.9,4.95-12.15l3.32,3.93Z"/><path class="cls-16" d="M942.4,180.12l-3,2.77c-3-3.36-4.14-7.24-4.75-11.55h4.07C939.93,174.2,941.13,177.07,942.4,180.12Z"/><path class="cls-2" d="M413.33,191.22l28,0a.51.51,0,0,1,.07.3q-13.18,0-26.38,0A9.85,9.85,0,0,1,413.33,191.22Z"/><path class="cls-2" d="M344.81,186.11v5h22.57a17.71,17.71,0,0,1-2.39.37c-6.05,0-12.1,0-18.15,0a10.76,10.76,0,0,1-2.51-.59Z"/><path class="cls-10" d="M1054.07,147.18l-.53.52Z"/><path class="cls-8" d="M1211,284.75l.78-.54Z"/><path class="cls-10" d="M1054.58,146.68l-.54.53Z"/><path class="cls-9" d="M697.86,144.43l-.54.79Z"/><path class="cls-10" d="M1054.6,146.23a2.67,2.67,0,0,1,.14.36s-.13.08-.2.12Z"/><path class="cls-9" d="M696.85,145.67l-.54.53Z"/><path class="cls-9" d="M697.35,145.18l-.54.53Z"/><path class="cls-11" d="M851.73,283.25l.77-.53Z"/><path class="cls-18" d="M1489.38,261.56l-4.54,2.05-10.5.28-4.3-1.47a23.64,23.64,0,0,1-9.32-10.08c-1-2.05-2.13-4.09-4.72-4.82-1.19-.34-1.45-4.17-.44-5.2,3.7-3.8,7.22-7.83,11.25-11.24,8.28-7,21.08-5.28,27.61,3.44,2.91,3.88,7.37,5.51,11.84,4a7.18,7.18,0,0,0,3-2.79,19.13,19.13,0,0,1,14.87-8.8c7.11-.57,12.69,2.24,17.29,7.52,2.23,2.55,4.7,4.91,7.13,7.28,1.72,1.67,1.19,4.92-.78,6.26a12.47,12.47,0,0,0-3.47,3.76c-2.25,3.72-4.39,7.48-8.35,9.69-1.15.64-2.33,1.23-3.5,1.84l-7,1.15c-5.73-.48-11.06-2.24-14.47-7-2.35-3.3-3.79-7.25-5.52-11-.66-1.42-1.18-2.71-3.07-2.74a3,3,0,0,0-3.16,2.58A26.7,26.7,0,0,1,1489.38,261.56Zm-26.9-16.17c-.28,8.18,6.44,16,16.24,16.05a16.07,16.07,0,0,0,16.67-16c.13-8.85-7.39-16.17-16.44-16.21A16.28,16.28,0,0,0,1462.48,245.39Zm47,.1c-.52,7.77,6.4,16,16.26,15.95,9.59-.07,16.26-6.54,16.6-16,.31-8.67-7.68-16.24-16.55-16.13C1515.42,229.41,1508.69,238.28,1509.44,245.49Z"/><path class="cls-6" d="M435.34,301l-.55-.45.06-.05.48.5Z"/><path class="cls-19" d="M472.84,267.26a14.69,14.69,0,0,1-1.9,3.27c-4.79,5.22-14.43,5.06-19.14-.21-2.48-2.76-1.91-6.16,1.48-7.74,5.18-2.41,10.55-2.17,15.87-.53C471.24,262.69,472.69,264.17,472.84,267.26Zm-11-5.82c-2.84,0-4.05.72-4,2.23s2.35,4.17,3.71,4.14,3.71-2.83,3.56-4.29C464.91,261.32,463.13,261.49,461.85,261.44Zm-5.8,7.35c1.13,2.41,3.23,3.11,5.51,3.16a5.89,5.89,0,0,0,5.57-2.84c-2,.32-3.79,1.36-5.61,1.35S457.87,269.39,456.05,268.79Z"/><path class="cls-20" d="M435.33,301l-.48-.5c.16-2.43,2.19-2.19,3.7-2.41a35.49,35.49,0,0,1,4.73-.07c2.1,0,3-1.2,2.35-3.22a4.63,4.63,0,0,0-.87-1.78c-3.94-4.45-1.39-9.05-.27-13.58.1-.4,1.25-.85,1.79-.73.38.09.84,1.14.77,1.69-.33,2.7-1,5.37-1.2,8.07a4.91,4.91,0,0,0,1.07,2.85c1.22,1.76,2.13,3.44,1.55,5.75-.16.67.69,1.78,1.33,2.44,2.18,2.2,4.55,4.23,6.7,6.47.53.55.5,1.64.72,2.48-1-.39-2.37-.49-2.84-1.21-4.12-6.21-9.95-7.61-16.84-6.38A18,18,0,0,1,435.33,301Z"/><path class="cls-20" d="M487.72,300.51c-1.62,0-3.25.14-4.85,0-6.08-.46-11.08,1.17-14.33,6.78-.4.69-1.77.81-2.69,1.19.1-3.7,2.67-5.71,5.31-7.59a30.12,30.12,0,0,1,3.89-2c-.41-3-.26-5.67,1.69-8.56,1.21-1.8,0-5.23-.1-7.93-.05-1.24-1.95-2.92.11-3.62,2.22-.76,2.13,1.71,2.42,2.92a43.87,43.87,0,0,1,1,7.59,5.52,5.52,0,0,1-1,2.62c-.44.79-1.37,1.42-1.54,2.23a7.2,7.2,0,0,0,.18,3.54c.11.35,1.53.32,2.35.4,2.14.2,4.3.26,6.41.62C487.05,298.77,487.34,299.87,487.72,300.51Z"/><path class="cls-20" d="M437.12,247.86c1.43-1.65,2.38-3.55,3.88-4.22s3.51-.26,5.15.2c1.28.36,1.48,1.55.38,2.75-1.39,1.51-2.53,3.25-3.95,4.72a2.33,2.33,0,0,1-2.14.43A33.52,33.52,0,0,1,437.12,247.86Z"/><path class="cls-20" d="M475.84,245c1.15-2,3-2.19,5-1.85a4.4,4.4,0,0,1,3.87,3.4c.38,1.72.35,3.44-1.31,4.73-1.2.92-2,1.17-3-.36C479,248.85,477.4,247,475.84,245Z"/><path class="cls-16" d="M453.28,260.08c-.76-.89-2-1.7-2.16-2.7-.28-1.5.9-2.35,2.46-2.4s2.82.56,2.63,2.18c-.13,1-1.17,1.92-1.79,2.88Z"/><path class="cls-16" d="M468.61,260c-.63-1-1.8-2-1.71-2.88s1.45-1.85,2.42-2.09a2,2,0,0,1,2.54,2.23c-.16,1-1.35,1.86-2.08,2.78Z"/><path class="cls-21" d="M1087.05,221.71l-8.58,4.42c-1.09.57-2.16,1.18-3.47,1.89l-5.51-10c3.93-2.21,7.71-4.42,11.58-6.46,1.88-1,2.54-2.1,2.12-4.36-1.85-10-2.26-20,1.25-29.78a36.17,36.17,0,0,1,7.63-12.72,5.63,5.63,0,0,1-.16,1.72,80.59,80.59,0,0,0-7.21,37.81C1085,210.09,1086.23,215.89,1087.05,221.71Z"/><path class="cls-21" d="M1095.6,244.79l-8,4.51a5.51,5.51,0,0,1-.76.21l-5.48-9.86,9.08-5c.85,1.54,1.75,3.05,2.54,4.62C1093.93,241.07,1094.75,242.94,1095.6,244.79Z"/><path class="cls-16" d="M728.2,221.65c-.28-.05-.76,0-.81-.15-4.62-12.82-6.74-25.87-3.6-39.4a41.44,41.44,0,0,1,7-15.58,10,10,0,0,1,1.53-1.36c-1,2.88-2.07,5.74-3,8.64-4.75,14.9-5,30-1.75,45.19C727.77,219.88,728,220.76,728.2,221.65Z"/><path class="cls-15" d="M742.47,253.42l-7.84,10.7c-1.1-3.37-2.14-6.21-2.91-9.14a3.8,3.8,0,0,1,.72-2.68c1.61-2.41,3.38-4.7,5.09-7Q740,249.33,742.47,253.42Z"/><path class="cls-15" d="M733.29,236.82l-5.59,7.31c-1-3.51-2-6.5-2.56-9.58a5,5,0,0,1,1.22-3.64,7.62,7.62,0,0,0,1.75-7.16c-.07-.3.21-.68.33-1Q730.85,229.78,733.29,236.82Z"/><path class="cls-16" d="M732.28,165.23l.58-1.22C732.66,164.42,732.47,164.83,732.28,165.23Z"/><path class="cls-19" d="M478.17,319.05a6.22,6.22,0,0,1-6.42-6.13c-.15-4.18,4.71-8.3,9.09-7.94,3.49.29,6.47,2.79,6.41,5.93C487.17,315.22,482.85,319.09,478.17,319.05Z"/><path class="cls-19" d="M442.4,305c5,0,8.94,3.63,8.91,8.1,0,3.4-2.88,5.94-6.63,5.91-4.55,0-8.92-4-8.87-8.06C435.86,307.61,438.72,305,442.4,305Z"/><path class="cls-22" d="M1489.38,261.56a26.7,26.7,0,0,0,9.87-15.32,3,3,0,0,1,3.16-2.58c1.89,0,2.41,1.32,3.07,2.74,1.73,3.72,3.17,7.67,5.52,11,3.41,4.8,8.74,6.56,14.47,7-.18.42-.36.84-.53,1.27a3.72,3.72,0,0,0-.19.34l.21,0-.08-.35c3.77-.4,5.46.1,5.95,2.44a6.09,6.09,0,0,1-.82,4.53,4.17,4.17,0,0,1-4,.84A28.68,28.68,0,0,1,1520,269c-1.59-1.43-2.73-3.39-4.39-4.72-5.45-4.38-11.18-3.28-15.47,3C1497.71,263.07,1494.05,261.3,1489.38,261.56Z"/><path class="cls-22" d="M1474.34,263.89l10.5-.28c-2,2.37-3.91,4.82-6,7.06a12.43,12.43,0,0,1-3.66,2.47c-1.77.85-3.71,1.29-5.19-.58a4.3,4.3,0,0,1-.28-5.33,3.75,3.75,0,0,1,5.17-1.44l.5.22-.11-.58Z"/><path class="cls-22" d="M1462.48,245.39A16.28,16.28,0,0,1,1479,229.27c9,0,16.57,7.36,16.44,16.21a16.07,16.07,0,0,1-16.67,16C1468.92,261.36,1462.2,253.57,1462.48,245.39Zm28.07.22a14.65,14.65,0,0,0-5.07-11.79,9.73,9.73,0,0,0-13.71.23,16.44,16.44,0,0,0-1.33,21.77,10.26,10.26,0,0,0,15,1.4A14.08,14.08,0,0,0,1490.55,245.61Z"/><path class="cls-22" d="M1509.44,245.49c-.75-7.21,6-16.08,16.31-16.21,8.87-.11,16.86,7.46,16.55,16.13-.34,9.49-7,16-16.6,16C1515.84,261.51,1508.92,253.26,1509.44,245.49Zm5,.81c.12.89.26,2.37.53,3.83a11.61,11.61,0,0,0,9.91,9.46,11.31,11.31,0,0,0,11.57-6.88,17.13,17.13,0,0,0-.72-15.58c-3.42-6.27-10.67-7.71-16.33-3.41C1515.39,236.75,1514.65,241.11,1514.41,246.3Z"/><path class="cls-18" d="M789.82,199.14c1.25-.57,2.1-.87,2.87-1.3,5.74-3.19,11.46-6.41,17.2-9.6,2.66-1.47,3.22-1.3,4.76,1.31.8,1.36,1.48,2.79,2.31,4.14,1.21,2,.8,3.3-1.27,4.43-6.48,3.55-12.91,7.21-19.36,10.84-3.5,2-3.54,2-1.82,5.49.92,1.86,2,3.65,3,5.44s2.53,2.26,4.57,1.08c6.55-3.78,13.18-7.43,19.78-11.11,2.71-1.51,3.19-1.38,4.7,1.27.82,1.45,1.52,3,2.4,4.38,1.21,1.94.66,3.14-1.27,4.19-5.54,3-11,6.14-16.54,9.23-4,2.24-4,2.56-.26,5.1,7.27,4.88,15,7.92,24,6,9.44-2,15.15-8.15,18.11-17.11,1.07-3.22,1.22-3.26,4.34-1.79,2.11,1,4.23,1.94,6.38,2.83,1.45.6,2.11,1.5,1.69,3.1-2.07,8-5.59,15.16-12.25,20.35-12.93,10.06-26.6,8.86-40.2,1.88-4.89-2.5-9.19-6.25-13.53-9.7-2.11-1.68-3.72-2.26-6.16-.65-3.4,2.22-7.06,4-10.86,6.17l-5.55-10c3.2-1.81,6.27-3.56,9.35-5.29s3.08-1.76,1.23-4.91a57,57,0,0,1-3.09-5.7c-.93-2.08-2-2.53-4.06-1.31-3.17,1.93-6.46,3.68-9.83,5.58-1.86-3.36-3.63-6.54-5.54-10,3.74-2.11,7.32-4.32,11.08-6.17,2.46-1.21,3-2.73,2.52-5.36-2-10.2-2.06-20.35,1.76-30.24,2.91-7.54,7.71-13.82,14.56-17.88a30.45,30.45,0,0,1,19-4c3.2.35,6.36,1.18,9.53,1.82,1.88.38,2.62,1.44,2.22,3.44-.45,2.19-.66,4.44-1,6.67-.47,3.64-.48,3.45-4,2.91a36,36,0,0,0-10.12-.57c-11.24,1.52-19.32,10.48-20.66,22.44-.35,3.14-.4,6.31-.51,9.46A20.42,20.42,0,0,0,789.82,199.14Z"/><path class="cls-21" d="M1146.7,218.12c18.21-24.84,36.19-49.39,54.49-74.36a82.92,82.92,0,0,1,2.77,8.77,5.64,5.64,0,0,1-1.2,3.79q-18.55,25.55-37.25,51-11.71,16-23.45,32c-.68.93-1.39,1.83-2.22,2.94-.77-2-1.43-3.76-2.09-5.5-1.17-3.1-1.09-5.92,1.29-8.59,2.09-2.34,1.36-5.15.56-7.83-1.29-4.3-3-8.52-3.83-12.9-2.74-13.74-2.28-27.21,5.06-39.67,8-13.56,22.66-18.67,37.2-13.16,1.07.41,2.1.92,3.45,1.52-1.52,2.07-2.76,4-4.28,5.71a3.09,3.09,0,0,1-2.59.76c-13.12-3.46-25.78,3.08-30.83,18.75-3.89,12.06-2.64,23.81,2.15,35.34C1146.08,217.08,1146.32,217.42,1146.7,218.12Z"/><path class="cls-21" d="M1208.06,163.86c1,3.27,2.11,6,2.76,8.92a4.54,4.54,0,0,1-1,3.18c-2.64,3.57-2.56,7.27-1.41,11.37,1.84,6.55,4,13.12,4.72,19.82,1.39,13.39-1.11,26.09-10.09,36.74s-24.84,12.88-36.6,6.14c.16-.26.34-.51.48-.78,2.26-4.4,5.08-6.08,10.61-5,10.12,2,19.84-4.31,24.67-14.74,5.71-12.34,5-24.86.6-37.4-.44-1.25-1-2.47-1.61-4.12-18.23,24.88-36.29,49.54-54.58,74.49-1.09-3.26-2.23-6.19-3-9.23-.21-.89.51-2.21,1.15-3.08q21.33-29.23,42.75-58.4L1206,166.6C1206.53,165.82,1207.14,165.06,1208.06,163.86Z"/><path class="cls-17" d="M461.85,261.44c1.28.05,3.06-.12,3.29,2.08.15,1.46-2.28,4.25-3.56,4.29s-3.63-2.5-3.71-4.14S459,261.42,461.85,261.44Z"/><path class="cls-17" d="M456.05,268.79c1.82.6,3.64,1.66,5.47,1.67s3.65-1,5.61-1.35a5.89,5.89,0,0,1-5.57,2.84C459.28,271.9,457.18,271.2,456.05,268.79Z"/><path class="cls-17" d="M972.29,237.85v2.67H943c0-.79-.09-1.65-.15-2.67Z"/><path class="cls-17" d="M972.29,250.85v2.68H943c0-.8-.09-1.66-.15-2.68Z"/><path class="cls-17" d="M972.33,244.45V247H943l-.13-2.53Z"/><path class="cls-17" d="M956.45,265.73a41.44,41.44,0,0,1,4-4.26c.62-.5,1.85-.24,2.81-.33,0,1,.32,2.35-.19,3a63.92,63.92,0,0,1-5.16,5.39,2.2,2.2,0,0,1-3.49,0,11.85,11.85,0,0,1-2.2-2.35,9,9,0,0,1-.46-2.9,24.89,24.89,0,0,1,3.12.12C955.33,264.48,955.67,265,956.45,265.73Z"/></svg>