<svg id="Layer_1" data-name="Layer 1" xmlns="http://www.w3.org/2000/svg" viewBox="0 0 1920 400"><defs><style>.cls-1{fill:#231f20;stroke:#231f20;stroke-miterlimit:10;stroke-width:2px;}.cls-2{fill:#37b04a;}.cls-3{fill:#fff;}</style></defs><path class="cls-1" d="M765.29,174.34h11.33a2.41,2.41,0,0,1,2.13,1.3l13.14,26.09a2.51,2.51,0,0,0,3.39,1l.06,0a2.71,2.71,0,0,0,.93-1l13.06-26a2.41,2.41,0,0,1,2.19-1.3h11.17a2.25,2.25,0,0,1,2.36,2.13h0a2.61,2.61,0,0,1-.16,1.07l-23.06,41.49a2.08,2.08,0,0,0-.27,1.09v21.34a2.35,2.35,0,0,1-2.42,2.26H789a2.34,2.34,0,0,1-2.42-2.26V220.22a2.42,2.42,0,0,0-.28-1.09l-23.17-41.45a2.29,2.29,0,0,1,1-3.06A2.13,2.13,0,0,1,765.29,174.34Z"/><path class="cls-1" d="M833.71,174c0-4.58,3.84-8.15,9.19-8.15s9.17,3.57,9.17,8.15-4,8.15-9.17,8.15S833.71,178.56,833.71,174Zm4,14.76h10.1a2.33,2.33,0,0,1,2.42,2.17v50.55a2.35,2.35,0,0,1-2.4,2.26H837.71a2.34,2.34,0,0,1-2.42-2.26h0V190.92a2.32,2.32,0,0,1,2.44-2.17Z"/><path class="cls-1" d="M890.79,244.65c-17.18,0-29.67-11.13-29.67-28.42s12.16-28.43,29.67-28.43c17.1,0,29.1,10.86,29.1,27.24a25.49,25.49,0,0,1-.15,3.26,2.39,2.39,0,0,1-2.43,2H879.12a2.26,2.26,0,0,0-2.4,2.13v0a2,2,0,0,0,0,.6c1.71,6.43,7.13,10,13.71,10,5.74,0,9.16-2.4,11.19-5.55a2.42,2.42,0,0,1,2.13-1.08H915a2.26,2.26,0,0,1,2.4,2.11h0a2.63,2.63,0,0,1-.17,1C913.05,238.23,903.83,244.65,890.79,244.65ZM879.43,211h22.25a2.32,2.32,0,0,0,2.4-2.2,2.35,2.35,0,0,0-.06-.65c-1.53-5.59-7-9-13.66-9-6.14,0-11.19,3.16-13.23,8.84a2.31,2.31,0,0,0,1.43,2.91,2.11,2.11,0,0,0,.87.12Z"/><path class="cls-1" d="M933.2,170.22h10.1a2.33,2.33,0,0,1,2.41,2.24h0v69a2.33,2.33,0,0,1-2.39,2.25H933.2a2.34,2.34,0,0,1-2.43-2.25h0v-69a2.32,2.32,0,0,1,2.42-2.25Z"/><path class="cls-1" d="M983.68,187.8a26.71,26.71,0,0,1,15.38,4.81,2.43,2.43,0,0,0,3.41-.42l0,0a2.69,2.69,0,0,0,.5-1.24V172.47a2.3,2.3,0,0,1,2.36-2.25h10.36a2.34,2.34,0,0,1,2.42,2.23v69a2.35,2.35,0,0,1-2.41,2.25h-10.32a2.32,2.32,0,0,1-2.41-2.23v0h0a2.46,2.46,0,0,0-2.64-2.27h0a2.34,2.34,0,0,0-1.32.53,24.72,24.72,0,0,1-15.47,4.88c-15,0-27-11.42-27-28.62S968.51,187.8,983.68,187.8ZM987.41,200c-8,0-15.57,5.57-15.57,16s7.57,16.41,15.57,16.41c8.23,0,15.69-5.78,15.69-16.21S995.64,200,987.41,200Z"/><path class="cls-1" d="M1064.89,243.76h-29.73a2.33,2.33,0,0,1-2.42-2.24h0V176.64a2.34,2.34,0,0,1,2.39-2.3h28.31c15.58,0,24.22,7.6,24.22,17.9a15.36,15.36,0,0,1-7.68,13.7,2.16,2.16,0,0,0,.1,3.87,17.09,17.09,0,0,1,9.33,15.13C1089.39,236,1080.33,243.76,1064.89,243.76Zm-3.54-58.15H1050.1a2.34,2.34,0,0,0-2.42,2.26v12.89a2.34,2.34,0,0,0,2.42,2.25h11.21c7,0,11.1-3,11.1-8.68s-4-8.72-11.1-8.72Zm1.06,28.1H1050.1a2.33,2.33,0,0,0-2.42,2.23h0v14.18a2.33,2.33,0,0,0,2.39,2.26h12.65c7.26,0,11.53-3.25,11.53-9.15s-4.59-9.53-11.88-9.53Z"/><path class="cls-1" d="M1103.75,170.22h10.14a2.34,2.34,0,0,1,2.42,2.23v69a2.35,2.35,0,0,1-2.41,2.25h-10.15a2.33,2.33,0,0,1-2.42-2.24h0v-69a2.32,2.32,0,0,1,2.4-2.25Z"/><path class="cls-1" d="M1157.22,244.65c-17.07,0-30-11.13-30-28.42s13.33-28.43,30.4-28.43,30.39,11,30.39,28.43S1174.37,244.65,1157.22,244.65Zm0-12.12c7.89,0,15.46-5.37,15.46-16.27S1165.32,200,1157.43,200s-15,5.27-15,16.28S1149.22,232.53,1157.22,232.53Z"/><path class="cls-1" d="M1217.55,229.78l-8.11,12.87a2.48,2.48,0,0,1-2.13,1.08H1197.2a2.27,2.27,0,0,1-2.36-2.16,2.2,2.2,0,0,1,.36-1.32l16-22.91a2.15,2.15,0,0,0,0-2.47l-16.15-22.7a2.27,2.27,0,0,1,.76-3.1,2.12,2.12,0,0,1,1.26-.32h11a2.45,2.45,0,0,1,2,1l9.22,13a2.51,2.51,0,0,0,3.51.5l.06,0a2.71,2.71,0,0,0,.52-.55l8.2-12.87a2.44,2.44,0,0,1,2.14-1.08h10.17a2.21,2.21,0,0,1,2.37,2v0a2.34,2.34,0,0,1-.36,1.43l-16,22.73a2.15,2.15,0,0,0,0,2.49l16.25,22.91a2.28,2.28,0,0,1-.61,3.13,2.19,2.19,0,0,1-1.4.38H1233a2.49,2.49,0,0,1-2-1l-9.3-13.08a2.53,2.53,0,0,0-3.53-.55l0,0A2.27,2.27,0,0,0,1217.55,229.78Z"/><path class="cls-2" d="M708.43,249.91H692.69c-7.27-.09-13-5.25-13.11-12.31q-.3-14.61,0-29.3c.15-6.65,5.93-11.86,12.73-12,3.32,0,6.63,0,10-.07,2.13,0,2.72-1,1.53-2.71a8.37,8.37,0,0,0-3.12-2.54c-6-2.78-11.94-5.4-17.83-8.21a25.64,25.64,0,0,1-5.16-3.38,8.9,8.9,0,0,1-3.32-6.51c-.34-6.26-.68-12.52-.91-18.79-.12-3.91,1.32-4.87,5-3.34,6.73,2.84,13.45,5.71,20.11,8.68a42.42,42.42,0,0,1,8,4.34c4,3,5.55,7.33,5.71,12.16q.3,8.67.53,17.44c.08,2.67.19,2.83,2.89,2.85h9a12.74,12.74,0,0,1,12.6,12.32q.18,14.4,0,28.81c-.1,7-5.74,12.34-13,12.47h-16Zm-10.38-26.57c0-3.45-2.41-6.51-5.24-6.38s-5.07,2.94-5,6.29,2.24,6.08,5,6.15S698,226.61,698.05,223.34Zm10.5.31a8,8,0,0,0,.2,1.61,4.91,4.91,0,0,0,5.74,3.92h.08a4.91,4.91,0,0,0,1.86-.81c3.2-2.17,3-8.51-.3-10.55a4.4,4.4,0,0,0-5.18.08c-1.94,1.24-2.42,3.16-2.4,5.71Z"/><path class="cls-2" d="M743.38,165.55c0,2.33.08,4.69,0,7a9.36,9.36,0,0,1-5.49,8.6c-6,3-11.87,6.12-17.8,9.18a12,12,0,0,1-1.67.78c-1.84.64-2.9,0-2.85-1.93.11-3.7.36-7.39.64-11.08.19-2.32.46-4.65.84-7a6.7,6.7,0,0,1,3.67-5.18c6.26-3.25,12.49-6.59,18.76-9.76,2.66-1.36,3.84-.59,3.89,2.4v7Z"/><path class="cls-3" d="M698.05,223.34c0,3.32-2.53,6.14-5.34,6.06s-4.93-2.83-5-6.15,2.28-6.23,5-6.29S698.1,219.84,698.05,223.34Z"/><path class="cls-3" d="M708.55,223.6c0-2.55.46-4.46,2.4-5.76a4.4,4.4,0,0,1,5.18-.08c3.26,2,3.44,8.34.3,10.55a4.88,4.88,0,0,1-6.81-1.12l-.07-.1a4.74,4.74,0,0,1-.8-1.88A8,8,0,0,1,708.55,223.6Z"/></svg>