<svg id="Layer_1" data-name="Layer 1" xmlns="http://www.w3.org/2000/svg" viewBox="0 0 1920 400"><defs><style>.cls-1{fill:#808184;opacity:0.2;}.cls-2{fill:#37b34a;}.cls-3,.cls-4{fill:#fff;}.cls-3{stroke:#fff;stroke-miterlimit:10;stroke-width:10px;}</style></defs><ellipse class="cls-1" cx="810.28" cy="318.47" rx="107.72" ry="40.53"/><ellipse class="cls-1" cx="1077.08" cy="313.58" rx="140.33" ry="55.42"/><rect class="cls-2" x="992.2" y="166.98" width="166.5" height="158.15" rx="34.82"/><path class="cls-2" d="M1087.58,172.51c0,1.81-.63,4.57-2,5.25-5.35,2.71-21.58-5.79-21.33-11.34.39-8.73-4.35-13.13-12.62-16.69-17-7.29-33.65-15.27-50.26-23.3-12.6-6.09-22.66-15.06-24-28.28-2-20.14-2.3-40.44-2.64-60.68-.1-6.09,4.78-8.92,10.84-6.28,23.55,10.21,47.11,20.43,70.41,31.1,18.62,8.51,28.68,22.5,29.79,41.48.75,12.91,1.36,25.82,1.84,35.19C1087.67,152.52,1087.76,162.51,1087.58,172.51Z"/><path class="cls-2" d="M1176.1,74.25H1176c0,7.3.25,14.62-.06,21.91-.42,9.77-4.12,18.72-12.31,23.4-19.68,11.24-39.94,21.44-60.09,31.78-4.14,2.13-7.67.54-7.31-4.81,1.2-18.38,2.15-36.8,4.51-55,.64-5,4.7-11.08,9-13.55,19.35-11.16,39.28-21.28,59.14-31.5,4.27-2.2,7.23-.36,7.27,4.93C1176.13,59,1176.1,66.63,1176.1,74.25Z"/><path class="cls-3" d="M1095.17,244.77c0,7-3.79,12.39-9,12.5s-9.32-5.25-9.44-12.3c-.11-6.8,4.1-12.66,9.16-12.72S1095.13,237.66,1095.17,244.77Z"/><path class="cls-3" d="M1035.39,245c-.09,7.1-4.11,12.35-9.42,12.29-5-.06-9.07-5.68-9.05-12.53s4.24-12.57,9.33-12.55S1035.47,238.11,1035.39,245Z"/><path class="cls-4" d="M809.3,330.64q39.93,0,79.88,0c5.4,0,6.37-.84,6.71-5.68.21-3-.06-6,.45-8.9,2.14-12.29,2-24.74,3.33-37.09.48-4.6,1-9.21,1.55-13.81.21-1.84.54-3.67.68-5.51.5-7,1-14,1.4-21.08.15-2.39,1.1-3.58,3.91-4,4.78-.68,5.49-1.52,5.58-5.73.13-5.76.18-11.52-.06-17.27a8.55,8.55,0,0,0-2-5c-8.27-9.33-16.88-18.41-25.06-27.8-2.87-3.29-6.23-4.36-10.48-4.31-5.85.07-11.75-.43-17.54.13-8.78.84-14.91-2-21-8C820.9,151,804.2,136.15,787.86,121c-2.57-2.37-5.19-4.68-7.69-7.1-1.71-1.65-3.16-1.9-5-.13-5.35,5-10.85,9.86-16.23,14.84a3,3,0,0,0-.13,4.53c1.28,1.43,2.72,2.75,4.14,4.06,9.23,8.57,18.52,17.09,27.71,25.7,4.51,4.22,8.78,8.68,13.29,12.9,5.77,5.41,11.68,10.7,17.53,16a.77.77,0,0,1,.26.48c0,.34,0,.79-.15,1a1.12,1.12,0,0,1-1,.06c-1.64-1.36-3.27-2.74-4.84-4.19q-28.56-26.47-57.1-53a11.5,11.5,0,0,0-2.65-2.2c-.75-.36-2.28-.47-2.71,0a4.45,4.45,0,0,0-1,2.91c0,.59.78,1.25,1.32,1.79,4.52,4.49,8.94,9.06,13.61,13.41,12.75,11.89,25.6,23.68,38.41,35.52,1.42,1.31,2.86,2.62,4.19,4,.27.28.09.92.12,1.4-.38,0-.86.16-1.14,0a11.61,11.61,0,0,1-2.44-1.58c-4.44-4-8.86-8.09-13.22-12.21q-19-17.91-38-35.88a22.51,22.51,0,0,0-3.43-3.13,13.91,13.91,0,0,0-3.73-1,16.77,16.77,0,0,0-.62,4.1c.07.77,1,1.55,1.73,2.2,11.47,10.7,23,21.35,34.44,32.08,4.8,4.49,9.41,9.15,14.07,13.77.33.32.34.92.5,1.39-.53-.1-1.19,0-1.56-.32a39,39,0,0,1-3.09-2.66q-14.52-13.42-29-26.86c-.71-.66-1.4-1.34-2.1-2-5.29-5.07-10.54-10.18-15.89-15.2-1.82-1.7-3.91-1.84-5.37-.7s-1,3,.87,4.89c.14.14.29.26.44.39,2.63,2.27,5.35,4.47,7.87,6.85,5.32,5,10.56,10.17,15.77,15.31a3.66,3.66,0,0,1,.63,1.93,1.73,1.73,0,0,1-1,.43c-6.81-.07-13.62-.24-20.43-.24-4,0-7.79.44-10.68,3.86-5.68,6.73-11.23,13.67-17.82,19.58-7,6.25-9.81,13.16-8.71,21.87a65.43,65.43,0,0,1,0,9.9c-.08,3.2,1.46,4.84,5,4.91,2.49.05,3.45,1.43,3.62,3.62.3,3.88.88,7.74,1.11,11.63.58,9.43,1,18.88,1.51,28.32,0,.37,0,.75.08,1.11a336,336,0,0,1,3.51,44.32c0,.56,0,1.12.06,1.67.4,4.22,1.41,5.11,6,5.26,1,0,2,0,3,0Z"/><path d="M809.3,330.64H731.84c-1,0-2,0-3,0-4.55-.15-5.56-1-6-5.26-.06-.55-.05-1.11-.06-1.67a336,336,0,0,0-3.51-44.32c0-.36-.06-.74-.08-1.11-.49-9.44-.93-18.89-1.51-28.32-.23-3.89-.81-7.75-1.11-11.63-.17-2.19-1.13-3.57-3.62-3.62-3.55-.07-5.09-1.71-5-4.91a65.43,65.43,0,0,0,0-9.9c-1.1-8.71,1.74-15.62,8.71-21.87,6.59-5.91,12.14-12.85,17.82-19.58,2.89-3.42,6.63-3.87,10.68-3.86,6.81,0,13.62.17,20.43.24a1.73,1.73,0,0,0,1-.43,3.66,3.66,0,0,0-.63-1.93c-5.21-5.14-10.45-10.27-15.77-15.31-2.52-2.38-5.24-4.58-7.87-6.85-.15-.13-.3-.25-.44-.39C740,148,739.67,146.08,741,145s3.55-1,5.37.7c5.35,5,10.6,10.13,15.89,15.2.7.67,1.39,1.35,2.1,2q14.49,13.42,29,26.86a39,39,0,0,0,3.09,2.66c.37.28,1,.22,1.56.32-.16-.47-.17-1.07-.5-1.39-4.66-4.62-9.27-9.28-14.07-13.77-11.44-10.73-23-21.38-34.44-32.08-.7-.65-1.66-1.43-1.73-2.2a16.77,16.77,0,0,1,.62-4.1,13.91,13.91,0,0,1,3.73,1,22.51,22.51,0,0,1,3.43,3.13q19,17.94,38,35.88c4.36,4.12,8.78,8.17,13.22,12.21a11.61,11.61,0,0,0,2.44,1.58c.28.15.76,0,1.14,0,0-.48.15-1.12-.12-1.4-1.33-1.39-2.77-2.7-4.19-4-12.81-11.84-25.66-23.63-38.41-35.52-4.67-4.35-9.09-8.92-13.61-13.41-.54-.54-1.33-1.2-1.32-1.79a4.45,4.45,0,0,1,1-2.91c.43-.43,2-.32,2.71,0a11.5,11.5,0,0,1,2.65,2.2q28.56,26.49,57.1,53c1.57,1.45,3.2,2.83,4.84,4.19a1.12,1.12,0,0,0,1-.06c.2-.21.16-.66.15-1a.77.77,0,0,0-.26-.48c-5.85-5.34-11.76-10.63-17.53-16-4.51-4.22-8.78-8.68-13.29-12.9-9.19-8.61-18.48-17.13-27.71-25.7-1.42-1.31-2.86-2.63-4.14-4.06a3,3,0,0,1,.13-4.53c5.38-5,10.88-9.84,16.23-14.84,1.89-1.77,3.34-1.52,5,.13,2.5,2.42,5.12,4.73,7.69,7.1,16.34,15.12,33,29.93,48.84,45.51,6.09,6,12.22,8.87,21,8,5.79-.56,11.69-.06,17.54-.13,4.25-.05,7.61,1,10.48,4.31,8.18,9.39,16.79,18.47,25.06,27.8a8.55,8.55,0,0,1,2,5c.24,5.75.19,11.51.06,17.27-.09,4.21-.8,5.05-5.58,5.73-2.81.4-3.76,1.59-3.91,4-.41,7-.9,14.05-1.4,21.08-.14,1.84-.47,3.67-.68,5.51-.53,4.6-1.07,9.21-1.55,13.81-1.29,12.35-1.19,24.8-3.33,37.09-.51,2.92-.24,5.94-.45,8.9-.34,4.84-1.31,5.68-6.71,5.68Q849.23,330.66,809.3,330.64Zm.3-101.55h87.66c1.21,0,2.42,0,3.63,0,5.8-.07,5.82-.07,5.92-5.17,0-2,0-4.08,0-6.12-.07-6.23.88-6.39-6.91-6.38H721c-1.61,0-3.23,0-4.84.11-1.91.11-2.94,1.14-3,2.87-.07,2.79-.08,5.57-.07,8.35,0,6.31,0,6.33,7.07,6.33Zm.35-22.35q43,0,85.95,0a52,52,0,0,0,6.3-.76,57.48,57.48,0,0,0-3.6-5c-5.6-6.32-11.33-12.52-16.92-18.83-1.61-1.82-3.61-2.14-5.92-2.13-8.06,0-16.14,0-24.2,0a13.07,13.07,0,0,0-4.15.59c-2.74.95-4.39,0-6.29-1.86-11.32-10.83-22.79-21.52-34.22-32.25a21.29,21.29,0,0,0-2.68-2.25c-.37-.25-1.07-.09-1.61-.12,0,.49-.27,1.15,0,1.45a35.37,35.37,0,0,0,2.89,2.85l32.86,30.42c1.14,1.06,2.28,2.12,3.32,3.25s.51,2.45-.47,3.49c-1.15,1.24-2.5,1.08-3.71.1-1.37-1.1-2.67-2.26-3.94-3.46q-15.82-14.93-31.64-29.87a14.52,14.52,0,0,0-2.85-2,7.05,7.05,0,0,0-2-.47,5,5,0,0,0,.67,1.46c1.2,1.25,2.48,2.44,3.76,3.62q10,9.27,20.1,18.54c4.12,3.82,8.46,7.49,12.14,11.65,2.24,2.54,4.32,4.26,8,3.81a7.65,7.65,0,0,1,7.32,3.06c1.11,1.44,3,3.25,2.68,4.55-.49,2.25-3.32,1.42-5.2,1.42q-35.1.06-70.2,0a26.89,26.89,0,0,1-4.22-.19c-1.46-.23-2.21-1.18-1.16-2.38,2.7-3.07,4.55-7.32,10.21-6.63.22,0,1-1.2.84-1.36-3.56-4-6.86-8-13.7-7.58-8,.52-16.14.17-24.2.11a7,7,0,0,0-6.19,2.71c-2.49,3.13-5.31,6-8,9q-5.76,6.44-11.51,12.87a7,7,0,0,0-.75,1.44,9.42,9.42,0,0,0,2.11.68c1.4.11,2.82.05,4.24.05Zm-31.5,70.78c0,5.93-.1,11.87.06,17.81a17.25,17.25,0,0,0,1.23,6.49c2,4.56,5.41,7.84,11.35,7.51,3.58-.2,7.41.05,10.64-1.08,5.67-2,8-6.75,8.07-12.06.22-12.24.26-24.49,0-36.73-.16-7.87-5.77-12.56-14.29-12.66-1.41,0-2.82,0-4.23,0a11.79,11.79,0,0,0-8.61,3.4,12.74,12.74,0,0,0-4.21,10.06C778.44,266,778.46,271.77,778.45,277.52Zm-23.64,31.71c5.7,0,5.84,0,6.89-5.33,2.79-14.2,5.44-28.42,8.15-42.63.7-3.65,1.53-7.28,2.08-10.94.15-1-.13-2.5-.84-3-3.34-2.13-8.5,0-9.15,3.75-.44,2.56-.35,5.19-.7,7.76q-1.59,11.85-3.35,23.67c-.51,3.48-1.12,7-1.73,10.42,0,.31-.47.56-.72.83-.38-.3-1.05-.56-1.11-.91-1.31-7.86-2.62-15.73-3.79-23.62-.94-6.41-1.63-12.87-2.59-19.28a3.86,3.86,0,0,0-1.8-2.61c-4.48-2.12-7.84,0-7.63,4.56a14.77,14.77,0,0,0,.2,2.22c1.39,7.1,2.85,14.18,4.22,21.28,1,5.28,1.89,10.59,2.94,15.87.93,4.72,1.81,9.46,3.12,14.09C750.1,309.27,750.35,309.2,754.81,309.23Zm96.47-31.38h0v3.34c0,8-.06,16,.06,23.94,0,3.35.69,3.92,4.25,4.05,4,.15,8.06.07,12.09.05a66.93,66.93,0,0,0,7.23-.2c2.1-.24,2.86-2,2.73-4.86-.09-1.94-1.27-2.58-3.12-2.6-3,0-6,0-9.06-.1-3.57-.14-4.5-.81-4.61-3.82-.18-4.82-.19-9.66,0-14.48.12-3.27,1.33-3.84,5.18-3.66a41.11,41.11,0,0,0,7.1-.34c2.53-.32,2.2-2.27,2.19-3.92,0-1.85-1.12-2.68-3-2.7-2.42,0-4.84.08-7.25-.07-3.13-.2-4-.93-4.18-3.66-.17-3.71-.06-7.42,0-11.14,0-2,1.15-3.06,3.38-3.06,3,0,6.05.07,9.07-.07s3.82-1,3.73-3.25c-.14-3.25-.94-4.27-4-4.33-5.44-.12-10.89-.11-16.33,0-4.75.06-5.28.47-5.33,4.75C851.21,260.4,851.28,269.12,851.28,277.85Zm-17.1,5.26q0-10.29,0-20.58c0-7.09,0-7.09,7.57-8,2.92-.33,3.46-1,3.35-4.14-.1-2.8-.53-3.42-3.42-3.46-7.86-.11-15.71-.07-23.56,0-.92,0-2.53.41-2.63.86a11.85,11.85,0,0,0-.24,5.35c.17.68,2.23,1,3.45,1.41a4.34,4.34,0,0,0,1.2,0c5.24.31,5.71.69,5.75,5.68.06,8,0,15.95,0,23.92,0,7.05-.06,14.1,0,21.14,0,3.39.67,3.84,4.23,3.86s4.2-.48,4.24-3.84C834.24,298,834.18,290.53,834.18,283.11Z"/><path class="cls-4" d="M809.6,229.09H720.13c-7,0-7,0-7.07-6.33,0-2.78,0-5.56.07-8.35,0-1.73,1.08-2.76,3-2.87,1.61-.09,3.23-.11,4.84-.11H899.9c7.79,0,6.84.15,6.91,6.38,0,2,0,4.08,0,6.12-.1,5.1-.12,5.1-5.92,5.17-1.21,0-2.42,0-3.63,0Z"/><path class="cls-4" d="M810,206.74H724c-1.42,0-2.84.06-4.24-.05a9.42,9.42,0,0,1-2.11-.68,7,7,0,0,1,.75-1.44q5.73-6.45,11.51-12.87c2.68-3,5.5-5.92,8-9a7,7,0,0,1,6.19-2.71c8.06.06,16.16.41,24.2-.11,6.84-.44,10.14,3.56,13.7,7.58.14.16-.62,1.39-.84,1.36-5.66-.69-7.51,3.56-10.21,6.63-1.05,1.2-.3,2.15,1.16,2.38a26.89,26.89,0,0,0,4.22.19q35.1,0,70.2,0c1.88,0,4.71.83,5.2-1.42.28-1.3-1.57-3.11-2.68-4.55a7.65,7.65,0,0,0-7.32-3.06c-3.69.45-5.77-1.27-8-3.81-3.68-4.16-8-7.83-12.14-11.65q-10-9.3-20.1-18.54c-1.28-1.18-2.56-2.37-3.76-3.62a5,5,0,0,1-.67-1.46,7.05,7.05,0,0,1,2,.47,14.52,14.52,0,0,1,2.85,2q15.86,14.91,31.64,29.87c1.27,1.2,2.57,2.36,3.94,3.46,1.21,1,2.56,1.14,3.71-.1,1-1,1.63-2.23.47-3.49s-2.18-2.19-3.32-3.25l-32.86-30.42a35.37,35.37,0,0,1-2.89-2.85c-.25-.3,0-1,0-1.45.54,0,1.24-.13,1.61.12a21.29,21.29,0,0,1,2.68,2.25c11.43,10.73,22.9,21.42,34.22,32.25,1.9,1.82,3.55,2.81,6.29,1.86a13.07,13.07,0,0,1,4.15-.59c8.06-.06,16.14,0,24.2,0,2.31,0,4.31.31,5.92,2.13,5.59,6.31,11.32,12.51,16.92,18.83a57.48,57.48,0,0,1,3.6,5,52,52,0,0,1-6.3.76Q852.93,206.78,810,206.74Z"/><path d="M778.46,277.52c0-5.75,0-11.51,0-17.26a12.74,12.74,0,0,1,4.21-10.06,11.79,11.79,0,0,1,8.61-3.4c1.41,0,2.82,0,4.23,0,8.52.1,14.13,4.79,14.29,12.66.25,12.24.21,24.49,0,36.73-.09,5.31-2.4,10.07-8.07,12.06-3.23,1.13-7.06.88-10.64,1.08-5.94.33-9.31-2.95-11.35-7.51a17.25,17.25,0,0,1-1.23-6.49C778.35,289.39,778.45,283.45,778.46,277.52Zm21.89.47h-.05c0-6.29.12-12.58,0-18.87-.1-3.32-2.24-5.17-5.55-5.43a6,6,0,0,0-6.51,4.5,57.75,57.75,0,0,0-1.15,9.32q-.25,10.83,0,21.64a43.16,43.16,0,0,0,1.3,9.31,5.45,5.45,0,0,0,3,3.05c4.87,2,8.85-.26,9-5.21C800.49,290.2,800.35,284.09,800.35,278Z"/><path d="M754.81,309.23c-4.46,0-4.71,0-5.81-3.82-1.31-4.63-2.19-9.37-3.12-14.09-1-5.28-1.92-10.59-2.94-15.87-1.37-7.1-2.83-14.18-4.22-21.28a14.77,14.77,0,0,1-.2-2.22c-.21-4.59,3.15-6.68,7.63-4.56A3.86,3.86,0,0,1,748,250c1,6.41,1.65,12.87,2.59,19.28,1.17,7.89,2.48,15.76,3.79,23.62.06.35.73.61,1.11.91.25-.27.67-.52.72-.83.61-3.46,1.22-6.94,1.73-10.42q1.74-11.82,3.35-23.67c.35-2.57.26-5.2.7-7.76.65-3.75,5.81-5.88,9.15-3.75.71.45,1,2,.84,3-.55,3.66-1.38,7.29-2.08,10.94-2.71,14.21-5.36,28.43-8.15,42.63C760.65,309.28,760.51,309.25,754.81,309.23Z"/><path d="M851.28,277.85c0-8.73-.07-17.45,0-26.17.05-4.28.58-4.69,5.33-4.75,5.44-.07,10.89-.08,16.33,0,3.07.06,3.87,1.08,4,4.33.09,2.26-.75,3.1-3.73,3.25s-6,.07-9.07.07c-2.23,0-3.36,1-3.38,3.06,0,3.72-.14,7.43,0,11.14.13,2.73,1,3.46,4.18,3.66,2.41.15,4.83,0,7.25.07,1.92,0,3,.85,3,2.7,0,1.65.34,3.6-2.19,3.92a41.11,41.11,0,0,1-7.1.34c-3.85-.18-5.06.39-5.18,3.66-.19,4.82-.18,9.66,0,14.48.11,3,1,3.68,4.61,3.82,3,.12,6,.06,9.06.1,1.85,0,3,.66,3.12,2.6.13,2.88-.63,4.62-2.73,4.86a66.93,66.93,0,0,1-7.23.2c-4,0-8.07.1-12.09-.05-3.56-.13-4.2-.7-4.25-4.05-.12-8-.05-16-.06-23.94v-3.34Z"/><path d="M834.18,283.11c0,7.42.06,14.84,0,22.26,0,3.36-.71,3.85-4.24,3.84s-4.19-.47-4.23-3.86c-.08-7,0-14.09,0-21.14,0-8,0-15.95,0-23.92,0-5-.51-5.37-5.75-5.68a4.34,4.34,0,0,1-1.2,0c-1.22-.41-3.28-.73-3.45-1.41a11.85,11.85,0,0,1,.24-5.35c.1-.45,1.71-.85,2.63-.86,7.85-.06,15.7-.1,23.56,0,2.89,0,3.32.66,3.42,3.46.11,3.14-.43,3.81-3.35,4.14-7.56.87-7.56.87-7.57,8Q834.17,272.82,834.18,283.11Z"/><path d="M800.35,278c0,6.1.14,12.21-.05,18.31-.15,4.95-4.13,7.24-9,5.21a5.45,5.45,0,0,1-3-3.05,43.16,43.16,0,0,1-1.3-9.31q-.27-10.81,0-21.64a57.75,57.75,0,0,1,1.15-9.32,6,6,0,0,1,6.51-4.5c3.31.26,5.45,2.11,5.55,5.43.17,6.29,0,12.58,0,18.87Z"/><path d="M778.74,185.31l-46.71-43a6.67,6.67,0,0,1,0-10l56.73-52.24a8.12,8.12,0,0,1,10.83,0l72.75,67a6.66,6.66,0,0,1,0,10l-30.68,28.26C824.28,201.31,796.11,201.31,778.74,185.31Z"/><path class="cls-4" d="M790.29,187.53l-52.18-48.06a3.51,3.51,0,0,1,0-5.26l53-48.85a4.29,4.29,0,0,1,5.71,0l69.57,64.07a3.51,3.51,0,0,1,0,5.25l-35.66,32.85A30.4,30.4,0,0,1,790.29,187.53Z"/><path class="cls-2" d="M805.89,159.39c-.8-4.12-1.57-8-2.33-12q-3.63-18.83-7.26-37.66c-.53-2.76.62-4.22,3.66-4.78q3.27-.61,6.56-1.1c2.59-.37,4.05.61,4.53,3,1.89,9.41,3.79,18.81,5.63,28.22q3.09,15.9,6.09,31.83a5.13,5.13,0,0,1-5.21,6.19c-8.59.25-17.17.33-25.76.46-2.16,0-4.32,0-6.48,0s-3.48-1.12-3.54-3.24q-.09-3.63.07-7.26a3.44,3.44,0,0,1,3.71-3.28c6.37-.13,12.75-.23,19.12-.35C805,159.44,805.31,159.41,805.89,159.39Z"/></svg>