<svg id="Layer_1" data-name="Layer 1" xmlns="http://www.w3.org/2000/svg" xmlns:xlink="http://www.w3.org/1999/xlink" viewBox="0 0 1920 400"><defs><style>.cls-1{fill:url(#linear-gradient);}.cls-2{fill:url(#linear-gradient-2);}.cls-3{fill:#38af4a;}.cls-4{font-size:57.91px;}.cls-10,.cls-4{font-family:DMSans-Medium, DM Sans;font-weight:500;}.cls-5{letter-spacing:-0.01em;}.cls-6{letter-spacing:-0.03em;}.cls-7{letter-spacing:-0.01em;}.cls-8{letter-spacing:-0.04em;}.cls-9{fill:none;stroke:#fff;stroke-miterlimit:10;stroke-width:5px;}.cls-10{font-size:60px;}.cls-11{letter-spacing:-0.01em;}</style><linearGradient id="linear-gradient" x1="41.82" y1="197.16" x2="1105.26" y2="197.16" gradientUnits="userSpaceOnUse"><stop offset="0" stop-color="#ed1c24"/><stop offset="1" stop-color="#fcdb21"/></linearGradient><linearGradient id="linear-gradient-2" x1="1105.26" y1="197.16" x2="1548.8" y2="197.16" gradientUnits="userSpaceOnUse"><stop offset="0" stop-color="#fcdb21"/><stop offset="0.39" stop-color="#fadb21"/><stop offset="0.53" stop-color="#f3d923"/><stop offset="0.64" stop-color="#e8d625"/><stop offset="0.72" stop-color="#d7d329"/><stop offset="0.79" stop-color="#c1ce2d"/><stop offset="0.85" stop-color="#a5c833"/><stop offset="0.9" stop-color="#85c03a"/><stop offset="0.95" stop-color="#61b841"/><stop offset="1" stop-color="#38af4a"/></linearGradient></defs><path class="cls-1" d="M1105.26,264.16H81.49c-21.91,0-39.67-10.79-39.67-24.1V154.27c0-13.31,17.77-24.1,39.67-24.1H1105.26Z"/><path class="cls-2" d="M1105.26,264.16v-134l443.54.3V263.85Z"/><path class="cls-3" d="M1548.8,263.85V130.47h224.12c21.91,0,39.68,10.79,39.68,24.1v85.18c0,13.31-17.76,24.1-39.67,24.1Z"/><text class="cls-4" transform="translate(27.68 319.07)">0</text><text class="cls-4" transform="translate(1052.47 319.1)">1.<tspan class="cls-5" x="31.33" y="0">2</tspan><tspan x="63.99" y="0">0</tspan></text><text class="cls-4" transform="translate(1498.32 319.28)">1<tspan class="cls-6" x="18.76" y="0">.</tspan><tspan class="cls-7" x="29.59" y="0">7</tspan><tspan x="59.93" y="0">0</tspan></text><text class="cls-4" transform="translate(1732.55 319.28)">2<tspan class="cls-8" x="33.12" y="0">.</tspan><tspan x="43.37" y="0">00+</tspan></text><line class="cls-9" x1="1105" y1="130" x2="1105" y2="264"/><line class="cls-9" x1="1549.5" y1="130" x2="1549.5" y2="264"/><text class="cls-10" transform="translate(57.27 112.23)"><tspan class="cls-11">B</tspan><tspan x="36.48" y="0">AD</tspan></text><text class="cls-10" transform="translate(1207.86 112.91)">MEDIUM</text><text class="cls-10" transform="translate(1603.78 112.77)">GOOD</text></svg>