<svg id="Layer_1" data-name="Layer 1" xmlns="http://www.w3.org/2000/svg" viewBox="0 0 1920 700"><defs><style>.cls-1{fill:gray;}.cls-2{fill:#47ace1;}.cls-3{fill:#38af4a;}.cls-4{fill:#fcee21;}</style></defs><path class="cls-1" d="M1661.9,79.65V140c0,20.31-.12,40.62,0,60.93.15,19.8-.68,39.65.64,60.6l180-22.39c10.64,51.71-13.47,129.35-80.77,172.39A180.32,180.32,0,0,1,1544.18,394c-61.74-55.4-79.76-145.8-38.38-222.11C1538.94,110.78,1608,74.51,1661.9,79.65Z"/><path class="cls-1" d="M1196.55,78.31v181C1247.12,292.81,1297.22,326,1347,359.54c-37.15,61.15-126.32,99.66-211.08,67.83a180.42,180.42,0,0,1-108.75-224.08c14.58-45.78,43.35-80.69,85.49-103.8C1138.23,85.44,1165.53,77.7,1196.55,78.31Z"/><path class="cls-1" d="M724,79.6V91.5c0,47.36.37,94.72-.19,142.07-.2,17,2.49,33.15,7.21,49.36,13.13,45.12,25.7,90.41,38.4,135.65,1.2,4.24,1.82,8.65,2.68,12.82-41.73,16.68-119.92,6.81-172-44.65-54.92-54.32-70.07-141.07-33.36-212C602.55,105.56,676.25,75,724,79.6Z"/><path class="cls-2" d="M259.52,79.79C296.7,74.32,365.83,99.54,404.3,155.6c41.89,61,43.17,147.72-4,210.79-37.85,50.63-103.79,76.46-140.79,70Z"/><path class="cls-3" d="M147.81,114.3c5.13,6.72,10.06,12.92,14.71,19.33,28.67,39.52,57.21,79.14,86,118.58a22.64,22.64,0,0,1,4.68,14.21q-.16,81.65-.1,163.29c0,2.79-.45,5.58-.68,8.28C184.2,440.36,108.18,392,83.2,312.36,58.41,233.33,92.68,152.4,147.81,114.3Z"/><path class="cls-2" d="M903.65,230.89,732.22,254.48c-2.89-8-3.59-162.77-1-175.79,5.28,0,11-.63,16.46.1,34,4.48,65.11,16.53,91.8,38.51,33.3,27.41,55.31,62.09,64.07,104.81C904.07,224.47,903.65,227,903.65,230.89Z"/><path class="cls-3" d="M904.69,236.34c13.31,62.31-27.08,146.18-80.43,172.23L731.17,260.23C790.13,251.87,847.17,244,904.69,236.34Z"/><path class="cls-2" d="M1355.75,170.69,1204.86,251.6C1201.92,244.73,1202,94,1202,79,1245,76,1326.11,108.63,1355.75,170.69Z"/><path class="cls-3" d="M1367.17,320.54l-159.32-61.85c-.11-.81-.21-1.63-.32-2.44l149.92-80.54C1382.06,205.27,1386.79,283.13,1367.17,320.54Z"/><path class="cls-2" d="M1781.65,121.28,1668.33,250.13V78.3C1711.34,78.94,1748,93.53,1781.65,121.28Z"/><path class="cls-4" d="M254.12,250.54,153.45,111.65C184.38,89.91,216.92,78.83,253.09,79,255.59,87.36,256.35,234,254.12,250.54Z"/><path class="cls-3" d="M1785.68,124.8c25.46,23,42.92,49.29,51.94,83-54.16,15.69-107.3,30-161.1,43.47C1711.75,208.05,1748.76,166.92,1785.68,124.8Z"/><path class="cls-4" d="M821,412.41a167.89,167.89,0,0,1-42.52,19.31c-15.38-50.55-28.41-101.19-42-151.9C765.21,323.16,792.83,367.09,821,412.41Z"/><path class="cls-4" d="M1228.66,271.8l137.49,53.52c-2.83,11.29-8.15,20.16-14,28.59-6.34-1.34-117.16-73-124.4-80.18C1227.65,273.6,1228.2,272.79,1228.66,271.8Z"/><path class="cls-4" d="M1677.47,254.33c42.54-11.81,118.08-29.62,162-41.81l4.74,21.21C1799,239.44,1722,251,1677.93,256.56,1677.78,255.81,1677.63,255.07,1677.47,254.33Z"/><path d="M209.81,57.43V47.85l-8.2-15.62H205L211.33,45l6.3-12.74H221l-8.17,15.62v9.58Z"/><path d="M229.11,57.86a8.77,8.77,0,0,1-4.54-1.17,8.28,8.28,0,0,1-3.11-3.26,10.11,10.11,0,0,1-1.13-4.93,10.37,10.37,0,0,1,1.11-4.91,8.09,8.09,0,0,1,3.12-3.28,9,9,0,0,1,4.62-1.17,8.33,8.33,0,0,1,4.48,1.17,7.94,7.94,0,0,1,2.9,3.08,8.67,8.67,0,0,1,1,4.1c0,.27,0,.53,0,.8s0,.56,0,.9H223.31a7.06,7.06,0,0,0,1,3.4,5.56,5.56,0,0,0,2.12,2,5.64,5.64,0,0,0,2.72.69,5.37,5.37,0,0,0,3.13-.87,4.93,4.93,0,0,0,1.84-2.34h3a7.86,7.86,0,0,1-8,5.76Zm0-16.16A6,6,0,0,0,225.28,43a5.31,5.31,0,0,0-1.93,3.84h11.23a5.1,5.1,0,0,0-1.65-3.78A5.55,5.55,0,0,0,229.11,41.7Z"/><path d="M247.51,57.86a8.14,8.14,0,0,1-3.71-.75,5.16,5.16,0,0,1-2.2-2,5.42,5.42,0,0,1-.72-2.74A4.86,4.86,0,0,1,243,48.14a9.73,9.73,0,0,1,5.69-1.47h4.82v-.22a4.81,4.81,0,0,0-1.22-3.55A4.49,4.49,0,0,0,249,41.7a5.21,5.21,0,0,0-3,.88,3.86,3.86,0,0,0-1.6,2.57h-3.1a5.71,5.71,0,0,1,1.32-3.27,7.28,7.28,0,0,1,2.82-2,9.46,9.46,0,0,1,3.6-.7,6.76,6.76,0,0,1,7.53,7.31v11h-2.7l-.18-3.2a7.25,7.25,0,0,1-2.22,2.57A6.46,6.46,0,0,1,247.51,57.86Zm.46-2.55a4.89,4.89,0,0,0,3-.9,5.71,5.71,0,0,0,1.89-2.34,7.18,7.18,0,0,0,.65-3v0h-4.57a5.93,5.93,0,0,0-3.76.91,2.89,2.89,0,0,0-1.1,2.29,2.74,2.74,0,0,0,1,2.25A4.44,4.44,0,0,0,248,55.31Z"/><path d="M261,57.43V39.57h2.74L264,43a6.43,6.43,0,0,1,2.52-2.8,7.79,7.79,0,0,1,4.18-1v3.17h-.83a7.52,7.52,0,0,0-2.92.56,4.4,4.4,0,0,0-2.12,1.89,7.17,7.17,0,0,0-.79,3.67v9Z"/><path d="M293.66,57.86a10,10,0,0,1-5.78-1.64,10.46,10.46,0,0,1-3.73-4.57,16.8,16.8,0,0,1-1.29-6.82A16.8,16.8,0,0,1,284.15,38a10.46,10.46,0,0,1,3.73-4.57,11,11,0,0,1,11.54,0A10.49,10.49,0,0,1,303.13,38a16.8,16.8,0,0,1,1.29,6.82,16.8,16.8,0,0,1-1.29,6.82,10.49,10.49,0,0,1-3.71,4.57A10,10,0,0,1,293.66,57.86Zm0-2.66A6.68,6.68,0,0,0,297.6,54a8.23,8.23,0,0,0,2.74-3.57,14.13,14.13,0,0,0,1-5.56,14,14,0,0,0-1-5.54,8.22,8.22,0,0,0-2.74-3.55,6.91,6.91,0,0,0-7.9,0A8.37,8.37,0,0,0,287,39.29a13.78,13.78,0,0,0-1,5.54,13.94,13.94,0,0,0,1,5.56A8.38,8.38,0,0,0,289.7,54,6.66,6.66,0,0,0,293.66,55.2Z"/><path d="M664.17,57.93a9.44,9.44,0,0,1-4.61-1,8.27,8.27,0,0,1-3-2.75,12.22,12.22,0,0,1-1.66-3.87,18.27,18.27,0,0,1-.52-4.37,21.25,21.25,0,0,1,1.15-7.33,11.17,11.17,0,0,1,3.33-4.93,8,8,0,0,1,5.28-1.78,8.29,8.29,0,0,1,4.06.93,7.36,7.36,0,0,1,2.69,2.5,8.6,8.6,0,0,1,1.24,3.48h-2.81a5.17,5.17,0,0,0-1.76-3.17,5.34,5.34,0,0,0-3.46-1.12,5.7,5.7,0,0,0-4.77,2.69c-1.28,1.78-2,4.57-2.07,8.37A7.82,7.82,0,0,1,660,42.61a8.1,8.1,0,0,1,4.56-1.24,8.5,8.5,0,0,1,4,1,8.33,8.33,0,0,1,3.08,2.82,7.67,7.67,0,0,1,1.18,4.27,8.51,8.51,0,0,1-4,7.24A8.65,8.65,0,0,1,664.17,57.93ZM664,55.27a6.27,6.27,0,0,0,3-.72,5.36,5.36,0,0,0,2.09-2,5.69,5.69,0,0,0,.75-2.94,5.24,5.24,0,0,0-1.67-4.08,6.44,6.44,0,0,0-7.22-.76,5.79,5.79,0,0,0-2.1,2.07,5.37,5.37,0,0,0-.78,2.81,5.45,5.45,0,0,0,.78,2.9,5.39,5.39,0,0,0,2.1,2A6.28,6.28,0,0,0,664,55.27Z"/><path d="M687.32,57.5V32.3h3.53l9.07,17.57,9-17.57h3.56V57.5h-3V37.7L701,53.9h-2.27l-8.43-16.17V57.5Z"/><path d="M725.77,57.93a9,9,0,0,1-4.54-1.15A8.4,8.4,0,0,1,718,53.52a10,10,0,0,1-1.16-5,9.91,9.91,0,0,1,1.18-5,8.43,8.43,0,0,1,3.23-3.26,9.56,9.56,0,0,1,9.09,0,8.38,8.38,0,0,1,3.18,3.26,10,10,0,0,1,1.17,5,9.91,9.91,0,0,1-1.19,5,8.41,8.41,0,0,1-3.22,3.26A9.05,9.05,0,0,1,725.77,57.93Zm0-2.59a5.61,5.61,0,0,0,5-3,7.69,7.69,0,0,0,.82-3.74,7.93,7.93,0,0,0-.8-3.74,5.5,5.5,0,0,0-2.15-2.27,5.6,5.6,0,0,0-2.84-.76,5.69,5.69,0,0,0-2.88.76,5.58,5.58,0,0,0-2.16,2.27,7.69,7.69,0,0,0-.83,3.74,7.69,7.69,0,0,0,.83,3.74,5.6,5.6,0,0,0,2.14,2.27A5.54,5.54,0,0,0,725.77,55.34Z"/><path d="M738.94,57.5V39.64h2.74l.18,3.21a6.52,6.52,0,0,1,2.48-2.67,7,7,0,0,1,3.68-1,6.73,6.73,0,0,1,5.05,1.93Q755,43.06,755,47.06V57.5h-3V47.38q0-5.58-4.61-5.58a5,5,0,0,0-3.83,1.68A6.8,6.8,0,0,0,742,48.25V57.5Z"/><path d="M766.59,57.5a5.78,5.78,0,0,1-3.85-1.19c-.94-.79-1.41-2.22-1.41-4.28V42.2h-3.09V39.64h3.09l.4-4.28h2.63v4.28h5.25V42.2h-5.25V52a3,3,0,0,0,.68,2.28,3.7,3.7,0,0,0,2.41.6h1.88V57.5Z"/><path d="M773.47,57.5V31.58h3V42.7a6.34,6.34,0,0,1,2.56-2.57,7.3,7.3,0,0,1,3.6-.92,6.57,6.57,0,0,1,5,1.93q1.88,1.92,1.88,5.92V57.5h-3V47.38q0-5.58-4.5-5.58a5.19,5.19,0,0,0-3.93,1.68,6.68,6.68,0,0,0-1.58,4.77V57.5Z"/><path d="M800.9,57.93a8.54,8.54,0,0,1-5.33-1.62,6.29,6.29,0,0,1-2.48-4.39h3.09a4.28,4.28,0,0,0,1.5,2.43,4.87,4.87,0,0,0,3.25,1,4.1,4.1,0,0,0,2.81-.81,2.5,2.5,0,0,0,.9-1.92,2.14,2.14,0,0,0-1.17-2.16,15.19,15.19,0,0,0-3.29-1,19.5,19.5,0,0,1-2.88-.83,6.47,6.47,0,0,1-2.41-1.53,3.56,3.56,0,0,1-1-2.61,4.85,4.85,0,0,1,1.75-3.84,7.06,7.06,0,0,1,4.73-1.49,7.36,7.36,0,0,1,4.67,1.42,5.68,5.68,0,0,1,2.1,4h-3A3.12,3.12,0,0,0,803,42.54a4.15,4.15,0,0,0-2.64-.77,4,4,0,0,0-2.5.68,2.18,2.18,0,0,0-.89,1.8,1.87,1.87,0,0,0,1.14,1.69A12,12,0,0,0,801.19,47a26.86,26.86,0,0,1,3.15.88,5.89,5.89,0,0,1,2.44,1.55,4.18,4.18,0,0,1,1,3,4.87,4.87,0,0,1-1.82,4A7.51,7.51,0,0,1,800.9,57.93Z"/><path d="M1165.5,57.5V47.92l-8.2-15.62h3.42L1167,45l6.3-12.74h3.38l-8.17,15.62V57.5Z"/><path d="M1184.8,57.93a8.75,8.75,0,0,1-4.54-1.17,8.34,8.34,0,0,1-3.11-3.26,10.11,10.11,0,0,1-1.13-4.93,10.37,10.37,0,0,1,1.11-4.91,8.09,8.09,0,0,1,3.12-3.28,9,9,0,0,1,4.62-1.17,8.33,8.33,0,0,1,4.48,1.17,7.94,7.94,0,0,1,2.9,3.08,8.67,8.67,0,0,1,1,4.1c0,.27,0,.53,0,.79s0,.57,0,.9H1179a7.06,7.06,0,0,0,1,3.41,5.59,5.59,0,0,0,4.84,2.71,5.37,5.37,0,0,0,3.13-.86,5,5,0,0,0,1.84-2.34h3a7.94,7.94,0,0,1-2.75,4.12A8,8,0,0,1,1184.8,57.93Zm0-16.16a6,6,0,0,0-3.83,1.31,5.29,5.29,0,0,0-1.93,3.83h11.23a5.13,5.13,0,0,0-1.65-3.78A5.59,5.59,0,0,0,1184.8,41.77Z"/><path d="M1203.19,57.93a8,8,0,0,1-3.7-.76,5.08,5.08,0,0,1-2.2-2,5.42,5.42,0,0,1-.72-2.74,4.85,4.85,0,0,1,2.09-4.21,9.73,9.73,0,0,1,5.69-1.48h4.82v-.21A4.81,4.81,0,0,0,1208,43a4.49,4.49,0,0,0-3.28-1.2,5.19,5.19,0,0,0-3,.88,3.84,3.84,0,0,0-1.6,2.57h-3.1a5.68,5.68,0,0,1,1.32-3.27,7.28,7.28,0,0,1,2.82-2,9.28,9.28,0,0,1,3.6-.7,6.76,6.76,0,0,1,7.52,7.31v11h-2.69l-.19-3.21a7.07,7.07,0,0,1-2.21,2.58A6.47,6.47,0,0,1,1203.19,57.93Zm.47-2.56a4.93,4.93,0,0,0,3-.9,5.65,5.65,0,0,0,1.89-2.34,7.13,7.13,0,0,0,.65-3v0h-4.57a5.93,5.93,0,0,0-3.76.92,2.85,2.85,0,0,0-1.1,2.29,2.79,2.79,0,0,0,1,2.25A4.49,4.49,0,0,0,1203.66,55.37Z"/><path d="M1216.73,57.5V39.64h2.74l.25,3.42a6.51,6.51,0,0,1,2.52-2.81,7.86,7.86,0,0,1,4.17-1v3.17h-.82a7.34,7.34,0,0,0-2.92.56,4.36,4.36,0,0,0-2.12,1.89,7.14,7.14,0,0,0-.8,3.67v9Z"/><path d="M1242,57.5V35.68l-4.07.9V34.49L1243,32.3h2V57.5Z"/><path d="M1621.92,57.5V47.92l-8.2-15.62h3.42l6.3,12.74,6.3-12.74h3.38L1625,47.92V57.5Z"/><path d="M1641.22,57.93a8.75,8.75,0,0,1-4.54-1.17,8.34,8.34,0,0,1-3.11-3.26,10.11,10.11,0,0,1-1.13-4.93,10.37,10.37,0,0,1,1.11-4.91,8,8,0,0,1,3.12-3.28,9,9,0,0,1,4.62-1.17,8.33,8.33,0,0,1,4.48,1.17,7.94,7.94,0,0,1,2.9,3.08,8.67,8.67,0,0,1,1,4.1c0,.27,0,.53,0,.79s0,.57,0,.9h-14.22a7.06,7.06,0,0,0,1,3.41,5.59,5.59,0,0,0,4.84,2.71,5.37,5.37,0,0,0,3.13-.86,5,5,0,0,0,1.84-2.34h3a7.94,7.94,0,0,1-2.75,4.12A8,8,0,0,1,1641.22,57.93Zm0-16.16a6,6,0,0,0-3.83,1.31,5.29,5.29,0,0,0-1.93,3.83h11.23a5.13,5.13,0,0,0-1.65-3.78A5.59,5.59,0,0,0,1641.22,41.77Z"/><path d="M1659.61,57.93a8,8,0,0,1-3.7-.76,5.08,5.08,0,0,1-2.2-2,5.42,5.42,0,0,1-.72-2.74,4.85,4.85,0,0,1,2.09-4.21,9.73,9.73,0,0,1,5.69-1.48h4.82v-.21a4.81,4.81,0,0,0-1.22-3.55,4.49,4.49,0,0,0-3.28-1.2,5.19,5.19,0,0,0-3,.88,3.84,3.84,0,0,0-1.6,2.57h-3.1a5.68,5.68,0,0,1,1.32-3.27,7.28,7.28,0,0,1,2.82-2,9.28,9.28,0,0,1,3.6-.7,6.76,6.76,0,0,1,7.52,7.31v11h-2.69l-.19-3.21a7.07,7.07,0,0,1-2.21,2.58A6.47,6.47,0,0,1,1659.61,57.93Zm.47-2.56a4.93,4.93,0,0,0,3-.9,5.65,5.65,0,0,0,1.89-2.34,7.13,7.13,0,0,0,.65-3v0H1661a5.93,5.93,0,0,0-3.76.92,2.85,2.85,0,0,0-1.1,2.29,2.79,2.79,0,0,0,1,2.25A4.47,4.47,0,0,0,1660.08,55.37Z"/><path d="M1673.15,57.5V39.64h2.74l.25,3.42a6.51,6.51,0,0,1,2.52-2.81,7.86,7.86,0,0,1,4.17-1v3.17H1682a7.34,7.34,0,0,0-2.92.56,4.36,4.36,0,0,0-2.12,1.89,7.14,7.14,0,0,0-.8,3.67v9Z"/><path d="M1704.51,57.93A10,10,0,0,1,1700,57a7.76,7.76,0,0,1-3-2.57,8.21,8.21,0,0,1-1.38-3.73h3a5.63,5.63,0,0,0,2,3.37,6.14,6.14,0,0,0,4,1.28,5.52,5.52,0,0,0,3.1-.85,5.61,5.61,0,0,0,2-2.28,7.34,7.34,0,0,0,.7-3.21,6.42,6.42,0,0,0-1.59-4.53,5.27,5.27,0,0,0-4.1-1.73,6.53,6.53,0,0,0-3.56.93,5.54,5.54,0,0,0-2.16,2.45h-2.88l2.16-13.82h13.21v2.63h-10.87l-1.48,7.66a6.46,6.46,0,0,1,2.39-1.72,8.46,8.46,0,0,1,3.51-.69,7.85,7.85,0,0,1,7.24,4.29,9.45,9.45,0,0,1,1,4.5,9.9,9.9,0,0,1-1,4.46,8.08,8.08,0,0,1-3,3.28A8.83,8.83,0,0,1,1704.51,57.93Z"/><circle class="cls-2" cx="429.5" cy="573.5" r="20.5"/><circle class="cls-3" cx="634.5" cy="573.5" r="20.5"/><path d="M468,586.91a10.83,10.83,0,0,1-4.82-1,7.49,7.49,0,0,1-3.17-2.81,7.79,7.79,0,0,1-1.12-4.17h3.17a5.53,5.53,0,0,0,.69,2.72,5.12,5.12,0,0,0,2,2,6.63,6.63,0,0,0,3.26.73,5.79,5.79,0,0,0,4-1.22,3.9,3.9,0,0,0,1.41-3.06,4.14,4.14,0,0,0-.65-2.43,4.83,4.83,0,0,0-1.75-1.49,14.07,14.07,0,0,0-2.52-1c-.95-.29-1.94-.61-3-1a10.6,10.6,0,0,1-4.32-2.51,5.47,5.47,0,0,1-1.4-3.9,6.43,6.43,0,0,1,.93-3.58,6.59,6.59,0,0,1,2.76-2.45,9.42,9.42,0,0,1,4.23-.88,9.18,9.18,0,0,1,4.19.9,6.75,6.75,0,0,1,2.77,2.48,6.88,6.88,0,0,1,1,3.6H472.5a4.38,4.38,0,0,0-.54-2.07,4.17,4.17,0,0,0-1.64-1.67,5.26,5.26,0,0,0-2.75-.65,5,5,0,0,0-3.37,1,3.68,3.68,0,0,0-1.31,3,3.24,3.24,0,0,0,.92,2.48,7,7,0,0,0,2.57,1.43l3.82,1.27a18.69,18.69,0,0,1,3.24,1.52,6.33,6.33,0,0,1,2.25,2.23,6.75,6.75,0,0,1,.81,3.49,6.58,6.58,0,0,1-.94,3.4,6.88,6.88,0,0,1-2.82,2.61A10,10,0,0,1,468,586.91Z"/><path d="M488.81,586.91a9.06,9.06,0,0,1-4.59-1.17,8.35,8.35,0,0,1-3.2-3.28,10.89,10.89,0,0,1,0-9.82,8.35,8.35,0,0,1,3.2-3.28,9.06,9.06,0,0,1,4.59-1.17,8.57,8.57,0,0,1,5.35,1.66,7.19,7.19,0,0,1,2.75,4.42h-3.1a4,4,0,0,0-1.76-2.57,5.89,5.89,0,0,0-3.28-.92,5.6,5.6,0,0,0-5,3,8.84,8.84,0,0,0,0,7.48,5.77,5.77,0,0,0,2.16,2.29,5.54,5.54,0,0,0,2.84.77,5.88,5.88,0,0,0,3.28-.91,4,4,0,0,0,1.76-2.61h3.1a7.13,7.13,0,0,1-2.74,4.39A8.5,8.5,0,0,1,488.81,586.91Z"/><path d="M501.12,586.48V568.62h2.74l.25,3.42a6.51,6.51,0,0,1,2.52-2.81,7.88,7.88,0,0,1,4.18-1v3.17H510a7.34,7.34,0,0,0-2.92.56,4.36,4.36,0,0,0-2.12,1.89,7.14,7.14,0,0,0-.79,3.67v9Z"/><path d="M516,564.66a2,2,0,0,1-1.49-.59,2.07,2.07,0,0,1-.59-1.5,2,2,0,0,1,.59-1.44,2.07,2.07,0,0,1,1.49-.57,2.09,2.09,0,0,1,1.48.57,1.9,1.9,0,0,1,.61,1.44,2,2,0,0,1-.61,1.5A2.07,2.07,0,0,1,516,564.66Zm-1.51,21.82V568.62h3v17.86Z"/><path d="M522.79,594.4V568.62h2.74l.29,3a8.4,8.4,0,0,1,2.46-2.34,7.41,7.41,0,0,1,4.09-1,8.68,8.68,0,0,1,4.64,1.22,8.44,8.44,0,0,1,3.08,3.35,10.41,10.41,0,0,1,1.1,4.83,10.23,10.23,0,0,1-1.1,4.8A8.16,8.16,0,0,1,537,585.7a8.83,8.83,0,0,1-4.67,1.21,8.25,8.25,0,0,1-3.9-.9,6.22,6.22,0,0,1-2.61-2.52V594.4ZM532,584.28a5.75,5.75,0,0,0,5.33-3.2,8.28,8.28,0,0,0,0-7.06,5.75,5.75,0,0,0-5.33-3.2,5.93,5.93,0,0,0-3.17.84,6,6,0,0,0-2.16,2.36,8.28,8.28,0,0,0,0,7.06,6,6,0,0,0,2.16,2.36A5.93,5.93,0,0,0,532,584.28Z"/><path d="M551.74,586.48a5.76,5.76,0,0,1-3.85-1.19c-.94-.79-1.41-2.22-1.41-4.28v-9.83h-3.09v-2.56h3.09l.4-4.28h2.63v4.28h5.25v2.56h-5.25V581a2.94,2.94,0,0,0,.68,2.28,3.7,3.7,0,0,0,2.41.6h1.87v2.59Z"/><path d="M566.64,586.91a10.42,10.42,0,0,1-4.36-.88,7.28,7.28,0,0,1-3.11-2.65,8.2,8.2,0,0,1-1.24-4.39H561a5.26,5.26,0,0,0,5.65,5.29,4.86,4.86,0,0,0,5.36-5,4.69,4.69,0,0,0-.84-2.88,5,5,0,0,0-2.27-1.65,8.72,8.72,0,0,0-3.11-.54H563.9v-2.56h1.88a5.9,5.9,0,0,0,3.83-1.12,4.16,4.16,0,0,0,.29-5.92,4.43,4.43,0,0,0-3.26-1.1,4.57,4.57,0,0,0-3.35,1.25,4.67,4.67,0,0,0-1.4,3.11h-3.06a7.48,7.48,0,0,1,1.1-3.64,6.75,6.75,0,0,1,2.72-2.46,9.81,9.81,0,0,1,8.08,0,6.08,6.08,0,0,1,2.48,2.3,6.19,6.19,0,0,1,.85,3.17,6.12,6.12,0,0,1-1,3.48,5.13,5.13,0,0,1-3.13,2.1,6.65,6.65,0,0,1,3.71,2.13,6.3,6.3,0,0,1,1.47,4.35,7.86,7.86,0,0,1-.95,3.84,7.1,7.1,0,0,1-2.83,2.79A9.45,9.45,0,0,1,566.64,586.91Z"/><path d="M666.68,586.78v-25.2h3v25.2Z"/><path d="M674.85,586.78V568.92h2.74l.18,3.21a6.52,6.52,0,0,1,2.48-2.67,7.1,7.1,0,0,1,3.68-1,6.77,6.77,0,0,1,5.05,1.93c1.26,1.28,1.89,3.26,1.89,5.92v10.44h-3V576.67c0-3.72-1.54-5.59-4.61-5.59a5,5,0,0,0-3.83,1.68,6.84,6.84,0,0,0-1.53,4.77v9.25Z"/><path d="M697.28,565a2,2,0,0,1-2.09-2.08,1.9,1.9,0,0,1,.6-1.44,2,2,0,0,1,1.49-.58,2.06,2.06,0,0,1,1.48.58,1.91,1.91,0,0,1,.61,1.44,2,2,0,0,1-.61,1.49A2,2,0,0,1,697.28,565Zm-1.51,21.82V568.92h3v17.86Z"/><path d="M711.1,586.78a5.79,5.79,0,0,1-3.85-1.19c-.93-.79-1.4-2.22-1.4-4.28v-9.83h-3.1v-2.56h3.1l.4-4.28h2.62v4.28h5.26v2.56h-5.26v9.83a3,3,0,0,0,.69,2.29,3.75,3.75,0,0,0,2.41.59h1.87v2.59Z"/><path d="M719.82,565a2,2,0,0,1-2.09-2.08,1.93,1.93,0,0,1,.59-1.44,2.19,2.19,0,0,1,3,0,1.87,1.87,0,0,1,.61,1.44,2,2,0,0,1-.61,1.49A2,2,0,0,1,719.82,565Zm-1.52,21.82V568.92h3v17.86Z"/><path d="M732.52,587.21a8.12,8.12,0,0,1-3.7-.75,5.16,5.16,0,0,1-2.2-2,5.41,5.41,0,0,1-.72-2.73,4.87,4.87,0,0,1,2.09-4.22,9.73,9.73,0,0,1,5.69-1.47h4.82v-.22a4.81,4.81,0,0,0-1.22-3.55,4.49,4.49,0,0,0-3.28-1.2,5.19,5.19,0,0,0-3,.88,3.86,3.86,0,0,0-1.6,2.57h-3.1a5.77,5.77,0,0,1,1.31-3.27,7.26,7.26,0,0,1,2.83-2,9.28,9.28,0,0,1,3.6-.71,6.76,6.76,0,0,1,7.52,7.31v11h-2.7l-.18-3.2a7.12,7.12,0,0,1-2.21,2.57A6.47,6.47,0,0,1,732.52,587.21Zm.47-2.55a4.93,4.93,0,0,0,3-.9,5.71,5.71,0,0,0,1.89-2.34,7.33,7.33,0,0,0,.65-3v0h-4.57a5.86,5.86,0,0,0-3.76.92,2.83,2.83,0,0,0-1.1,2.28,2.77,2.77,0,0,0,1,2.25A4.42,4.42,0,0,0,733,584.66Z"/><path d="M746.06,586.78V560.86h3v25.92Z"/><path d="M774.82,587.21a12,12,0,0,1-6.39-1.63,11.1,11.1,0,0,1-4.15-4.58,16.36,16.36,0,0,1,0-13.6,11.13,11.13,0,0,1,4.15-4.59,11.88,11.88,0,0,1,6.39-1.66,11.3,11.3,0,0,1,7,2.07,9.36,9.36,0,0,1,3.48,5.78H782a6.71,6.71,0,0,0-2.36-3.76,7.49,7.49,0,0,0-4.81-1.43,8.76,8.76,0,0,0-4.71,1.25,8.12,8.12,0,0,0-3.12,3.56,14.73,14.73,0,0,0,0,11.12,8.2,8.2,0,0,0,3.12,3.57,8.85,8.85,0,0,0,4.71,1.24,7.6,7.6,0,0,0,4.81-1.39,6.53,6.53,0,0,0,2.36-3.69h3.35a9.23,9.23,0,0,1-3.48,5.69A11.36,11.36,0,0,1,774.82,587.21Z"/><path d="M797.65,587.21a9,9,0,0,1-4.54-1.15,8.34,8.34,0,0,1-3.19-3.26,11,11,0,0,1,0-9.9,8.34,8.34,0,0,1,3.23-3.25,9,9,0,0,1,4.55-1.16,8.93,8.93,0,0,1,4.53,1.16,8.24,8.24,0,0,1,3.19,3.25,10.06,10.06,0,0,1,1.17,5,9.91,9.91,0,0,1-1.19,4.95,8.34,8.34,0,0,1-3.22,3.26A9.05,9.05,0,0,1,797.65,587.21Zm0-2.59a5.57,5.57,0,0,0,5-3,7.76,7.76,0,0,0,.82-3.75,8,8,0,0,0-.8-3.74,5.56,5.56,0,0,0-2.15-2.27,5.7,5.7,0,0,0-2.84-.76,5.79,5.79,0,0,0-2.88.76,5.64,5.64,0,0,0-2.16,2.27,8.86,8.86,0,0,0,0,7.49,5.51,5.51,0,0,0,5,3Z"/><path d="M810.82,586.78V568.92h2.74l.18,3.21a6.45,6.45,0,0,1,2.48-2.67,7.1,7.1,0,0,1,3.68-1,6.77,6.77,0,0,1,5.05,1.93c1.26,1.28,1.89,3.26,1.89,5.92v10.44h-3V576.67c0-3.72-1.54-5.59-4.61-5.59a5,5,0,0,0-3.83,1.68,6.84,6.84,0,0,0-1.53,4.77v9.25Z"/><path d="M838.47,586.78a5.78,5.78,0,0,1-3.85-1.19c-.94-.79-1.41-2.22-1.41-4.28v-9.83h-3.09v-2.56h3.09l.4-4.28h2.63v4.28h5.25v2.56h-5.25v9.83a3,3,0,0,0,.68,2.29,3.77,3.77,0,0,0,2.41.59h1.88v2.59Z"/><path d="M845.35,586.78V568.92h2.73l.25,3.43a6.52,6.52,0,0,1,2.52-2.81,7.79,7.79,0,0,1,4.18-1v3.17h-.83a7.47,7.47,0,0,0-2.91.56,4.42,4.42,0,0,0-2.13,1.89,7.17,7.17,0,0,0-.79,3.67v9Z"/><path d="M860.25,565a2,2,0,0,1-2.09-2.08,1.9,1.9,0,0,1,.6-1.44,2,2,0,0,1,1.49-.58,2.06,2.06,0,0,1,1.48.58,1.91,1.91,0,0,1,.61,1.44,2,2,0,0,1-.61,1.49A2,2,0,0,1,860.25,565Zm-1.51,21.82V568.92h3v17.86Z"/><path d="M876.56,587.21a8.26,8.26,0,0,1-3.91-.9,6.22,6.22,0,0,1-2.61-2.52l-.29,3H867V560.86h3v11a8.32,8.32,0,0,1,2.47-2.34,7.31,7.31,0,0,1,4.08-1,8.63,8.63,0,0,1,4.65,1.23,8.38,8.38,0,0,1,3.08,3.35,11.18,11.18,0,0,1,0,9.63,8.38,8.38,0,0,1-3.1,3.31A8.88,8.88,0,0,1,876.56,587.21Zm-.33-2.63a5.75,5.75,0,0,0,5.33-3.2,8.26,8.26,0,0,0,0-7A6,6,0,0,0,879.4,572a6,6,0,0,0-8.49,2.36,8.17,8.17,0,0,0,0,7,5.81,5.81,0,0,0,2.16,2.36A5.9,5.9,0,0,0,876.23,584.58Z"/><path d="M896.14,587.21a6.72,6.72,0,0,1-5-1.92q-1.87-1.93-1.87-5.92V568.92h3V579q0,5.58,4.58,5.58A5,5,0,0,0,900.7,583a6.84,6.84,0,0,0,1.53-4.77v-9.26h3v17.86h-2.74l-.21-3.2a6.22,6.22,0,0,1-2.47,2.66A7.06,7.06,0,0,1,896.14,587.21Z"/><path d="M917.27,586.78a5.79,5.79,0,0,1-3.85-1.19c-.93-.79-1.4-2.22-1.4-4.28v-9.83h-3.1v-2.56H912l.39-4.28H915v4.28h5.26v2.56H915v9.83a3,3,0,0,0,.69,2.29,3.75,3.75,0,0,0,2.41.59H920v2.59Z"/><path d="M931.78,587.21a8.92,8.92,0,0,1-4.53-1.15,8.27,8.27,0,0,1-3.19-3.26,11,11,0,0,1,0-9.9,8.32,8.32,0,0,1,3.22-3.25,9.48,9.48,0,0,1,9.09,0,8.38,8.38,0,0,1,3.19,3.25,10.17,10.17,0,0,1,1.17,5,9.91,9.91,0,0,1-1.19,4.95,8.37,8.37,0,0,1-3.23,3.26A9,9,0,0,1,931.78,587.21Zm0-2.59a5.78,5.78,0,0,0,2.88-.75,5.64,5.64,0,0,0,2.16-2.27,7.76,7.76,0,0,0,.83-3.75,7.87,7.87,0,0,0-.81-3.74,5.6,5.6,0,0,0-2.14-2.27,5.78,5.78,0,0,0-5.73,0,5.64,5.64,0,0,0-2.16,2.27,9,9,0,0,0,0,7.49,5.69,5.69,0,0,0,2.15,2.27A5.56,5.56,0,0,0,931.78,584.62Z"/><path d="M945,586.78V568.92h2.73l.26,3.43a6.4,6.4,0,0,1,2.52-2.81,7.75,7.75,0,0,1,4.17-1v3.17h-.83a7.47,7.47,0,0,0-2.91.56,4.42,4.42,0,0,0-2.13,1.89,7.27,7.27,0,0,0-.79,3.67v9Z"/><path d="M964.87,587.21a8.52,8.52,0,0,1-5.33-1.62,6.3,6.3,0,0,1-2.49-4.39h3.1a4.25,4.25,0,0,0,1.49,2.43,4.85,4.85,0,0,0,3.26,1,4.12,4.12,0,0,0,2.81-.81,2.51,2.51,0,0,0,.9-1.93,2.14,2.14,0,0,0-1.17-2.16,15.77,15.77,0,0,0-3.29-1,18.06,18.06,0,0,1-2.88-.83,6.51,6.51,0,0,1-2.42-1.53,3.6,3.6,0,0,1-1-2.61,4.79,4.79,0,0,1,1.75-3.83,7,7,0,0,1,4.73-1.5,7.32,7.32,0,0,1,4.66,1.43,5.65,5.65,0,0,1,2.11,4h-3a3.12,3.12,0,0,0-1.17-2.14,4.21,4.21,0,0,0-2.64-.77,4.07,4.07,0,0,0-2.51.68,2.17,2.17,0,0,0-.88,1.8,1.88,1.88,0,0,0,1.14,1.7,12.52,12.52,0,0,0,3.07,1,25.81,25.81,0,0,1,3.15.88,6,6,0,0,1,2.45,1.55,4.18,4.18,0,0,1,1,3,4.92,4.92,0,0,1-1.82,4A7.56,7.56,0,0,1,964.87,587.21Z"/><circle class="cls-4" cx="1026.5" cy="573.5" r="20.5"/><path d="M1056.7,586.78l9.29-25.2h3.2l9.25,25.2h-3.2l-2.31-6.48h-10.72l-2.34,6.48Zm6.4-8.93H1072l-4.46-12.45Z"/><path d="M1083.84,565a2,2,0,0,1-1.49-.59,2,2,0,0,1-.6-1.49,1.9,1.9,0,0,1,.6-1.44,2,2,0,0,1,1.49-.58,2.06,2.06,0,0,1,1.48.58,1.91,1.91,0,0,1,.61,1.44,2,2,0,0,1-2.09,2.08Zm-1.51,21.82V568.92h3v17.86Z"/><path d="M1090.61,586.78V568.92h2.73l.26,3.42a6.43,6.43,0,0,1,2.52-2.8,7.75,7.75,0,0,1,4.17-1v3.17h-.83a7.51,7.51,0,0,0-2.91.56,4.42,4.42,0,0,0-2.13,1.89,7.27,7.27,0,0,0-.79,3.67v9Z"/><path d="M1111.09,587.21a8.8,8.8,0,0,1-4.66-1.22,8.42,8.42,0,0,1-3.1-3.35,10.37,10.37,0,0,1-1.09-4.82,10.16,10.16,0,0,1,1.11-4.81,8.45,8.45,0,0,1,3.1-3.31,8.77,8.77,0,0,1,4.68-1.21,8.18,8.18,0,0,1,3.89.9,6.49,6.49,0,0,1,2.62,2.52v-11h3v25.92h-2.74l-.29-2.95a8.37,8.37,0,0,1-2.48,2.34A7.43,7.43,0,0,1,1111.09,587.21Zm.33-2.63a6,6,0,0,0,3.18-.84,5.73,5.73,0,0,0,2.16-2.36,8.38,8.38,0,0,0,0-7.06,5.71,5.71,0,0,0-2.16-2.35,6.32,6.32,0,0,0-6.33,0,5.71,5.71,0,0,0-2.16,2.35,8.38,8.38,0,0,0,0,7.06,5.73,5.73,0,0,0,2.16,2.36A5.94,5.94,0,0,0,1111.42,584.58Z"/><path d="M1125.6,586.78V568.92h2.74l.25,3.42a6.43,6.43,0,0,1,2.52-2.8,7.78,7.78,0,0,1,4.17-1v3.17h-.82a7.52,7.52,0,0,0-2.92.56,4.36,4.36,0,0,0-2.12,1.89,7.16,7.16,0,0,0-.8,3.67v9Z"/><path d="M1146.12,587.21a9,9,0,0,1-4.54-1.15,8.31,8.31,0,0,1-3.18-3.26,10,10,0,0,1-1.17-4.95,9.86,9.86,0,0,1,1.19-5,8.41,8.41,0,0,1,3.22-3.26,9.56,9.56,0,0,1,9.09,0,8.38,8.38,0,0,1,3.18,3.26,10.06,10.06,0,0,1,1.17,5,9.91,9.91,0,0,1-1.18,4.95,8.43,8.43,0,0,1-3.23,3.26A9,9,0,0,1,1146.12,587.21Zm0-2.59a5.69,5.69,0,0,0,2.88-.76,5.62,5.62,0,0,0,2.16-2.26,9,9,0,0,0,0-7.49,5.54,5.54,0,0,0-2.14-2.27,5.78,5.78,0,0,0-5.73,0,5.58,5.58,0,0,0-2.16,2.27,8.86,8.86,0,0,0,0,7.49,5.71,5.71,0,0,0,2.14,2.26A5.54,5.54,0,0,0,1146.12,584.62Z"/><path d="M1159.3,594.7V568.92H1162l.29,3a8.32,8.32,0,0,1,2.47-2.34,7.29,7.29,0,0,1,4.08-1,8.63,8.63,0,0,1,4.65,1.23,8.39,8.39,0,0,1,3.07,3.34,10.29,10.29,0,0,1,1.1,4.83,10.11,10.11,0,0,1-1.1,4.8,8.24,8.24,0,0,1-3.09,3.32,8.88,8.88,0,0,1-4.66,1.2,8.26,8.26,0,0,1-3.91-.9,6.22,6.22,0,0,1-2.61-2.52V594.7Zm9.21-10.12a5.93,5.93,0,0,0,3.17-.84,6,6,0,0,0,2.16-2.36,8.28,8.28,0,0,0,0-7.06,6,6,0,0,0-2.16-2.35,6.34,6.34,0,0,0-6.34,0,6,6,0,0,0-2.16,2.35,8.28,8.28,0,0,0,0,7.06,5.75,5.75,0,0,0,5.33,3.2Z"/><circle class="cls-1" cx="1233.5" cy="573.5" r="20.5"/><path d="M1275.6,586.86v-9.57l-8.21-15.63h3.42l6.3,12.75,6.3-12.75h3.39l-8.17,15.63v9.57Z"/><path d="M1291.84,565.05a2,2,0,0,1-2.09-2.09,1.93,1.93,0,0,1,.59-1.44,2.19,2.19,0,0,1,3,0,1.88,1.88,0,0,1,.62,1.44,2,2,0,0,1-.62,1.49A2,2,0,0,1,1291.84,565.05Zm-1.51,21.81V569h3v17.85Z"/><path d="M1306.63,587.29a8.64,8.64,0,0,1-4.53-1.17,8.27,8.27,0,0,1-3.12-3.25,11.34,11.34,0,0,1,0-9.85,8.1,8.1,0,0,1,3.11-3.27,9,9,0,0,1,4.63-1.17,8.36,8.36,0,0,1,4.48,1.17,7.88,7.88,0,0,1,2.89,3.07,8.59,8.59,0,0,1,1,4.11c0,.26,0,.53,0,.79s0,.56,0,.9h-14.22a7,7,0,0,0,1,3.4,5.62,5.62,0,0,0,2.13,2,5.7,5.7,0,0,0,2.71.68,5.5,5.5,0,0,0,3.14-.86,5,5,0,0,0,1.83-2.34h3a7.84,7.84,0,0,1-8,5.75Zm0-16.16a6,6,0,0,0-3.83,1.32,5.27,5.27,0,0,0-1.93,3.83h11.24a5.14,5.14,0,0,0-1.66-3.78A5.56,5.56,0,0,0,1306.63,571.13Z"/><path d="M1319.09,586.86V560.94h3v25.92Z"/><path d="M1335.18,587.29a8.69,8.69,0,0,1-4.66-1.22,8.28,8.28,0,0,1-3.1-3.35,10.34,10.34,0,0,1-1.1-4.82,10.19,10.19,0,0,1,1.12-4.81,8.45,8.45,0,0,1,3.1-3.31,8.86,8.86,0,0,1,4.68-1.2,8.11,8.11,0,0,1,3.88.9,6.45,6.45,0,0,1,2.63,2.52V560.94h3v25.92H1342l-.29-3a8.12,8.12,0,0,1-2.48,2.34A7.35,7.35,0,0,1,1335.18,587.29Zm.32-2.62a5.94,5.94,0,0,0,3.19-.85,5.81,5.81,0,0,0,2.16-2.36,8.45,8.45,0,0,0,0-7.05,5.81,5.81,0,0,0-2.16-2.36,6.34,6.34,0,0,0-6.34,0,5.81,5.81,0,0,0-2.16,2.36,8.45,8.45,0,0,0,0,7.05,5.81,5.81,0,0,0,2.16,2.36A5.9,5.9,0,0,0,1335.5,584.67Z"/><path d="M1349.87,586.86v-25.2h8.85a10.13,10.13,0,0,1,4.41.85,5.85,5.85,0,0,1,2.61,2.3,6.26,6.26,0,0,1,.87,3.26,5.39,5.39,0,0,1-1.32,3.85,6.83,6.83,0,0,1-3.15,2,6.05,6.05,0,0,1,2.56,1.11,6.33,6.33,0,0,1,1.82,2.16,6.22,6.22,0,0,1,.66,2.85,6.43,6.43,0,0,1-3.7,6,10,10,0,0,1-4.47.91Zm3-14.18h5.62a5.45,5.45,0,0,0,3.71-1.14,4,4,0,0,0,1.29-3.14,3.91,3.91,0,0,0-1.28-3.07,5.6,5.6,0,0,0-3.83-1.15h-5.51Zm0,11.66h5.8a5.94,5.94,0,0,0,4-1.2,4.21,4.21,0,0,0,1.41-3.37,4.26,4.26,0,0,0-1.48-3.4,5.88,5.88,0,0,0-4-1.28h-5.73Z"/><path d="M1371.36,586.86V560.94h3v25.92Z"/><path d="M1387.49,587.29a9,9,0,0,1-4.54-1.15,8.31,8.31,0,0,1-3.19-3.25,10.06,10.06,0,0,1-1.17-4.95,9.91,9.91,0,0,1,1.19-5,8.48,8.48,0,0,1,3.22-3.26,9.09,9.09,0,0,1,4.56-1.15,8.92,8.92,0,0,1,4.53,1.15,8.27,8.27,0,0,1,3.19,3.26,11,11,0,0,1,0,9.9,8.32,8.32,0,0,1-3.22,3.25A9.05,9.05,0,0,1,1387.49,587.29Zm0-2.59a5.57,5.57,0,0,0,5-3,7.75,7.75,0,0,0,.82-3.74,7.88,7.88,0,0,0-.81-3.75,5.54,5.54,0,0,0-2.14-2.27,5.69,5.69,0,0,0-2.84-.75,5.78,5.78,0,0,0-2.88.75,5.64,5.64,0,0,0-2.16,2.27,8.86,8.86,0,0,0,0,7.49,5.51,5.51,0,0,0,5,3Z"/><path d="M1398.11,586.86l6.19-8.92-6.19-8.93h3.27l5,7.38,5-7.38h3.24l-6.2,8.93,6.2,8.92h-3.24l-5-7.38-5,7.38Z"/><path d="M1436.66,587.29a10.66,10.66,0,0,1-4.7-1,7.87,7.87,0,0,1-3.36-3.19,10.79,10.79,0,0,1-1.26-5.5V561.66h3v16q0,3.67,1.77,5.33a6.46,6.46,0,0,0,4.6,1.66,6.38,6.38,0,0,0,4.58-1.66q1.73-1.65,1.72-5.33v-16h3v15.92a10.79,10.79,0,0,1-1.26,5.5,7.83,7.83,0,0,1-3.39,3.19A10.82,10.82,0,0,1,1436.66,587.29Z"/><path d="M1457.83,587.29a8.54,8.54,0,0,1-5.33-1.62,6.3,6.3,0,0,1-2.48-4.39h3.09a4.27,4.27,0,0,0,1.5,2.43,4.83,4.83,0,0,0,3.26,1,4.09,4.09,0,0,0,2.8-.81,2.51,2.51,0,0,0,.9-1.93,2.14,2.14,0,0,0-1.17-2.16,15.59,15.59,0,0,0-3.29-1,18.36,18.36,0,0,1-2.88-.83,6.55,6.55,0,0,1-2.41-1.53,3.56,3.56,0,0,1-1-2.61,4.82,4.82,0,0,1,1.74-3.83,7,7,0,0,1,4.74-1.49A7.33,7.33,0,0,1,1462,570a5.68,5.68,0,0,1,2.1,4h-3a3.1,3.1,0,0,0-1.17-2.14,4.18,4.18,0,0,0-2.65-.78,4,4,0,0,0-2.5.69,2.15,2.15,0,0,0-.88,1.8,1.87,1.87,0,0,0,1.13,1.69,12.21,12.21,0,0,0,3.08,1,29,29,0,0,1,3.15.88,6.09,6.09,0,0,1,2.45,1.55,4.24,4.24,0,0,1,1,3,4.88,4.88,0,0,1-1.82,4A7.54,7.54,0,0,1,1457.83,587.29Z"/><path d="M1477,587.29a8.65,8.65,0,0,1-4.54-1.17,8.18,8.18,0,0,1-3.11-3.25,10.14,10.14,0,0,1-1.14-4.93,10.38,10.38,0,0,1,1.12-4.92,8.1,8.1,0,0,1,3.11-3.27,9,9,0,0,1,4.63-1.17,8.33,8.33,0,0,1,4.48,1.17,7.91,7.91,0,0,1,2.9,3.07,8.71,8.71,0,0,1,1,4.11c0,.26,0,.53,0,.79s0,.56,0,.9h-14.22a6.92,6.92,0,0,0,1,3.4,5.66,5.66,0,0,0,2.12,2,5.74,5.74,0,0,0,2.72.68,5.44,5.44,0,0,0,3.13-.86,5,5,0,0,0,1.84-2.34h3a7.82,7.82,0,0,1-8,5.75Zm0-16.16a6,6,0,0,0-3.84,1.32,5.3,5.3,0,0,0-1.92,3.83h11.23a5.07,5.07,0,0,0-1.66-3.78A5.55,5.55,0,0,0,1477,571.13Z"/><path d="M1489.47,586.86V569h2.74l.25,3.42a6.45,6.45,0,0,1,2.52-2.81,7.79,7.79,0,0,1,4.18-1v3.16h-.83a7.52,7.52,0,0,0-2.92.56,4.44,4.44,0,0,0-2.12,1.89,7.17,7.17,0,0,0-.79,3.67v9Z"/><path d="M1509.38,587.29a8.56,8.56,0,0,1-5.33-1.62,6.3,6.3,0,0,1-2.48-4.39h3.1a4.25,4.25,0,0,0,1.49,2.43,4.83,4.83,0,0,0,3.26,1,4.14,4.14,0,0,0,2.81-.81,2.5,2.5,0,0,0,.89-1.93,2.13,2.13,0,0,0-1.16-2.16,15.89,15.89,0,0,0-3.3-1,18.36,18.36,0,0,1-2.88-.83,6.55,6.55,0,0,1-2.41-1.53,3.56,3.56,0,0,1-1-2.61,4.82,4.82,0,0,1,1.74-3.83,7,7,0,0,1,4.74-1.49,7.33,7.33,0,0,1,4.66,1.42,5.72,5.72,0,0,1,2.11,4h-3a3.1,3.1,0,0,0-1.17-2.14,4.16,4.16,0,0,0-2.65-.78,4,4,0,0,0-2.5.69,2.15,2.15,0,0,0-.88,1.8,1.87,1.87,0,0,0,1.13,1.69,12.21,12.21,0,0,0,3.08,1,29,29,0,0,1,3.15.88,6,6,0,0,1,2.45,1.55,4.24,4.24,0,0,1,1,3,4.85,4.85,0,0,1-1.82,4A7.54,7.54,0,0,1,1509.38,587.29Z"/><path d="M185.29,136.31V114.49l-4.07.9V113.3l5.08-2.19h2v25.2Z"/><path d="M203.51,136.74a10.1,10.1,0,0,1-5.78-1.64,10.52,10.52,0,0,1-3.73-4.57,18.7,18.7,0,0,1,0-13.65,10.52,10.52,0,0,1,3.73-4.57,11,11,0,0,1,11.54,0,10.53,10.53,0,0,1,3.7,4.57,18.57,18.57,0,0,1,0,13.65,10.53,10.53,0,0,1-3.7,4.57A10,10,0,0,1,203.51,136.74Zm0-2.67a6.64,6.64,0,0,0,3.94-1.24,8.18,8.18,0,0,0,2.73-3.56,16.08,16.08,0,0,0,0-11.11,8.17,8.17,0,0,0-2.73-3.54,6.87,6.87,0,0,0-7.9,0,8.26,8.26,0,0,0-2.74,3.54,15.78,15.78,0,0,0,0,11.11,8.27,8.27,0,0,0,2.74,3.56A6.59,6.59,0,0,0,203.51,134.07Z"/><path d="M223.16,122.81a5.88,5.88,0,0,1-2.93-.74,5.27,5.27,0,0,1-2.07-2.09,6.42,6.42,0,0,1-.76-3.22,6.32,6.32,0,0,1,.78-3.22,5.43,5.43,0,0,1,2.08-2.09,5.94,5.94,0,0,1,2.94-.74,5.78,5.78,0,0,1,2.91.74,5.38,5.38,0,0,1,2.06,2.09,6.52,6.52,0,0,1,.75,3.22,6.42,6.42,0,0,1-.77,3.22,5.54,5.54,0,0,1-2.07,2.09A5.84,5.84,0,0,1,223.16,122.81Zm0-2.34a3.11,3.11,0,0,0,2.22-.94,3.74,3.74,0,0,0,1-2.77,3.87,3.87,0,0,0-.94-2.83,3,3,0,0,0-2.19-1,3.18,3.18,0,0,0-2.25,1,3.76,3.76,0,0,0-1,2.83,3.66,3.66,0,0,0,1,2.77A3.15,3.15,0,0,0,223.16,120.47Zm-2.23,15.84,14.65-25.2h3L224,136.31Zm15.7.43a5.94,5.94,0,0,1-2.94-.74,5.33,5.33,0,0,1-2.07-2.09,6.52,6.52,0,0,1-.75-3.22,6.32,6.32,0,0,1,.77-3.22,5.54,5.54,0,0,1,2.07-2.09,6.11,6.11,0,0,1,5.83,0,5.29,5.29,0,0,1,2.05,2.09,7.2,7.2,0,0,1,0,6.44,5.29,5.29,0,0,1-2.05,2.09A5.78,5.78,0,0,1,236.63,136.74Zm0-2.34a3.1,3.1,0,0,0,2.25-.94,3.7,3.7,0,0,0,.95-2.77,3.84,3.84,0,0,0-.93-2.81,3.07,3.07,0,0,0-2.23-.93,3.16,3.16,0,0,0-2.24.93,3.77,3.77,0,0,0-1,2.81,3.7,3.7,0,0,0,1,2.77A3,3,0,0,0,236.59,134.4Z"/><path d="M105.46,306.56v-5.4H92.68v-2.34l12.24-17.46h3.52V298.5h3.75v2.66h-3.75v5.4ZM96,298.5h9.58V284.71Z"/><path d="M125.65,307a10,10,0,0,1-5.78-1.64,10.37,10.37,0,0,1-3.72-4.57,18.54,18.54,0,0,1,0-13.64,10.37,10.37,0,0,1,3.72-4.57,11,11,0,0,1,11.54,0,10.42,10.42,0,0,1,3.71,4.57,18.54,18.54,0,0,1,0,13.64,10.42,10.42,0,0,1-3.71,4.57A10,10,0,0,1,125.65,307Zm0-2.66a6.66,6.66,0,0,0,3.94-1.24,8.15,8.15,0,0,0,2.74-3.57,14.13,14.13,0,0,0,1-5.56,14,14,0,0,0-1-5.54,8.15,8.15,0,0,0-2.74-3.55,6.91,6.91,0,0,0-7.9,0,8.36,8.36,0,0,0-2.73,3.55,13.61,13.61,0,0,0-1,5.54,13.77,13.77,0,0,0,1,5.56,8.36,8.36,0,0,0,2.73,3.57A6.66,6.66,0,0,0,125.65,304.33Z"/><path d="M145.31,293.06a5.94,5.94,0,0,1-2.94-.74,5.4,5.4,0,0,1-2.07-2.09,6.52,6.52,0,0,1-.75-3.22,6.45,6.45,0,0,1,.77-3.22,5.45,5.45,0,0,1,2.09-2.09,5.91,5.91,0,0,1,2.93-.74,5.81,5.81,0,0,1,2.92.74,5.35,5.35,0,0,1,2.05,2.09,6.44,6.44,0,0,1,.76,3.22,6.32,6.32,0,0,1-.78,3.22,5.4,5.4,0,0,1-2.07,2.09A5.78,5.78,0,0,1,145.31,293.06Zm0-2.34a3,3,0,0,0,2.21-.94,3.68,3.68,0,0,0,1-2.77,3.88,3.88,0,0,0-.94-2.82,3,3,0,0,0-2.2-1,3.15,3.15,0,0,0-2.25,1,3.74,3.74,0,0,0-1,2.82,3.65,3.65,0,0,0,1,2.77A3.09,3.09,0,0,0,145.31,290.72Zm-2.23,15.84,14.65-25.2h3l-14.65,25.2Zm15.69.43a5.78,5.78,0,0,1-2.93-.74,5.24,5.24,0,0,1-2.07-2.08,6.46,6.46,0,0,1-.76-3.23,6.35,6.35,0,0,1,.78-3.22,5.47,5.47,0,0,1,2.07-2.09,5.77,5.77,0,0,1,2.91-.73,5.83,5.83,0,0,1,2.92.73,5.42,5.42,0,0,1,2.05,2.09,7.22,7.22,0,0,1,0,6.45,5.33,5.33,0,0,1-2.05,2.08A5.74,5.74,0,0,1,158.77,307Zm0-2.34a3.13,3.13,0,0,0,2.25-.93,4.59,4.59,0,0,0,0-5.58,3,3,0,0,0-2.23-.94,3.1,3.1,0,0,0-2.23.94,3.71,3.71,0,0,0-1,2.8,3.76,3.76,0,0,0,1,2.78A3.1,3.1,0,0,0,158.74,304.65Z"/><path d="M359.49,270a10.15,10.15,0,0,1-4.5-.93,7.87,7.87,0,0,1-3.05-2.58,8.22,8.22,0,0,1-1.38-3.72h2.95a5.64,5.64,0,0,0,2,3.36,6.14,6.14,0,0,0,4,1.28,5.52,5.52,0,0,0,3.1-.85,5.61,5.61,0,0,0,2-2.28,7.34,7.34,0,0,0,.7-3.21,6.42,6.42,0,0,0-1.59-4.53,5.3,5.3,0,0,0-4.1-1.73,6.45,6.45,0,0,0-3.56.94,5.52,5.52,0,0,0-2.16,2.44H351l2.16-13.82H366.4V247H355.53l-1.48,7.67a6.37,6.37,0,0,1,2.39-1.73,8.46,8.46,0,0,1,3.51-.69,7.89,7.89,0,0,1,7.24,4.29,9.45,9.45,0,0,1,1,4.5,9.87,9.87,0,0,1-1,4.46,8.08,8.08,0,0,1-3,3.28A8.83,8.83,0,0,1,359.49,270Z"/><path d="M382.78,270a10,10,0,0,1-5.78-1.64,10.46,10.46,0,0,1-3.73-4.57,18.67,18.67,0,0,1,0-13.64,10.46,10.46,0,0,1,3.73-4.57,11,11,0,0,1,11.54,0,10.49,10.49,0,0,1,3.71,4.57,18.67,18.67,0,0,1,0,13.64,10.49,10.49,0,0,1-3.71,4.57A10,10,0,0,1,382.78,270Zm0-2.66a6.68,6.68,0,0,0,3.94-1.24,8.23,8.23,0,0,0,2.74-3.57,14.13,14.13,0,0,0,1-5.56,14,14,0,0,0-1-5.54,8.22,8.22,0,0,0-2.74-3.55,6.91,6.91,0,0,0-7.9,0,8.37,8.37,0,0,0-2.74,3.55,13.78,13.78,0,0,0-1,5.54,13.94,13.94,0,0,0,1,5.56,8.38,8.38,0,0,0,2.74,3.57A6.66,6.66,0,0,0,382.78,267.33Z"/><path d="M402.43,256.06a5.91,5.91,0,0,1-2.93-.74,5.27,5.27,0,0,1-2.07-2.09,6.52,6.52,0,0,1-.76-3.22,6.35,6.35,0,0,1,.78-3.22,5.38,5.38,0,0,1,2.09-2.09,6.15,6.15,0,0,1,5.85,0,5.42,5.42,0,0,1,2.05,2.09,6.55,6.55,0,0,1,.75,3.22,6.32,6.32,0,0,1-.77,3.22,5.54,5.54,0,0,1-2.07,2.09A5.81,5.81,0,0,1,402.43,256.06Zm0-2.34a3.07,3.07,0,0,0,2.22-.94,3.72,3.72,0,0,0,1-2.77,3.88,3.88,0,0,0-.93-2.82,3,3,0,0,0-2.2-1,3.15,3.15,0,0,0-2.25,1,3.74,3.74,0,0,0-1,2.82,3.65,3.65,0,0,0,1,2.77A3.1,3.1,0,0,0,402.43,253.72Zm-2.23,15.84,14.65-25.2h3l-14.65,25.2Zm15.7.43a5.84,5.84,0,0,1-2.94-.74,5.37,5.37,0,0,1-2.07-2.08,6.56,6.56,0,0,1-.75-3.23,6.45,6.45,0,0,1,.77-3.22,5.61,5.61,0,0,1,2.07-2.09,5.83,5.83,0,0,1,2.92-.73,5.77,5.77,0,0,1,2.91.73,5.44,5.44,0,0,1,2.06,2.09,7.31,7.31,0,0,1,0,6.45,5.35,5.35,0,0,1-2.06,2.08A5.68,5.68,0,0,1,415.9,270Zm0-2.34a3.1,3.1,0,0,0,2.25-.93,3.72,3.72,0,0,0,1-2.78,3.82,3.82,0,0,0-.94-2.8,3,3,0,0,0-2.23-.94,3.09,3.09,0,0,0-2.23.94,4.5,4.5,0,0,0,0,5.58A3.06,3.06,0,0,0,415.86,267.65Z"/><path d="M775.47,151.88v-2.12q2.55-2,4.84-4.09a53.88,53.88,0,0,0,4.07-4.08,20.68,20.68,0,0,0,2.8-4,8,8,0,0,0,1-3.75,6.78,6.78,0,0,0-.45-2.48,3.93,3.93,0,0,0-1.46-1.85,4.68,4.68,0,0,0-2.73-.71,5,5,0,0,0-2.78.74,4.67,4.67,0,0,0-1.67,2,6.34,6.34,0,0,0-.56,2.63h-2.91a8.23,8.23,0,0,1,1-4.26,7,7,0,0,1,2.84-2.72,8.63,8.63,0,0,1,4.07-.94,8,8,0,0,1,5.49,1.89,7.12,7.12,0,0,1,2.14,5.64,9.64,9.64,0,0,1-1.11,4.41,22.15,22.15,0,0,1-2.85,4.21,40.14,40.14,0,0,1-3.69,3.8c-1.3,1.17-2.52,2.23-3.65,3.16H792.1v2.52Z"/><path d="M804.3,152.32a10.34,10.34,0,0,1-4.35-.89,7.23,7.23,0,0,1-3.12-2.64,8.22,8.22,0,0,1-1.24-4.39h3.06a5.28,5.28,0,0,0,5.65,5.29,4.88,4.88,0,0,0,5.37-5,4.65,4.65,0,0,0-.85-2.88,5,5,0,0,0-2.27-1.66,8.68,8.68,0,0,0-3.11-.54h-1.87V137h1.87a5.9,5.9,0,0,0,3.83-1.12,4.16,4.16,0,0,0,.29-5.92,4.43,4.43,0,0,0-3.26-1.1,4.56,4.56,0,0,0-3.35,1.24,4.71,4.71,0,0,0-1.4,3.12h-3.06a7.48,7.48,0,0,1,1.1-3.64,6.71,6.71,0,0,1,2.72-2.47,9.76,9.76,0,0,1,8.08,0,6,6,0,0,1,2.48,2.3,6.19,6.19,0,0,1,.85,3.17,6.09,6.09,0,0,1-1.05,3.47,5.1,5.1,0,0,1-3.13,2.11,6.69,6.69,0,0,1,3.71,2.12,6.34,6.34,0,0,1,1.48,4.36,7.81,7.81,0,0,1-1,3.83,7,7,0,0,1-2.82,2.79A9.41,9.41,0,0,1,804.3,152.32Z"/><path d="M821.55,138.38a5.94,5.94,0,0,1-2.94-.73,5.4,5.4,0,0,1-2.07-2.09,6.55,6.55,0,0,1-.75-3.22,6.36,6.36,0,0,1,.77-3.23,5.42,5.42,0,0,1,2.09-2.08,6.15,6.15,0,0,1,5.85,0,5.33,5.33,0,0,1,2,2.08,6.56,6.56,0,0,1,.76,3.23,6.35,6.35,0,0,1-.78,3.22,5.47,5.47,0,0,1-2.07,2.09A5.8,5.8,0,0,1,821.55,138.38Zm0-2.34a3.07,3.07,0,0,0,2.21-.93,3.71,3.71,0,0,0,1-2.77,3.91,3.91,0,0,0-.93-2.83,3,3,0,0,0-2.2-.95,3.18,3.18,0,0,0-2.25.95,3.76,3.76,0,0,0-1,2.83,3.72,3.72,0,0,0,1,2.77A3.16,3.16,0,0,0,821.55,136Zm-2.24,15.84L834,126.68h3l-14.65,25.2Zm15.7.44a5.88,5.88,0,0,1-2.93-.74,5.27,5.27,0,0,1-2.07-2.09,7.16,7.16,0,0,1,0-6.44,5.54,5.54,0,0,1,2.07-2.09,6.13,6.13,0,0,1,5.84,0,5.42,5.42,0,0,1,2.05,2.09,7.29,7.29,0,0,1,0,6.44,5.42,5.42,0,0,1-2.05,2.09A5.84,5.84,0,0,1,835,152.32Zm0-2.34a3.07,3.07,0,0,0,2.25-.94,3.7,3.7,0,0,0,1-2.77,3.79,3.79,0,0,0-.94-2.81,3.06,3.06,0,0,0-2.23-.94,3.15,3.15,0,0,0-2.23.94,4.53,4.53,0,0,0,0,5.58A3,3,0,0,0,835,150Z"/><path d="M825.45,332.88V311.07l-4.07.9v-2.09l5.08-2.2h2v25.2Z"/><path d="M842.15,333.32a10.52,10.52,0,0,1-4.46-.92,7.53,7.53,0,0,1-3.12-2.56,6.55,6.55,0,0,1-1.13-3.8,6.84,6.84,0,0,1,1.35-4.14,6.43,6.43,0,0,1,3.58-2.44,6.31,6.31,0,0,1-3.17-2.2,5.47,5.47,0,0,1-1.11-3.31,6.13,6.13,0,0,1,1-3.37,6.79,6.79,0,0,1,2.77-2.43,10.82,10.82,0,0,1,8.64,0,6.73,6.73,0,0,1,2.77,2.43,6.14,6.14,0,0,1,1,3.37,5.51,5.51,0,0,1-1.12,3.29,6.23,6.23,0,0,1-3.17,2.22,6.43,6.43,0,0,1,3.58,2.44,6.84,6.84,0,0,1,1.35,4.14,6.48,6.48,0,0,1-1.13,3.8,7.5,7.5,0,0,1-3.11,2.56A10.54,10.54,0,0,1,842.15,333.32Zm0-2.67a6.08,6.08,0,0,0,4.27-1.31,5.08,5.08,0,0,0-.13-7.18,7.43,7.43,0,0,0-8.28,0,5.07,5.07,0,0,0-.12,7.18A6.05,6.05,0,0,0,842.15,330.65Zm0-12.27a5.4,5.4,0,0,0,3.66-1.17,4.35,4.35,0,0,0,0-6.29,5.65,5.65,0,0,0-3.67-1.08,5.57,5.57,0,0,0-3.65,1.08,4.38,4.38,0,0,0,0,6.29A5.3,5.3,0,0,0,842.15,318.38Z"/><path d="M860.33,319.38a5.87,5.87,0,0,1-2.93-.73,5.27,5.27,0,0,1-2.07-2.09,6.44,6.44,0,0,1-.76-3.22,6.36,6.36,0,0,1,.78-3.23,5.4,5.4,0,0,1,2.08-2.08,5.94,5.94,0,0,1,2.94-.74,5.78,5.78,0,0,1,2.91.74,5.35,5.35,0,0,1,2.06,2.08,6.56,6.56,0,0,1,.75,3.23,6.45,6.45,0,0,1-.77,3.22,5.54,5.54,0,0,1-2.07,2.09A5.83,5.83,0,0,1,860.33,319.38Zm0-2.34a3.1,3.1,0,0,0,2.22-.93,3.75,3.75,0,0,0,1-2.77,3.87,3.87,0,0,0-.94-2.83,3,3,0,0,0-2.19-.95,3.18,3.18,0,0,0-2.25.95,3.76,3.76,0,0,0-1,2.83,3.68,3.68,0,0,0,1,2.77A3.14,3.14,0,0,0,860.33,317Zm-2.23,15.84,14.65-25.2h3l-14.66,25.2Zm15.7.44a5.94,5.94,0,0,1-2.94-.74,5.4,5.4,0,0,1-2.07-2.09,6.52,6.52,0,0,1-.75-3.22,6.32,6.32,0,0,1,.77-3.22,5.54,5.54,0,0,1,2.07-2.09,6.11,6.11,0,0,1,5.83,0,5.29,5.29,0,0,1,2,2.09,7.2,7.2,0,0,1,0,6.44,5.29,5.29,0,0,1-2,2.09A5.78,5.78,0,0,1,873.8,333.32Zm0-2.34A3.1,3.1,0,0,0,876,330a3.7,3.7,0,0,0,1-2.77,3.82,3.82,0,0,0-.93-2.81,3.08,3.08,0,0,0-2.23-.94,3.17,3.17,0,0,0-2.24.94,3.75,3.75,0,0,0-1,2.81,3.7,3.7,0,0,0,1,2.77A3,3,0,0,0,873.76,331Z"/><path d="M783,414.46a7.76,7.76,0,0,1-3.5-.73,6,6,0,0,1-2.37-2,6.3,6.3,0,0,1-1.08-2.9h2.3a4.32,4.32,0,0,0,1.57,2.62,4.78,4.78,0,0,0,3.1,1,4.28,4.28,0,0,0,2.41-.65A4.42,4.42,0,0,0,787,410a5.68,5.68,0,0,0,.54-2.49,5,5,0,0,0-1.23-3.53,4.13,4.13,0,0,0-3.19-1.35,5.08,5.08,0,0,0-2.77.73,4.3,4.3,0,0,0-1.68,1.91H776.4l1.68-10.76h10.27v2.05H779.9l-1.15,6a5,5,0,0,1,1.86-1.34,6.52,6.52,0,0,1,2.73-.53A6.1,6.1,0,0,1,789,404a7.4,7.4,0,0,1,.81,3.5A7.66,7.66,0,0,1,789,411a6.33,6.33,0,0,1-2.32,2.55A6.88,6.88,0,0,1,783,414.46Z"/><path d="M797,403.62a4.66,4.66,0,0,1-2.29-.57,4.18,4.18,0,0,1-1.61-1.62,5.09,5.09,0,0,1-.58-2.51,5,5,0,0,1,.6-2.5,4.16,4.16,0,0,1,1.62-1.63,4.59,4.59,0,0,1,2.28-.57,4.53,4.53,0,0,1,2.27.57,4.11,4.11,0,0,1,1.6,1.63,5.05,5.05,0,0,1,.59,2.5,4.89,4.89,0,0,1-.61,2.51,4.18,4.18,0,0,1-1.61,1.62A4.49,4.49,0,0,1,797,403.62Zm0-1.82a2.41,2.41,0,0,0,1.72-.72,2.93,2.93,0,0,0,.74-2.16,3,3,0,0,0-.73-2.2A2.32,2.32,0,0,0,797,396a2.49,2.49,0,0,0-1.75.74,2.94,2.94,0,0,0-.77,2.2,2.9,2.9,0,0,0,.76,2.16A2.44,2.44,0,0,0,797,401.8Zm-1.74,12.32,11.4-19.6H809l-11.4,19.6Zm12.21.34a4.59,4.59,0,0,1-2.28-.57,4.14,4.14,0,0,1-1.61-1.63,5.57,5.57,0,0,1,0-5,4.25,4.25,0,0,1,1.61-1.62,4.73,4.73,0,0,1,4.54,0,4.13,4.13,0,0,1,1.59,1.62,5.61,5.61,0,0,1,0,5,4.22,4.22,0,0,1-1.59,1.63A4.56,4.56,0,0,1,807.45,414.46Zm0-1.82a2.4,2.4,0,0,0,1.75-.73,2.85,2.85,0,0,0,.74-2.15,3,3,0,0,0-.73-2.19,2.37,2.37,0,0,0-1.73-.73,2.46,2.46,0,0,0-1.74.73,2.94,2.94,0,0,0-.75,2.19,2.85,2.85,0,0,0,.74,2.15A2.36,2.36,0,0,0,807.42,412.64Z"/><path d="M567.11,298.32a10.22,10.22,0,0,1-4.5-.94,7.8,7.8,0,0,1-3-2.57,8.18,8.18,0,0,1-1.38-3.73h2.95a5.7,5.7,0,0,0,2,3.37,6.18,6.18,0,0,0,4,1.27,5.36,5.36,0,0,0,5.09-3.13,7.19,7.19,0,0,0,.71-3.2,6.45,6.45,0,0,0-1.59-4.54,5.3,5.3,0,0,0-4.1-1.73,6.59,6.59,0,0,0-3.57.94,5.66,5.66,0,0,0-2.16,2.45h-2.88l2.16-13.83H574v2.63H563.15L561.68,283a6.51,6.51,0,0,1,2.39-1.73,8.62,8.62,0,0,1,3.51-.68,7.86,7.86,0,0,1,7.24,4.28,9.57,9.57,0,0,1,1,4.5,9.91,9.91,0,0,1-1,4.47,8.05,8.05,0,0,1-3,3.27A8.76,8.76,0,0,1,567.11,298.32Z"/><path d="M592,297.88v-5.4H579.21v-2.34l12.24-17.46H595v17.14h3.74v2.66H595v5.4Zm-9.43-8.06h9.57V276Z"/><path d="M606.75,284.38a5.87,5.87,0,0,1-2.93-.73,5.27,5.27,0,0,1-2.07-2.09,7.18,7.18,0,0,1,0-6.45,5.49,5.49,0,0,1,2.09-2.08,5.94,5.94,0,0,1,2.94-.74,5.78,5.78,0,0,1,2.91.74,5.26,5.26,0,0,1,2,2.08,7.18,7.18,0,0,1,0,6.45,5.54,5.54,0,0,1-2.07,2.09A5.83,5.83,0,0,1,606.75,284.38Zm0-2.34a3.06,3.06,0,0,0,2.21-.93,3.71,3.71,0,0,0,1-2.77,3.87,3.87,0,0,0-.94-2.83,3,3,0,0,0-2.19-.95,3.18,3.18,0,0,0-2.25.95,3.76,3.76,0,0,0-1,2.83,3.68,3.68,0,0,0,1,2.77A3.14,3.14,0,0,0,606.75,282Zm-2.23,15.84,14.65-25.2h3l-14.65,25.2Zm15.69.44a5.91,5.91,0,0,1-2.93-.74,5.27,5.27,0,0,1-2.07-2.09,6.52,6.52,0,0,1-.76-3.22,6.32,6.32,0,0,1,.78-3.22A5.4,5.4,0,0,1,617.3,287a6.11,6.11,0,0,1,5.83,0,5.35,5.35,0,0,1,2,2.09,7.2,7.2,0,0,1,0,6.44,5.35,5.35,0,0,1-2,2.09A5.81,5.81,0,0,1,620.21,298.32Zm0-2.34a3.1,3.1,0,0,0,2.25-.94,3.74,3.74,0,0,0,1-2.77,3.82,3.82,0,0,0-.93-2.81,3.08,3.08,0,0,0-2.24-.94,3.15,3.15,0,0,0-2.23.94,4.53,4.53,0,0,0,0,5.58A3.07,3.07,0,0,0,620.18,296Z"/><path d="M1055.21,335.32a9.52,9.52,0,0,1-4.61-1,8.2,8.2,0,0,1-3-2.75,12.42,12.42,0,0,1-1.66-3.87,18.35,18.35,0,0,1-.52-4.38,21.23,21.23,0,0,1,1.15-7.32,11.21,11.21,0,0,1,3.33-4.94,8.1,8.1,0,0,1,5.27-1.78,8.22,8.22,0,0,1,4.07.94,7.25,7.25,0,0,1,2.68,2.5,8.51,8.51,0,0,1,1.25,3.47h-2.81a5.18,5.18,0,0,0-1.77-3.16,5.24,5.24,0,0,0-3.45-1.12,5.69,5.69,0,0,0-4.77,2.68q-1.93,2.69-2.07,8.37a7.79,7.79,0,0,1,2.75-2.93,8.1,8.1,0,0,1,4.56-1.24,8.52,8.52,0,0,1,4.05,1,8.34,8.34,0,0,1,3.07,2.83,7.57,7.57,0,0,1,1.19,4.27,8.52,8.52,0,0,1-1,4.06,8.31,8.31,0,0,1-3,3.17A8.59,8.59,0,0,1,1055.21,335.32Zm-.22-2.67a6.28,6.28,0,0,0,3-.72,5.29,5.29,0,0,0,2.09-2,5.68,5.68,0,0,0,.75-2.93,5.31,5.31,0,0,0-1.67-4.09,6,6,0,0,0-4.2-1.53,5.88,5.88,0,0,0-3,.78,5.82,5.82,0,0,0-2.11,2.07,5.42,5.42,0,0,0-.77,2.81,5.5,5.5,0,0,0,.77,2.89,5.41,5.41,0,0,0,2.11,2A6.27,6.27,0,0,0,1055,332.65Z"/><path d="M1077.89,335.32a9.52,9.52,0,0,1-4.61-1,8.2,8.2,0,0,1-3-2.75,12.42,12.42,0,0,1-1.66-3.87,18.35,18.35,0,0,1-.52-4.38,21.23,21.23,0,0,1,1.15-7.32,11.21,11.21,0,0,1,3.33-4.94,8.1,8.1,0,0,1,5.27-1.78,8.22,8.22,0,0,1,4.07.94,7.25,7.25,0,0,1,2.68,2.5,8.51,8.51,0,0,1,1.25,3.47H1083a5.18,5.18,0,0,0-1.77-3.16,5.24,5.24,0,0,0-3.45-1.12,5.69,5.69,0,0,0-4.77,2.68q-1.93,2.69-2.07,8.37a7.79,7.79,0,0,1,2.75-2.93,8.1,8.1,0,0,1,4.56-1.24,8.52,8.52,0,0,1,4,1,8.34,8.34,0,0,1,3.07,2.83,7.57,7.57,0,0,1,1.19,4.27,8.52,8.52,0,0,1-1,4.06,8.31,8.31,0,0,1-3,3.17A8.59,8.59,0,0,1,1077.89,335.32Zm-.22-2.67a6.28,6.28,0,0,0,3-.72,5.36,5.36,0,0,0,2.09-2,5.68,5.68,0,0,0,.75-2.93,5.31,5.31,0,0,0-1.67-4.09,6,6,0,0,0-4.2-1.53,5.87,5.87,0,0,0-5.13,2.85,5.42,5.42,0,0,0-.77,2.81,5.5,5.5,0,0,0,.77,2.89,5.41,5.41,0,0,0,2.11,2A6.24,6.24,0,0,0,1077.67,332.65Z"/><path d="M1095.42,321.38a5.87,5.87,0,0,1-2.93-.73,5.27,5.27,0,0,1-2.07-2.09,6.44,6.44,0,0,1-.76-3.22,6.36,6.36,0,0,1,.78-3.23,5.4,5.4,0,0,1,2.08-2.08,5.94,5.94,0,0,1,2.94-.74,5.78,5.78,0,0,1,2.91.74,5.35,5.35,0,0,1,2.06,2.08,6.56,6.56,0,0,1,.75,3.23,6.45,6.45,0,0,1-.77,3.22,5.54,5.54,0,0,1-2.07,2.09A5.83,5.83,0,0,1,1095.42,321.38Zm0-2.34a3.06,3.06,0,0,0,2.21-.93,3.71,3.71,0,0,0,1-2.77,3.87,3.87,0,0,0-.94-2.83,3,3,0,0,0-2.19-.95,3.18,3.18,0,0,0-2.25.95,3.76,3.76,0,0,0-1,2.83,3.68,3.68,0,0,0,1,2.77A3.14,3.14,0,0,0,1095.42,319Zm-2.23,15.84,14.65-25.2h3l-14.66,25.2Zm15.69.44a5.91,5.91,0,0,1-2.93-.74,5.27,5.27,0,0,1-2.07-2.09,6.52,6.52,0,0,1-.76-3.22,6.32,6.32,0,0,1,.78-3.22A5.54,5.54,0,0,1,1106,324a6.11,6.11,0,0,1,5.83,0,5.29,5.29,0,0,1,2,2.09,7.2,7.2,0,0,1,0,6.44,5.29,5.29,0,0,1-2,2.09A5.81,5.81,0,0,1,1108.88,335.32Zm0-2.34a3.1,3.1,0,0,0,2.25-.94,3.74,3.74,0,0,0,1-2.77,3.82,3.82,0,0,0-.93-2.81,3.08,3.08,0,0,0-2.24-.94,3.15,3.15,0,0,0-2.23.94,4.53,4.53,0,0,0,0,5.58A3.07,3.07,0,0,0,1108.85,333Z"/><path d="M1247,143.88V122.07l-4.06.9v-2.09l5.07-2.2H1250v25.2Z"/><path d="M1257.44,143.88l10-22.6h-13.83v-2.6h16.92V121l-9.9,22.93Z"/><path d="M1279.08,130.38a5.94,5.94,0,0,1-2.94-.73,5.4,5.4,0,0,1-2.07-2.09,6.55,6.55,0,0,1-.75-3.22,6.36,6.36,0,0,1,.77-3.23,5.42,5.42,0,0,1,2.09-2.08,6.15,6.15,0,0,1,5.85,0,5.33,5.33,0,0,1,2,2.08,6.56,6.56,0,0,1,.76,3.23,6.35,6.35,0,0,1-.78,3.22,5.4,5.4,0,0,1-2.07,2.09A5.77,5.77,0,0,1,1279.08,130.38Zm0-2.34a3.07,3.07,0,0,0,2.21-.93,3.71,3.71,0,0,0,1-2.77,3.91,3.91,0,0,0-.93-2.83,3,3,0,0,0-2.2-1,3.18,3.18,0,0,0-2.25,1,3.76,3.76,0,0,0-1,2.83,3.72,3.72,0,0,0,1,2.77A3.16,3.16,0,0,0,1279.08,128Zm-2.24,15.84,14.66-25.2h3l-14.65,25.2Zm15.7.44a5.88,5.88,0,0,1-2.93-.74,5.27,5.27,0,0,1-2.07-2.09,7.16,7.16,0,0,1,0-6.44,5.54,5.54,0,0,1,2.07-2.09,6.13,6.13,0,0,1,5.84,0,5.42,5.42,0,0,1,2,2.09,7.29,7.29,0,0,1,0,6.44,5.42,5.42,0,0,1-2,2.09A5.84,5.84,0,0,1,1292.54,144.32Zm0-2.34a3.07,3.07,0,0,0,2.25-.94,3.7,3.7,0,0,0,1-2.77,3.79,3.79,0,0,0-.94-2.81,3.06,3.06,0,0,0-2.23-.94,3.15,3.15,0,0,0-2.23.94,4.53,4.53,0,0,0,0,5.58A3,3,0,0,0,1292.5,142Z"/><path d="M1310.74,258.06V236.24l-4.07.9v-2.09l5.08-2.19h2v25.2Z"/><path d="M1330.54,258.06v-5.4h-12.78v-2.34L1330,232.86h3.53V250h3.74v2.67h-3.74v5.4Zm-9.43-8.07h9.58V236.21Z"/><path d="M1345.3,244.56a5.88,5.88,0,0,1-2.93-.74,5.27,5.27,0,0,1-2.07-2.09,7.16,7.16,0,0,1,0-6.44,5.52,5.52,0,0,1,2.09-2.09,5.94,5.94,0,0,1,2.94-.74,5.78,5.78,0,0,1,2.91.74,5.29,5.29,0,0,1,2,2.09,7.16,7.16,0,0,1,0,6.44,5.54,5.54,0,0,1-2.07,2.09A5.84,5.84,0,0,1,1345.3,244.56Zm0-2.34a3,3,0,0,0,2.21-.94,3.7,3.7,0,0,0,1-2.77,3.87,3.87,0,0,0-.94-2.83,3,3,0,0,0-2.19-1,3.18,3.18,0,0,0-2.25,1,3.76,3.76,0,0,0-1,2.83,3.66,3.66,0,0,0,1,2.77A3.1,3.1,0,0,0,1345.3,242.22Zm-2.23,15.84,14.65-25.2h3l-14.65,25.2Zm15.69.43a5.91,5.91,0,0,1-2.93-.74,5.27,5.27,0,0,1-2.07-2.09,6.52,6.52,0,0,1-.76-3.22,6.32,6.32,0,0,1,.78-3.22,5.4,5.4,0,0,1,2.07-2.09,6.11,6.11,0,0,1,5.83,0,5.35,5.35,0,0,1,2,2.09,7.2,7.2,0,0,1,0,6.44,5.35,5.35,0,0,1-2,2.09A5.81,5.81,0,0,1,1358.76,258.49Zm0-2.34a3.1,3.1,0,0,0,2.25-.94,3.72,3.72,0,0,0,1-2.77,3.84,3.84,0,0,0-.93-2.81,3.07,3.07,0,0,0-2.24-.93,3.14,3.14,0,0,0-2.23.93,4.53,4.53,0,0,0,0,5.58A3.07,3.07,0,0,0,1358.73,256.15Z"/><path d="M1371.37,355.38a8.09,8.09,0,0,1-3.39-.69,5.58,5.58,0,0,1-2.42-2.06,6.36,6.36,0,0,1-1-3.42H1367a4.11,4.11,0,0,0,4.4,4.12,4,4,0,0,0,3.12-1.15,4,4,0,0,0,1-2.77,3.61,3.61,0,0,0-.66-2.24,3.92,3.92,0,0,0-1.76-1.29,6.81,6.81,0,0,0-2.43-.42h-1.45v-2h1.45a4.65,4.65,0,0,0,3-.87,3.26,3.26,0,0,0,.22-4.61,3.42,3.42,0,0,0-2.53-.85,3.57,3.57,0,0,0-2.61,1,3.73,3.73,0,0,0-1.09,2.43h-2.38a5.88,5.88,0,0,1,.85-2.83,5.32,5.32,0,0,1,2.12-1.92,6.69,6.69,0,0,1,3.11-.69,6.8,6.8,0,0,1,3.17.67,4.83,4.83,0,0,1,1.78,7,4,4,0,0,1-2.43,1.64,5.19,5.19,0,0,1,2.88,1.65,4.89,4.89,0,0,1,1.15,3.39,6.15,6.15,0,0,1-.74,3,5.47,5.47,0,0,1-2.2,2.17A7.36,7.36,0,0,1,1371.37,355.38Z"/><path d="M1384.78,344.54a4.5,4.5,0,0,1-2.28-.58,4,4,0,0,1-1.61-1.62,5.57,5.57,0,0,1,0-5,4.2,4.2,0,0,1,1.62-1.62,4.56,4.56,0,0,1,2.29-.58,4.4,4.4,0,0,1,2.26.58,4.09,4.09,0,0,1,1.6,1.62,5.05,5.05,0,0,1,.59,2.5,5,5,0,0,1-.6,2.51,4.32,4.32,0,0,1-1.61,1.62A4.46,4.46,0,0,1,1384.78,344.54Zm0-1.82a2.36,2.36,0,0,0,1.72-.73,2.86,2.86,0,0,0,.74-2.16,3,3,0,0,0-.73-2.19,2.28,2.28,0,0,0-1.7-.74,2.42,2.42,0,0,0-1.75.74,3.49,3.49,0,0,0,0,4.35A2.42,2.42,0,0,0,1384.78,342.72ZM1383,355l11.4-19.6h2.35l-11.4,19.6Zm12.21.34a4.6,4.6,0,0,1-2.28-.58,4.11,4.11,0,0,1-1.61-1.62,5.09,5.09,0,0,1-.59-2.51,5,5,0,0,1,.6-2.5,4.21,4.21,0,0,1,1.61-1.63,4.81,4.81,0,0,1,4.54,0,4.09,4.09,0,0,1,1.59,1.63,5.61,5.61,0,0,1,0,5,4.13,4.13,0,0,1-1.59,1.62A4.53,4.53,0,0,1,1395.25,355.38Zm0-1.83a2.43,2.43,0,0,0,1.75-.72,2.89,2.89,0,0,0,.74-2.16,3,3,0,0,0-.72-2.18,2.37,2.37,0,0,0-1.74-.73,2.44,2.44,0,0,0-1.74.73,2.9,2.9,0,0,0-.75,2.18,2.93,2.93,0,0,0,.74,2.16A2.41,2.41,0,0,0,1395.22,353.55Z"/><path d="M1546.32,389l10-22.61H1542.5v-2.59h16.92v2.27l-9.9,22.93Z"/><path d="M1562.09,389v-2.12c1.7-1.35,3.32-2.71,4.84-4.09a53.88,53.88,0,0,0,4.07-4.08,21.08,21.08,0,0,0,2.81-4,8.09,8.09,0,0,0,1-3.75,6.75,6.75,0,0,0-.45-2.48,4,4,0,0,0-1.46-1.86,4.75,4.75,0,0,0-2.73-.7,4.91,4.91,0,0,0-2.77.74,4.56,4.56,0,0,0-1.68,2,6.3,6.3,0,0,0-.56,2.63h-2.91a8.36,8.36,0,0,1,1-4.27,7,7,0,0,1,2.85-2.71,8.59,8.59,0,0,1,4.06-.94,8,8,0,0,1,5.49,1.89,7.12,7.12,0,0,1,2.15,5.63,9.62,9.62,0,0,1-1.12,4.41,21.84,21.84,0,0,1-2.84,4.22,41.33,41.33,0,0,1-3.69,3.79q-2,1.77-3.66,3.17h12.17V389Z"/><path d="M1587.61,375.49a5.78,5.78,0,0,1-2.93-.74,5.24,5.24,0,0,1-2.07-2.08,7.18,7.18,0,0,1,0-6.45,5.59,5.59,0,0,1,2.09-2.09,5.94,5.94,0,0,1,2.94-.73,5.77,5.77,0,0,1,2.91.73,5.44,5.44,0,0,1,2.06,2.09,6.55,6.55,0,0,1,.75,3.22,6.46,6.46,0,0,1-.77,3.23,5.51,5.51,0,0,1-2.07,2.08A5.74,5.74,0,0,1,1587.61,375.49Zm0-2.34a3.1,3.1,0,0,0,2.22-.93,3.76,3.76,0,0,0,1-2.78,3.84,3.84,0,0,0-.94-2.82,3,3,0,0,0-2.19-1,3.15,3.15,0,0,0-2.25,1,3.74,3.74,0,0,0-1,2.82,3.69,3.69,0,0,0,1,2.78A3.14,3.14,0,0,0,1587.61,373.15ZM1585.38,389l14.65-25.2h3L1588.4,389Zm15.7.43a5.94,5.94,0,0,1-2.94-.73,5.4,5.4,0,0,1-2.07-2.09,6.55,6.55,0,0,1-.75-3.22,6.36,6.36,0,0,1,.77-3.23,5.44,5.44,0,0,1,2.07-2.08,6.11,6.11,0,0,1,5.83,0,5.26,5.26,0,0,1,2,2.08,7.22,7.22,0,0,1,0,6.45,5.35,5.35,0,0,1-2,2.09A5.77,5.77,0,0,1,1601.08,389.42Zm0-2.34a3.13,3.13,0,0,0,2.25-.93,3.75,3.75,0,0,0,1-2.77,3.82,3.82,0,0,0-.93-2.81,3,3,0,0,0-2.23-.94,3.13,3.13,0,0,0-2.24.94,3.75,3.75,0,0,0-1,2.81,3.71,3.71,0,0,0,1,2.77A3.06,3.06,0,0,0,1601,387.08Z"/><path d="M1690,127.93V106.11l-4.07.9v-2.09l5.08-2.19h2v25.2Z"/><path d="M1698,127.93V125.8c1.7-1.34,3.32-2.7,4.84-4.08a52.13,52.13,0,0,0,4.07-4.09,20.46,20.46,0,0,0,2.81-4,8.07,8.07,0,0,0,1-3.74,6.8,6.8,0,0,0-.45-2.49,4,4,0,0,0-1.46-1.85,4.73,4.73,0,0,0-2.74-.7,4.93,4.93,0,0,0-2.77.73,4.73,4.73,0,0,0-1.68,2,6.25,6.25,0,0,0-.55,2.62h-2.92a8.26,8.26,0,0,1,1-4.26,6.89,6.89,0,0,1,2.84-2.72,8.75,8.75,0,0,1,4.07-.94,8,8,0,0,1,5.49,1.89,7.12,7.12,0,0,1,2.14,5.64,9.5,9.5,0,0,1-1.12,4.41,22.09,22.09,0,0,1-2.84,4.21,39,39,0,0,1-3.69,3.8q-2,1.76-3.65,3.17h12.16v2.52Z"/><path d="M1723.54,114.43a5.91,5.91,0,0,1-2.93-.74,5.27,5.27,0,0,1-2.07-2.09,6.52,6.52,0,0,1-.75-3.22,6.32,6.32,0,0,1,.77-3.22,5.45,5.45,0,0,1,2.09-2.09,6.15,6.15,0,0,1,5.85,0,5.42,5.42,0,0,1,2,2.09,6.52,6.52,0,0,1,.75,3.22,6.32,6.32,0,0,1-.77,3.22,5.47,5.47,0,0,1-2.07,2.09A5.81,5.81,0,0,1,1723.54,114.43Zm0-2.34a3.11,3.11,0,0,0,2.22-.94,3.74,3.74,0,0,0,1-2.77,3.91,3.91,0,0,0-.93-2.83,3,3,0,0,0-2.2-1,3.18,3.18,0,0,0-2.25,1,3.76,3.76,0,0,0-1,2.83,3.7,3.7,0,0,0,1,2.77A3.16,3.16,0,0,0,1723.54,112.09Zm-2.23,15.84,14.65-25.2h3l-14.65,25.2Zm15.7.43a5.88,5.88,0,0,1-2.93-.74,5.36,5.36,0,0,1-2.08-2.09,6.52,6.52,0,0,1-.75-3.22,6.42,6.42,0,0,1,.77-3.22,5.54,5.54,0,0,1,2.07-2.09,5.84,5.84,0,0,1,2.92-.74,5.78,5.78,0,0,1,2.91.74,5.38,5.38,0,0,1,2.06,2.09,7.29,7.29,0,0,1,0,6.44,5.38,5.38,0,0,1-2.06,2.09A5.78,5.78,0,0,1,1737,128.36Zm0-2.34a3.07,3.07,0,0,0,2.25-.94,3.7,3.7,0,0,0,1-2.77,3.8,3.8,0,0,0-.94-2.81,3.05,3.05,0,0,0-2.23-.93,3.12,3.12,0,0,0-2.23.93,4.5,4.5,0,0,0,0,5.58A3,3,0,0,0,1737,126Z"/><path d="M1774.81,193.36a8.18,8.18,0,0,1-4.06-.94,7.28,7.28,0,0,1-2.69-2.5,8,8,0,0,1-1.2-3.47h2.81a5,5,0,0,0,1.72,3.16,5.29,5.29,0,0,0,3.46,1.12,5.69,5.69,0,0,0,4.79-2.68q1.9-2.69,2-8.37a7.79,7.79,0,0,1-2.75,2.93,8.1,8.1,0,0,1-4.56,1.24,8.53,8.53,0,0,1-4-1,8.42,8.42,0,0,1-3.1-2.83,7.62,7.62,0,0,1-1.18-4.27,8.32,8.32,0,0,1,1.06-4.06,8.38,8.38,0,0,1,7.65-4.4,9.55,9.55,0,0,1,4.61,1,8.27,8.27,0,0,1,3,2.75,12.42,12.42,0,0,1,1.66,3.87,18.35,18.35,0,0,1,.52,4.38,21.23,21.23,0,0,1-1.15,7.32,11.21,11.21,0,0,1-3.33,4.94A8.1,8.1,0,0,1,1774.81,193.36Zm.18-12.13a5.91,5.91,0,0,0,5.15-2.85,5.26,5.26,0,0,0,.79-2.81,5.34,5.34,0,0,0-.79-2.89,5.51,5.51,0,0,0-2.12-2,6.71,6.71,0,0,0-6,0,5.29,5.29,0,0,0-2.09,2,5.68,5.68,0,0,0-.75,2.93,5.26,5.26,0,0,0,1.67,4.09A6,6,0,0,0,1775,181.23Z"/><path d="M1793.71,179.43a5.91,5.91,0,0,1-2.93-.74,5.27,5.27,0,0,1-2.07-2.09,6.52,6.52,0,0,1-.76-3.22,6.32,6.32,0,0,1,.78-3.22,5.38,5.38,0,0,1,2.09-2.09,6.15,6.15,0,0,1,5.85,0,5.42,5.42,0,0,1,2,2.09,6.52,6.52,0,0,1,.75,3.22,6.32,6.32,0,0,1-.77,3.22,5.54,5.54,0,0,1-2.07,2.09A5.81,5.81,0,0,1,1793.71,179.43Zm0-2.34a3.11,3.11,0,0,0,2.22-.94,3.74,3.74,0,0,0,1-2.77,3.91,3.91,0,0,0-.93-2.83,3,3,0,0,0-2.2-1,3.18,3.18,0,0,0-2.25,1,3.76,3.76,0,0,0-1,2.83,3.66,3.66,0,0,0,1,2.77A3.15,3.15,0,0,0,1793.71,177.09Zm-2.23,15.84,14.65-25.2h3l-14.65,25.2Zm15.7.43a5.94,5.94,0,0,1-2.94-.74,5.4,5.4,0,0,1-2.07-2.09,6.52,6.52,0,0,1-.75-3.22,6.42,6.42,0,0,1,.77-3.22,5.54,5.54,0,0,1,2.07-2.09,5.84,5.84,0,0,1,2.92-.74,5.78,5.78,0,0,1,2.91.74,5.38,5.38,0,0,1,2.06,2.09,7.29,7.29,0,0,1,0,6.44,5.38,5.38,0,0,1-2.06,2.09A5.78,5.78,0,0,1,1807.18,193.36Zm0-2.34a3.07,3.07,0,0,0,2.25-.94,3.7,3.7,0,0,0,1-2.77,3.84,3.84,0,0,0-.94-2.81,3.05,3.05,0,0,0-2.23-.93,3.12,3.12,0,0,0-2.23.93,4.5,4.5,0,0,0,0,5.58A3,3,0,0,0,1807.14,191Z"/><path d="M1849.84,230.57v-1.65c1.32-1,2.58-2.11,3.76-3.18a39.52,39.52,0,0,0,3.17-3.18,15.79,15.79,0,0,0,2.18-3.08,6.27,6.27,0,0,0,.8-2.91,5.34,5.34,0,0,0-.35-1.93,3,3,0,0,0-1.13-1.44,3.66,3.66,0,0,0-2.13-.55,3.86,3.86,0,0,0-2.16.57,3.64,3.64,0,0,0-1.3,1.53,4.88,4.88,0,0,0-.43,2H1850a6.44,6.44,0,0,1,.81-3.31,5.43,5.43,0,0,1,2.21-2.12,6.85,6.85,0,0,1,3.17-.73,6.24,6.24,0,0,1,4.27,1.47,5.54,5.54,0,0,1,1.66,4.39,7.46,7.46,0,0,1-.87,3.43,16.8,16.8,0,0,1-2.21,3.27,30.89,30.89,0,0,1-2.87,3c-1,.91-2,1.73-2.84,2.46h9.46v2Z"/><path d="M1869.69,220.07a4.59,4.59,0,0,1-2.28-.57,4.2,4.2,0,0,1-1.61-1.63,5.05,5.05,0,0,1-.59-2.5,5,5,0,0,1,.6-2.51,4.16,4.16,0,0,1,1.63-1.62,4.75,4.75,0,0,1,4.55,0,4.13,4.13,0,0,1,1.59,1.62,5.09,5.09,0,0,1,.59,2.51,5,5,0,0,1-.6,2.5,4.34,4.34,0,0,1-1.61,1.63A4.53,4.53,0,0,1,1869.69,220.07Zm0-1.82a2.36,2.36,0,0,0,1.72-.73,2.85,2.85,0,0,0,.74-2.15,3,3,0,0,0-.72-2.2,2.31,2.31,0,0,0-1.71-.74,2.42,2.42,0,0,0-1.75.74,2.89,2.89,0,0,0-.77,2.2,2.85,2.85,0,0,0,.75,2.15A2.44,2.44,0,0,0,1869.69,218.25ZM1868,230.57l11.4-19.6h2.35l-11.4,19.6Zm12.21.34a4.6,4.6,0,0,1-2.28-.58,4.11,4.11,0,0,1-1.61-1.62,5.09,5.09,0,0,1-.59-2.51,5,5,0,0,1,.6-2.5,4.34,4.34,0,0,1,1.61-1.63,4.81,4.81,0,0,1,4.54,0,4.32,4.32,0,0,1,1.6,1.63,5.7,5.7,0,0,1,0,5,4.22,4.22,0,0,1-1.6,1.62A4.53,4.53,0,0,1,1880.16,230.91Zm0-1.82a2.44,2.44,0,0,0,1.75-.73,2.89,2.89,0,0,0,.74-2.16,3,3,0,0,0-.72-2.18,2.37,2.37,0,0,0-1.74-.73,2.4,2.4,0,0,0-1.73.73,2.86,2.86,0,0,0-.76,2.18,2.93,2.93,0,0,0,.74,2.16A2.42,2.42,0,0,0,1880.13,229.09Z"/></svg>