<svg id="Layer_1" data-name="Layer 1" xmlns="http://www.w3.org/2000/svg" viewBox="0 0 1920 400"><defs><style>.cls-1{fill:#808184;opacity:0.2;}.cls-2{fill:#37b34a;}.cls-3,.cls-6{fill:#fff;}.cls-3{stroke:#fff;stroke-miterlimit:10;stroke-width:10px;}.cls-4{fill:#f89c1c;}.cls-5{fill:#fdc86e;}</style></defs><ellipse class="cls-1" cx="691.69" cy="345.37" rx="63.31" ry="23.63"/><ellipse class="cls-1" cx="1231.08" cy="325.58" rx="140.33" ry="55.42"/><rect class="cls-2" x="1146.2" y="178.98" width="166.5" height="158.15" rx="34.82"/><path class="cls-2" d="M1241.58,184.51c0,1.81-.63,4.57-2,5.25-5.35,2.71-21.58-5.79-21.33-11.34.39-8.73-4.35-13.13-12.62-16.69-17-7.29-33.65-15.27-50.26-23.3-12.6-6.09-22.66-15.06-24-28.28-2-20.14-2.3-40.44-2.64-60.68-.1-6.09,4.78-8.92,10.84-6.28,23.55,10.21,47.11,20.43,70.41,31.1,18.62,8.51,28.68,22.5,29.79,41.48.75,12.91,1.36,25.82,1.84,35.19C1241.67,164.52,1241.76,174.51,1241.58,184.51Z"/><path class="cls-2" d="M1330.1,86.25H1330c0,7.3.25,14.62-.06,21.91-.42,9.77-4.12,18.72-12.31,23.4-19.68,11.24-39.94,21.44-60.09,31.78-4.14,2.13-7.67.54-7.31-4.81,1.2-18.38,2.15-36.8,4.51-55,.64-5,4.7-11.08,9-13.55,19.35-11.16,39.28-21.28,59.14-31.5,4.27-2.2,7.23-.36,7.27,4.93C1330.13,71,1330.1,78.63,1330.1,86.25Z"/><path class="cls-3" d="M1249.17,256.77c0,7-3.79,12.39-9,12.5s-9.32-5.25-9.44-12.3c-.11-6.8,4.1-12.66,9.16-12.72S1249.13,249.66,1249.17,256.77Z"/><path class="cls-3" d="M1189.39,257c-.09,7.1-4.11,12.35-9.42,12.29-5-.06-9.07-5.68-9-12.53s4.24-12.57,9.33-12.55S1189.47,250.11,1189.39,257Z"/><path d="M921.68,213.38c-.52.74-1.07,1.45-1.7,2.24a3,3,0,0,0,2.18,4.95h3.93c13.57,0,96.1-.13,128.49-.14a3,3,0,0,1,2.87,3c.1,15.59,0,0,.1,15.56a3,3,0,0,1-2.86,3c-32.92,0-113.88.15-128.55.15H922a3,3,0,0,0-2.25,4.86l0,0a29.34,29.34,0,0,1,2.73,3.62,7.84,7.84,0,0,1-1.89,9.76c-2.38,2-4.87,2.34-7.35.12-8.62-7.71-17.39-15.24-25.78-23.22-3.79-3.61-3.7-8.68.17-12.33,8.42-7.93,17.18-15.47,25.83-23.13,2.84-2.52,5.45-1.69,7.76.93C924.05,206,924.25,209.7,921.68,213.38Z"/><path class="cls-4" d="M803.59,283.37C841.85,222.3,829.72,144.59,775.05,111c-1.91-1.17-64.69,39.62-66.65,38.59-54.09-28.69-65.87-46.8-102.8,12.14-36.54,58.33.38,55.06,49,90.73,2.28,1.68-21.77,79.16-19.32,80.67C690,366.71,765.34,344.43,803.59,283.37Z"/><ellipse class="cls-5" cx="691.52" cy="211.94" rx="133.43" ry="116.16" transform="translate(127.8 665.08) rotate(-55.83)"/><ellipse class="cls-6" cx="691.13" cy="211.58" rx="115.28" ry="99.91" transform="translate(128.37 665.16) rotate(-55.89)"/><path d="M661.39,285.19c4,1.29,7.84,2.78,11.89,3.85,9.68,2.55,20,1.64,30.68-1.64,2.17-.67,3.1-1.74,2.67-4.27-.7-4.17-1.32-8.39-1.71-12.69-.25-2.85-1.38-3.29-3.88-2.61-22.69,6.16-41.87-5.16-47.37-28.46-1.34-5.69-1.32-12.22-1.43-18.52-.07-4.28.86-4.88,4-3.14,8.65,4.77,17.25,9.64,25.88,14.47,5.52,3.09,5.52,3.09,9.68-4.44,4-7.33,4-7.34-1.37-10.38q-14.51-8.13-29-16.27c-4.07-2.3-4.16-2.37-1.48-7.91a74.85,74.85,0,0,1,5.33-9.24,4.58,4.58,0,0,1,3.34-1.51c1.09,0,2,.82,3,1.36q15,8.39,30,16.79c3.7,2.07,4.16,1.84,7-3.15.73-1.29,1.44-2.59,2.15-3.89,2.88-5.26,2.84-5.71-1-7.87Q699.36,179.82,689,174c-2.09-1.17-4.2-2.32-6.27-3.54-3.4-2-3.36-2.75.55-5.53,13.77-9.79,27.35-13,40.49-9.12,12.3,3.67,20.49,12.61,24.56,26.44.75,2.53,1.76,3.17,4.27,1.92,3.84-1.93,7.73-3.59,11.61-5.22,2.05-.85,2.85-2,2.27-4.22-3.67-14.18-10.37-25.34-21.05-32.62a34.38,34.38,0,0,1-3.32-3l-1-.54c-2.25-.83-4.46-1.74-6.75-2.46-22.76-7.17-45.38-.51-67.71,20.19-2.5,2.31-4.27,2.85-6.49,1.55-6.06-3.55-12.22-6.92-18.34-10.36l-8.25,14.93c5.31,3,10.6,6,15.93,8.91,2,1.08,2.53,2.39.65,5.3a80.73,80.73,0,0,0-5.54,10c-1.46,3.12-2.87,3.35-4.81,2.24-5.28-3-10.6-6-15.91-8.94l-8.25,14.93c5.89,3.29,11.78,6.56,17.65,9.87,3.76,2.12,3.63,2.15,2.66,7.45-5,27.11-.09,48.76,15.17,64.43,2.87,2.95,6.2,5.33,9.31,8Z"/></svg>