<svg id="Layer_1" data-name="Layer 1" xmlns="http://www.w3.org/2000/svg" viewBox="0 0 144 144"><defs><style>.cls-1{fill:#36b04a;}.cls-2{fill:#fff;}</style></defs><path class="cls-1" d="M72,118c-4.91,0-9.83,0-14.75,0-6.82-.09-12.15-4.84-12.29-11.34q-.29-13.49,0-27c.14-6.14,5.56-10.94,11.93-11,3.11-.05,6.23,0,9.34-.06,2,0,2.54-.92,1.42-2.49a7.72,7.72,0,0,0-2.92-2.34c-5.53-2.59-11.15-5-16.67-7.6A23.9,23.9,0,0,1,43.19,53a8.2,8.2,0,0,1-3.11-6c-.32-5.77-.64-11.54-.84-17.31-.13-3.61,1.22-4.48,4.63-3.07,6.31,2.61,12.61,5.25,18.85,8a40.13,40.13,0,0,1,7.54,4c3.73,2.75,5.19,6.75,5.35,11.2q.27,8,.49,16.07c.07,2.46.18,2.61,2.71,2.63,2.82,0,5.65,0,8.47,0C93.7,68.74,99,73.75,99.09,80c.11,8.84.13,17.69,0,26.54C99,113,93.71,117.88,86.94,118c-2.53,0-5.06,0-7.6,0H72ZM62.23,93.43c.05-3.18-2.26-6-4.91-5.88s-4.75,2.71-4.73,5.81S54.69,99,57.24,99,62.18,96.5,62.23,93.43Zm9.85.29a9.56,9.56,0,0,0,.18,1.49,4.63,4.63,0,0,0,7.2,2.85c3-2,2.78-7.83-.28-9.72a4.18,4.18,0,0,0-4.85.07C72.52,89.61,72.07,91.38,72.08,93.72Z"/><path class="cls-1" d="M104.73,40.22c0,2.16.08,4.32,0,6.47a8.61,8.61,0,0,1-5.09,7.9c-5.6,2.75-11.13,5.63-16.69,8.46a14.69,14.69,0,0,1-1.56.72c-1.73.59-2.72,0-2.67-1.79.1-3.4.33-6.81.6-10.2.17-2.15.44-4.3.79-6.42a6.21,6.21,0,0,1,3.43-4.8c5.87-3,11.71-6.06,17.59-9,2.5-1.26,3.61-.54,3.65,2.22,0,2.15,0,4.31,0,6.47Z"/><path class="cls-2" d="M62.23,93.43c0,3.07-2.36,5.66-5,5.59s-4.63-2.61-4.65-5.66,2.13-5.74,4.73-5.81S62.28,90.25,62.23,93.43Z"/><path class="cls-2" d="M72.08,93.72c0-2.34.44-4.11,2.25-5.31a4.18,4.18,0,0,1,4.85-.07c3.06,1.89,3.23,7.69.28,9.72a4.63,4.63,0,0,1-7.2-2.85A9.56,9.56,0,0,1,72.08,93.72Z"/></svg>