<svg id="Layer_1" data-name="Layer 1" xmlns="http://www.w3.org/2000/svg" viewBox="0 0 576 216"><defs><style>.cls-1,.cls-3{fill:#fff;}.cls-1{stroke:#fff;stroke-miterlimit:10;stroke-width:2px;}.cls-2{fill:#37b04a;}</style></defs><path class="cls-1" d="M93.4,76h11.33a2.43,2.43,0,0,1,2.13,1.3L120,103.39a2.51,2.51,0,0,0,3.45,1,2.57,2.57,0,0,0,.93-1l13.06-26a2.44,2.44,0,0,1,2.19-1.3h11.17a2.25,2.25,0,0,1,2.36,2.14A2.41,2.41,0,0,1,153,79.3l-23.06,41.49a2.18,2.18,0,0,0-.27,1.09v21.34a2.35,2.35,0,0,1-2.42,2.26H117.11a2.35,2.35,0,0,1-2.42-2.26V121.88a2.3,2.3,0,0,0-.28-1.09L91.24,79.34a2.3,2.3,0,0,1,1-3.06A2.21,2.21,0,0,1,93.4,76Z"/><path class="cls-1" d="M161.82,75.65c0-4.58,3.84-8.15,9.19-8.15s9.17,3.57,9.17,8.15-4,8.15-9.17,8.15S161.82,80.22,161.82,75.65Zm4,14.76h10.1a2.33,2.33,0,0,1,2.42,2.17v50.55a2.33,2.33,0,0,1-2.42,2.26h-10.1a2.34,2.34,0,0,1-2.42-2.26V92.58A2.33,2.33,0,0,1,165.84,90.41Z"/><path class="cls-1" d="M218.9,146.31c-17.18,0-29.67-11.13-29.67-28.42s12.16-28.43,29.67-28.43C236,89.46,248,100.32,248,116.7a23.72,23.72,0,0,1-.15,3.26,2.38,2.38,0,0,1-2.43,2.05H207.23a2.27,2.27,0,0,0-2.4,2.15,2.43,2.43,0,0,0,0,.6c1.71,6.43,7.13,10,13.71,10,5.74,0,9.16-2.4,11.19-5.55a2.43,2.43,0,0,1,2.13-1.08h11.2a2.26,2.26,0,0,1,2.4,2.12,2.42,2.42,0,0,1-.17,1C241.16,139.89,231.94,146.31,218.9,146.31Zm-11.36-33.63h22.25a2.31,2.31,0,0,0,2.4-2.2,2.35,2.35,0,0,0-.06-.65c-1.53-5.59-7-9-13.66-9-6.14,0-11.19,3.16-13.23,8.84a2.31,2.31,0,0,0,1.43,2.91,2.14,2.14,0,0,0,.87.12Z"/><path class="cls-1" d="M261.31,71.88h10.1a2.33,2.33,0,0,1,2.41,2.25h0v69a2.32,2.32,0,0,1-2.41,2.25h-10.1a2.34,2.34,0,0,1-2.43-2.25v-69A2.34,2.34,0,0,1,261.31,71.88Z"/><path class="cls-1" d="M311.79,89.46a26.76,26.76,0,0,1,15.38,4.81,2.43,2.43,0,0,0,3.44-.45,2.65,2.65,0,0,0,.5-1.24V74.13a2.31,2.31,0,0,1,2.4-2.25h10.32a2.33,2.33,0,0,1,2.42,2.25v69a2.33,2.33,0,0,1-2.42,2.25H333.52a2.32,2.32,0,0,1-2.41-2.25h0a2.46,2.46,0,0,0-2.64-2.27,2.4,2.4,0,0,0-1.32.53,24.65,24.65,0,0,1-15.47,4.88c-15,0-27-11.42-27-28.62S296.62,89.46,311.79,89.46Zm3.73,12.23c-8,0-15.57,5.57-15.57,16s7.57,16.41,15.57,16.41c8.23,0,15.69-5.78,15.69-16.21S323.75,101.69,315.52,101.69Z"/><path class="cls-1" d="M393,145.42H363.27a2.33,2.33,0,0,1-2.42-2.25V78.3A2.35,2.35,0,0,1,363.27,76h28.28c15.58,0,24.22,7.6,24.22,17.9a15.34,15.34,0,0,1-7.68,13.7,2.2,2.2,0,0,0-.9,2.93,2.13,2.13,0,0,0,1,.94,17.09,17.09,0,0,1,9.33,15.13C417.5,137.67,408.44,145.42,393,145.42Zm-3.54-58.15H378.21a2.35,2.35,0,0,0-2.42,2.26v12.89a2.34,2.34,0,0,0,2.42,2.25h11.21c7.05,0,11.1-3,11.1-8.68S396.49,87.27,389.42,87.27Zm1.06,28.1H378.21a2.33,2.33,0,0,0-2.42,2.24v14.18a2.33,2.33,0,0,0,2.42,2.26h12.62c7.26,0,11.53-3.25,11.53-9.15S397.77,115.37,390.48,115.37Z"/><path class="cls-1" d="M431.86,71.88H442a2.33,2.33,0,0,1,2.42,2.25v69a2.33,2.33,0,0,1-2.42,2.25H431.86a2.33,2.33,0,0,1-2.42-2.25v-69A2.33,2.33,0,0,1,431.86,71.88Z"/><path class="cls-1" d="M485.33,146.31c-17.07,0-30-11.13-30-28.42s13.33-28.43,30.4-28.43,30.39,11,30.39,28.43S502.48,146.31,485.33,146.31Zm0-12.12c7.89,0,15.46-5.37,15.46-16.27s-7.36-16.28-15.25-16.28-15,5.27-15,16.28S477.33,134.19,485.33,134.19Z"/><path class="cls-1" d="M545.66,131.44l-8.11,12.87a2.44,2.44,0,0,1-2.13,1.08H525.31a2.26,2.26,0,0,1-2-3.48l16-22.91a2.12,2.12,0,0,0,0-2.47l-16.15-22.7a2.28,2.28,0,0,1,.76-3.1,2.22,2.22,0,0,1,1.26-.32h11a2.45,2.45,0,0,1,2,1l9.22,13a2.51,2.51,0,0,0,3.57.46,2.27,2.27,0,0,0,.52-.55l8.2-12.87a2.48,2.48,0,0,1,2.14-1.08H572a2.22,2.22,0,0,1,2.38,2.07,2.31,2.31,0,0,1-.36,1.43L558,116.6a2.15,2.15,0,0,0,0,2.49L574.25,142a2.28,2.28,0,0,1-.61,3.13,2.13,2.13,0,0,1-1.4.38H561.08a2.5,2.5,0,0,1-2-1l-9.3-13.08a2.52,2.52,0,0,0-3.57-.51A2.57,2.57,0,0,0,545.66,131.44Z"/><path class="cls-2" d="M36.54,151.57H20.8c-7.27-.09-13-5.25-13.11-12.31q-.3-14.61,0-29.3C7.84,103.31,13.62,98.1,20.42,98c3.32,0,6.63,0,10-.07,2.13,0,2.72-1,1.53-2.71a8.37,8.37,0,0,0-3.12-2.54C22.88,89.9,16.89,87.28,11,84.47a25.5,25.5,0,0,1-5.16-3.38,8.91,8.91,0,0,1-3.32-6.51c-.34-6.26-.68-12.52-.91-18.79-.12-3.91,1.32-4.87,4.95-3.34,6.73,2.84,13.45,5.71,20.11,8.68a42.35,42.35,0,0,1,8,4.34c4,3,5.55,7.33,5.71,12.16q.3,8.67.53,17.44c.08,2.67.19,2.83,2.89,2.85h9a12.74,12.74,0,0,1,12.6,12.32q.18,14.4,0,28.81c-.1,7-5.74,12.34-13,12.47h-16ZM26.16,125c0-3.45-2.41-6.51-5.24-6.38s-5.07,2.94-5,6.29,2.24,6.08,5,6.15S26.1,128.27,26.16,125Zm10.5.31a8.75,8.75,0,0,0,.2,1.61,4.92,4.92,0,0,0,5.82,3.91,4.76,4.76,0,0,0,1.86-.81c3.2-2.17,3-8.51-.3-10.55a4.4,4.4,0,0,0-5.18.08C37.12,120.79,36.64,122.71,36.66,125.26Z"/><path class="cls-2" d="M71.49,67.21c0,2.33.08,4.69,0,7A9.33,9.33,0,0,1,66,82.81c-6,3-11.87,6.12-17.8,9.18a10.55,10.55,0,0,1-1.67.78c-1.84.64-2.9,0-2.85-1.93.11-3.7.36-7.39.64-11.08.19-2.32.46-4.65.84-7a6.74,6.74,0,0,1,3.67-5.18c6.26-3.25,12.49-6.59,18.76-9.76,2.66-1.36,3.84-.59,3.89,2.4v7Z"/><path class="cls-3" d="M26.16,125c0,3.32-2.53,6.14-5.34,6.06s-4.93-2.83-5-6.15,2.28-6.23,5.05-6.29S26.21,121.5,26.16,125Z"/><path class="cls-3" d="M36.66,125.26c0-2.55.46-4.46,2.4-5.76a4.4,4.4,0,0,1,5.18-.08c3.26,2,3.44,8.34.3,10.55a4.88,4.88,0,0,1-6.88-1.22,4.77,4.77,0,0,1-.8-1.88A8.75,8.75,0,0,1,36.66,125.26Z"/></svg>