<svg id="Layer_1" data-name="Layer 1" xmlns="http://www.w3.org/2000/svg" viewBox="0 0 1920 400"><defs><style>.cls-1{fill:#808184;opacity:0.2;isolation:isolate;}.cls-2{fill:#37b04a;}.cls-3{fill:#fff;}</style></defs><ellipse class="cls-1" cx="749.01" cy="333.81" rx="45.12" ry="12.47"/><polygon points="780.96 333.81 717.06 333.81 749.01 272.84 749.01 272.84 780.96 333.81"/><rect x="544.64" y="260.82" width="830.71" height="12.02" rx="3.59"/><path class="cls-2" d="M1294.9,260.82h-30.69c-14.18-.18-25.35-10.24-25.56-24q-.59-28.5,0-57.14c.29-13,11.56-23.13,24.82-23.32,6.47,0,12.93,0,19.5-.14,4.15,0,5.3-1.95,3-5.28a16.38,16.38,0,0,0-6.08-5c-11.6-5.42-23.28-10.53-34.77-16a49.75,49.75,0,0,1-10.06-6.6,17.37,17.37,0,0,1-6.48-12.69c-.66-12.21-1.32-24.41-1.77-36.64-.23-7.63,2.57-9.5,9.65-6.51,13.13,5.53,26.23,11.13,39.22,16.92a82,82,0,0,1,15.6,8.47c7.8,5.85,10.82,14.29,11.13,23.71q.58,16.9,1,34c.15,5.2.37,5.51,5.63,5.55h17.55a24.85,24.85,0,0,1,24.57,24q.35,28.08,0,56.18c-.19,13.65-11.19,24.06-25.35,24.31h-31.2ZM1274.66,209c0-6.73-4.7-12.7-10.22-12.44s-9.88,5.73-9.75,12.26,4.37,11.86,9.75,12S1274.55,215.39,1274.66,209Zm20.48.6a16.54,16.54,0,0,0,.39,3.14,9.59,9.59,0,0,0,11.2,7.66l.15,0a9.25,9.25,0,0,0,3.62-1.58c6.24-4.23,5.85-16.6-.58-20.57a8.57,8.57,0,0,0-10.1.15c-3.79,2.42-4.72,6.16-4.68,11.14Z"/><path class="cls-2" d="M1363.06,96.32c0,4.54.15,9.14,0,13.65a18.2,18.2,0,0,1-10.71,16.77c-11.7,5.85-23.15,11.93-34.71,17.9a20.55,20.55,0,0,1-3.26,1.52c-3.58,1.25-5.65,0-5.55-3.76.21-7.22.7-14.41,1.24-21.61.38-4.52.9-9.07,1.64-13.65a13.14,13.14,0,0,1,7.16-10.1c12.21-6.34,24.35-12.85,36.58-19,5.19-2.65,7.49-1.15,7.59,4.68V96.34Z"/><path class="cls-3" d="M1274.66,209c0,6.47-4.93,12-10.41,11.82s-9.61-5.52-9.75-12,4.45-12.15,9.85-12.26S1274.76,202.18,1274.66,209Z"/><path class="cls-3" d="M1295.14,209.52c0-5,.89-8.7,4.68-11.24a8.59,8.59,0,0,1,10.1-.15c6.36,3.9,6.71,16.26.58,20.57a9.52,9.52,0,0,1-13.28-2.18l-.13-.2a9.24,9.24,0,0,1-1.56-3.66A16.75,16.75,0,0,1,1295.14,209.52Z"/><path class="cls-2" d="M585.82,260.59H573.54c-5.67-.07-10.14-4.1-10.22-9.6q-.24-11.4,0-22.86c.11-5.18,4.62-9.25,9.93-9.33,2.59,0,5.17,0,7.8-.05,1.66,0,2.12-.78,1.19-2.11a6.61,6.61,0,0,0-2.43-2c-4.64-2.16-9.32-4.21-13.91-6.4a19.85,19.85,0,0,1-4-2.64,6.94,6.94,0,0,1-2.59-5.07c-.26-4.89-.53-9.77-.71-14.66-.09-3,1-3.8,3.87-2.61,5.25,2.22,10.49,4.46,15.68,6.77a33.32,33.32,0,0,1,6.24,3.39c3.12,2.34,4.33,5.72,4.46,9.48q.23,6.76.41,13.61c.06,2.08.15,2.21,2.25,2.22h7a9.94,9.94,0,0,1,9.83,9.61q.13,11.24,0,22.47a10,10,0,0,1-10.14,9.73H585.71Zm-8.1-20.73c0-2.69-1.88-5.07-4.08-5s-4,2.29-3.9,4.9,1.74,4.75,3.9,4.8S577.68,242.41,577.72,239.86Zm8.19.25a7.5,7.5,0,0,0,.16,1.25,3.84,3.84,0,0,0,4.48,3.06h.06a3.69,3.69,0,0,0,1.45-.63c2.5-1.69,2.34-6.64-.23-8.23a3.44,3.44,0,0,0-4,.06c-1.52,1-1.89,2.47-1.88,4.46Z"/><path class="cls-2" d="M613.08,194.79c0,1.81.06,3.66,0,5.46A7.29,7.29,0,0,1,608.8,207c-4.68,2.34-9.26,4.77-13.88,7.16a8.14,8.14,0,0,1-1.31.6c-1.43.5-2.26,0-2.22-1.5.09-2.89.28-5.77.5-8.64.15-1.81.36-3.63.65-5.46a5.25,5.25,0,0,1,2.87-4c4.88-2.54,9.74-5.14,14.63-7.62,2.07-1.06,3-.46,3,1.88v5.46Z"/><path class="cls-3" d="M577.72,239.86c0,2.59-2,4.79-4.16,4.73s-3.85-2.21-3.9-4.8,1.78-4.86,3.94-4.9S577.76,237.13,577.72,239.86Z"/><path class="cls-3" d="M585.91,240.07c0-2,.36-3.48,1.88-4.5a3.44,3.44,0,0,1,4-.06c2.54,1.56,2.68,6.51.23,8.23a3.81,3.81,0,0,1-5.31-.87l-.06-.08a3.76,3.76,0,0,1-.62-1.47A7.5,7.5,0,0,1,585.91,240.07Z"/></svg>