<svg id="Layer_1" data-name="Layer 1" xmlns="http://www.w3.org/2000/svg" viewBox="0 0 144 36"><defs><style>.cls-1{fill:#93c8ed;}.cls-2{fill:#051b35;}.cls-3{fill:#47ace1;}</style></defs><path class="cls-1" d="M20.13,13.77c.05.06.09.15.16.19s.36.16.53.26c.4.23.81.44,1.21.69.2.12.44.21.65.33s.7.4,1.05.59c.2.11.41.2.6.32.49.3,1,.54,1.51.85.16.11.35.18.52.28.44.25.9.49,1.37.74-.05.06-.08.13-.13.15a1.74,1.74,0,0,0-.33.18c-.22.13-.46.22-.68.35s-.68.39-1,.58a6.36,6.36,0,0,0-.58.3c-.38.26-.81.45-1.21.68s-.77.44-1.17.63-.89.51-1.34.75L20.7,22c-.45.24-.9.47-1.33.73s-.63.35-.94.53-.77.4-1.14.62-.69.36-1,.55-.77.45-1.16.65-.67.37-1,.55L13,26.16l-.46.25-1.15.64a2.32,2.32,0,0,1,0-.24q0-8.74,0-17.49c0-.09-.09-.21.06-.27a.74.74,0,0,0,.13.12,1.13,1.13,0,0,0,.22.11l1,.59a7.37,7.37,0,0,1,.69.34c.48.32,1,.55,1.51.85.33.2.69.36,1,.55s.84.45,1.25.69.58.31.86.47.78.47,1.19.67c.23.12.45.26.67.38Z"/><path class="cls-1" d="M35.41,22.32c0-.07-.09-.09-.15-.13-.39-.26-.82-.45-1.22-.69s-.67-.34-1-.56-.39-.19-.57-.3c-.5-.28-1-.54-1.51-.85-.17-.11-.37-.18-.55-.28l-1.19-.64c-.44-.23-.85-.5-1.3-.71-.05,0-.08-.07-.13-.12.33-.18.62-.35.94-.51s.65-.35,1-.53.75-.43,1.13-.64.68-.39,1-.58l.54-.29c.57-.31,1.16-.59,1.7-1,.22-.13.46-.22.69-.34l1-.58.92-.5c.44-.25.89-.48,1.32-.74s.86-.48,1.3-.71.7-.39,1-.58.66-.34,1-.54.41-.23.62-.34c.39-.19.76-.41,1.13-.62s.64-.33,1-.51v.25q0,8.76,0,17.53c0,.08.08.2-.06.25a.16.16,0,0,0-.1-.19,7.16,7.16,0,0,1-1.06-.56c-.22-.12-.47-.21-.68-.35-.4-.26-.83-.47-1.25-.69L40.43,25c-.35-.21-.7-.43-1.08-.61-.22-.1-.44-.22-.65-.34l-1.45-.82c-.25-.14-.52-.26-.77-.4s-.53-.32-.8-.48A.42.42,0,0,0,35.41,22.32Z"/><path class="cls-2" d="M20.13,13.77l-.1.05c-.22-.12-.44-.26-.67-.38-.41-.2-.79-.44-1.19-.67s-.58-.3-.86-.47-.83-.45-1.25-.69-.69-.35-1-.55c-.5-.3-1-.53-1.51-.85a7.37,7.37,0,0,0-.69-.34l-1-.59a1.13,1.13,0,0,1-.22-.11.74.74,0,0,1-.13-.12,2.22,2.22,0,0,1,.49-.3c.38-.2.75-.43,1.13-.63L14,7.6c.38-.21.77-.4,1.14-.63a5.52,5.52,0,0,1,.54-.28c.4-.21.81-.42,1.19-.65.59-.35,1.2-.64,1.78-1,.34-.21.71-.38,1.06-.57s.76-.41,1.13-.63.69-.36,1-.55l1-.58.55-.3c.42-.22.83-.44,1.24-.69.21-.13.46-.22.68-.34s.68-.39,1-.59L27,.5,27.7.12c.15.06.06.18.06.27q0,3.38,0,6.75V9.33a.38.38,0,0,1-.07.29c-.41.24-.83.47-1.24.69l-1.05.58c-.34.18-.68.35-1,.56a5.68,5.68,0,0,1-.55.28c-.52.26-1,.57-1.54.84s-.85.47-1.27.7Z"/><path class="cls-2" d="M35.41,22.32a.42.42,0,0,1,.27.06c.27.16.53.33.8.48s.52.26.77.4l1.45.82c.21.12.43.24.65.34.38.18.73.4,1.08.61l.54.29c.42.22.85.43,1.25.69.21.14.46.23.68.35a7.16,7.16,0,0,0,1.06.56.16.16,0,0,1,.1.19s-.08,0-.1,0a6.41,6.41,0,0,1-.81.45c-.46.25-.91.52-1.36.78-.18.11-.36.2-.55.3-.41.22-.84.43-1.24.69-.21.14-.46.22-.68.35s-.68.38-1,.58l-.54.29c-.42.22-.84.43-1.24.69a7.43,7.43,0,0,1-.69.35l-1,.58c-.18.11-.39.18-.57.3-.38.25-.81.46-1.21.68L32,33.73c-.5.27-1,.52-1.48.82-.22.14-.47.22-.69.35s-.69.41-1,.6-.62.32-.93.48c-.15-.07-.07-.19-.07-.28V26.76a.38.38,0,0,1,.07-.29c.47-.23.91-.51,1.38-.76l1.08-.59a15.79,15.79,0,0,0,1.45-.81c.22-.14.47-.22.69-.35s.68-.38,1-.58a1.83,1.83,0,0,0,.51-.29C34.48,22.88,34.92,22.56,35.41,22.32Z"/><path class="cls-3" d="M27.7,9.62a.38.38,0,0,0,.07-.29V7.14q0-3.37,0-6.75c0-.09.09-.21-.06-.27l0-.07c.4.22.8.41,1.17.65s.75.39,1.11.62.69.36,1,.55c.5.29,1,.53,1.51.85.21.14.47.21.68.35.49.31,1,.53,1.51.85.17.11.37.18.55.28.4.23.8.47,1.21.68l1.05.58,1.17.64c.51.26,1,.57,1.51.82.35.17.67.38,1,.56l.36.18-1.33.75c-.48.27-1,.5-1.45.81-.19.12-.4.21-.6.32-.54.29-1.09.57-1.62.89-.33.2-.69.36-1,.55l-1,.58-.55.3-1.06.57L32.17,12c-.33-.19-.68-.36-1-.56s-.37-.17-.55-.28c-.39-.24-.82-.43-1.21-.69-.21-.14-.46-.22-.68-.34l-.7-.4A.48.48,0,0,0,27.7,9.62Z"/><path class="cls-3" d="M27.84,26.47a.38.38,0,0,0-.07.29V35.7c0,.09-.08.21.07.28l-.05.07-.9-.5c-.49-.28-1-.53-1.49-.83s-.76-.39-1.14-.6l-1.05-.6c-.3-.17-.62-.32-.92-.49L20.8,32.2a7.8,7.8,0,0,0-.7-.38c-.25-.11-.47-.3-.72-.41a9.27,9.27,0,0,1-1-.56c-.4-.22-.81-.42-1.19-.66-.2-.12-.42-.23-.63-.34-.37-.19-.74-.4-1.1-.61-.16-.09-.33-.16-.49-.26s-.56-.28-.81-.46c0,0-.12,0-.24,0a2.68,2.68,0,0,1,.35-.22c.23-.14.47-.25.69-.4s.46-.24.69-.36l1.19-.65c.16-.09.33-.17.48-.27s.34-.15.49-.26a4.56,4.56,0,0,1,.44-.24c.29-.16.58-.34.88-.5s.51-.27.76-.42.49-.22.71-.36.71-.39,1.05-.6.63-.34,1-.52c.37.22.79.41,1.18.66.21.14.46.23.68.35s.69.42,1.05.6.73.42,1.11.6.51.27.76.42A.71.71,0,0,0,27.84,26.47Z"/><path class="cls-2" d="M46.21,22.59l3.28-.68c.39,1.82,1.9,2.72,4.53,2.72a4.74,4.74,0,0,0,2.77-.69,2.09,2.09,0,0,0,1-1.73,2.32,2.32,0,0,0-.44-1.39,3.13,3.13,0,0,0-1.88-1l-3.58-.92a8.86,8.86,0,0,1-2.72-1.06,4.21,4.21,0,0,1-1.4-1.69,5.13,5.13,0,0,1-.53-2.32,4.79,4.79,0,0,1,1.86-3.94,7.45,7.45,0,0,1,4.78-1.48,8.9,8.9,0,0,1,4.32,1,4.69,4.69,0,0,1,2.42,2.93l-3.21.78c-.5-1.39-1.65-2.08-3.46-2.08a3.87,3.87,0,0,0-2.41.64,2,2,0,0,0-.83,1.64c0,1,.87,1.78,2.61,2.2l3.18.78a6.51,6.51,0,0,1,3.89,2.1,5.15,5.15,0,0,1,1,3.06,5,5,0,0,1-2.08,4.25,8.76,8.76,0,0,1-5.39,1.55A10,10,0,0,1,49,26.15,5.59,5.59,0,0,1,46.21,22.59Z"/><path class="cls-2" d="M72.06,22l2.69.27a6.28,6.28,0,0,1-2,3.77,5.5,5.5,0,0,1-3.61,1.22,5.2,5.2,0,0,1-4.41-2,8.11,8.11,0,0,1-1.55-5,7.56,7.56,0,0,1,1.69-5.06,5.61,5.61,0,0,1,4.5-2q4.53,0,5.4,4.67l-2.69.37c-.24-1.69-1.09-2.53-2.54-2.53a2.45,2.45,0,0,0-2.32,1.37,6.92,6.92,0,0,0-.72,3.29,5.67,5.67,0,0,0,.75,3.17,2.39,2.39,0,0,0,2.1,1.11C70.7,24.62,71.61,23.76,72.06,22Z"/><path class="cls-2" d="M80.28,27H77.15V13.46H80v3.23a5.76,5.76,0,0,1,1.66-2.77,3.39,3.39,0,0,1,2.17-.87l.41,0v3.28c-1.59,0-2.65.5-3.17,1.49a6.35,6.35,0,0,0-.77,2.89Z"/><path class="cls-2" d="M89.59,11.87H86.46V8.69h3.13Zm0,15.14H86.46V13.46h3.13Z"/><path class="cls-2" d="M96.53,31.59H93.35V13.46h3v2.36a4.57,4.57,0,0,1,4.24-2.65,4.28,4.28,0,0,1,3.68,2,8.52,8.52,0,0,1,1.37,5,9.35,9.35,0,0,1-1.31,5,4.28,4.28,0,0,1-3.9,2.13,4.12,4.12,0,0,1-3.89-2.17Zm0-10.14a3.46,3.46,0,0,0,.9,2.45,2.69,2.69,0,0,0,2,1,2.31,2.31,0,0,0,2.19-1.29,6.78,6.78,0,0,0,.69-3.25,7,7,0,0,0-.7-3.36,2.24,2.24,0,0,0-2.09-1.3,2.67,2.67,0,0,0-2.12,1.06,4.26,4.26,0,0,0-.87,2.78Z"/><path class="cls-2" d="M113.5,23.53v2.39a11.9,11.9,0,0,1-2.17.29,4.43,4.43,0,0,1-2.17-.49,3,3,0,0,1-1.33-1.34,6.21,6.21,0,0,1-.42-2.62v-7h0l.18-2.38h0l.29-3.53,2.57-.23v3.76h2.78v2.38h-2.78v6.61a2.47,2.47,0,0,0,.47,1.74,2.59,2.59,0,0,0,1.79.46C113,23.55,113.22,23.55,113.5,23.53Z"/><path class="cls-2" d="M116,21.41l4.89-.59c.32,1.68,1.23,2.51,2.74,2.51a2.58,2.58,0,0,0,1.68-.52A1.72,1.72,0,0,0,126,21.4a1.61,1.61,0,0,0-.35-1,2,2,0,0,0-.75-.63,3.63,3.63,0,0,0-1.37-.18h-2.28V15.72h1.92a2.62,2.62,0,0,0,2-.53,1.77,1.77,0,0,0,.44-1.12,1.55,1.55,0,0,0-.55-1.21,2.09,2.09,0,0,0-1.44-.48,2.26,2.26,0,0,0-2.35,2.1l-4.53-.7a6.58,6.58,0,0,1,2.62-4,9,9,0,0,1,9.67,0,4.49,4.49,0,0,1,1.87,3.76,4,4,0,0,1-.79,2.45,3.84,3.84,0,0,1-2,1.41,4.18,4.18,0,0,1,3.37,4.31,4.73,4.73,0,0,1-2,4.09A9,9,0,0,1,124,27.29Q117.49,27.29,116,21.41Z"/></svg>