<svg id="Layer_1" data-name="Layer 1" xmlns="http://www.w3.org/2000/svg" viewBox="0 0 432 432"><defs><style>.cls-1{fill:#808285;opacity:0.2;}.cls-2,.cls-4{fill:#39b54a;}.cls-3{fill:#fff;stroke:#fff;}.cls-3,.cls-4{stroke-miterlimit:10;stroke-width:10px;}.cls-4{stroke:#3bb54a;}.cls-5{fill:#bf4c56;}.cls-6{fill:#dc94c0;}</style></defs><ellipse class="cls-1" cx="219.04" cy="321.09" rx="129.74" ry="51.1"/><rect class="cls-2" x="140.57" y="185.93" width="153.94" height="145.81" rx="34.82"/><path class="cls-3" d="M235.77,257.64c0,6.5-3.5,11.43-8.29,11.53s-8.61-4.84-8.72-11.34c-.11-6.27,3.79-11.67,8.47-11.72S235.73,251.09,235.77,257.64Z"/><path class="cls-3" d="M180.5,257.87c-.08,6.55-3.8,11.39-8.71,11.33-4.63-.06-8.39-5.24-8.37-11.55s3.92-11.6,8.63-11.57S180.57,251.5,180.5,257.87Z"/><path class="cls-4" d="M235.77,270c0,6.49-3.5,11.43-8.29,11.53s-8.61-4.85-8.72-11.35c-.11-6.27,3.79-11.67,8.47-11.72S235.73,263.44,235.77,270Z"/><path class="cls-4" d="M180.5,270.22c-.08,6.55-3.8,11.39-8.71,11.33-4.63-.05-8.39-5.24-8.37-11.55s3.92-11.59,8.63-11.57S180.57,263.86,180.5,270.22Z"/><path class="cls-5" d="M51.92,259.29c3-3.07,6.3-4.37,10.25-3.22,6.23,1.82,8.63,9.4,4,14.84-3.7,4.38-8.53,7.83-13,11.48-.65.53-2.6.31-3.37-.29a128.8,128.8,0,0,1-11.26-9.58,13.56,13.56,0,0,1-3.12-5.93,8.3,8.3,0,0,1,3.5-9.48,9.38,9.38,0,0,1,10.88.67C50.42,258.26,51.08,258.69,51.92,259.29Z"/><path class="cls-1" d="M115.52,282c-4.86.55-8.58-1.92-12.27-4.32a62,62,0,0,1-8.36-6c-5.68-5.26-13-4.07-18-.63-1.35.92-2.76,1.87-3.95.49-.65-.74-.65-2.44-.33-3.54A12.89,12.89,0,0,1,83,258.44a31.53,31.53,0,0,1,11.46,0c2.47.46,4.79,2.43,6.87,4.11,1.9,1.53,3.24,3.74,5.08,5.36a13.79,13.79,0,0,0,16.85,1.35,9.18,9.18,0,0,1,2.29-1.29,27,27,0,0,1,3.73-.45c.08,1.46.66,3.12.17,4.35C127.42,276.9,122.75,282.52,115.52,282Z"/><ellipse class="cls-6" cx="152.62" cy="276.9" rx="10.8" ry="5.8"/><ellipse class="cls-6" cx="243.92" cy="276.9" rx="10.8" ry="5.8"/><path class="cls-2" d="M165.54,161.7c8.11-.93,16.09-3.31,24.19-4.41,6.35-.87,12.68.14,17.76,5.22,2.84,2.85,5.39,6.11,5.09,11.15a105.51,105.51,0,0,0,0,12.7c0,.3,0,.58,0,.84a58.4,58.4,0,0,1,12.28,1.62,5.42,5.42,0,0,1,.17-1.15c.13-.55.17-1.12.26-1.68,1.84-11.54,3.18-23.15,2.27-34.87-.55-7.17-1.13-14.48-2.9-21.32-2.1-8.15-5.73-15.76-8.26-23.78-2.61-8.24-7.89-14-13.24-19.53a27.64,27.64,0,0,0-16.94-8.16c-10.77-1.21-21.59-2.19-32.4-2.32-6.12-.08-11.58-.94-16.29-5.62a9,9,0,0,0-1.84-1.45c-3.55-2-5.53-5.52-7.47-9.24a19.84,19.84,0,0,0-3.82-5.13c-2-1.84-3.89-1.24-5.24,1.22A15.32,15.32,0,0,0,118,58.62c-2.78,9.22-4.86,18.61-4.68,28.44.11,5.87.53,11.74,1,17.59.77,10.28,2.55,20.35,6.28,29.76C130.51,159.53,145.52,164,165.54,161.7Z"/><path class="cls-2" d="M239.55,154.76c-1-15.55,3.9-29.94,9.53-44.12,4.47-11.26,12.93-15,22.87-16,6.8-.74,13.72-.36,20.3-3.18,7.41-3.18,13.85-7.57,17.47-16.18,1.17-2.81,3.42-2.8,4.7-.13a33.31,33.31,0,0,1,3.67,14.34c0,8.17.17,16.35-.06,24.51a44.71,44.71,0,0,1-1.64,10c-1.5,5.62-3.14,11.23-5.11,16.64-3.9,10.69-11.73,15.29-21.13,16.92-7.66,1.34-15.38,2.24-23.06,3.4-6.6,1-11.64,5-15.62,11a62.57,62.57,0,0,1-4.62,6c-2.19,2.59-4.22,2.19-5.09-1.3a96.54,96.54,0,0,1-2.14-12.48A86.77,86.77,0,0,1,239.55,154.76Z"/></svg>