<svg id="Layer_1" data-name="Layer 1" xmlns="http://www.w3.org/2000/svg" viewBox="0 0 432 432"><defs><style>.cls-1{fill:#808285;opacity:0.2;}.cls-2{fill:#39b54a;}.cls-3{fill:#fff;stroke:#fff;stroke-miterlimit:10;stroke-width:10px;}</style></defs><ellipse class="cls-1" cx="217.37" cy="322.63" rx="129.74" ry="51.1"/><rect class="cls-2" x="140.4" y="184.38" width="153.94" height="145.81" rx="34.82"/><path class="cls-2" d="M228.58,189.47c0,1.68-.58,4.22-1.83,4.85C221.8,196.81,206.8,189,207,183.86c.36-8-4-12.1-11.67-15.38-15.72-6.73-31.11-14.09-46.46-21.49-11.66-5.62-21-13.88-22.15-26.07-1.82-18.58-2.13-37.29-2.45-55.95-.09-5.61,4.42-8.22,10-5.79C156.1,68.6,177.88,78,199.43,87.85c17.2,7.85,26.5,20.75,27.53,38.25.7,11.9,1.26,23.8,1.71,32.45C228.67,171,228.75,180.26,228.58,189.47Z"/><path class="cls-3" d="M239.45,257.29c0,6.5-3.5,11.43-8.28,11.53s-8.62-4.84-8.73-11.34c-.11-6.27,3.79-11.67,8.47-11.73S239.41,250.74,239.45,257.29Z"/><path class="cls-3" d="M184.18,257.52c-.08,6.55-3.8,11.39-8.71,11.33-4.63-.06-8.38-5.24-8.37-11.55s3.92-11.6,8.63-11.57S184.26,251.15,184.18,257.52Z"/><rect class="cls-2" x="109.15" y="159.9" width="48.52" height="12.58" rx="6.29" transform="translate(102.19 377) rotate(-132.82)"/><path class="cls-2" d="M302.41,106.17c3.84-6.57,1.28-12.81-5.3-16.65a20.26,20.26,0,0,0-11.58-2.69,11,11,0,0,1-10.84-7.51h0a10.12,10.12,0,0,1,9-13.4,47.75,47.75,0,0,1,27.61,6.36c17.92,10.45,26.6,27,15.53,45.93-10.06,17.24-33.08,12.94-44.84,24.92a10.61,10.61,0,0,1-12.9,1.44l-3.16-1.84c-6.17-3.6-7.38-11.94-2.3-16.62C276.25,114.46,296.7,116,302.41,106.17ZM241.69,157a14,14,0,0,1,24.1,14c-3.87,6.63-12,8.79-18.92,4.75S237.83,163.59,241.69,157Z"/><rect class="cls-2" x="89.31" y="191.03" width="48.52" height="12.58" rx="6.29" transform="translate(149.41 422.15) rotate(-159.14)"/><rect class="cls-2" x="84.89" y="225.85" width="48.52" height="12.58" rx="6.29" transform="translate(218.3 464.28) rotate(-180)"/></svg>