<svg id="Layer_1" data-name="Layer 1" xmlns="http://www.w3.org/2000/svg" viewBox="0 0 432 432"><defs><style>.cls-1{fill:#808285;}.cls-1,.cls-5{opacity:0.2;}.cls-2{fill:#39b54a;}.cls-3{fill:#fff;stroke:#fff;stroke-miterlimit:10;stroke-width:10px;}.cls-4{fill:#bf4c56;}.cls-5{fill:#231f20;}</style></defs><ellipse class="cls-1" cx="219.04" cy="321.09" rx="129.74" ry="51.1"/><rect class="cls-2" x="140.57" y="185.93" width="153.94" height="145.81" rx="34.82"/><path class="cls-2" d="M230.65,186.69c.3,1.64.24,4.24-.86,5.1-4.39,3.39-20.61-1.43-21.36-6.5-1.18-8-6.26-11.11-14.39-12.87-16.71-3.61-33.22-7.89-49.71-12.23-12.51-3.29-23.22-9.62-26.72-21.36-5.33-17.89-9.21-36.2-13.08-54.45-1.16-5.5,2.77-8.92,8.73-7.6C136.43,81.87,159.61,87,182.64,92.5c18.39,4.42,30,15.3,34.33,32.29,3,11.55,5.78,23.12,7.87,31.52C227.22,168.58,229.06,177.61,230.65,186.69Z"/><path class="cls-2" d="M284.07,75.78l-.13,0c1.6,6.54,3.42,13,4.75,19.64,1.76,8.83.4,17.67-5.93,23.65-15.22,14.4-31.17,28-47,41.68-3.25,2.81-6.77,2.17-7.63-2.71-2.94-16.72-6.12-33.43-8-50.27a19,19,0,0,1,5.1-14.11C240.17,79.45,255.85,66,271.44,52.49c3.35-2.9,6.41-1.91,7.61,2.81C280.76,62.12,282.4,69,284.07,75.78Z"/><path class="cls-3" d="M235.77,257.64c0,6.5-3.5,11.43-8.29,11.53s-8.61-4.84-8.72-11.34c-.11-6.27,3.79-11.67,8.47-11.72S235.73,251.09,235.77,257.64Z"/><path class="cls-3" d="M180.5,257.87c-.08,6.55-3.8,11.39-8.71,11.33-4.63-.06-8.39-5.24-8.37-11.55s3.92-11.6,8.63-11.57S180.57,251.5,180.5,257.87Z"/><rect class="cls-2" x="151.72" y="223.13" width="54.62" height="27.74" transform="translate(142.49 -57.76) rotate(30)"/><path class="cls-4" d="M294.68,190.63c-9.22.23-17.79-5.92-18.95-13.55-.3-2,.17-3.52,2.32-4.43a4.55,4.55,0,0,1,5.53,1c.42.43.84.85,1.23,1.29,4.08,4.74,9.47,6.06,15.74,5.07,1-.16,2.1-.61,2.87-.32,1.52.59,3.55,1.36,4.05,2.52s-.16,3.31-1.16,4.32C303.26,189.55,299.06,190.44,294.68,190.63Z"/><path class="cls-4" d="M292.48,206.34c.13-7.35,4-12.53,11.15-15.61a19.86,19.86,0,0,1,5.19-.9,3.66,3.66,0,0,1,4.18,2.35c.73,1.8.15,3.35-1.45,4.6s-3,2.29-4.39,3.57a10.13,10.13,0,0,0-3.07,9.72c.2,1.13.43,2.25.56,3.39a3.63,3.63,0,0,1-2.45,4.16,4.46,4.46,0,0,1-5.11-.91A13.09,13.09,0,0,1,292.48,206.34Z"/><path class="cls-4" d="M272.7,200.75c5.76-6.6,5.57-16.59-.37-22-1.56-1.43-3.16-2-5.25-1s-2.95,2.5-2.49,4.63c.12.56.23,1.13.38,1.68,1.66,5.84-.43,10.58-5.08,14.57-.71.62-1.79,1.17-2,1.91-.41,1.47-1,3.42-.25,4.48s3,1.88,4.45,1.75C266.58,206.38,269.89,203.85,272.7,200.75Z"/><path class="cls-4" d="M287.69,208.62c-6.47-4.35-13.3-4.63-20.3-1.25a17.7,17.7,0,0,0-3.91,3.25,3.13,3.13,0,0,0-.47,4.48,4.39,4.39,0,0,0,4.87,1.7c1.91-.39,3.82-.82,5.75-1.05a12.25,12.25,0,0,1,10.31,3.61c.86.82,1.7,1.67,2.62,2.45a4.25,4.25,0,0,0,5.09.71,3.76,3.76,0,0,0,2.29-4.28A13.5,13.5,0,0,0,287.69,208.62Z"/><rect class="cls-2" x="190.92" y="223.13" width="63.71" height="27.74" transform="translate(534.2 330.86) rotate(150)"/><path class="cls-5" d="M131.21,257.28c-.72,1.49-1.19,3.27-2.19,4.42q-7.68,8.78-15.62,17.27c-2.53,2.72-5.35,2.84-7.84.76-2.11-1.78-2.48-4.46-1.51-8.21a4.78,4.78,0,0,0-.55-3.53c-4.51-5.24-9.21-10.26-13.8-15.41-1.24-1.4-2.06-.88-3.14.31-2.18,2.4-4.14,5.2-7.69,5a5.61,5.61,0,0,1-5-3.59c-1.12-2.42-.42-4.73,1-6.68a41.72,41.72,0,0,1,3.64-4.19c1.12-1.2,1.12-2.09-.12-3.27Q57,219.74,35.78,199.27c-7.13-6.85-14.37-13.55-21.33-20.63a14,14,0,0,1-3.27-6.86C9.75,164.25,8.76,156.61,7.64,149c-.42-2.84.47-4,3-3.57,7.71,1.37,15.42,2.76,23.1,4.41a7.93,7.93,0,0,1,4,2.85q17.16,21.45,34.18,43.07c7,8.84,13.93,17.73,20.92,26.57,2.21,2.79,2.47,2.72,5,0a25.64,25.64,0,0,1,3.9-3.77c2.77-1.9,5.44-1.13,7.38,1.8,1.6,2.42,1.43,5.29-.58,8a44,44,0,0,1-3.39,4,2,2,0,0,0,0,3.14c4.58,5,9,10.17,13.83,14.91,1,1,3.2.87,4.68.46C127.56,249.83,130.81,252.37,131.21,257.28Z"/></svg>