<svg id="Layer_1" data-name="Layer 1" xmlns="http://www.w3.org/2000/svg" viewBox="0 0 432 432"><defs><style>.cls-1{fill:#808285;opacity:0.2;}.cls-2,.cls-4,.cls-5{fill:#39b54a;}.cls-3,.cls-6{fill:#fff;}.cls-3{stroke:#fff;}.cls-3,.cls-4,.cls-5{stroke-miterlimit:10;}.cls-3,.cls-4{stroke-width:10px;}.cls-4,.cls-5{stroke:#3bb54a;}.cls-5{stroke-width:6px;}</style></defs><ellipse class="cls-1" cx="219.04" cy="321.09" rx="129.74" ry="51.1"/><rect class="cls-2" x="140.57" y="185.93" width="153.94" height="145.81" rx="34.82"/><path class="cls-2" d="M228.75,191c0,1.67-.58,4.21-1.83,4.84-4.95,2.5-19.95-5.33-19.72-10.45.36-8-4-12.11-11.67-15.39-15.72-6.72-31.11-14.08-46.46-21.49-11.66-5.61-21-13.88-22.15-26.06-1.82-18.58-2.13-37.29-2.45-55.95-.09-5.62,4.42-8.23,10-5.8,21.77,9.42,43.55,18.84,65.1,28.68,17.2,7.85,26.51,20.74,27.53,38.25.7,11.9,1.26,23.8,1.71,32.44C228.84,172.59,228.92,181.8,228.75,191Z"/><path class="cls-2" d="M310.59,100.42h-.13c0,6.74.23,13.48-.06,20.21-.39,9-3.81,17.26-11.38,21.57-18.2,10.37-36.93,19.77-55.56,29.31-3.82,2-7.09.5-6.76-4.44,1.12-16.94,2-33.93,4.17-50.74a19.06,19.06,0,0,1,8.31-12.49c17.9-10.3,36.32-19.62,54.68-29,3.95-2,6.68-.34,6.72,4.54C310.62,86.36,310.59,93.4,310.59,100.42Z"/><path class="cls-3" d="M235.77,257.64c0,6.5-3.5,11.43-8.29,11.53s-8.61-4.84-8.72-11.34c-.11-6.27,3.79-11.67,8.47-11.72S235.73,251.09,235.77,257.64Z"/><path class="cls-3" d="M180.5,257.87c-.08,6.55-3.8,11.39-8.71,11.33-4.63-.06-8.39-5.24-8.37-11.55s3.92-11.6,8.63-11.57S180.57,251.5,180.5,257.87Z"/><rect class="cls-2" x="145.13" y="267.28" width="106.06" height="27.74"/><path class="cls-4" d="M236.06,275c0,6.5-3.51,11.43-8.29,11.53s-8.62-4.84-8.73-11.34c-.1-6.27,3.8-11.67,8.47-11.72S236,268.47,236.06,275Z"/><path class="cls-4" d="M180.78,275.25c-.08,6.55-3.8,11.39-8.7,11.33-4.64-.06-8.39-5.24-8.37-11.55s3.92-11.6,8.62-11.57S180.86,268.88,180.78,275.25Z"/><path class="cls-2" d="M116.77,200a2.45,2.45,0,0,1-2.63-2.86c.31-1.92.64-3.84,1.06-5.74a2.23,2.23,0,0,0-.84-2.45c-1.42-1.22-2.72-2.57-4.11-3.84a2.34,2.34,0,0,1-.91-2.61,2.68,2.68,0,0,1,2.54-1.68c1.77-.23,3.54-.51,5.33-.7a2.46,2.46,0,0,0,2.33-1.6c.68-1.62,1.61-3.16,2.39-4.76a2.69,2.69,0,0,1,2.59-1.8,2.64,2.64,0,0,1,2.45,1.76c.84,1.68,1.78,3.32,2.53,5a2.16,2.16,0,0,0,2,1.35c1.84.21,3.66.47,5.49.72,1.14.16,2.17.48,2.59,1.62s-.12,2-1,2.73c-1.34,1.23-2.6,2.55-4,3.73a2.37,2.37,0,0,0-.86,2.59,41.6,41.6,0,0,1,.95,5.61,2.92,2.92,0,0,1-.95,2.37,3.59,3.59,0,0,1-2.74.09,35.68,35.68,0,0,1-5.14-2.56,2.54,2.54,0,0,0-2.89,0c-1.62.92-3.32,1.71-5,2.53A10.78,10.78,0,0,1,116.77,200Zm15.17-15.19c-4,.12-6.45-1.49-7.5-5.1-1,3.71-3.49,5.17-7.49,5.09,3.37,2.19,4.37,4.89,3,8.54,3.11-2.47,6-2.29,9.1,0C127.63,189.7,128.49,187,131.94,184.76Z"/><path class="cls-2" d="M84.89,283a12.23,12.23,0,0,1,.64-3.28c1.43-3-.17-4.88-2.19-6.68a20.31,20.31,0,0,1-1.89-1.82,2.16,2.16,0,0,1,1.22-3.69c1.76-.27,3.53-.48,5.3-.64A2.19,2.19,0,0,0,90,265.51a32.55,32.55,0,0,1,2.41-4.61,2.73,2.73,0,0,1,2-1.25,3,3,0,0,1,1.91,1.45,41.1,41.1,0,0,1,2.25,4.68,1.93,1.93,0,0,0,1.68,1.35,41.21,41.21,0,0,1,5.31.92,3.53,3.53,0,0,1,1.91,1.52,2,2,0,0,1-.68,2.47c-1.31,1.23-2.6,2.49-3.94,3.68a1.82,1.82,0,0,0-.66,1.93c.32,1.7.5,3.43.8,5.13.19,1,.07,2.06-.81,2.42a3.46,3.46,0,0,1-2.49-.06,28.33,28.33,0,0,1-4.32-2.36,2.39,2.39,0,0,0-2.74,0c-1.4.77-2.83,1.51-4.29,2.17C86.62,285.72,85.51,285.21,84.89,283Zm13.27-3.65c-1.15-3.4-.29-5.85,2.49-7.75-3.55.25-5.3-1.77-6.41-5-.95,3.56-3.18,4.93-6.62,4.8,2.92,2,3.57,4.45,2.34,7.68C92.74,277,95.36,277.08,98.16,279.38Z"/><path class="cls-2" d="M348.84,233.88c-4.63,7.08-14.51,8.79-22.1,3.83-7.43-4.85-9.89-14.69-5.4-21.62s14.55-8.83,22.12-4S353.46,226.82,348.84,233.88Zm-18.31-1.63c4.37,2.77,9.93,1.69,12.48-2.44a9.25,9.25,0,0,0-15.7-9.7C324.79,224.16,326.21,229.51,330.53,232.25Z"/><path class="cls-5" d="M117.24,257.26a2.15,2.15,0,0,1-2.63-1.61,2.06,2.06,0,1,1,2.63,1.61Z"/><path class="cls-5" d="M312.24,251.24a3.6,3.6,0,0,1-1.24-4.57,3.51,3.51,0,0,1,4.85-.69c1.49,1.07,2.06,3.12,1.23,4.41A3.65,3.65,0,0,1,312.24,251.24Z"/><path class="cls-6" d="M131.94,184.76c-3.45,2.21-4.31,4.94-2.91,8.53-3.08-2.29-6-2.47-9.1,0,1.39-3.65.39-6.35-3-8.54,4,.08,6.53-1.38,7.49-5.09C125.49,183.27,127.89,184.88,131.94,184.76Z"/><path class="cls-6" d="M98.16,279.38c-2.8-2.3-5.42-2.36-8.2-.23,1.23-3.23.58-5.7-2.34-7.68,3.44.13,5.67-1.24,6.62-4.8,1.11,3.19,2.86,5.21,6.41,5C97.87,273.53,97,276,98.16,279.38Z"/><path class="cls-6" d="M330.53,232.25c-4.32-2.74-5.74-8.09-3.22-12.14a9.25,9.25,0,0,1,15.7,9.7C340.46,233.94,334.9,235,330.53,232.25Z"/><path class="cls-5" d="M95.13,212.07a3.18,3.18,0,0,1-.47-4.09c1-1.48,2.89-2,4-1.2a3,3,0,0,1,.49,3.93C98.26,212.17,96.25,212.83,95.13,212.07Z"/><path class="cls-5" d="M339.85,268.79a2.21,2.21,0,1,1,1.37-2.63A2.13,2.13,0,0,1,339.85,268.79Z"/><path class="cls-5" d="M309.16,185a2.21,2.21,0,1,1,1.36-2.63A2.11,2.11,0,0,1,309.16,185Z"/></svg>