<svg id="Layer_1" data-name="Layer 1" xmlns="http://www.w3.org/2000/svg" viewBox="0 0 432 432"><defs><style>.cls-1{fill:#808285;opacity:0.2;}.cls-2{fill:#39b54a;}.cls-3,.cls-4{fill:#fff;}.cls-3{stroke:#fff;stroke-miterlimit:10;stroke-width:10px;}.cls-5{fill:#d1d3d4;}.cls-6{fill:#5b6559;}.cls-7{fill:#f19422;}</style></defs><ellipse class="cls-1" cx="219.04" cy="321.09" rx="129.74" ry="51.1"/><rect class="cls-2" x="140.57" y="185.93" width="153.94" height="145.81" rx="34.82"/><path class="cls-2" d="M228.75,191c0,1.67-.58,4.21-1.83,4.84-4.95,2.5-19.95-5.33-19.72-10.45.36-8-4-12.11-11.67-15.39-15.72-6.72-31.11-14.08-46.46-21.49-11.66-5.61-21-13.88-22.15-26.06-1.82-18.58-2.13-37.29-2.45-55.95-.09-5.62,4.42-8.23,10-5.8,21.77,9.42,43.55,18.84,65.1,28.68,17.2,7.85,26.51,20.74,27.53,38.25.7,11.9,1.26,23.8,1.71,32.44C228.84,172.59,228.92,181.8,228.75,191Z"/><path class="cls-2" d="M310.59,100.42h-.13c0,6.74.23,13.48-.06,20.21-.39,9-3.81,17.26-11.38,21.57-18.2,10.37-36.93,19.77-55.56,29.31-3.82,2-7.09.5-6.76-4.44,1.12-16.94,2-33.93,4.17-50.74a19.06,19.06,0,0,1,8.31-12.49c17.9-10.3,36.32-19.62,54.68-29,3.95-2,6.68-.34,6.72,4.54C310.62,86.36,310.59,93.4,310.59,100.42Z"/><path class="cls-3" d="M235.77,257.64c0,6.5-3.5,11.43-8.29,11.53s-8.61-4.84-8.72-11.34c-.11-6.27,3.79-11.67,8.47-11.72S235.73,251.09,235.77,257.64Z"/><path class="cls-3" d="M180.5,257.87c-.08,6.55-3.8,11.39-8.71,11.33-4.63-.06-8.39-5.24-8.37-11.55s3.92-11.6,8.63-11.57S180.57,251.5,180.5,257.87Z"/><rect class="cls-2" x="148.78" y="221.84" width="106.06" height="27.74"/><path class="cls-4" d="M143.77,287.77c4.83-.59,9.66-1.19,14.5-1.76.92-.11,1.86-.07,2.79-.11q.75,5.53,1.49,11.05c-1.82,2-4.33,1.47-6.52,2-4.17.93-8.42,1.45-12.64,2.13-5.25.63-10.5,1.28-15.76,1.87a5.89,5.89,0,0,1-1.78-.39c0-.38-.08-.77-.11-1.16l-.36-2.39,0-.89-.1-1.26-.13-1.22-.47-2.36-.06-1.71c.47-.36.9-.95,1.41-1,4.31-.69,8.63-1.27,12.95-1.92,1.1-.16,2.19-.44,3.28-.67Z"/><path class="cls-5" d="M118.11,244.51c2.4,0,4.26-.1,6.11.05a2.81,2.81,0,0,1,1.59,1.2c3.06,4.1,3.74,8.85,2.75,13.86a24.36,24.36,0,0,1-7.17,12.89c-3.89,3.77-4.06,5.63-.78,10,.28.37.78.67.85,1.07a13.59,13.59,0,0,1,.27,3.75c0,.24-1.66.47-2.5.34-6-.91-9.68-7.67-8-14.74,1.08-4.45,3-8.34,6.69-10.93,4.43-3.16,4-7.14,2.48-11C119.67,249,119,247,118.11,244.51Z"/><path class="cls-6" d="M125.12,295.6l.13,1.22.1,1.26,0,.9.36,2.38c0,.39.07.78.11,1.16-.28,1.88-1.76,1.13-2.71,1.38-3.46.89-4.06.28-4.28-3.47-.14-2.42-.65-4.8-.84-7.22,0-.64.34-1.78.74-1.92a22.93,22.93,0,0,1,4.72-.93c.34,0,.74.76,1.11,1.17l.06,1.71C124.81,294,125,294.81,125.12,295.6Z"/><path class="cls-7" d="M162.55,297q-.74-5.52-1.49-11.05a6,6,0,0,1,1.36-.5c3.69-.44,7.39-.82,11.08-1.24.62-.07,1.22-.27,1.82-.39a3.35,3.35,0,0,1,4,3.1c.17,1.41.35,2.83.4,4.25.1,3.21-1.07,4.53-4,4.91-3.39.45-6.76,1.09-10.16,1.48A10.35,10.35,0,0,1,162.55,297Z"/></svg>