<svg id="Layer_1" data-name="Layer 1" xmlns="http://www.w3.org/2000/svg" viewBox="0 0 432 432"><defs><style>.cls-1{fill:#3eb44a;}.cls-2{fill:#808285;opacity:0.2;}.cls-3{fill:#2978bb;}.cls-4{fill:#c8c8c8;}.cls-5{fill:#383938;}.cls-6{fill:#f8b043;}.cls-7{fill:#fff;}.cls-8{fill:#606161;}</style></defs><path class="cls-1" d="M193.76,165.48l1.3,0c.53.45,1,1.14,1.58,1.3,12,3.1,24.05,6.13,36.07,9.21q16.32,4.17,32.61,8.4c4.29,1.11,8.57,2.25,12.85,3.38a1.73,1.73,0,0,0-.07,2.86,22.58,22.58,0,0,0,3.21,2.63c4,2.67,4.6,4.34,3.41,9a22.26,22.26,0,0,0-.18,10.82,13,13,0,0,0,7,8.65c-1,3.61-2,7.22-3,10.84q-3.74,13.92-7.43,27.86c-1.61,6-2.87,12.18-4.95,18-3.48,9.81-10.87,15.23-21.33,16.74-4,.58-7.83-.33-11.64-1.29Q227.78,290,212.38,286q-16-4.12-32.09-8.32c-2.28-.59-4.59-1.08-6.82-1.8-9.33-3-15-9.34-17.37-18.66-1.31-5.2-.18-10.17,1.17-15.18,3.72-13.82,7.32-27.67,11-41.49,1.63-6.14,3-12.36,5.1-18.35,3.18-9.17,9.91-14.65,19.62-16.5a4.83,4.83,0,0,0,.64-.22l.09.08Zm1.92,62.7c4-4.55,4.77-12.33,1.78-17.16a9.44,9.44,0,0,0-13.17-3.26,14,14,0,0,0-6.45,8.38,12.82,12.82,0,0,0-.3,7.86c3-3,6.24-4.73,10.42-3.85S194.31,224.17,195.68,228.18Zm42.86,11.19a8.25,8.25,0,0,0,1.09-1.14,16.21,16.21,0,0,0,2.52-12c-1.58-8.06-9.1-10.82-15.08-7.21a14.05,14.05,0,0,0-6.58,10,10.2,10.2,0,0,0,.21,6c3-2.93,6.26-4.54,10.38-3.77A9.74,9.74,0,0,1,238.54,239.37Z"/><path class="cls-2" d="M335.05,338.25c3.59.62,7.21,1.08,10.75,1.87,5.84,1.3,11.72,2.56,17.42,4.32,5.11,1.57,10.2,3.37,14.32,7.07,3,2.71,2.18,6.49-.66,8.66a39,39,0,0,1-12.52,6c-5.67,1.72-11.43,3.24-17.24,4.44-6.95,1.43-14,2.49-21,3.61-4.7.75-9.41,1.38-14.13,1.94-3.73.45-7.48.71-11.21,1.07-5.41.53-10.81,1.09-16.22,1.59-2.12.2-4.25.26-6.38.4l-20.48,1.3c-2.19.13-4.37.27-6.56.33-5.12.15-10.23.25-15.35.37-5.51.12-11,.27-16.54.33-12.56.13-25.12.25-37.68.29-4.78,0-9.56-.19-14.34-.31-4.15-.1-8.32-.17-12.47-.34q-10.51-.45-21-1c-5-.28-10.08-.58-15.11-1-6.75-.58-13.49-1.27-20.23-1.95-6.52-.65-13-1.21-19.54-2.06-6-.79-12.07-1.79-18.06-2.91-6.55-1.21-13.08-2.53-19.56-4.05a61.88,61.88,0,0,1-16.65-6.05,15.42,15.42,0,0,1-4.74-3.9c-2.14-2.89-.89-5.71,2.46-8,6.61-4.43,14.24-6.39,21.86-8.28,3.75-.93,7.55-1.66,11.33-2.43,2.19-.45,4.39-.82,6.59-1.22a35.63,35.63,0,0,0,9.59,15.52c7.82,7.51,17.19,10.12,27.82,8.67,7.53-1,14.35-3.84,19.75-9.17a32.16,32.16,0,0,0,10-21c.74-1.23,1.87-1.46,3.25-1.43,1.62,0,3.24-.21,4.86-.27q9.09-.37,18.18-.7c3.7-.13,7.41-.21,11.12-.35a7.64,7.64,0,0,0,1.46-.32,2.34,2.34,0,0,1,.66.1,48.2,48.2,0,0,0,22,4.88c6.69,0,13.37-.29,20.06-.27,10.8,0,21.6.11,32.4.37,6.4.15,12.54-.54,18.19-3.72.71.1,1.41.22,2.12.29,1.42.14,2.85.25,4.28.37.12.93.16,1.87.37,2.77.76,3.19,1.1,6.59,2.46,9.52,6,12.89,16.88,18.88,30.88,19.45,8,.32,15.22-2.51,21.49-7.45,4.25-3.34,8.08-7.06,10.15-12.16C333.81,341.75,334.41,340,335.05,338.25Z"/><path class="cls-3" d="M261.37,330.68c-5.65,3.18-11.79,3.87-18.19,3.72-10.8-.26-21.6-.34-32.4-.37-6.69,0-13.37.25-20.06.27a48.2,48.2,0,0,1-22-4.88,2.34,2.34,0,0,0-.66-.1,3.66,3.66,0,0,0-.64-.54,56,56,0,0,1-14-10.57q-13.32-13.08-26.69-26.12c-1.51-1.47-3.19-2.76-4.79-4.14.89-2.89,1.74-5.79,2.68-8.66,1.44-4.38,3-8.73,4.44-13.1l24.16,23.66c4,3.95,8,7.93,12.07,11.84,1.4,1.34,3,2.5,4.46,3.75a15.13,15.13,0,0,0,5.8,5.81,24.62,24.62,0,0,0,13.54,3.41c11.6,0,23.2-.2,34.8-.21,4.11,0,8.21.35,12.31.48,3.78.12,7.56.15,11.17-1.18,4.3-1.59,7.74-4.17,9.78-8.33,5.21-5,10.38-10,15.64-14.91a93.39,93.39,0,0,1,9.09-7.92A33.26,33.26,0,0,1,306,276.45c12.44,1.51,21.38,8,27,18.8,1.52,2.91,2.29,6.19,3.52,9.59l-9.9.67a14.53,14.53,0,0,0-2.15-.33c-12.1,0-24.2,0-36.31,0a4.41,4.41,0,0,0-2.76,1.17c-5.85,5.74-11.63,11.56-17.4,17.38a10.62,10.62,0,0,0-1.18,1.92Z"/><path class="cls-4" d="M129.12,266.19c-1.48,4.37-3,8.72-4.44,13.1-.94,2.87-1.79,5.77-2.68,8.66q-2.2,6.93-4.4,13.84a21.45,21.45,0,0,1-2.69-.61c-3.92-1.46-7.8-3-11.71-4.46-1.14-.42-2.36-.63-3.54-.94,2.19-7.22,4.32-14.47,6.6-21.67,2.93-9.21,6-18.39,9-27.58q5.34-16.32,10.69-32.62,4.65-14.26,9.27-28.55,6-18.53,11.88-37.06,5.19-16.28,10.34-32.55c1-3.17,1-3.24-2.28-3.54-2-.18-4-.14-6.06-.2a21.94,21.94,0,0,0,.27-2.27c0-5.55,0-11.1.06-16.66l31,0c.68,0,1.35,0,2,0l5.8.15c0,4.08,0,8.15.05,12.23,0,2.08.11,4.17.17,6.25-1.5.13-3,.35-4.49.38-5.16.11-5.21.08-6.77,4.87-5.37,16.5-10.66,33-16.1,49.52-1.59,4.83-3.69,9.49-5.33,14.29-1.32,3.87-2.25,7.87-3.45,11.78q-4.49,14.58-9.08,29.14c-4.55,14.38-9.17,28.75-13.76,43.12C129.31,265.21,129.23,265.71,129.12,266.19Z"/><path class="cls-1" d="M188.22,93.16l-5.8-.15c.75-4.29,1.4-8.6,2.27-12.86,1.37-6.71,2.85-13.39,4.35-20.06.81-3.67,1.74-7.3,2.64-11,1-4.17,5.1-5.18,8.29-3.07,3,2,5.78,4.21,8.62,6.38q14.58,11.13,29.12,22.32c4.06,3.14,8.16,6.27,11.95,9.71a32.08,32.08,0,0,1,10.77,19.77,34.79,34.79,0,0,1-.56,12c-1.59,7.45-3.09,14.92-4.62,22.38a5.43,5.43,0,0,0-.05,1c-.88,3.18-1.85,6.34-2.62,9.54a7.59,7.59,0,0,1-6.36,5.76c-4.32.41-8.28-.95-12.13-2.67-.43-.19-.71-.87-.9-1.38a30.53,30.53,0,0,0-1.37-3.87c-2.29-4.2-6.5-6.43-10.14-9.24q-14.3-11.5-28.58-23a27.57,27.57,0,0,1-2.61-2.78l2.71,0c8.21,0,16.43.13,24.65,0,6.8-.11,11.32-6,9.7-12.22-1.08-4.17-5.25-7.18-10.4-7.19-9.12,0-18.23.1-27.35.19A6.61,6.61,0,0,0,188.22,93.16Z"/><path class="cls-5" d="M99.66,295.78c1.18.31,2.4.52,3.54.94,3.91,1.45,7.79,3,11.71,4.46a21.45,21.45,0,0,0,2.69.61,47.3,47.3,0,0,0,3.83,6.12,33.73,33.73,0,0,1,6.65,12.1,29.49,29.49,0,0,1,1.15,12.38,32.16,32.16,0,0,1-10,21c-5.4,5.33-12.22,8.15-19.75,9.17-10.63,1.45-20-1.16-27.82-8.67a35.63,35.63,0,0,1-9.59-15.52c-.52-3.2-1.49-6.41-1.42-9.59a40.3,40.3,0,0,1,1.81-10.52,29.8,29.8,0,0,1,9.39-13.87,31,31,0,0,1,16.89-7.9C92.36,296,96,296,99.66,295.78Zm-4.5,19a14.7,14.7,0,0,0-15,14.18c-.23,7.66,6.49,14.66,14.25,14.86,8.15.2,15.13-6.11,15.47-13.8C110.27,321.19,102.65,314.38,95.16,314.8Z"/><path class="cls-1" d="M265.07,144c1.91-5,3.86-10,5.71-15,2-5.48,6.05-8.6,11.7-9.92,6.78-1.59,13.54-3.26,20.33-4.78,8.1-1.81,16.22-3.5,24.33-5.24.5-.11,1-.21,1.48-.34,3.64-1,5.91,1,5,4.61-1.39,5.52-3,11-4.47,16.47-1.2,4.43-2.35,8.87-3.55,13.29-1.44,5.3-3.81,10-8.5,13.35-2.78,2-6.05,2.63-9.26,3.39-6.94,1.65-13.9,3.2-20.85,4.79l-4.75,1.08c-.31-.65-.65-1.28-.92-1.93A40.8,40.8,0,0,0,268,146.22C267,145.5,266,144.76,265.07,144Z"/><path class="cls-5" d="M266.84,325.68a10.62,10.62,0,0,1,1.18-1.92c5.77-5.82,11.55-11.64,17.4-17.38a4.41,4.41,0,0,1,2.76-1.17c12.11-.07,24.21,0,36.31,0a14.53,14.53,0,0,1,2.15.33c5.07,5.8,8.33,12.42,8.74,20.11.23,4.19-.19,8.42-.33,12.63-.64,1.74-1.24,3.5-1.93,5.22-2.07,5.1-5.9,8.82-10.15,12.16-6.27,4.94-13.49,7.77-21.49,7.45-14-.57-24.86-6.56-30.88-19.45-1.36-2.93-1.7-6.33-2.46-9.52-.21-.9-.25-1.84-.37-2.77Zm34.79-10.94a14.62,14.62,0,0,0-14.84,14.5,14.83,14.83,0,0,0,29.65-.06C316.47,321.37,309.63,314.71,301.63,314.74Z"/><path class="cls-6" d="M265.07,144c1,.74,1.93,1.48,2.9,2.2a40.8,40.8,0,0,1,13.35,17.53c.27.65.61,1.28.92,1.93a45.32,45.32,0,0,1,1.27,19.95,19,19,0,0,1-.56,2.06l-4.78,0c-4.28-1.13-8.56-2.27-12.85-3.38q-16.31-4.22-32.61-8.4c-12-3.08-24.05-6.11-36.07-9.21-.6-.16-1-.85-1.58-1.3a40,40,0,0,1,20.76-25.11c1.89-1,3.91-1.69,5.86-2.53,3.64,2.81,7.85,5,10.14,9.24a30.53,30.53,0,0,1,1.37,3.87c.19.51.47,1.19.9,1.38,3.85,1.72,7.81,3.08,12.13,2.67a7.59,7.59,0,0,0,6.36-5.76c.77-3.2,1.74-6.36,2.62-9.54Zm1,23.83a5.14,5.14,0,0,0,5.13-5.43,4.57,4.57,0,0,0-4.51-4.81c-3.11.11-4.78,2.15-5,5.54A4.39,4.39,0,0,0,266,167.85Zm14-4.27c.05-2-1-3.24-2.74-3.31a3.42,3.42,0,0,0-3.51,3.62c-.06,2.06,1,3.42,2.74,3.49C278.57,167.46,280,165.9,280.07,163.58Z"/><path class="cls-5" d="M306.44,247.58c-3.76,0-5.36-1.34-5.18-4.3A3.83,3.83,0,0,1,304,240a20.83,20.83,0,0,1,3.34-.38c6.23-.26,12.47-.45,18.7-.71,4.32-.18,8.63-.46,12.95-.65,5.55-.25,11.11-.44,16.67-.69,7-.31,14-.66,21-1s14.25-.64,21.37-1c5.49-.28,11-.7,16.46-.94,3.26-.14,4.68,1.38,4.51,4.5-.11,2.1-1.71,3.27-4.75,3.41-1.35.07-2.71,0-4.06,0q-12.12.49-24.24,1c-3.93.18-7.85.44-11.77.63-7.35.35-14.7.67-22,1-4.21.2-8.41.45-12.61.65-7.41.35-14.81.66-22.22,1C313.61,247.13,309.92,247.38,306.44,247.58Z"/><path class="cls-5" d="M149.43,93.08c0,5.56,0,11.11-.06,16.66a21.94,21.94,0,0,1-.27,2.27c-9.57,0-19.14,0-28.71,0a10.35,10.35,0,0,1-8.76-4.15,9.33,9.33,0,0,1,7.19-15c7.32-.48,14.7-.12,22.05-.12,1.91,0,3.83,0,5.74,0C147.55,92.79,148.49,93,149.43,93.08Z"/><path class="cls-5" d="M188.22,93.16a6.61,6.61,0,0,1,1.58-.42c9.12-.09,18.23-.21,27.35-.19,5.15,0,9.32,3,10.4,7.19,1.62,6.26-2.9,12.11-9.7,12.22-8.22.13-16.44,0-24.65,0l-2.71,0-2.05-.34c-.06-2.08-.15-4.17-.17-6.25C188.23,101.31,188.23,97.24,188.22,93.16Z"/><path class="cls-4" d="M257.21,305.42c-2,4.16-5.48,6.74-9.78,8.33-3.61,1.33-7.39,1.3-11.17,1.18-4.1-.13-8.2-.48-12.31-.48-11.6,0-23.2.17-34.8.21a24.62,24.62,0,0,1-13.54-3.41,15.13,15.13,0,0,1-5.8-5.81c1.41,0,2.82,0,4.23,0Z"/><path class="cls-1" d="M397,154.47c-.68-.25-2-.71-3.38-1.26a10.35,10.35,0,0,1-2.37-1.26c-2.55-2-5-1.64-7.6,0-1.41.88-3,1.51-4.47,2.29a3.7,3.7,0,0,1-4.12-.16,3.22,3.22,0,0,1-1.24-3.54,55.68,55.68,0,0,1,1.24-6.17,3.71,3.71,0,0,0-1.39-4.24c-1.73-1.5-3.36-3.11-5-4.68-1-.88-1.61-1.88-1.18-3.23a3.2,3.2,0,0,1,2.84-2.28c2.33-.32,4.67-.68,7-.95,1.65-.2,3-.64,3.69-2.37.88-2.08,2.11-4,3.12-6a3.72,3.72,0,0,1,6.72-.12c1,2.1,2.22,4.09,3.17,6.21a3.71,3.71,0,0,0,3.24,2.27c2.5.33,5,.72,7.5,1,1.46.18,2.59.91,2.75,2.27a4.2,4.2,0,0,1-.88,2.94,68.65,68.65,0,0,1-5.5,5.14,3.65,3.65,0,0,0-1.14,4,41.23,41.23,0,0,1,1.07,6.52C401.21,153.21,399.92,154.48,397,154.47Zm.21-19.38c-4.78.07-8-2-9.51-6-1.34,1.55-2.37,3.38-4,4.38s-3.81,1.27-5.85,1.88c3.88,2.47,5.33,5.95,3.76,10.6,4-2.9,7.84-2.6,11.82-.07C391.79,141.2,393.24,137.78,397.17,135.09Z"/><path class="cls-1" d="M28.65,270.1c.36-1.88.77-4.27,1.29-6.64a3.4,3.4,0,0,0-1.09-3.59c-1.83-1.63-3.66-3.28-5.42-5-2.16-2.09-1.49-4.72,1.46-5.37,2.57-.58,5.21-.83,7.82-1.16a3.8,3.8,0,0,0,3.2-2.35c.93-1.95,2-3.85,2.93-5.78a3.94,3.94,0,0,1,3.55-2.43,3.76,3.76,0,0,1,3.41,2.34,37.66,37.66,0,0,1,2.56,5c.91,2.63,2.85,3.27,5.33,3.46a38.66,38.66,0,0,1,6.15.91c2.87.69,3.56,3.23,1.49,5.27-1.74,1.72-3.58,3.36-5.42,5a3.51,3.51,0,0,0-1.14,3.73c.46,2.05.83,4.12,1.16,6.19.51,3.28-1.79,5.16-4.92,3.93a56.67,56.67,0,0,1-6.22-2.9,4.55,4.55,0,0,0-4.77-.08c-2.1,1.16-4.27,2.23-6.47,3.19C30.91,275,28.57,273.4,28.65,270.1ZM48,265.43c0-2.05-.47-4.2.13-6s2.27-3.27,3.58-5c-4.5.17-7.76-1.78-9.44-6.25-1.46,4.87-5.16,6.15-10,6.4,4.47,2.85,5.78,6.38,3.94,11.31C40.43,262.6,44.34,262.78,48,265.43Z"/><path class="cls-5" d="M303.11,274.51h-2.88c-2.34,0-3.94-1.43-4-3.55a4.26,4.26,0,0,1,3.88-4.06c3-.17,6.06-.25,9.09-.37,8.35-.34,16.71-.66,25.07-1,4.09-.18,8.17-.44,12.26-.64,7.29-.35,14.58-.59,21.86-1.06,2-.13,3.85-.46,5.38,1.29a3.77,3.77,0,0,1-1.75,6,11.4,11.4,0,0,1-2.48.34c-6.23.25-12.46.45-18.69.71-4.14.17-8.28.45-12.43.64-5.66.25-11.33.44-17,.69q-6.23.29-12.44.65c-2,.11-3.91.3-5.87.45Z"/><path class="cls-5" d="M313.83,218.66c-2.32,0-4.35-1.39-4.74-3a3.69,3.69,0,0,1,1.86-4.24,9.36,9.36,0,0,1,3.24-.66c6.17-.28,12.35-.46,18.52-.72,7-.3,14-.66,21-1l21.36-1c2.69-.12,5.38-.26,8.08-.32,2.47-.05,4.31,1.53,4.32,3.63a4.66,4.66,0,0,1-4.08,4l-9.42.36q-12.28.51-24.57,1c-3.93.17-7.84.44-11.76.63l-22,1A13.89,13.89,0,0,0,313.83,218.66Z"/><path class="cls-5" d="M278.17,187.72l4.78,0a15.2,15.2,0,0,1,2.91,1.45,15.54,15.54,0,0,1,5.73,9.11c0,1.1.08,2.21,0,3.3-.2,2.36-.54,4.7-.72,7.06s-.06,4.83,2.27,6.43a29.18,29.18,0,0,0,2.76,2.47,3.07,3.07,0,0,1,1.14,3.83c-.6,1.46-1.84,1-2.88.9a19.89,19.89,0,0,1-2.6-.59,13,13,0,0,1-7-8.65,22.26,22.26,0,0,1,.18-10.82c1.19-4.63.57-6.3-3.41-9a22.58,22.58,0,0,1-3.21-2.63A1.73,1.73,0,0,1,278.17,187.72Z"/><path class="cls-1" d="M106.36,210.44a6.83,6.83,0,0,1-6.61,6.82,7.18,7.18,0,0,1-7.1-7,6.86,6.86,0,0,1,13.71.17Z"/><path class="cls-1" d="M382.23,295.26c3.79.06,7,3.15,6.87,6.75-.18,4.5-3.07,6.75-6.89,6.9s-6.9-3.33-6.83-7.21A6.5,6.5,0,0,1,382.23,295.26Z"/><path class="cls-1" d="M346.67,176.14a6.7,6.7,0,0,1,6.49-6.87,7,7,0,0,1,7.19,6.82,6.8,6.8,0,0,1-6.68,6.91A7,7,0,0,1,346.67,176.14Z"/><path class="cls-1" d="M293.13,215c-2.33-1.6-2.45-4-2.27-6.43s.52-4.7.72-7.06c.09-1.09,0-2.2,0-3.3a49.91,49.91,0,0,1,2.25,6.89A18.38,18.38,0,0,1,293.13,215Z"/><polygon class="cls-6" points="193.75 165.48 193.73 165.59 193.64 165.51 193.67 165.41 193.75 165.48"/><path class="cls-7" d="M195.68,228.18c-1.37-4-3.44-7.13-7.72-8s-7.44.87-10.42,3.85a12.82,12.82,0,0,1,.3-7.86,14,14,0,0,1,6.45-8.38A9.44,9.44,0,0,1,197.46,211C200.45,215.85,199.73,223.63,195.68,228.18Z"/><path class="cls-7" d="M238.54,239.37a9.74,9.74,0,0,0-7.46-8.19c-4.12-.77-7.43.84-10.38,3.77a10.2,10.2,0,0,1-.21-6,14.05,14.05,0,0,1,6.58-10c6-3.61,13.5-.85,15.08,7.21a16.21,16.21,0,0,1-2.52,12A8.25,8.25,0,0,1,238.54,239.37Z"/><path class="cls-8" d="M266.84,325.68l.93,5.66c-1.43-.12-2.86-.23-4.28-.37-.71-.07-1.41-.19-2.12-.29Z"/><path class="cls-4" d="M95.16,314.8c7.49-.42,15.11,6.39,14.72,15.24-.34,7.69-7.32,14-15.47,13.8-7.76-.2-14.48-7.2-14.25-14.86A14.7,14.7,0,0,1,95.16,314.8Z"/><path class="cls-4" d="M301.63,314.74c8,0,14.84,6.63,14.81,14.44a14.83,14.83,0,0,1-29.65.06A14.62,14.62,0,0,1,301.63,314.74Z"/><path class="cls-5" d="M266,167.85a4.39,4.39,0,0,1-4.37-4.7c.21-3.39,1.88-5.43,5-5.54a4.57,4.57,0,0,1,4.51,4.81A5.14,5.14,0,0,1,266,167.85Z"/><path class="cls-5" d="M280.07,163.58c-.05,2.32-1.5,3.88-3.51,3.8-1.74-.07-2.8-1.43-2.74-3.49a3.42,3.42,0,0,1,3.51-3.62C279,160.34,280.12,161.63,280.07,163.58Z"/><path class="cls-7" d="M397.17,135.09c-3.93,2.69-5.38,6.11-3.74,10.81-4-2.53-7.85-2.83-11.82.07,1.57-4.65.12-8.13-3.76-10.6,2-.61,4.21-.84,5.85-1.88s2.62-2.83,4-4.38C389.15,133.11,392.39,135.16,397.17,135.09Z"/><path class="cls-7" d="M48,265.43c-3.66-2.65-7.57-2.83-11.83.44,1.84-4.93.53-8.46-3.94-11.31,4.88-.25,8.58-1.53,10-6.4,1.68,4.47,4.94,6.42,9.44,6.25-1.31,1.75-3,3.21-3.58,5S48,263.38,48,265.43Z"/></svg>