<svg id="Layer_1" data-name="Layer 1" xmlns="http://www.w3.org/2000/svg" viewBox="0 0 432 432"><defs><style>.cls-1{fill:#808285;opacity:0.2;}.cls-2{fill:#39b54a;}.cls-3,.cls-4{fill:#fff;}.cls-3{stroke:#fff;stroke-miterlimit:10;stroke-width:10px;}</style></defs><ellipse class="cls-1" cx="224.67" cy="297.99" rx="129.74" ry="51.1"/><rect class="cls-2" x="147.7" y="162.45" width="153.94" height="145.81" rx="34.82"/><path class="cls-2" d="M228.21,149.8c.95,1.38,8.18,13.34,7.53,14.58-2.58,4.91-19.34,7.26-22.13,3-4.38-6.75-16.5-17.09-24.63-15.31-16.7,3.65-33.5,6.61-50.3,9.51-12.75,2.2-25.12.88-33.18-8.35C93.23,139.12,82.1,124.07,71,109.07c-3.33-4.52-1.18-9.26,4.79-10.54,23.19-5,46.39-10,69.65-14.49,18.56-3.61,33.62,1.48,44.63,15.13,7.48,9.28,14.85,18.64,20.24,25.41C217.57,134.75,223,142.2,228.21,149.8Z"/><path class="cls-2" d="M352,124.25l-.11-.14a87.82,87.82,0,0,1-7.64,11.26c-4.09,4.9-11.63,6.86-21.87,5.12-24.53-4.16-50.26.88-70.34,16-4.12,3.16-5.41,2.12-2.14-4.28,11.28-21.65,22.3-40.48,33.27-56.53,3-4.46,8.92-8.8,13.29-9.4,19.77-3,40.57,3.07,57.35,17.27,3.56,3.08,5.27,7.14,4.18,9.63A98.86,98.86,0,0,1,352,124.25Z"/><path class="cls-3" d="M246.76,235.36c0,6.5-3.51,11.43-8.29,11.53s-8.61-4.84-8.72-11.34c-.11-6.27,3.79-11.67,8.47-11.72S246.72,228.81,246.76,235.36Z"/><path class="cls-3" d="M191.48,235.59c-.08,6.55-3.79,11.39-8.7,11.33-4.63-.06-8.39-5.24-8.37-11.55s3.92-11.6,8.63-11.57S191.56,229.22,191.48,235.59Z"/><rect class="cls-2" x="151.14" y="202.33" width="46.45" height="28.34" transform="translate(-100.69 176.23) rotate(-42.82)"/><rect class="cls-2" x="229.2" y="206.55" width="46.45" height="28.34" transform="translate(287.55 554.18) rotate(-137.18)"/><path class="cls-4" d="M238.25,289.8h0c-8.2,0-13.53-7.89-9.86-14.59l9.86-18h0l9.87,18C251.78,281.91,246.45,289.8,238.25,289.8Z"/></svg>