<svg id="Layer_1" data-name="Layer 1" xmlns="http://www.w3.org/2000/svg" viewBox="0 0 432 432"><defs><style>.cls-1{fill:#808285;opacity:0.2;}.cls-2{fill:#3eb54b;}.cls-3{fill:#fff;}.cls-4{fill:#fcfdfc;}</style></defs><ellipse class="cls-1" cx="191.54" cy="350.43" rx="179.01" ry="51.1"/><path class="cls-2" d="M261.71,337.84c-1,.75-2,1.46-2.95,2.27-3.47,3-6.87,6.09-10.37,9.07A19.56,19.56,0,0,1,235.27,354a27.21,27.21,0,0,1-9.94-1.65c-2.29-.88-4.67-1.56-7-2.34a3.06,3.06,0,0,1,.31-.56c4.07-4.74,4.8-10,2.76-15.65-1.22-3.39-2.23-6.84-3.36-10.26Q207.94,293,197.81,262.49q-6-18-11.89-36c-.93-2.81-1.85-5.62-3.86-8a22.08,22.08,0,0,0-6-4.47c1.27-.62,2.54-1.23,3.8-1.86,9.32-4.64,18.65-9.26,27.95-13.95,5.11-2.58,10.21-5.19,15.23-7.92a48.77,48.77,0,0,1,15.59-4.87,72.6,72.6,0,0,1,16.72-.71c4.63.3,9.09,1.38,12.86,4.17a12.16,12.16,0,0,1,4.68,6q2.79,8.76,5.59,17.52c1.24,3.89,2.51,7.77,3.84,11.9a17.46,17.46,0,0,0,2-.56c6.62-2.75,13.15-5.72,19.87-8.22,5-1.85,10.13-3.25,15.28-4.61,6.9-1.81,13.83-3.54,20.82-5a45.8,45.8,0,0,1,29.55,3.16,44.81,44.81,0,0,1,16.68,13.36c4.38,5.71,8.53,11.57,12.57,17.49a407.6,407.6,0,0,1,22.62,37.66q2.52,4.72,4.89,9.5a10.76,10.76,0,0,1,1.38,5c-.07,3.2-1.95,5.14-5.4,5.3-1.74.08-3.48,0-5.22,0H405.16c-1.89,0-3.79,0-5.68.1-5.87.35-11.75.75-17.62,1.14-1.66.1-3.31.29-5,.32-4.59.07-9.17,1.21-13.77.19-1.68-.37-3.33-.87-5-1.31a33,33,0,0,0,3-3.63c2.52-4.08.82-8.22-3.94-9.79a17.39,17.39,0,0,0-9.33-.22c-1.46.32-2.86.82-4.19,1.21l-9.27-7.12a2.14,2.14,0,0,0-.27-.57c-4.06-4.34-8.09-8.71-12.21-13-2.76-2.88-5.65-5.66-8.52-8.45-3.28-3.2-6.55-6.4-9.9-9.53a13.71,13.71,0,0,0-6.95-3.36,11.29,11.29,0,0,0-7.6,1.21,7.83,7.83,0,0,0,.2.94c1.8,5.71,3.58,11.43,5.42,17.13.45,1.39,1.08,2.73,1.63,4.1.59,2.16,1.13,4.34,1.79,6.48,1.55,5.06,3.44,10,4.67,15.16,1.7,7,.11,13.39-5.74,18.49q-16.61,14.5-33.23,29C263,336.5,262.36,337.19,261.71,337.84Zm17.74-71.55c-2.27-1-3.91-.71-5.24,1a41.2,41.2,0,0,0-3.84,5.94c-3.72,7.36-2.86,14.29,2.55,20.73a22.9,22.9,0,0,0,12.8,7.86,3.57,3.57,0,0,0,3.49-1c.72-1.1.07-2-.59-2.89-.17-.23-.37-.44-.55-.67-1.58-2.05-3.27-4-4.71-6.18a26.86,26.86,0,0,1-4.26-22A24.28,24.28,0,0,0,279.45,266.29Zm-8.77-17.44A3.74,3.74,0,0,0,269.6,245a35,35,0,0,1-7.25-10.84,28.19,28.19,0,0,1-1.76-16.73c.25-1.24,1-2.56,0-3.78-2-.68-3.25-.45-4.4,1a44.53,44.53,0,0,0-3.46,4.92c-2.57,4.46-3.7,9.16-2.4,14.21a20.87,20.87,0,0,0,7,10.59,20.18,20.18,0,0,0,10.22,5.13A3.76,3.76,0,0,0,270.68,248.85Z"/><path class="cls-3" d="M176.1,214a22.08,22.08,0,0,1,6,4.47c2,2.39,2.93,5.2,3.86,8q6,18,11.89,36Q207.9,293,218,323.57c1.13,3.42,2.14,6.87,3.36,10.26,2,5.69,1.31,10.91-2.76,15.65a3.06,3.06,0,0,0-.31.56c-1.93,1.45-3.74,3.1-6.21,3.75a39.87,39.87,0,0,1-4.83,1,32.63,32.63,0,0,1-4.08.06q-73.14,0-146.27,0a87.43,87.43,0,0,0-13.73,1.29A65.24,65.24,0,0,1,31,357.3c-.38,0-.76,0-1.14,0C27,357.05,26,356.15,26,353.44c0-4.7,0-9.41,0-14.11,0-3.07,1.15-5.92,2.12-8.79a119.36,119.36,0,0,1,9-20.18c.42-.74.71-1.54,1.06-2.3,2-2.91,3.88-5.85,5.89-8.73A132.58,132.58,0,0,1,82.38,263c11.82-7.44,23.8-14.65,35.72-22,13.94-8.54,27.89-17,41.8-25.62a17.13,17.13,0,0,1,14.92-1.73Z"/><path class="cls-3" d="M261.71,337.84c.65-.65,1.27-1.34,2-1.95q16.6-14.49,33.23-29c5.85-5.1,7.44-11.47,5.74-18.49-1.23-5.12-3.12-10.1-4.67-15.16-.66-2.14-1.2-4.32-1.79-6.48a91.24,91.24,0,0,1,23,4.62,83.51,83.51,0,0,1,15.24,6.91l9.27,7.12c1.33-.39,2.73-.89,4.19-1.21a17.39,17.39,0,0,1,9.33.22c4.76,1.57,6.46,5.71,3.94,9.79a33,33,0,0,1-3,3.63,24.27,24.27,0,0,1-9.51,3.94l-1.11,2.43c-7,7.91-12.92,16.56-19.32,24.89-2.89,3.76-6,7.38-9.25,10.9a64.5,64.5,0,0,1-6.05,5.16c.09.83.26,1.86.31,2.89.22,4.15-.71,7.94-4,11a8.62,8.62,0,0,1-12,.14c-2.69-2.35-3.66-5.41-4.11-8.67-.07-.48-.12-1-.19-1.45a.61.61,0,0,0-.13-.2Z"/><path class="cls-3" d="M399.62,83.17a15.08,15.08,0,0,0-5.4-1l-20.9,0c-4.3,0-4.79-.44-4.8-4.48a22.46,22.46,0,0,1,.06-2.32c.21-2.25,1-3.09,3.47-3.48A19.11,19.11,0,0,1,375,71.8c8.55-.06,17.11-.07,25.66-.14,4.84,0,9.69-.19,14.53-.23a29.09,29.09,0,0,1,3.46.37c1.57,2.14,1.49,4.31,1.24,6.47a16.92,16.92,0,0,1-5.24,10.07c-4.1,4-8.33,8-12.43,12s-8.33,8.34-12.48,12.52a8.25,8.25,0,0,0-2.26,4.56,18.77,18.77,0,0,0,6.71,1h22a17,17,0,0,1,2.94.17c1.69.3,2.25,1.07,2.18,2.69-.06,1.26-.11,2.52-.14,3.78,0,1.91-.52,2.5-2.56,2.82a15.42,15.42,0,0,1-2.26.11q-15.78,0-31.57,0c-4.61,0-9.23-.11-13.85-.2-2.8-.06-4.31-1.34-4.6-4a13.16,13.16,0,0,1,3.79-11.1c2.23-2.28,4.75-4.32,7.1-6.51q8.1-7.53,16.15-15.09c1.39-1.3,2.71-2.65,4.08-4A7.32,7.32,0,0,0,399.62,83.17Z"/><path class="cls-2" d="M282.59,213.58c.1-.54.21-1.22.36-1.89,1.38-6.32,3.28-12.51,5.24-18.68.92-2.88,3.24-4.91,5.73-6.64a73.54,73.54,0,0,1,7.61-4.55A179.39,179.39,0,0,1,333.3,168.5c1-.3,2-.59,3-.86,3.07-.81,4.92.1,5.9,3s1.91,5.76,2.85,8.65c1,3.15,2.08,6.29,3.05,9.45a13.61,13.61,0,0,1,.71,3.7,4.52,4.52,0,0,1-3,4.54,28.63,28.63,0,0,1-5.87,1.45A186.21,186.21,0,0,0,314.16,204a218.75,218.75,0,0,0-25.08,9.14,38.41,38.41,0,0,1-3.87,1.16A2.35,2.35,0,0,1,282.59,213.58Z"/><path class="cls-3" d="M342.37,114c-1.95-.24-3.27-.52-4.59-.54-5.52-.05-11,0-16.58,0-1.12,0-2.3.12-3.37-.94a11.73,11.73,0,0,1,0-6.33c1.18-1.29,2.69-1.38,4.22-1.41,4.16-.06,8.33-.12,12.49-.15q9.64-.06,19.3-.07c1,0,1.95.1,2.69.13a2.89,2.89,0,0,1,1.43,2.52,12.78,12.78,0,0,1-2.37,9,36.93,36.93,0,0,1-3.51,4.12c-5.9,6.13-11.84,12.21-17.74,18.33-1.35,1.4-1.32,1.46-1.79,3.65a8.57,8.57,0,0,0,4.27.9l18.85.06c1.13,0,2.3-.11,3.3,1v6.09a13.53,13.53,0,0,1-3,.72q-18.17,0-36.33-.13c-2.46,0-3.53-1-3.83-3.29a11.52,11.52,0,0,1,3.35-9.7c.74-.8,1.6-1.5,2.38-2.26,6.21-6,12.44-12.08,18.6-18.17A20.85,20.85,0,0,0,342.37,114Z"/><path class="cls-3" d="M272.8,133.82a3.91,3.91,0,0,1,3.45-1.49l20.88-.28c1.89,0,3.78-.13,5.67-.07a27,27,0,0,1,3.23.48,9.11,9.11,0,0,1-1,8.33,35.37,35.37,0,0,1-4.08,4.77c-4.43,4.51-8.94,8.95-13.4,13.43a5.33,5.33,0,0,0-2,3.7,13.48,13.48,0,0,0,2.47.47c5.21.05,10.43.05,15.65,0a5.63,5.63,0,0,1,3.65.85c0,1.72.49,3.56-.47,5.48-1.13.08-2.17.22-3.21.22q-14.19,0-28.37-.09a7.55,7.55,0,0,1-1.58-.08,2.78,2.78,0,0,1-2.28-2.56,9.26,9.26,0,0,1,2.83-7.93c1.78-1.72,3.65-3.36,5.44-5.07,3.91-3.72,7.79-7.45,11.68-11.19a3.86,3.86,0,0,0,1.53-3,24.45,24.45,0,0,0-3.22-.44c-4.38-.06-8.77,0-13.16,0a13.57,13.57,0,0,1-1.81-.06c-1.21-.17-1.75-.66-1.83-1.8C272.73,136.19,272.8,134.86,272.8,133.82Z"/><path class="cls-4" d="M279.45,266.29a24.28,24.28,0,0,1-.35,2.89,26.86,26.86,0,0,0,4.26,22c1.44,2.14,3.13,4.13,4.71,6.18.18.23.38.44.55.67.66.88,1.31,1.79.59,2.89a3.57,3.57,0,0,1-3.49,1,22.9,22.9,0,0,1-12.8-7.86c-5.41-6.44-6.27-13.37-2.55-20.73a41.2,41.2,0,0,1,3.84-5.94C275.54,265.58,277.18,265.28,279.45,266.29Z"/><path class="cls-4" d="M270.68,248.85a3.76,3.76,0,0,1-3.15.64,20.18,20.18,0,0,1-10.22-5.13,20.87,20.87,0,0,1-7-10.59c-1.3-5.05-.17-9.75,2.4-14.21a44.53,44.53,0,0,1,3.46-4.92c1.15-1.48,2.37-1.71,4.4-1,1.07,1.22.28,2.54,0,3.78a28.19,28.19,0,0,0,1.76,16.73A35,35,0,0,0,269.6,245,3.74,3.74,0,0,1,270.68,248.85Z"/></svg>