<svg id="Layer_1" data-name="Layer 1" xmlns="http://www.w3.org/2000/svg" viewBox="0 0 1920 400"><defs><style>.cls-1{fill:#009245;}.cls-2{fill:#38af4a;}.cls-3{fill:#fff;}.cls-4,.cls-8{fill:#627af9;}.cls-4{opacity:0.3;}.cls-5{fill:none;stroke:#627af9;stroke-miterlimit:10;stroke-width:7px;}.cls-6{fill:gray;}.cls-7{fill:#533be7;}</style></defs><path class="cls-1" d="M1068.49,186.81c-21.11-32.95-14.42-74.87,15.74-93,1-.63,35.69,21.37,36.77,20.81,29.84-15.47,36.34-25.24,56.71,6.56,20.15,31.46-.21,29.7-27,48.94-1.26.91,12,42.7,10.65,43.52C1131.15,231.77,1089.59,219.75,1068.49,186.81Z"/><ellipse class="cls-2" cx="1130.31" cy="148.28" rx="63.58" ry="72.55" transform="translate(155.67 739.59) rotate(-38.72)"/><ellipse class="cls-3" cx="1130.53" cy="148.08" rx="54.69" ry="62.68" transform="translate(153.73 736.2) rotate(-38.51)"/><path class="cls-2" d="M1159.13,190.79l-12.64,7.75a12.8,12.8,0,0,1-17.37-4q-8.37-12.28-16.31-24.95a11.91,11.91,0,0,1,3.57-16.44c2.66-1.64,5.32-3.27,8-5,1.71-1,1.62-2.19-.28-3.06a8.45,8.45,0,0,0-3.92-.62c-6.32.56-12.59,1.28-18.88,1.78a25,25,0,0,1-6-.33A9.66,9.66,0,0,1,1089,142c-3.75-5.16-7.51-10.33-11.18-15.55-2.28-3.27-1.65-4.8,2.11-5.28,7-.9,14-1.76,21-2.51a40.73,40.73,0,0,1,8.84-.24c4.88.58,8.53,3.51,11.35,7.54q5.06,7.23,10.13,14.59c1.55,2.23,1.73,2.31,3.9,1l7.23-4.43c5.52-3.3,13-1.41,17,4.29q8.16,12.16,16,24.53c3.82,6,2.26,13.33-3.49,17L1159,190.82ZM1136,173.28c-1.92-2.94-5.56-4.36-7.76-2.85s-2.43,5-.51,7.81,5.18,4.07,7.44,2.78S1137.78,176.09,1136,173.28Zm8.6-4.91a10,10,0,0,0,1.06,1.28,4.84,4.84,0,0,0,6.8.51l0,0a4.19,4.19,0,0,0,1-1.6c1.36-3.43-2.33-8.73-6.11-8.84a3.88,3.88,0,0,0-4.11,2.62c-.87,2-.19,3.88,1.25,6Z"/><path class="cls-2" d="M1140.25,101.77c1.29,2,2.67,4,3.89,6a9.24,9.24,0,0,1,.38,10c-3.15,5.51-6.13,11.05-9.18,16.58a9.33,9.33,0,0,1-.91,1.48c-1.12,1.45-2.33,1.43-3.36-.24-2-3.2-3.83-6.47-5.65-9.75q-1.71-3.09-3.23-6.37a6.59,6.59,0,0,1,.07-6.21c3.22-5.85,6.36-11.76,9.63-17.55,1.38-2.46,2.75-2.39,4.46.13l3.89,6Z"/><ellipse class="cls-4" cx="1126.89" cy="150.51" rx="114.11" ry="110.51"/><ellipse class="cls-5" cx="1126.11" cy="150.51" rx="114.11" ry="110.51"/><ellipse class="cls-3" cx="1181.41" cy="73.57" rx="8.96" ry="8.67"/><path class="cls-3" d="M1188.93,97.49A66.44,66.44,0,0,1,1203.78,122c4.09,12.13,23.41,6.93,19.29-5.32a89.76,89.76,0,0,0-20-33.31c-8.86-9.38-23,4.78-14.14,14.14Z"/><path class="cls-6" d="M1188.73,346.61v-7.17c9.66-1.51,17.36-6.14,22.55-14.37a28.57,28.57,0,0,0,4.53-17.19c-.69-11.76-8.58-25.25-27.08-28.57v-7.14c16.09.75,34.59,15.11,34.64,37.21C1223.42,330.5,1205.91,345.62,1188.73,346.61Z"/><path class="cls-6" d="M1186.53,310.34,1204,320.45l-2.84,4.6-20.26-11.84V290.92a25.43,25.43,0,0,1,5.61-.14Z"/><path class="cls-6" d="M1165.59,285.61l-5.25-5.29a38,38,0,0,1,20.36-8.22v7.18a81.05,81.05,0,0,0-7.75,2.43C1170.46,282.75,1168.16,284.23,1165.59,285.61Z"/><path class="cls-6" d="M1154.72,285.76l5.33,5.33c-4.8,8.19-4.82,8.24-6.18,14.44h-7.51A36,36,0,0,1,1154.72,285.76Z"/><path class="cls-6" d="M1146.54,313.36h7.16c.79,2.5,1.4,5.09,2.44,7.51s2.53,4.7,3.87,7.14l-5.26,4.78C1151.24,330.3,1146.6,319.58,1146.54,313.36Z"/><path class="cls-6" d="M1160.31,338.59l5.43-5.09a33.14,33.14,0,0,0,15,6.13v7.42A39.11,39.11,0,0,1,1160.31,338.59Z"/><path class="cls-6" d="M1076.67,344.21h-27.38c-3.15,0-5.35-2-5.35-4.9q0-11.71,0-23.43c0-2.75,0-5.5,0-8.24a4.63,4.63,0,0,1,2.69-4.36,5.09,5.09,0,0,1,2.35-.56h3.86c.52,0,.52,0,.52-.5,0-5.21,0-10.42,0-15.63a11.66,11.66,0,0,1,2.65-7.76,13.34,13.34,0,0,1,10.64-4.95c6.47-.05,12.93-.08,19.39,0a13.81,13.81,0,0,1,12.15,6.64,11.29,11.29,0,0,1,1.73,6.2c0,5.16,0,10.32,0,15.48,0,.51,0,.52.55.52h3.85a4.87,4.87,0,0,1,5,4.61q0,16.14,0,32.28a4.88,4.88,0,0,1-5,4.59Q1090.48,344.23,1076.67,344.21Zm0-41.48h14.06c.58,0,.58,0,.58-.53,0-5,0-10,0-15a6.87,6.87,0,0,0-.16-1.42,5,5,0,0,0-5-4h-18.9A5.09,5.09,0,0,0,1062,287c0,5.07,0,10.14,0,15.21,0,.51,0,.52.55.52Zm0,32h5c1,0,1.29-.31,1-1.24-.94-3-1.87-6.09-2.81-9.13-.2-.65-.11-.88.49-1.28a5.51,5.51,0,0,0,1.67-7.9,6.36,6.36,0,0,0-6.37-2.65,6.15,6.15,0,0,0-5.23,4.47,5.62,5.62,0,0,0,2.41,6c.76.51.81.66.55,1.49-.94,3-1.87,6.09-2.81,9.13-.22.73.08,1.1.92,1.1Z"/><path class="cls-7" d="M972.4,267.92c-35.86,80.4-122.95,119.63-194.29,85.32-2.49-1.19-3.93-93.51-6.31-94.85-66-37-92.38-37.12-57.77-114.71,34.25-76.79,56.11-36.32,125.46-9.64,3.26,1.25,65.45-75.35,68.65-73.81C979.48,94.54,1008.25,187.53,972.4,267.92Z"/><ellipse class="cls-8" cx="823.57" cy="196.57" rx="163.23" ry="143.05" transform="translate(382.59 919.37) rotate(-72.04)"/><ellipse class="cls-3" cx="824.2" cy="196.74" rx="141.02" ry="123.05" transform="translate(380.28 918.51) rotate(-71.83)"/><path class="cls-8" d="M779.26,303.3l-30.19-14.18c-13.86-6.74-20.14-22.74-13.9-37.65q12.76-30.93,26.75-61.49a26.82,26.82,0,0,1,35.33-13.62c6.36,3,12.71,6,19.24,8.86,4.08,1.92,6.13.36,5.41-4.31a18.94,18.94,0,0,0-3.67-8.14c-8.87-11.19-18-22.09-26.69-33.29a55.5,55.5,0,0,1-6.81-11.75,21.63,21.63,0,0,1-.43-16.65c5.07-13.44,10.13-26.89,15.41-40.25,3.34-8.31,7-9,12.54-2.55,10.32,12,20.58,24.1,30.64,36.34a90.72,90.72,0,0,1,11.38,16.32c4.93,9.9,4,20.38-.15,30.66q-7.33,18.47-14.9,37.07c-2.29,5.68-2.22,6.11,2.94,8.59l17.25,8.11c13,6.3,18.71,22.7,12.92,37.21Q859.53,273,846,303c-6.58,14.6-22.27,20.72-36.32,14.45L779,303.07Zm4.35-65.11c3.15-7.24,1.32-15.83-4.23-18.11s-12.4,1.6-15.33,8.69-1.25,14.78,4,17.41S780.51,245,783.61,238.19Zm19.85,10.11a22.17,22.17,0,0,0-1.09,3.56c-1.47,6.06,1.86,12.06,7.44,13.42l.15,0a9.37,9.37,0,0,0,4.31,0c8.12-1.67,13.52-15.16,9.06-22.41a8.76,8.76,0,0,0-10-4.5c-4.85.85-7.53,4.45-9.82,9.82Z"/><path class="cls-8" d="M923.29,157.77c-2.13,4.89-4.13,9.91-6.39,14.69-3.31,7.8-10.52,12.94-18.38,13.1-14.24.89-28.35,2.14-42.51,3.22a20.6,20.6,0,0,1-3.92.13c-4.11-.31-5.56-2.61-3.7-6.62,3.59-7.66,7.44-15.18,11.34-22.67,2.48-4.7,5.13-9.34,8-13.93a14.87,14.87,0,0,1,11.77-7.57c15-1.17,30-2.57,44.88-3.57,6.35-.46,7.91,2.22,5.27,8.54l-6.39,14.69Z"/></svg>