<svg id="Layer_1" data-name="Layer 1" xmlns="http://www.w3.org/2000/svg" viewBox="0 0 1920 400"><defs><style>.cls-1{fill:#808184;opacity:0.2;isolation:isolate;}.cls-2{fill:#37b34a;}.cls-3{fill:#fff;stroke:#fff;}.cls-3,.cls-5{stroke-miterlimit:10;stroke-width:10px;}.cls-4{fill:#818282;}.cls-5{fill:none;stroke:#37b34a;}</style></defs><ellipse class="cls-1" cx="1118.23" cy="313.98" rx="140.33" ry="55.42"/><rect class="cls-2" x="1033.35" y="167.38" width="166.5" height="158.15" rx="34.82"/><path class="cls-2" d="M1128.73,172.91c0,1.81-.63,4.57-2,5.25-5.35,2.71-21.58-5.79-21.33-11.34.39-8.73-4.35-13.13-12.62-16.69-17-7.29-33.65-15.27-50.26-23.3-12.6-6.09-22.66-15.06-24-28.28-2-20.14-2.3-40.44-2.64-60.68-.1-6.09,4.78-8.92,10.84-6.28,23.55,10.21,47.11,20.43,70.41,31.1,18.62,8.51,28.68,22.5,29.79,41.48.75,12.91,1.36,25.82,1.84,35.19C1128.82,152.92,1128.91,162.91,1128.73,172.91Z"/><path class="cls-2" d="M1217.25,74.65h-.1c0,7.3.25,14.62-.06,21.91-.42,9.77-4.12,18.72-12.31,23.4-19.68,11.24-39.94,21.44-60.09,31.78-4.14,2.13-7.67.54-7.31-4.81,1.2-18.38,2.15-36.8,4.51-55,.64-5,4.7-11.08,9-13.55,19.35-11.16,39.28-21.28,59.14-31.5,4.27-2.2,7.23-.36,7.27,4.93C1217.28,59.4,1217.25,67,1217.25,74.65Z"/><path class="cls-3" d="M1136.32,245.17c0,7-3.79,12.39-9,12.5s-9.32-5.25-9.44-12.3c-.11-6.8,4.1-12.66,9.16-12.72S1136.28,238.06,1136.32,245.17Z"/><path class="cls-3" d="M1076.54,245.4c-.09,7.1-4.11,12.35-9.42,12.29-5-.06-9.07-5.68-9-12.53s4.24-12.57,9.33-12.55S1076.62,238.51,1076.54,245.4Z"/><path class="cls-4" d="M742.86,183.34V140.7c0-19.41,12.62-33,33.13-33.92,17.52-.76,35.16-.52,52.69.36a33.82,33.82,0,0,1,32.1,33.16c.1,14.12,0,28.23,0,43,3.5,0,6.71-.06,9.92,0,8.14.2,12.65,4,13.74,11.64a29.72,29.72,0,0,1,.29,4.22q0,39.4,0,78.82c0,4.43-.1,9.07-4.21,12-2.49,1.75-5.75,3.52-8.68,3.54q-69.95.32-139.89.12c-7.66,0-13-5.15-13.07-12.81q-.21-42.37,0-84.75c.05-8.1,5.9-12.86,14.5-12.73C736.36,183.38,739.3,183.34,742.86,183.34Zm95.68-.31c0-14.62.28-28.86-.11-43.1-.21-7.34-5.94-11.85-14-11.9q-22.77-.14-45.56,0c-8.39.05-13.66,5-13.77,12.94-.15,10.44-.15,20.89-.21,31.33,0,3.49,0,7,0,10.73Zm-36.9,85.19c3.87,0,7.74-.12,11.61,0,3.68.14,4.31-1.26,3.32-4.4-2.18-6.87-4-13.85-6.15-20.73-.88-2.83-.75-4.79,2-7a13.64,13.64,0,0,0,5.15-14.08,15.63,15.63,0,0,0-14.27-12.6,15.89,15.89,0,0,0-15.91,8.66,14.54,14.54,0,0,0,3.86,18.12c2.42,2,2.93,3.7,2,6.54-2.29,7-4.2,14.09-6.3,21.13-.9,3-.14,4.55,3.54,4.34S797.92,268.22,801.64,268.22Z"/><ellipse class="cls-1" cx="801.81" cy="304.81" rx="120.78" ry="35.84"/><line class="cls-5" x1="652.1" y1="127.97" x2="707.03" y2="155.5"/><line class="cls-5" x1="703.62" y1="45.97" x2="742.12" y2="99.31"/><line class="cls-5" x1="801.77" y1="30.6" x2="801.77" y2="88.89"/><line class="cls-5" x1="953.84" y1="129.29" x2="898.9" y2="156.82"/><line class="cls-5" x1="902.31" y1="47.29" x2="863.81" y2="100.63"/></svg>