<svg id="Layer_1" data-name="Layer 1" xmlns="http://www.w3.org/2000/svg" viewBox="0 0 1920 400"><defs><style>.cls-1{fill:#808184;opacity:0.2;}.cls-2,.cls-4,.cls-5{fill:#37b34a;}.cls-3,.cls-6{fill:#fff;}.cls-3{stroke:#fff;}.cls-3,.cls-4,.cls-5{stroke-miterlimit:10;}.cls-3,.cls-4{stroke-width:10px;}.cls-4,.cls-5{stroke:#39b44a;}.cls-5{stroke-width:6px;}.cls-7{fill:#bf4c57;}</style></defs><ellipse class="cls-1" cx="830.58" cy="326" rx="65.05" ry="21"/><ellipse class="cls-1" cx="1139.08" cy="313.58" rx="140.33" ry="55.42"/><rect class="cls-2" x="1054.2" y="166.98" width="166.5" height="158.15" rx="34.82"/><path class="cls-2" d="M1149.58,172.51c0,1.81-.63,4.57-2,5.25-5.35,2.71-21.58-5.79-21.33-11.34.39-8.73-4.35-13.13-12.62-16.69-17-7.29-33.65-15.27-50.26-23.3-12.6-6.09-22.66-15.06-24-28.28-2-20.14-2.3-40.44-2.64-60.68-.1-6.09,4.78-8.92,10.84-6.28,23.55,10.21,47.11,20.43,70.41,31.1,18.62,8.51,28.68,22.5,29.79,41.48.75,12.91,1.36,25.82,1.84,35.19C1149.67,152.52,1149.76,162.51,1149.58,172.51Z"/><path class="cls-2" d="M1238.1,74.25H1238c0,7.3.25,14.62-.06,21.91-.42,9.77-4.12,18.72-12.31,23.4-19.68,11.24-39.94,21.44-60.09,31.78-4.14,2.13-7.67.54-7.31-4.81,1.2-18.38,2.15-36.8,4.51-55,.64-5,4.7-11.08,9-13.55,19.35-11.16,39.28-21.28,59.14-31.5,4.27-2.2,7.23-.36,7.27,4.93C1238.13,59,1238.1,66.63,1238.1,74.25Z"/><path class="cls-3" d="M1157.17,244.77c0,7-3.79,12.39-9,12.5s-9.32-5.25-9.44-12.3c-.11-6.8,4.1-12.66,9.16-12.72S1157.13,237.66,1157.17,244.77Z"/><path class="cls-3" d="M1097.39,245c-.09,7.1-4.11,12.35-9.42,12.29-5-.06-9.07-5.68-9-12.53s4.24-12.57,9.33-12.55S1097.47,238.11,1097.39,245Z"/><rect class="cls-2" x="1059.14" y="255.22" width="114.72" height="30.09"/><path class="cls-4" d="M1157.48,263.62c0,7-3.79,12.39-9,12.5s-9.32-5.25-9.44-12.3c-.12-6.8,4.1-12.66,9.16-12.72S1157.43,256.51,1157.48,263.62Z"/><path class="cls-4" d="M1097.69,263.86c-.08,7.1-4.1,12.35-9.41,12.29-5-.06-9.07-5.68-9.06-12.53s4.25-12.57,9.34-12.55S1097.78,257,1097.69,263.86Z"/><path class="cls-2" d="M1306.45,300.19a2.65,2.65,0,0,1-2.84-3.1c.34-2.08.7-4.16,1.15-6.22a2.43,2.43,0,0,0-.9-2.66c-1.55-1.33-2.95-2.79-4.46-4.16a2.58,2.58,0,0,1-1-2.84c.4-1.23,1.48-1.65,2.75-1.82,1.92-.25,3.83-.55,5.76-.76a2.69,2.69,0,0,0,2.53-1.73c.73-1.77,1.74-3.43,2.58-5.16a2.91,2.91,0,0,1,2.8-2,2.84,2.84,0,0,1,2.65,1.91c.91,1.82,1.92,3.6,2.74,5.45a2.33,2.33,0,0,0,2.15,1.46c2,.23,4,.51,5.94.79,1.23.17,2.34.51,2.8,1.75s-.13,2.12-1,2.95c-1.45,1.34-2.81,2.78-4.33,4.05a2.58,2.58,0,0,0-.92,2.81,47.19,47.19,0,0,1,1,6.09,3.18,3.18,0,0,1-1,2.56,3.78,3.78,0,0,1-3,.1,37,37,0,0,1-5.56-2.78,2.77,2.77,0,0,0-3.13.05c-1.75,1-3.58,1.86-5.4,2.75A9.09,9.09,0,0,1,1306.45,300.19Zm16.41-16.48c-4.37.14-7-1.61-8.11-5.52-1,4-3.77,5.61-8.09,5.52,3.64,2.38,4.71,5.3,3.22,9.26,3.36-2.68,6.51-2.48,9.84,0C1318.2,289.08,1319.14,286.11,1322.86,283.71Z"/><path class="cls-2" d="M1279.46,219c-5,7.67-15.68,9.53-23.9,4.15-8-5.26-10.69-15.93-5.84-23.46s15.74-9.57,23.93-4.28S1284.46,211.34,1279.46,219Zm-19.8-1.77c4.73,3,10.75,1.82,13.5-2.65s1.14-10.28-3.49-13.21-10.72-1.78-13.49,2.69S1255,214.26,1259.66,217.23Z"/><path class="cls-5" d="M1239.88,237.82c-1.62-1.09-2.27-3.52-1.34-5a3.79,3.79,0,0,1,5.25-.74c1.61,1.16,2.23,3.38,1.33,4.78A4,4,0,0,1,1239.88,237.82Z"/><path class="cls-2" d="M690.69,104.16c1.58.72,3.13,1.52,4.65,2.36a2.59,2.59,0,0,0,3,0A30.42,30.42,0,0,1,703,104a3.76,3.76,0,0,1,2.7-.06c1,.39,1.07,1.51.88,2.62-.33,1.85-.52,3.73-.87,5.57a2,2,0,0,0,.71,2.1c1.45,1.28,2.84,2.65,4.26,4a2.13,2.13,0,0,1,.74,2.67,3.87,3.87,0,0,1-2.06,1.65,42.92,42.92,0,0,1-5.75,1,2.11,2.11,0,0,0-1.82,1.48,42.21,42.21,0,0,1-2.44,5.07,3.18,3.18,0,0,1-2.06,1.57,2.92,2.92,0,0,1-2.12-1.36,35.37,35.37,0,0,1-2.61-5,2.37,2.37,0,0,0-2.22-1.52q-2.88-.27-5.74-.7a2.35,2.35,0,0,1-1.32-4,22.42,22.42,0,0,1,2-2c2.18-2,3.91-4,2.37-7.25a12.88,12.88,0,0,1-.69-3.56C687.65,103.88,688.85,103.33,690.69,104.16Zm1.77,6.29c1.33,3.5.62,6.18-2.54,8.33,3.73-.14,6.14,1.35,7.17,5.2,1.2-3.45,3.1-5.65,6.94-5.37-3-2.06-3.94-4.73-2.7-8.41C698.31,112.7,695.47,112.77,692.46,110.45Z"/><path class="cls-5" d="M722,134.2a2.4,2.4,0,1,0,1.48,2.85A2.29,2.29,0,0,0,722,134.2Z"/><path class="cls-6" d="M701.33,110.2c-3,2.5-5.86,2.57-8.87.25,1.33,3.5.62,6.18-2.54,8.33,3.73-.14,6.14,1.35,7.17,5.2,1.2-3.45,3.1-5.65,6.94-5.37C701,116.55,700.09,113.88,701.33,110.2Z"/><path class="cls-6" d="M1259.66,217.23c-4.67-3-6.21-8.78-3.48-13.17s8.78-5.67,13.49-2.69,6.18,8.83,3.49,13.21S1264.39,220.24,1259.66,217.23Z"/><path class="cls-5" d="M645.36,246c-1.09,1.62-3.51,2.27-5,1.34a3.79,3.79,0,0,1-.75-5.25c1.16-1.6,3.39-2.22,4.79-1.33A3.94,3.94,0,0,1,645.36,246Z"/><path class="cls-5" d="M664.41,216.13a2.41,2.41,0,1,1-2.86-1.48A2.32,2.32,0,0,1,664.41,216.13Z"/><path class="cls-5" d="M1236.55,165.93a2.32,2.32,0,0,1-2.84-1.74,2.23,2.23,0,1,1,2.84,1.74Z"/><path class="cls-2" d="M689.39,335.13a8.47,8.47,0,0,1-11.8,2.13c-4-2.59-5.24-7.88-2.82-11.62a8.73,8.73,0,0,1,14.62,9.49Zm-9.76-.82a4.74,4.74,0,0,0,6.66-1.35,4.82,4.82,0,0,0-1.68-6.54,4.67,4.67,0,1,0-5,7.89Z"/><path d="M697.69,260c0-6.91-.08-13.25.08-19.59a4.14,4.14,0,0,1,1.83-2.86,79.29,79.29,0,0,1,7.36-3.73c8.12-3.9,12-10.16,11.39-19-2.19-32.78,8.27-61.18,31.69-84.94,37.62-38.15,99-44.32,143.92-14.6.88.58,1.71,1.24,2.9,2.12-6.59,3.36-12.8,6.63-19.15,9.64-.86.41-2.47-.24-3.55-.76-31.25-15-62.42-14.75-91.92,3.21-32.39,19.72-46.77,49.09-43.65,86.24,0,.62.23,1.23.43,2.28L963.6,107.31c0,7.24.1,14-.12,20.66,0,.83-1.58,1.85-2.64,2.37q-38.48,19.07-77,38L700.76,258.58C699.9,259,699,259.37,697.69,260Z"/><path d="M764.38,295.18c6.54-3.33,12.67-6.57,18.93-9.52,1-.46,2.73.11,3.89.67,28.14,13.66,56.52,14.17,84.79.77,34.87-16.52,56-54.77,50.68-90.72-.06-.42-.17-.83-.38-1.84L697.68,305.22c0-5,.48-9.59-.11-14.06-.79-5.91,1.66-8.63,7.07-11.28q127.88-62.62,255.5-125.73c1-.47,2-.9,3.45-1.58,0,7.1.06,13.8-.08,20.5,0,.67-1,1.53-1.76,2-2.3,1.28-4.69,2.42-7.09,3.54-8.39,4-12.38,10.35-11.71,19.47a105.14,105.14,0,0,1-15.17,63.68c-33.1,54.53-105.48,70.78-159.92,35.9C766.77,296.91,765.74,296.13,764.38,295.18Z"/><path class="cls-7" d="M997.17,188.91c5.38-5.67,11.43-8.08,18.58-5.95,11.3,3.37,15.66,17.38,7.33,27.44-6.7,8.09-15.46,14.47-23.62,21.22-1.18,1-4.71.57-6.11-.54a234.29,234.29,0,0,1-20.42-17.71c-2.77-2.78-4.58-7-5.65-11-2-7.24.9-14.16,6.34-17.52a16.75,16.75,0,0,1,19.72,1.23C994.46,187,995.65,187.81,997.17,188.91Z"/></svg>