<svg id="Layer_1" data-name="Layer 1" xmlns="http://www.w3.org/2000/svg" viewBox="0 0 2670 1080"><defs><style>.cls-1,.cls-10,.cls-5{fill:#5676fc;}.cls-1{opacity:0.6;}.cls-2{fill:#6279f9;stroke:#6279f9;stroke-width:44px;}.cls-10,.cls-11,.cls-12,.cls-13,.cls-2,.cls-3,.cls-7,.cls-8,.cls-9{stroke-miterlimit:10;}.cls-19,.cls-3{fill:#fff;}.cls-10,.cls-11,.cls-12,.cls-13,.cls-3,.cls-7,.cls-8,.cls-9{stroke:#fff;}.cls-3{stroke-width:12px;}.cls-4,.cls-9{fill:#38af4a;}.cls-6{fill:gray;}.cls-15,.cls-7{fill:#fbb0ae;}.cls-10,.cls-11,.cls-12,.cls-13,.cls-7,.cls-8,.cls-9{stroke-width:7px;}.cls-14,.cls-8{fill:#35e3b8;}.cls-11,.cls-18{fill:#ff8d00;}.cls-12,.cls-17{fill:#701ea8;}.cls-13,.cls-16{fill:#d3e11a;}</style></defs><path class="cls-1" d="M1234.15,987.75,552.05,848.1c-5.76-6.39,414.17-423.79,408.08-429.86L655.6,23.5l700.15,2.85Z"/><path class="cls-2" d="M1254.57,967.71v-7.19q0-226.51.06-453a45.29,45.29,0,0,1,1.38-11.18q36.06-141.15,72.29-282.25,20.4-79.55,40.76-159.11c.26-1,.59-2,1.19-4,75.84,20,142.7,56,199.39,109.89,97.27,92.48,146,206.64,148.53,340.81C1714.64,783.14,1486.18,969.3,1254.57,967.71Z"/><path class="cls-3" d="M1254.1,969.69V962.5q0-226.51.05-453a46.26,46.26,0,0,1,1.38-11.18q36.08-141.14,72.3-282.25,20.39-79.54,40.76-159.1c.25-1,.58-2,1.19-4,75.84,20,142.7,56,199.38,109.89,97.28,92.48,146,206.64,148.54,340.81C1714.17,785.13,1485.7,971.28,1254.1,969.69Z"/><path class="cls-4" d="M652.71,23.18c-2.66,10.54-5.2,20.75-7.81,31Q616.25,166,587.57,277.83,568.71,351.41,549.94,425a36.62,36.62,0,0,0-.88,8.94q-.06,203.12,0,406.21v8c-56.47-.35-110.25-11-161.54-33-80.34-34.49-144.28-88.79-191-162.85-94.46-149.86-82.66-340.41,20.15-475.54C332.7,24.21,513.24-13.42,652.71,23.18Z"/><path class="cls-5" d="M552,847.88v-6.46q0-203.65.05-407.3a41,41,0,0,1,1.24-10.05q32.45-126.9,65-253.76,18.35-71.52,36.67-143c.23-.89.52-1.77,1.07-3.58,68.23,18,128.38,50.34,179.37,98.79C923,205.63,966.79,308.26,969.1,428.89,965.92,682,760.39,849.31,552,847.88Z"/><circle class="cls-6" cx="2020.99" cy="366.69" r="25.72"/><circle class="cls-6" cx="2020.99" cy="453.33" r="25.72"/><circle class="cls-6" cx="2020.99" cy="539.97" r="25.72"/><circle class="cls-6" cx="2020.99" cy="626.61" r="25.72"/><circle class="cls-6" cx="2020.99" cy="713.25" r="25.72"/><circle class="cls-7" cx="2020.99" cy="366.69" r="18.5"/><circle class="cls-8" cx="2020.99" cy="453.33" r="18.5"/><circle class="cls-6" cx="246.79" cy="903.49" r="25.72"/><circle class="cls-6" cx="246.79" cy="990.13" r="25.72"/><circle class="cls-9" cx="246.79" cy="903.49" r="18.5"/><circle class="cls-10" cx="246.79" cy="990.13" r="18.5"/><circle class="cls-11" cx="2020.99" cy="539.97" r="18.5"/><circle class="cls-12" cx="2020.99" cy="626.61" r="18.5"/><circle class="cls-13" cx="2020.99" cy="713.25" r="18.5"/><path class="cls-6" d="M2075.14,378.35v-26.6h4v26.6Z"/><path class="cls-6" d="M2084.41,378.35V359.5H2088l.3,3.31a6.56,6.56,0,0,1,2.56-2.76,7.5,7.5,0,0,1,3.9-1,7,7,0,0,1,5.38,2.13q1.95,2.13,1.95,6.35v10.83h-4V367.94q0-5.47-4.48-5.48a4.83,4.83,0,0,0-3.71,1.6,6.52,6.52,0,0,0-1.46,4.56v9.73Z"/><path class="cls-6" d="M2109.11,355.93a2.67,2.67,0,0,1-1.88-.7,2.49,2.49,0,0,1,0-3.54,2.87,2.87,0,0,1,3.76,0,2.46,2.46,0,0,1,0,3.54A2.65,2.65,0,0,1,2109.11,355.93Zm-2,22.42V359.5h4v18.85Z"/><path class="cls-6" d="M2124.35,378.35a6.71,6.71,0,0,1-4.41-1.35q-1.64-1.35-1.63-4.81v-9.31h-3.23V359.5h3.23l.49-4.79h3.54v4.79h5.32v3.38h-5.32v9.31a2.8,2.8,0,0,0,.66,2.15,3.51,3.51,0,0,0,2.3.59h2.17v3.42Z"/><path class="cls-6" d="M2134.08,355.93a2.65,2.65,0,0,1-1.88-.7,2.49,2.49,0,0,1,0-3.54,2.87,2.87,0,0,1,3.76,0,2.49,2.49,0,0,1,0,3.54A2.65,2.65,0,0,1,2134.08,355.93Zm-2,22.42V359.5h4v18.85Z"/><path class="cls-6" d="M2147.8,378.81a8.69,8.69,0,0,1-4-.8,5.53,5.53,0,0,1-2.31-2.11,5.6,5.6,0,0,1-.76-2.87,5.14,5.14,0,0,1,2.12-4.33,10,10,0,0,1,6.08-1.6h4.94v-.34a4.28,4.28,0,0,0-1.19-3.31,4.42,4.42,0,0,0-3.1-1.1,5.14,5.14,0,0,0-2.91.82,3.43,3.43,0,0,0-1.5,2.41h-4a6.31,6.31,0,0,1,1.39-3.51,7.74,7.74,0,0,1,3-2.25,10.48,10.48,0,0,1,4-.78,8.53,8.53,0,0,1,6.12,2.08,7.44,7.44,0,0,1,2.16,5.64v11.59h-3.49l-.35-3.23a7.14,7.14,0,0,1-2.31,2.62A6.84,6.84,0,0,1,2147.8,378.81Zm.79-3.27a4.73,4.73,0,0,0,2.76-.78,5.28,5.28,0,0,0,1.75-2.07,8.23,8.23,0,0,0,.78-2.85h-4.49a5.43,5.43,0,0,0-3.4.83,2.63,2.63,0,0,0-1,2.09,2.46,2.46,0,0,0,1,2A4.29,4.29,0,0,0,2148.59,375.54Z"/><path class="cls-6" d="M2162.65,378.35V351h4v27.36Z"/><path class="cls-6" d="M2189.25,378.35a6.67,6.67,0,0,1-4.4-1.35q-1.63-1.35-1.64-4.81v-9.31H2180V359.5h3.23l.5-4.79h3.53v4.79h5.32v3.38h-5.32v9.31a2.76,2.76,0,0,0,.67,2.15,3.48,3.48,0,0,0,2.29.59h2.17v3.42Z"/><path class="cls-6" d="M2205,378.81a9.72,9.72,0,0,1-4.92-1.24,8.75,8.75,0,0,1-3.36-3.44,10.46,10.46,0,0,1-1.22-5.13,10.89,10.89,0,0,1,1.2-5.21,8.66,8.66,0,0,1,3.35-3.49,9.66,9.66,0,0,1,5-1.26,9.23,9.23,0,0,1,4.83,1.24,8.68,8.68,0,0,1,3.19,3.29,9.12,9.12,0,0,1,1.14,4.52c0,.25,0,.52,0,.82s0,.61-.06,1h-14.66a5.83,5.83,0,0,0,1.8,4.17,5.5,5.5,0,0,0,3.74,1.42,5,5,0,0,0,2.87-.78,4.66,4.66,0,0,0,1.73-2.11h4a8.54,8.54,0,0,1-3,4.45A8.79,8.79,0,0,1,2205,378.81Zm0-16.46a5.7,5.7,0,0,0-3.57,1.2,5.23,5.23,0,0,0-1.9,3.59h10.64a4.77,4.77,0,0,0-1.56-3.5A5.2,5.2,0,0,0,2205,362.35Z"/><path class="cls-6" d="M2224.79,378.81a8.69,8.69,0,0,1-4-.8,5.56,5.56,0,0,1-2.32-2.11,5.69,5.69,0,0,1-.75-2.87,5.12,5.12,0,0,1,2.12-4.33,10,10,0,0,1,6.08-1.6h4.94v-.34a4.32,4.32,0,0,0-1.19-3.31,4.42,4.42,0,0,0-3.1-1.1,5.1,5.1,0,0,0-2.91.82,3.43,3.43,0,0,0-1.5,2.41h-4a6.31,6.31,0,0,1,1.39-3.51,7.74,7.74,0,0,1,3-2.25,10.48,10.48,0,0,1,4.05-.78,8.49,8.49,0,0,1,6.11,2.08,7.41,7.41,0,0,1,2.17,5.64v11.59h-3.49l-.35-3.23a7.08,7.08,0,0,1-2.32,2.62A6.79,6.79,0,0,1,2224.79,378.81Zm.79-3.27a4.73,4.73,0,0,0,2.76-.78,5.37,5.37,0,0,0,1.75-2.07,8.45,8.45,0,0,0,.77-2.85h-4.48a5.43,5.43,0,0,0-3.4.83,2.63,2.63,0,0,0-1,2.09,2.46,2.46,0,0,0,1,2A4.29,4.29,0,0,0,2225.58,375.54Z"/><path class="cls-6" d="M2239.64,378.35V359.5h3.57l.35,2.66a6.59,6.59,0,0,1,2.41-2.28,7,7,0,0,1,3.48-.84c3,0,5.06,1.18,6.23,3.54a7.44,7.44,0,0,1,2.75-2.59,7.71,7.71,0,0,1,3.75-.95,7.25,7.25,0,0,1,5.54,2.13q2,2.13,2,6.35v10.83h-4V367.94q0-5.47-4.18-5.48a4.36,4.36,0,0,0-3.48,1.6,6.86,6.86,0,0,0-1.35,4.56v9.73h-4V367.94q0-5.47-4.22-5.48a4.33,4.33,0,0,0-3.44,1.6,6.86,6.86,0,0,0-1.35,4.56v9.73Z"/><path class="cls-6" d="M2292.39,378.81a11.4,11.4,0,0,1-5-1,7.8,7.8,0,0,1-3.29-2.83,7.66,7.66,0,0,1-1.18-4.26,7.94,7.94,0,0,1,1.5-4.75,10.23,10.23,0,0,1,4.43-3.34,10.27,10.27,0,0,1-1.75-2.59,6.61,6.61,0,0,1-.53-2.66,5.61,5.61,0,0,1,1.9-4.35,7.58,7.58,0,0,1,5.28-1.73,8,8,0,0,1,3.8.84,5.88,5.88,0,0,1,2.43,2.24,5.81,5.81,0,0,1,.8,3.19h-3.91a2.78,2.78,0,0,0-.93-2.32,3.42,3.42,0,0,0-2.23-.79,3.32,3.32,0,0,0-2.35.81,2.74,2.74,0,0,0-.88,2.07,4.21,4.21,0,0,0,.63,2.17,13.16,13.16,0,0,0,1.92,2.39l7.9,7.95c.64-1,1.32-2.11,2.06-3.42l1-1.86h4.18l-1.52,2.77a37.23,37.23,0,0,1-3.07,5.09l5.92,5.93h-4.94l-3.23-3.23a12.63,12.63,0,0,1-4.14,2.81A12.81,12.81,0,0,1,2292.39,378.81Zm-5.51-8.33a4.59,4.59,0,0,0,1.54,3.54,5.77,5.77,0,0,0,4,1.4,8.39,8.39,0,0,0,3.38-.66,9.24,9.24,0,0,0,3-2.19l-7.56-7.56a7.93,7.93,0,0,0-3.29,2.3A5,5,0,0,0,2286.88,370.48Z"/><path class="cls-6" d="M2324.46,355.93a2.65,2.65,0,0,1-1.88-.7,2.49,2.49,0,0,1,0-3.54,2.87,2.87,0,0,1,3.76,0,2.49,2.49,0,0,1,0,3.54A2.65,2.65,0,0,1,2324.46,355.93Zm-2,22.42V359.5h4v18.85Z"/><path class="cls-6" d="M2331.79,378.35V359.5h3.57l.31,3.31a6.56,6.56,0,0,1,2.56-2.76,7.5,7.5,0,0,1,3.9-1,6.92,6.92,0,0,1,5.37,2.13q2,2.13,2,6.35v10.83h-4V367.94q0-5.47-4.48-5.48a4.83,4.83,0,0,0-3.71,1.6,6.52,6.52,0,0,0-1.46,4.56v9.73Z"/><path class="cls-6" d="M2359.19,378.35l-7.07-18.85h4.22l5.24,15,5.25-15H2371l-7,18.85Z"/><path class="cls-6" d="M2382.18,378.81a9.72,9.72,0,0,1-4.92-1.24,8.75,8.75,0,0,1-3.36-3.44,10.35,10.35,0,0,1-1.22-5.13,10.89,10.89,0,0,1,1.2-5.21,8.64,8.64,0,0,1,3.34-3.49,9.7,9.7,0,0,1,5-1.26,9.17,9.17,0,0,1,4.82,1.24,8.71,8.71,0,0,1,3.2,3.29,9.12,9.12,0,0,1,1.14,4.52c0,.25,0,.52,0,.82s0,.61-.06,1h-14.67a5.84,5.84,0,0,0,1.81,4.17,5.46,5.46,0,0,0,3.74,1.42,5,5,0,0,0,2.87-.78,4.73,4.73,0,0,0,1.73-2.11h4a8.55,8.55,0,0,1-3,4.45A8.74,8.74,0,0,1,2382.18,378.81Zm0-16.46a5.7,5.7,0,0,0-3.57,1.2,5.23,5.23,0,0,0-1.9,3.59h10.64a4.84,4.84,0,0,0-1.56-3.5A5.22,5.22,0,0,0,2382.18,362.35Z"/><path class="cls-6" d="M2403.08,378.81a9.54,9.54,0,0,1-5.89-1.75,6.55,6.55,0,0,1-2.66-4.64h4.07a4,4,0,0,0,1.44,2.22,4.6,4.6,0,0,0,3,.93,3.86,3.86,0,0,0,2.66-.76,2.27,2.27,0,0,0,.84-1.74,1.94,1.94,0,0,0-1.16-2,16.36,16.36,0,0,0-3.21-.93,24.84,24.84,0,0,1-3.18-.91,7,7,0,0,1-2.62-1.62,3.84,3.84,0,0,1-1-2.83,5.22,5.22,0,0,1,1.9-4.12,7.85,7.85,0,0,1,5.32-1.66,8.13,8.13,0,0,1,5.11,1.52,6.18,6.18,0,0,1,2.3,4.3h-3.88A2.79,2.79,0,0,0,2405,363a4.09,4.09,0,0,0-2.49-.69,3.82,3.82,0,0,0-2.35.63,1.94,1.94,0,0,0-.84,1.62,1.73,1.73,0,0,0,1.16,1.55,14.09,14.09,0,0,0,3.06,1,32.17,32.17,0,0,1,3.51,1,6.33,6.33,0,0,1,2.61,1.61,4.47,4.47,0,0,1,1,3.12,5.25,5.25,0,0,1-2,4.29A8.34,8.34,0,0,1,2403.08,378.81Z"/><path class="cls-6" d="M2422.19,378.35a6.67,6.67,0,0,1-4.4-1.35q-1.64-1.35-1.64-4.81v-9.31h-3.23V359.5h3.23l.5-4.79h3.53v4.79h5.32v3.38h-5.32v9.31a2.8,2.8,0,0,0,.66,2.15,3.51,3.51,0,0,0,2.3.59h2.17v3.42Z"/><path class="cls-6" d="M2438,378.81a9.55,9.55,0,0,1-4.84-1.24,9,9,0,0,1-3.4-3.46,10.34,10.34,0,0,1-1.26-5.19,10.23,10.23,0,0,1,1.28-5.18,9,9,0,0,1,3.44-3.46,10,10,0,0,1,9.67,0,9.16,9.16,0,0,1,3.42,3.46,11.22,11.22,0,0,1,0,10.37,9.14,9.14,0,0,1-3.44,3.46A9.72,9.72,0,0,1,2438,378.81Zm0-3.46a5.12,5.12,0,0,0,2.68-.73,5.25,5.25,0,0,0,2-2.14,7.59,7.59,0,0,0,.76-3.56,7.71,7.71,0,0,0-.74-3.55,5.3,5.3,0,0,0-2-2.15,5.35,5.35,0,0,0-5.36,0,5.33,5.33,0,0,0-2,2.15,8.69,8.69,0,0,0,0,7.11,5.26,5.26,0,0,0,2,2.14A5,5,0,0,0,2438,375.35Z"/><path class="cls-6" d="M2451.91,378.35V359.5h3.61l.34,3.57a7.51,7.51,0,0,1,2.76-2.94,8,8,0,0,1,4.27-1.09v4.22h-1.1a7.72,7.72,0,0,0-3,.55,4.3,4.3,0,0,0-2.09,1.87,7.09,7.09,0,0,0-.78,3.63v9Z"/><path class="cls-6" d="M2473.87,378.81a9.56,9.56,0,0,1-5.89-1.75,6.58,6.58,0,0,1-2.66-4.64h4.07a4,4,0,0,0,1.44,2.22,4.6,4.6,0,0,0,3,.93,3.84,3.84,0,0,0,2.66-.76,2.27,2.27,0,0,0,.84-1.74,1.94,1.94,0,0,0-1.16-2,16.36,16.36,0,0,0-3.21-.93,24.7,24.7,0,0,1-3.17-.91,6.93,6.93,0,0,1-2.62-1.62,3.8,3.8,0,0,1-1.05-2.83,5.22,5.22,0,0,1,1.9-4.12,7.86,7.86,0,0,1,5.32-1.66,8.11,8.11,0,0,1,5.11,1.52,6.14,6.14,0,0,1,2.3,4.3h-3.88a2.76,2.76,0,0,0-1.12-1.9,4.09,4.09,0,0,0-2.49-.69,3.84,3.84,0,0,0-2.35.63,1.94,1.94,0,0,0-.84,1.62,1.73,1.73,0,0,0,1.16,1.55,14.09,14.09,0,0,0,3.06,1,32.37,32.37,0,0,1,3.52,1,6.36,6.36,0,0,1,2.6,1.61,4.43,4.43,0,0,1,1,3.12,5.26,5.26,0,0,1-2,4.29A8.32,8.32,0,0,1,2473.87,378.81Z"/><path class="cls-6" d="M2084.13,462.73v-9.8l-8.82-16.8h4.56l6.27,12.85,6.23-12.85h4.53l-8.74,16.8v9.8Z"/><path class="cls-6" d="M2102.37,440.31a2.61,2.61,0,0,1-1.88-.7,2.32,2.32,0,0,1-.74-1.77,2.28,2.28,0,0,1,.74-1.76,2.84,2.84,0,0,1,3.76,0,2.32,2.32,0,0,1,.74,1.76,2.35,2.35,0,0,1-.74,1.77A2.62,2.62,0,0,1,2102.37,440.31Zm-2,22.42V443.88h4v18.85Z"/><path class="cls-6" d="M2118.52,463.19a9.62,9.62,0,0,1-4.92-1.24,8.71,8.71,0,0,1-3.37-3.44,10.4,10.4,0,0,1-1.21-5.13,10.84,10.84,0,0,1,1.19-5.2,8.75,8.75,0,0,1,3.35-3.5,9.75,9.75,0,0,1,5-1.25,9.23,9.23,0,0,1,4.83,1.23,8.75,8.75,0,0,1,3.19,3.29,9.17,9.17,0,0,1,1.14,4.52c0,.26,0,.53,0,.82s0,.61-.05,1H2113a5.83,5.83,0,0,0,1.8,4.16,5.5,5.5,0,0,0,3.75,1.42,5,5,0,0,0,2.87-.77,4.76,4.76,0,0,0,1.72-2.11h4a8.55,8.55,0,0,1-3,4.44A8.76,8.76,0,0,1,2118.52,463.19Zm0-16.46a5.71,5.71,0,0,0-3.58,1.2,5.29,5.29,0,0,0-1.9,3.59h10.64a4.77,4.77,0,0,0-1.55-3.49A5.25,5.25,0,0,0,2118.52,446.73Z"/><path class="cls-6" d="M2131.89,462.73V435.37h4v27.36Z"/><path class="cls-6" d="M2149.6,463.19a9,9,0,0,1-4.83-1.29,8.91,8.91,0,0,1-3.26-3.54,10.71,10.71,0,0,1-1.18-5.09,10.6,10.6,0,0,1,1.18-5.07,8.85,8.85,0,0,1,3.28-3.5,9.19,9.19,0,0,1,4.85-1.27,8.49,8.49,0,0,1,3.93.87,6.49,6.49,0,0,1,2.64,2.47v-11.4h4v27.36h-3.61l-.42-2.92a8.63,8.63,0,0,1-2.51,2.35A7.4,7.4,0,0,1,2149.6,463.19Zm.72-3.5a5.52,5.52,0,0,0,4.24-1.78,7.27,7.27,0,0,0,0-9.22,6,6,0,0,0-8.49,0,6.44,6.44,0,0,0-1.68,4.62,7,7,0,0,0,.76,3.3,5.71,5.71,0,0,0,2.11,2.27A5.83,5.83,0,0,0,2150.32,459.69Z"/><path class="cls-6" d="M2165.48,462.73v-26.6h10q4.14,0,6.27,1.94a6.31,6.31,0,0,1,2.12,4.86,5.79,5.79,0,0,1-1.36,4.05,6.86,6.86,0,0,1-3.31,2,6.52,6.52,0,0,1,5.28,6.46,6.78,6.78,0,0,1-3.95,6.31,10.64,10.64,0,0,1-4.75,1Zm4-15.2H2175a5.19,5.19,0,0,0,3.54-1.08,3.79,3.79,0,0,0,1.21-3,3.85,3.85,0,0,0-1.2-3,5.19,5.19,0,0,0-3.62-1.1h-5.44Zm0,11.9h5.78a5.69,5.69,0,0,0,3.78-1.14,4,4,0,0,0,1.35-3.2,4,4,0,0,0-1.41-3.24,5.66,5.66,0,0,0-3.8-1.2h-5.7Z"/><path class="cls-6" d="M2188.78,462.73V435.37h4v27.36Z"/><path class="cls-6" d="M2206.71,463.19a9.45,9.45,0,0,1-4.84-1.24,9,9,0,0,1-3.4-3.45,10.39,10.39,0,0,1-1.26-5.19,10.24,10.24,0,0,1,1.28-5.19,9.12,9.12,0,0,1,3.43-3.46,10.14,10.14,0,0,1,9.68,0,9.24,9.24,0,0,1,3.42,3.46,11.24,11.24,0,0,1,0,10.38,9.12,9.12,0,0,1-3.44,3.45A9.61,9.61,0,0,1,2206.71,463.19Zm0-3.46a5.2,5.2,0,0,0,2.68-.72,5.28,5.28,0,0,0,2-2.15,7.55,7.55,0,0,0,.76-3.55,7.68,7.68,0,0,0-.74-3.55,5.21,5.21,0,0,0-9.33,0,8.67,8.67,0,0,0,0,7.1,5.29,5.29,0,0,0,2,2.15A5.13,5.13,0,0,0,2206.71,459.73Z"/><path class="cls-6" d="M2217.92,462.73l6.69-9.42-6.69-9.43h4.3l5.05,7.22,5-7.22h4.33l-6.69,9.43,6.69,9.42h-4.33l-5-7.22-5.05,7.22Z"/><path class="cls-6" d="M2249.62,462.73v-26.6h8.62a16.09,16.09,0,0,1,7.7,1.64,10.39,10.39,0,0,1,4.48,4.61,17.85,17.85,0,0,1,0,14.14,10.27,10.27,0,0,1-4.48,4.6,16.34,16.34,0,0,1-7.7,1.61Zm4-3.42h4.45a11.71,11.71,0,0,0,5.72-1.18,6.81,6.81,0,0,0,3-3.38,13.55,13.55,0,0,0,.93-5.28,13.86,13.86,0,0,0-.93-5.32,6.94,6.94,0,0,0-3-3.44,11.58,11.58,0,0,0-5.72-1.2h-4.45Z"/><path class="cls-6" d="M2272.8,462.73l9.8-26.6H2287l9.73,26.6h-4.26l-2.28-6.5h-10.87l-2.28,6.5Zm7.67-9.69h8.59l-4.29-12.12Z"/><path class="cls-6" d="M2311.21,463.19a13.29,13.29,0,0,1-6.91-1.75,12.28,12.28,0,0,1-4.64-4.84,16.21,16.21,0,0,1,0-14.33,12.37,12.37,0,0,1,4.64-4.85,14.61,14.61,0,0,1,13.83,0,12.19,12.19,0,0,1,4.62,4.85,16.38,16.38,0,0,1,0,14.33,12.1,12.1,0,0,1-4.62,4.84A13.33,13.33,0,0,1,2311.21,463.19Zm0-3.61a9.1,9.1,0,0,0,4.77-1.22,8.23,8.23,0,0,0,3.18-3.49,13.53,13.53,0,0,0,0-10.87,8.26,8.26,0,0,0-3.18-3.5,10,10,0,0,0-9.55,0,8.13,8.13,0,0,0-3.18,3.5,13.75,13.75,0,0,0,0,10.87,8.11,8.11,0,0,0,3.18,3.49A9.18,9.18,0,0,0,2311.21,459.58Z"/><path class="cls-6" d="M2344.69,462.73V439.4h-7.86v-3.27h19.72v3.27h-7.83v23.33Z"/><path class="cls-6" d="M2358.14,462.73V443.88h3.61l.35,3.58a7.44,7.44,0,0,1,2.75-2.95,8,8,0,0,1,4.28-1.08v4.22H2368a7.58,7.58,0,0,0-3,.55,4.42,4.42,0,0,0-2.09,1.86,7.09,7.09,0,0,0-.78,3.63v9Z"/><path class="cls-6" d="M2380.87,463.19A9.62,9.62,0,0,1,2376,462a8.78,8.78,0,0,1-3.37-3.44,10.4,10.4,0,0,1-1.21-5.13,11,11,0,0,1,1.19-5.2,8.75,8.75,0,0,1,3.35-3.5,9.79,9.79,0,0,1,5-1.25,9.21,9.21,0,0,1,4.82,1.23,8.75,8.75,0,0,1,3.19,3.29,9.17,9.17,0,0,1,1.14,4.52c0,.26,0,.53,0,.82s0,.61-.05,1h-14.67a5.87,5.87,0,0,0,1.8,4.16,5.5,5.5,0,0,0,3.75,1.42,5,5,0,0,0,2.87-.77,4.78,4.78,0,0,0,1.73-2.11h4a8.49,8.49,0,0,1-3,4.44A8.74,8.74,0,0,1,2380.87,463.19Zm0-16.46a5.66,5.66,0,0,0-3.57,1.2,5.22,5.22,0,0,0-1.9,3.59H2386a4.82,4.82,0,0,0-1.56-3.49A5.25,5.25,0,0,0,2380.87,446.73Z"/><path class="cls-6" d="M2400.63,463.19a8.62,8.62,0,0,1-4-.8,5.38,5.38,0,0,1-2.32-2.11,5.58,5.58,0,0,1-.76-2.87,5.12,5.12,0,0,1,2.13-4.33,10,10,0,0,1,6.08-1.6h4.94v-.34a4.25,4.25,0,0,0-1.2-3.3,4.38,4.38,0,0,0-3.1-1.11,5.22,5.22,0,0,0-2.91.82A3.46,3.46,0,0,0,2398,450h-4a6.26,6.26,0,0,1,1.38-3.51,7.72,7.72,0,0,1,3-2.24,10.3,10.3,0,0,1,4-.78,8.52,8.52,0,0,1,6.12,2.07,7.44,7.44,0,0,1,2.16,5.64v11.59h-3.49l-.34-3.23a7.18,7.18,0,0,1-2.32,2.62A6.84,6.84,0,0,1,2400.63,463.19Zm.8-3.27a4.69,4.69,0,0,0,2.75-.78,5.28,5.28,0,0,0,1.75-2.07,8.23,8.23,0,0,0,.78-2.85h-4.49a5.36,5.36,0,0,0-3.4.84,2.59,2.59,0,0,0-1,2.09,2.42,2.42,0,0,0,1,2A4.3,4.3,0,0,0,2401.43,459.92Z"/><path class="cls-6" d="M2423,463.19a9.47,9.47,0,0,1-5.89-1.75,6.53,6.53,0,0,1-2.66-4.64h4.06A4.06,4.06,0,0,0,2420,459a4.6,4.6,0,0,0,3,.93,3.86,3.86,0,0,0,2.66-.76,2.31,2.31,0,0,0,.84-1.75,2,2,0,0,0-1.16-2,16.57,16.57,0,0,0-3.21-.93,24.39,24.39,0,0,1-3.18-.91,7.12,7.12,0,0,1-2.62-1.61,3.86,3.86,0,0,1-1-2.84,5.23,5.23,0,0,1,1.9-4.12,7.84,7.84,0,0,1,5.32-1.65,8.13,8.13,0,0,1,5.11,1.52,6.14,6.14,0,0,1,2.3,4.29H2426a2.81,2.81,0,0,0-1.12-1.9,4.15,4.15,0,0,0-2.49-.68,3.82,3.82,0,0,0-2.35.63,1.91,1.91,0,0,0-.84,1.61,1.73,1.73,0,0,0,1.16,1.56,14.7,14.7,0,0,0,3.06,1,34.6,34.6,0,0,1,3.51,1,6.25,6.25,0,0,1,2.61,1.62,4.46,4.46,0,0,1,1,3.11,5.27,5.27,0,0,1-2,4.3A8.33,8.33,0,0,1,2423,463.19Z"/><path class="cls-6" d="M2441.89,463.19a6.92,6.92,0,0,1-5.37-2.13c-1.31-1.42-2-3.53-2-6.35V443.88h4V454.3c0,3.64,1.49,5.47,4.48,5.47a4.73,4.73,0,0,0,3.69-1.6,6.56,6.56,0,0,0,1.44-4.56v-9.73h4v18.85h-3.57l-.31-3.3a6.53,6.53,0,0,1-2.56,2.75A7.5,7.5,0,0,1,2441.89,463.19Z"/><path class="cls-6" d="M2457.36,462.73V443.88H2461l.34,3.58a7.54,7.54,0,0,1,2.76-2.95,8,8,0,0,1,4.27-1.08v4.22h-1.1a7.58,7.58,0,0,0-3,.55,4.37,4.37,0,0,0-2.09,1.86,7.09,7.09,0,0,0-.78,3.63v9Z"/><path class="cls-6" d="M2474,471.09l4.53-9.92h-1.11L2470,443.88h4.37l5.77,13.95,6-13.95h4.26l-12.16,27.21Z"/><path class="cls-6" d="M2078.24,548.67v-26.6h16.91v3.26h-12.88v8.29H2094v3.19h-11.74v8.59h12.88v3.27Z"/><path class="cls-6" d="M2108.72,549.12a9.85,9.85,0,0,1-5-1.25,8.94,8.94,0,0,1-3.42-3.48,11.31,11.31,0,0,1,0-10.3,8.85,8.85,0,0,1,3.42-3.47,9.76,9.76,0,0,1,5-1.26,9.34,9.34,0,0,1,5.87,1.83,8.24,8.24,0,0,1,3.06,4.94h-4.22a4,4,0,0,0-1.67-2.44,5.38,5.38,0,0,0-7.79,2,8.51,8.51,0,0,0,0,7,5.52,5.52,0,0,0,2,2.18,5.17,5.17,0,0,0,2.74.76,5.32,5.32,0,0,0,3-.87,4,4,0,0,0,1.67-2.47h4.22a8.2,8.2,0,0,1-3,4.9A9.32,9.32,0,0,1,2108.72,549.12Z"/><path class="cls-6" d="M2130.83,549.12a9.54,9.54,0,0,1-4.84-1.23,9,9,0,0,1-3.4-3.46,11.24,11.24,0,0,1,0-10.38,9,9,0,0,1,3.43-3.45,10.07,10.07,0,0,1,9.68,0,9.14,9.14,0,0,1,3.42,3.45,11.24,11.24,0,0,1,0,10.38,9.22,9.22,0,0,1-3.44,3.46A9.71,9.71,0,0,1,2130.83,549.12Zm0-3.46a5.23,5.23,0,0,0,2.68-.72,5.35,5.35,0,0,0,2-2.15,7.55,7.55,0,0,0,.76-3.55,7.68,7.68,0,0,0-.74-3.55,5.21,5.21,0,0,0-9.33,0,8.67,8.67,0,0,0,0,7.1,5.29,5.29,0,0,0,2,2.15A5.13,5.13,0,0,0,2130.83,545.66Z"/><path class="cls-6" d="M2152.3,549.12a9.49,9.49,0,0,1-5.89-1.75,6.56,6.56,0,0,1-2.66-4.63h4.07a4,4,0,0,0,1.44,2.22,4.6,4.6,0,0,0,3,.93,3.84,3.84,0,0,0,2.66-.76,2.29,2.29,0,0,0,.84-1.75,1.93,1.93,0,0,0-1.16-2,15.08,15.08,0,0,0-3.21-.93,24.76,24.76,0,0,1-3.17-.92,6.91,6.91,0,0,1-2.62-1.61,3.82,3.82,0,0,1-1-2.83,5.25,5.25,0,0,1,1.9-4.13,7.86,7.86,0,0,1,5.32-1.65,8.11,8.11,0,0,1,5.11,1.52,6.12,6.12,0,0,1,2.3,4.3h-3.88a2.74,2.74,0,0,0-1.12-1.9,4.09,4.09,0,0,0-2.49-.69,3.84,3.84,0,0,0-2.35.63,1.94,1.94,0,0,0-.84,1.61,1.74,1.74,0,0,0,1.16,1.56,15.26,15.26,0,0,0,3.06,1,32.37,32.37,0,0,1,3.52,1,6.16,6.16,0,0,1,2.6,1.61,4.43,4.43,0,0,1,1,3.12,5.27,5.27,0,0,1-2,4.29A8.31,8.31,0,0,1,2152.3,549.12Z"/><path class="cls-6" d="M2165.53,557l4.52-9.92H2169l-7.45-17.29h4.37l5.78,13.94,6-13.94h4.25L2169.78,557Z"/><path class="cls-6" d="M2191.78,549.12a9.44,9.44,0,0,1-5.88-1.75,6.54,6.54,0,0,1-2.67-4.63h4.07a4,4,0,0,0,1.45,2.22,4.6,4.6,0,0,0,3,.93,3.88,3.88,0,0,0,2.66-.76,2.31,2.31,0,0,0,.83-1.75,1.92,1.92,0,0,0-1.16-2,15.08,15.08,0,0,0-3.21-.93,24.76,24.76,0,0,1-3.17-.92,6.91,6.91,0,0,1-2.62-1.61,3.82,3.82,0,0,1-1-2.83,5.28,5.28,0,0,1,1.9-4.13,7.86,7.86,0,0,1,5.32-1.65,8.09,8.09,0,0,1,5.11,1.52,6.12,6.12,0,0,1,2.3,4.3h-3.87a2.77,2.77,0,0,0-1.12-1.9,4.11,4.11,0,0,0-2.49-.69,3.85,3.85,0,0,0-2.36.63,1.94,1.94,0,0,0-.84,1.61,1.74,1.74,0,0,0,1.16,1.56,15.72,15.72,0,0,0,3.06,1,32.37,32.37,0,0,1,3.52,1,6.16,6.16,0,0,1,2.6,1.61,4.43,4.43,0,0,1,1,3.12,5.27,5.27,0,0,1-2,4.29A8.3,8.3,0,0,1,2191.78,549.12Z"/><path class="cls-6" d="M2210.9,548.67a6.71,6.71,0,0,1-4.41-1.35c-1.09-.9-1.63-2.51-1.63-4.81V533.2h-3.23v-3.38h3.23l.49-4.79h3.53v4.79h5.33v3.38h-5.33v9.31a2.82,2.82,0,0,0,.67,2.15,3.49,3.49,0,0,0,2.3.59H2214v3.42Z"/><path class="cls-6" d="M2226.67,549.12a9.71,9.71,0,0,1-4.92-1.23,8.85,8.85,0,0,1-3.37-3.44,10.46,10.46,0,0,1-1.21-5.13,10.89,10.89,0,0,1,1.2-5.21,8.64,8.64,0,0,1,3.34-3.49,9.7,9.7,0,0,1,5-1.26,9.1,9.1,0,0,1,4.82,1.24,8.73,8.73,0,0,1,3.19,3.28,9.18,9.18,0,0,1,1.14,4.53c0,.25,0,.52,0,.81s0,.62-.06,1h-14.67a5.82,5.82,0,0,0,1.81,4.16,5.47,5.47,0,0,0,3.74,1.43,5,5,0,0,0,2.87-.78,4.73,4.73,0,0,0,1.73-2.11h4a8.56,8.56,0,0,1-3,4.45A8.73,8.73,0,0,1,2226.67,549.12Zm0-16.45a5.73,5.73,0,0,0-3.57,1.19,5.22,5.22,0,0,0-1.9,3.6h10.64a4.84,4.84,0,0,0-1.56-3.5A5.22,5.22,0,0,0,2226.67,532.67Z"/><path class="cls-6" d="M2240,548.67V529.82h3.58l.34,2.66a6.51,6.51,0,0,1,2.41-2.28,7,7,0,0,1,3.48-.84q4.49,0,6.23,3.54a7.39,7.39,0,0,1,2.76-2.59,7.67,7.67,0,0,1,3.74-.95,7.29,7.29,0,0,1,5.55,2.13c1.34,1.42,2,3.53,2,6.35v10.83h-4V538.25c0-3.64-1.39-5.47-4.18-5.47a4.3,4.3,0,0,0-3.47,1.6,6.86,6.86,0,0,0-1.35,4.56v9.73h-4V538.25c0-3.64-1.41-5.47-4.22-5.47a4.3,4.3,0,0,0-3.44,1.6,6.86,6.86,0,0,0-1.35,4.56v9.73Z"/><path class="cls-6" d="M2291.38,549.12A6.92,6.92,0,0,1,2286,547c-1.31-1.41-2-3.53-2-6.34V529.82h4v10.41q0,5.47,4.48,5.47a4.77,4.77,0,0,0,3.69-1.59,6.6,6.6,0,0,0,1.44-4.56v-9.73h4v18.85h-3.57l-.31-3.31a6.53,6.53,0,0,1-2.56,2.75A7.41,7.41,0,0,1,2291.38,549.12Z"/><path class="cls-6" d="M2314.37,549.12a9.49,9.49,0,0,1-5.89-1.75,6.56,6.56,0,0,1-2.66-4.63h4.07a4,4,0,0,0,1.44,2.22,4.6,4.6,0,0,0,3,.93,3.84,3.84,0,0,0,2.66-.76,2.29,2.29,0,0,0,.84-1.75,1.93,1.93,0,0,0-1.16-2,15.08,15.08,0,0,0-3.21-.93,24.76,24.76,0,0,1-3.17-.92,6.91,6.91,0,0,1-2.62-1.61,3.82,3.82,0,0,1-1.05-2.83,5.25,5.25,0,0,1,1.9-4.13,7.86,7.86,0,0,1,5.32-1.65,8.11,8.11,0,0,1,5.11,1.52,6.12,6.12,0,0,1,2.3,4.3h-3.88a2.74,2.74,0,0,0-1.12-1.9,4.09,4.09,0,0,0-2.49-.69,3.84,3.84,0,0,0-2.35.63,1.94,1.94,0,0,0-.84,1.61,1.74,1.74,0,0,0,1.16,1.56,15.26,15.26,0,0,0,3.06,1,32.37,32.37,0,0,1,3.52,1,6.16,6.16,0,0,1,2.6,1.61,4.43,4.43,0,0,1,1,3.12,5.27,5.27,0,0,1-2,4.29A8.31,8.31,0,0,1,2314.37,549.12Z"/><path class="cls-6" d="M2335.12,549.12a9.71,9.71,0,0,1-4.92-1.23,8.82,8.82,0,0,1-3.36-3.44,10.46,10.46,0,0,1-1.22-5.13,10.89,10.89,0,0,1,1.2-5.21,8.64,8.64,0,0,1,3.34-3.49,9.7,9.7,0,0,1,5-1.26,9.08,9.08,0,0,1,4.82,1.24,8.75,8.75,0,0,1,3.2,3.28,9.18,9.18,0,0,1,1.14,4.53c0,.25,0,.52,0,.81s0,.62-.06,1h-14.67a5.82,5.82,0,0,0,1.81,4.16,5.47,5.47,0,0,0,3.74,1.43A5,5,0,0,0,2338,545a4.73,4.73,0,0,0,1.73-2.11h4a8.68,8.68,0,0,1-3,4.45A8.78,8.78,0,0,1,2335.12,549.12Zm0-16.45a5.75,5.75,0,0,0-3.57,1.19,5.26,5.26,0,0,0-1.9,3.6h10.64a4.84,4.84,0,0,0-1.56-3.5A5.22,5.22,0,0,0,2335.12,532.67Z"/><path class="cls-6" d="M2348.5,548.67V529.82h3.61l.34,3.57a7.66,7.66,0,0,1,2.75-2.95,8.07,8.07,0,0,1,4.28-1.08v4.22h-1.1a7.63,7.63,0,0,0-3,.55,4.42,4.42,0,0,0-2.09,1.86,7.14,7.14,0,0,0-.78,3.63v9Z"/><path class="cls-6" d="M2372.51,548.67V529.82h3.57l.35,2.66a6.43,6.43,0,0,1,2.41-2.28,7,7,0,0,1,3.48-.84q4.47,0,6.23,3.54a7.36,7.36,0,0,1,2.75-2.59,7.68,7.68,0,0,1,3.75-.95,7.25,7.25,0,0,1,5.54,2.13c1.35,1.42,2,3.53,2,6.35v10.83h-4V538.25c0-3.64-1.39-5.47-4.18-5.47a4.33,4.33,0,0,0-3.48,1.6,6.86,6.86,0,0,0-1.35,4.56v9.73h-4V538.25c0-3.64-1.41-5.47-4.22-5.47a4.28,4.28,0,0,0-3.44,1.6,6.86,6.86,0,0,0-1.35,4.56v9.73Z"/><path class="cls-6" d="M2413.7,549.12a8.55,8.55,0,0,1-3.95-.8,5.43,5.43,0,0,1-2.32-2.11,5.67,5.67,0,0,1-.76-2.86,5.14,5.14,0,0,1,2.13-4.34,10,10,0,0,1,6.08-1.59h4.94v-.34a4.27,4.27,0,0,0-1.2-3.31,4.35,4.35,0,0,0-3.09-1.1,5.17,5.17,0,0,0-2.91.81,3.45,3.45,0,0,0-1.5,2.42h-4a6.37,6.37,0,0,1,1.39-3.52,7.81,7.81,0,0,1,3-2.24,10.3,10.3,0,0,1,4.05-.78,8.48,8.48,0,0,1,6.11,2.07,7.42,7.42,0,0,1,2.17,5.65v11.59h-3.5l-.34-3.23a7.16,7.16,0,0,1-2.32,2.62A6.8,6.8,0,0,1,2413.7,549.12Zm.8-3.27a4.73,4.73,0,0,0,2.76-.78A5.19,5.19,0,0,0,2419,543a8.23,8.23,0,0,0,.78-2.85h-4.48a5.34,5.34,0,0,0-3.4.84,2.61,2.61,0,0,0-1,2.09,2.4,2.4,0,0,0,1,2A4.22,4.22,0,0,0,2414.5,545.85Z"/><path class="cls-6" d="M2428.56,548.67V529.82h3.61l.34,3.57a7.61,7.61,0,0,1,2.76-2.95,8,8,0,0,1,4.27-1.08v4.22h-1.1a7.58,7.58,0,0,0-3,.55,4.37,4.37,0,0,0-2.09,1.86,7.14,7.14,0,0,0-.78,3.63v9Z"/><path class="cls-6" d="M2443,548.67V521.31h4v16.3l7.22-7.79h4.82l-8,8.55,9.19,10.3h-5.09L2447,539v9.66Z"/><path class="cls-6" d="M2470.74,549.12a9.71,9.71,0,0,1-4.92-1.23,8.82,8.82,0,0,1-3.36-3.44,10.46,10.46,0,0,1-1.22-5.13,10.89,10.89,0,0,1,1.2-5.21,8.64,8.64,0,0,1,3.34-3.49,9.7,9.7,0,0,1,5-1.26,9.08,9.08,0,0,1,4.82,1.24,8.75,8.75,0,0,1,3.2,3.28,9.18,9.18,0,0,1,1.14,4.53c0,.25,0,.52,0,.81s0,.62-.06,1h-14.67a5.82,5.82,0,0,0,1.81,4.16,5.47,5.47,0,0,0,3.74,1.43,5,5,0,0,0,2.87-.78,4.73,4.73,0,0,0,1.73-2.11h4a8.68,8.68,0,0,1-3,4.45A8.78,8.78,0,0,1,2470.74,549.12Zm0-16.45a5.75,5.75,0,0,0-3.57,1.19,5.26,5.26,0,0,0-1.9,3.6h10.64a4.84,4.84,0,0,0-1.56-3.5A5.22,5.22,0,0,0,2470.74,532.67Z"/><path class="cls-6" d="M2491.53,548.67a6.71,6.71,0,0,1-4.41-1.35c-1.09-.9-1.64-2.51-1.64-4.81V533.2h-3.23v-3.38h3.23l.5-4.79h3.53v4.79h5.32v3.38h-5.32v9.31a2.78,2.78,0,0,0,.67,2.15,3.49,3.49,0,0,0,2.3.59h2.16v3.42Z"/><path class="cls-6" d="M2501.25,526.25a2.63,2.63,0,0,1-1.88-.71,2.47,2.47,0,0,1,0-3.53,2.89,2.89,0,0,1,3.77,0,2.47,2.47,0,0,1,0,3.53A2.65,2.65,0,0,1,2501.25,526.25Zm-2,22.42V529.82h4v18.85Z"/><path class="cls-6" d="M2508.59,548.67V529.82h3.57l.3,3.3a6.61,6.61,0,0,1,2.57-2.75,7.47,7.47,0,0,1,3.89-1,6.94,6.94,0,0,1,5.38,2.13c1.3,1.42,2,3.53,2,6.35v10.83h-4V538.25c0-3.64-1.5-5.47-4.49-5.47a4.78,4.78,0,0,0-3.7,1.6,6.48,6.48,0,0,0-1.46,4.56v9.73Z"/><path class="cls-6" d="M2538.72,542.89a10.21,10.21,0,0,1-2.73-.34l-1.64,1.59a4.3,4.3,0,0,0,1,.46,10.39,10.39,0,0,0,1.71.34c.73.1,1.73.2,3,.31,2.51.22,4.32.83,5.43,1.8a4.91,4.91,0,0,1,1.68,3.9,6.07,6.07,0,0,1-.9,3.17,6.4,6.4,0,0,1-2.77,2.43,10.88,10.88,0,0,1-4.81.93,12.13,12.13,0,0,1-6.4-1.5,5.2,5.2,0,0,1-1.83-6.88,7,7,0,0,1,2-2.18,9.43,9.43,0,0,1-1.39-.74,9.2,9.2,0,0,1-1-.82v-.91l3.27-3.35a6.24,6.24,0,0,1-2.21-5,6.73,6.73,0,0,1,.89-3.41,6.51,6.51,0,0,1,2.61-2.45,8.71,8.71,0,0,1,4.1-.91,9.2,9.2,0,0,1,3,.46h7v2.66l-3.35.19a6.7,6.7,0,0,1,.91,3.46,6.61,6.61,0,0,1-.89,3.42,6.52,6.52,0,0,1-2.58,2.43A8.49,8.49,0,0,1,2538.72,542.89Zm-5,8.17a2.64,2.64,0,0,0,1.44,2.45,7.19,7.19,0,0,0,3.61.82,5.8,5.8,0,0,0,3.38-.9,2.75,2.75,0,0,0,1.3-2.37,2.44,2.44,0,0,0-.88-1.88,5.82,5.82,0,0,0-3.3-1c-1.22-.08-2.3-.19-3.23-.34a4.56,4.56,0,0,0-1.83,1.56A3.16,3.16,0,0,0,2533.67,551.06Zm5-11.32a4.13,4.13,0,0,0,2.83-.94,3.77,3.77,0,0,0,0-5.3,4.27,4.27,0,0,0-2.83-.91,4.35,4.35,0,0,0-2.87.91,3.79,3.79,0,0,0,0,5.3A4.21,4.21,0,0,0,2538.72,539.74Z"/><path class="cls-6" d="M2078.94,636.58V610h10q4.14,0,6.26,1.94a6.29,6.29,0,0,1,2.13,4.86,5.74,5.74,0,0,1-1.37,4.05,6.79,6.79,0,0,1-3.3,2,6.52,6.52,0,0,1,5.28,6.46,7,7,0,0,1-1,3.71,6.87,6.87,0,0,1-2.94,2.6,10.64,10.64,0,0,1-4.75,1Zm4-15.2h5.51a5.14,5.14,0,0,0,3.53-1.08,3.76,3.76,0,0,0,1.22-3,3.85,3.85,0,0,0-1.2-3,5.2,5.2,0,0,0-3.63-1.1H2083Zm0,11.9h5.78a5.69,5.69,0,0,0,3.78-1.14,4,4,0,0,0,1.35-3.2,4,4,0,0,0-1.41-3.24,5.66,5.66,0,0,0-3.8-1.2H2083Z"/><path class="cls-6" d="M2109.19,637a7,7,0,0,1-5.38-2.13c-1.3-1.42-1.95-3.53-1.95-6.35V617.73h4v10.42c0,3.64,1.5,5.47,4.49,5.47a4.72,4.72,0,0,0,3.68-1.6,6.52,6.52,0,0,0,1.45-4.56v-9.73h4v18.85H2116l-.3-3.3a6.59,6.59,0,0,1-2.56,2.75A7.5,7.5,0,0,1,2109.19,637Z"/><path class="cls-6" d="M2132.37,630.81a10.33,10.33,0,0,1-2.74-.35l-1.63,1.6a4.3,4.3,0,0,0,1,.46,11.57,11.57,0,0,0,1.71.34q1.1.15,3,.3,3.77.35,5.43,1.81a4.88,4.88,0,0,1,1.67,3.89A6.1,6.1,0,0,1,2140,642a6.4,6.4,0,0,1-2.77,2.43,10.88,10.88,0,0,1-4.81.93,12.13,12.13,0,0,1-6.4-1.5,5.2,5.2,0,0,1-1.83-6.88,7.1,7.1,0,0,1,2-2.19,7.52,7.52,0,0,1-1.39-.74,8.15,8.15,0,0,1-1-.81v-.92L2127,629a6.26,6.26,0,0,1-2.2-5,6.72,6.72,0,0,1,.89-3.4,6.51,6.51,0,0,1,2.61-2.45,8.56,8.56,0,0,1,4.1-.91,9.42,9.42,0,0,1,3,.45h7v2.66l-3.34.19a6.73,6.73,0,0,1,.91,3.46,6.66,6.66,0,0,1-.89,3.42,6.41,6.41,0,0,1-2.59,2.43A8.42,8.42,0,0,1,2132.37,630.81Zm-5,8.17a2.65,2.65,0,0,0,1.44,2.45,7.3,7.3,0,0,0,3.61.81,5.8,5.8,0,0,0,3.38-.89A2.75,2.75,0,0,0,2137,639a2.41,2.41,0,0,0-.87-1.88,5.76,5.76,0,0,0-3.31-1,32.3,32.3,0,0,1-3.23-.35,4.68,4.68,0,0,0-1.82,1.56A3.2,3.2,0,0,0,2127.32,639Zm5-11.33a4.18,4.18,0,0,0,2.83-.93,3.79,3.79,0,0,0,0-5.3,4.22,4.22,0,0,0-2.83-.91,4.3,4.3,0,0,0-2.87.91,3.79,3.79,0,0,0,0,5.3A4.25,4.25,0,0,0,2132.37,627.65Z"/><path class="cls-6" d="M2166.15,637a8.23,8.23,0,0,1-3.89-.88,6.65,6.65,0,0,1-2.68-2.47l-.42,2.89h-3.61V609.22h4v11.44a8.66,8.66,0,0,1,2.51-2.36,7.48,7.48,0,0,1,4.1-1,9,9,0,0,1,4.83,1.29,9.15,9.15,0,0,1,3.28,3.53,10.67,10.67,0,0,1,1.2,5.1,10.49,10.49,0,0,1-1.2,5.07,9.07,9.07,0,0,1-3.28,3.5A9.28,9.28,0,0,1,2166.15,637Zm-.68-3.5a5.61,5.61,0,0,0,4.25-1.76,6.44,6.44,0,0,0,1.68-4.62,7.11,7.11,0,0,0-.76-3.31,5.63,5.63,0,0,0-5.17-3.08,5.51,5.51,0,0,0-4.24,1.79,7.27,7.27,0,0,0,0,9.22A5.56,5.56,0,0,0,2165.47,633.54Z"/><path class="cls-6" d="M2188.69,637a9.49,9.49,0,0,1-4.85-1.24,9,9,0,0,1-3.4-3.45,10.39,10.39,0,0,1-1.25-5.19,10.24,10.24,0,0,1,1.27-5.19,9.14,9.14,0,0,1,3.44-3.46,10.12,10.12,0,0,1,9.67,0A9.24,9.24,0,0,1,2197,622a11.24,11.24,0,0,1,0,10.38,9.12,9.12,0,0,1-3.44,3.45A9.6,9.6,0,0,1,2188.69,637Zm0-3.46a5.19,5.19,0,0,0,2.67-.72,5.28,5.28,0,0,0,2-2.15,7.43,7.43,0,0,0,.76-3.55,7.68,7.68,0,0,0-.74-3.55,5.12,5.12,0,0,0-4.66-2.87,5.26,5.26,0,0,0-2.68.72,5.33,5.33,0,0,0-2,2.15,8.67,8.67,0,0,0,0,7.1,5.31,5.31,0,0,0,2,2.15A5.11,5.11,0,0,0,2188.69,633.58Z"/><path class="cls-6" d="M2209.59,637a6.92,6.92,0,0,1-5.38-2.13c-1.31-1.42-2-3.53-2-6.35V617.73h4v10.42c0,3.64,1.49,5.47,4.48,5.47a4.73,4.73,0,0,0,3.69-1.6,6.56,6.56,0,0,0,1.44-4.56v-9.73h4v18.85h-3.57l-.3-3.3a6.61,6.61,0,0,1-2.57,2.75A7.49,7.49,0,0,1,2209.59,637Z"/><path class="cls-6" d="M2225.05,636.58V617.73h3.57l.31,3.31a6.53,6.53,0,0,1,2.56-2.75,7.41,7.41,0,0,1,3.9-1,6.92,6.92,0,0,1,5.37,2.13q2,2.13,2,6.34v10.83h-4V626.17q0-5.48-4.48-5.47a4.83,4.83,0,0,0-3.71,1.59,6.56,6.56,0,0,0-1.46,4.56v9.73Z"/><path class="cls-6" d="M2255.37,636.58a6.69,6.69,0,0,1-4.4-1.35q-1.63-1.35-1.64-4.8v-9.31h-3.23v-3.39h3.23l.5-4.78h3.53v4.78h5.32v3.39h-5.32v9.31a2.74,2.74,0,0,0,.67,2.14,3.42,3.42,0,0,0,2.29.59h2.17v3.42Z"/><path class="cls-6" d="M2265,644.94l4.52-9.92h-1.1L2261,617.73h4.37l5.78,13.95,6-13.95h4.25l-12.16,27.21Z"/><path class="cls-6" d="M2081.86,724.23v-26.6h9.31a11.3,11.3,0,0,1,5.17,1,7,7,0,0,1,3.06,2.85,8.68,8.68,0,0,1,0,8.05,6.89,6.89,0,0,1-3,2.87,11.37,11.37,0,0,1-5.25,1.07h-5.28v10.71Zm4-14H2091a5.65,5.65,0,0,0,4.09-1.23,4.58,4.58,0,0,0,1.23-3.37,4.67,4.67,0,0,0-1.23-3.44,5.65,5.65,0,0,0-4.09-1.23h-5.09Z"/><path class="cls-6" d="M2109.6,724.69a8.68,8.68,0,0,1-3.95-.8,5.5,5.5,0,0,1-2.32-2.11,5.68,5.68,0,0,1-.76-2.87,5.12,5.12,0,0,1,2.13-4.33,10,10,0,0,1,6.08-1.6h4.94v-.34a4.25,4.25,0,0,0-1.2-3.3,4.35,4.35,0,0,0-3.09-1.11,5.18,5.18,0,0,0-2.91.82,3.46,3.46,0,0,0-1.5,2.41h-4a6.34,6.34,0,0,1,1.39-3.51,7.72,7.72,0,0,1,3-2.24,10.3,10.3,0,0,1,4-.78,8.48,8.48,0,0,1,6.11,2.07,7.41,7.41,0,0,1,2.17,5.64v11.59h-3.5l-.34-3.23a7.08,7.08,0,0,1-2.32,2.62A6.8,6.8,0,0,1,2109.6,724.69Zm.8-3.27a4.73,4.73,0,0,0,2.76-.78,5.37,5.37,0,0,0,1.75-2.07,8.45,8.45,0,0,0,.77-2.85h-4.48a5.34,5.34,0,0,0-3.4.84,2.6,2.6,0,0,0-1,2.09,2.43,2.43,0,0,0,1,2A4.29,4.29,0,0,0,2110.4,721.42Z"/><path class="cls-6" d="M2124.46,724.23V705.38h3.61l.34,3.58a7.47,7.47,0,0,1,2.76-3,8,8,0,0,1,4.27-1.08v4.22h-1.1a7.58,7.58,0,0,0-3,.55,4.32,4.32,0,0,0-2.09,1.86,7.09,7.09,0,0,0-.78,3.63v9Z"/><path class="cls-6" d="M2146.8,724.23a6.69,6.69,0,0,1-4.4-1.35q-1.64-1.35-1.64-4.8v-9.31h-3.23v-3.39h3.23l.5-4.78h3.53v4.78h5.32v3.39h-5.32v9.31a2.75,2.75,0,0,0,.67,2.14,3.42,3.42,0,0,0,2.29.59h2.17v3.42Z"/><path class="cls-6" d="M2154.25,724.23V705.38h3.57l.31,3.31a6.59,6.59,0,0,1,2.56-2.75,7.41,7.41,0,0,1,3.9-1,6.92,6.92,0,0,1,5.37,2.13q2,2.13,2,6.34v10.83h-4V713.82q0-5.48-4.48-5.47a4.83,4.83,0,0,0-3.71,1.59,6.56,6.56,0,0,0-1.46,4.56v9.73Z"/><path class="cls-6" d="M2185.49,724.69a9.62,9.62,0,0,1-4.92-1.24,8.78,8.78,0,0,1-3.37-3.44,10.4,10.4,0,0,1-1.21-5.13,11,11,0,0,1,1.19-5.2,8.75,8.75,0,0,1,3.35-3.5,9.79,9.79,0,0,1,5-1.25,9.21,9.21,0,0,1,4.82,1.23,8.75,8.75,0,0,1,3.19,3.29,9.17,9.17,0,0,1,1.14,4.52c0,.26,0,.53,0,.82s0,.61,0,1h-14.67a5.87,5.87,0,0,0,1.8,4.16,5.5,5.5,0,0,0,3.75,1.42,5,5,0,0,0,2.87-.78,4.7,4.7,0,0,0,1.73-2.1h4a8.49,8.49,0,0,1-3,4.44A8.74,8.74,0,0,1,2185.49,724.69Zm0-16.46a5.66,5.66,0,0,0-3.57,1.2A5.22,5.22,0,0,0,2180,713h10.64a4.82,4.82,0,0,0-1.56-3.49A5.2,5.2,0,0,0,2185.49,708.23Z"/><path class="cls-6" d="M2198.86,724.23V705.38h3.61l.35,3.58a7.38,7.38,0,0,1,2.75-3,8,8,0,0,1,4.28-1.08v4.22h-1.11a7.61,7.61,0,0,0-3,.55,4.37,4.37,0,0,0-2.09,1.86,7.09,7.09,0,0,0-.78,3.63v9Z"/><path class="cls-6" d="M2222.88,724.23V705.38h3.57l.34,2.66a6.62,6.62,0,0,1,2.42-2.28,7.1,7.1,0,0,1,3.47-.83q4.49,0,6.23,3.53a7.44,7.44,0,0,1,2.76-2.58,7.67,7.67,0,0,1,3.74-1,7.26,7.26,0,0,1,5.55,2.13c1.34,1.42,2,3.53,2,6.34v10.83h-4V713.82c0-3.65-1.4-5.47-4.18-5.47a4.36,4.36,0,0,0-3.48,1.59,6.89,6.89,0,0,0-1.35,4.56v9.73h-4V713.82c0-3.65-1.4-5.47-4.22-5.47a4.28,4.28,0,0,0-3.43,1.59,6.89,6.89,0,0,0-1.35,4.56v9.73Z"/><path class="cls-6" d="M2264.07,724.69a8.65,8.65,0,0,1-4-.8,5.5,5.5,0,0,1-2.32-2.11,5.58,5.58,0,0,1-.76-2.87,5.12,5.12,0,0,1,2.13-4.33,10,10,0,0,1,6.08-1.6h4.94v-.34a4.25,4.25,0,0,0-1.2-3.3,4.38,4.38,0,0,0-3.1-1.11,5.17,5.17,0,0,0-2.9.82,3.39,3.39,0,0,0-1.5,2.41h-4a6.34,6.34,0,0,1,1.39-3.51,7.65,7.65,0,0,1,3-2.24,10.21,10.21,0,0,1,4-.78,8.49,8.49,0,0,1,6.12,2.07,7.45,7.45,0,0,1,2.17,5.64v11.59h-3.5l-.34-3.23a7.17,7.17,0,0,1-2.32,2.62A6.8,6.8,0,0,1,2264.07,724.69Zm.8-3.27a4.67,4.67,0,0,0,2.75-.78,5.28,5.28,0,0,0,1.75-2.07,8.23,8.23,0,0,0,.78-2.85h-4.48a5.34,5.34,0,0,0-3.4.84,2.57,2.57,0,0,0-1,2.09,2.4,2.4,0,0,0,1,2A4.25,4.25,0,0,0,2264.87,721.42Z"/><path class="cls-6" d="M2278.93,724.23V705.38h3.61l.34,3.58a7.47,7.47,0,0,1,2.76-3,8,8,0,0,1,4.27-1.08v4.22h-1.1a7.54,7.54,0,0,0-3,.55,4.28,4.28,0,0,0-2.09,1.86,7.09,7.09,0,0,0-.78,3.63v9Z"/><path class="cls-6" d="M2293.37,724.23V696.87h4v16.3l7.21-7.79h4.83l-8,8.55,9.2,10.3h-5.09l-8.13-9.65v9.65Z"/><path class="cls-6" d="M2321.11,724.69a9.62,9.62,0,0,1-4.92-1.24,8.78,8.78,0,0,1-3.37-3.44,10.4,10.4,0,0,1-1.21-5.13,11,11,0,0,1,1.19-5.2,8.75,8.75,0,0,1,3.35-3.5,9.79,9.79,0,0,1,5-1.25,9.21,9.21,0,0,1,4.82,1.23,8.75,8.75,0,0,1,3.19,3.29,9.17,9.17,0,0,1,1.14,4.52c0,.26,0,.53,0,.82s0,.61-.05,1h-14.67a5.87,5.87,0,0,0,1.8,4.16,5.5,5.5,0,0,0,3.75,1.42,5,5,0,0,0,2.87-.78,4.7,4.7,0,0,0,1.73-2.1h4a8.49,8.49,0,0,1-3,4.44A8.74,8.74,0,0,1,2321.11,724.69Zm0-16.46a5.66,5.66,0,0,0-3.57,1.2,5.22,5.22,0,0,0-1.9,3.59h10.64a4.82,4.82,0,0,0-1.56-3.49A5.2,5.2,0,0,0,2321.11,708.23Z"/><path class="cls-6" d="M2341.89,724.23a6.67,6.67,0,0,1-4.4-1.35q-1.63-1.35-1.64-4.8v-9.31h-3.23v-3.39h3.23l.5-4.78h3.53v4.78h5.32v3.39h-5.32v9.31a2.75,2.75,0,0,0,.67,2.14,3.41,3.41,0,0,0,2.29.59H2345v3.42Z"/><path class="cls-6" d="M2351.62,701.81a2.61,2.61,0,0,1-1.88-.7,2.35,2.35,0,0,1-.74-1.77,2.32,2.32,0,0,1,.74-1.76,2.84,2.84,0,0,1,3.76,0,2.28,2.28,0,0,1,.74,1.76,2.32,2.32,0,0,1-.74,1.77A2.61,2.61,0,0,1,2351.62,701.81Zm-2,22.42V705.38h4v18.85Z"/><path class="cls-6" d="M2359,724.23V705.38h3.58l.3,3.31a6.55,6.55,0,0,1,2.57-2.75,7.35,7.35,0,0,1,3.89-1,7,7,0,0,1,5.38,2.13q1.95,2.13,1.95,6.34v10.83h-4V713.82q0-5.48-4.48-5.47a4.81,4.81,0,0,0-3.7,1.59,6.51,6.51,0,0,0-1.47,4.56v9.73Z"/><path class="cls-6" d="M2389.09,718.46a10.33,10.33,0,0,1-2.74-.35l-1.63,1.6a4.4,4.4,0,0,0,1,.46,12.15,12.15,0,0,0,1.71.34c.74.1,1.74.2,3,.3q3.75.35,5.43,1.81a4.92,4.92,0,0,1,1.67,3.89,6.19,6.19,0,0,1-.89,3.18,6.46,6.46,0,0,1-2.77,2.43,10.88,10.88,0,0,1-4.81.93,12.16,12.16,0,0,1-6.41-1.5,5,5,0,0,1-2.45-4.54,4.84,4.84,0,0,1,.63-2.34,7,7,0,0,1,2-2.19,7.21,7.21,0,0,1-1.39-.74,10.32,10.32,0,0,1-1-.81V720l3.27-3.34a6.26,6.26,0,0,1-2.2-5,6.72,6.72,0,0,1,.89-3.4,6.42,6.42,0,0,1,2.6-2.45,8.6,8.6,0,0,1,4.11-.91,9.42,9.42,0,0,1,3,.45h7V708l-3.34.19a6.73,6.73,0,0,1,.91,3.46,6.66,6.66,0,0,1-.89,3.42,6.41,6.41,0,0,1-2.59,2.43A8.45,8.45,0,0,1,2389.09,718.46Zm-5.06,8.17a2.67,2.67,0,0,0,1.45,2.45,7.28,7.28,0,0,0,3.61.81,5.8,5.8,0,0,0,3.38-.89,2.75,2.75,0,0,0,1.29-2.37,2.41,2.41,0,0,0-.87-1.88,5.78,5.78,0,0,0-3.31-1,32.3,32.3,0,0,1-3.23-.35,4.68,4.68,0,0,0-1.82,1.56A3.21,3.21,0,0,0,2384,726.63Zm5.06-11.33a4.2,4.2,0,0,0,2.83-.93,3.79,3.79,0,0,0,0-5.3,4.24,4.24,0,0,0-2.83-.91,4.3,4.3,0,0,0-2.87.91,3.79,3.79,0,0,0,0,5.3A4.25,4.25,0,0,0,2389.09,715.3Z"/><path class="cls-6" d="M297,916.56V890h9.31a11.26,11.26,0,0,1,5.16,1,7.07,7.07,0,0,1,3.06,2.85,8.7,8.7,0,0,1,0,8.06,6.9,6.9,0,0,1-3,2.87,11.36,11.36,0,0,1-5.24,1.06H301v10.72Zm4-14h5.1a5.62,5.62,0,0,0,4.08-1.23,4.56,4.56,0,0,0,1.24-3.36,4.66,4.66,0,0,0-1.24-3.44,5.58,5.58,0,0,0-4.08-1.24H301Z"/><path class="cls-6" d="M319.33,916.56V897.71h3.61l.34,3.57a7.51,7.51,0,0,1,2.76-2.94,7.93,7.93,0,0,1,4.27-1.09v4.22h-1.1a7.63,7.63,0,0,0-3,.55,4.35,4.35,0,0,0-2.08,1.86,7.14,7.14,0,0,0-.78,3.63v9Z"/><path class="cls-6" d="M342.05,917a9.54,9.54,0,0,1-4.84-1.23,9,9,0,0,1-3.4-3.46,11.26,11.26,0,0,1,0-10.37,9.07,9.07,0,0,1,3.44-3.46,10.07,10.07,0,0,1,9.68,0,9.09,9.09,0,0,1,3.42,3.46,11.22,11.22,0,0,1,0,10.37,9.22,9.22,0,0,1-3.44,3.46A9.71,9.71,0,0,1,342.05,917Zm0-3.46a5.23,5.23,0,0,0,2.68-.72,5.32,5.32,0,0,0,2-2.14,8.75,8.75,0,0,0,0-7.11,5.15,5.15,0,0,0-2-2.15,5.22,5.22,0,0,0-7.35,2.15,8.69,8.69,0,0,0,0,7.11,5.26,5.26,0,0,0,2,2.14A5.13,5.13,0,0,0,342.05,913.55Z"/><path class="cls-6" d="M363.14,916.56a6.71,6.71,0,0,1-4.41-1.35q-1.64-1.35-1.63-4.81v-9.31h-3.23v-3.38h3.23l.49-4.79h3.54v4.79h5.32v3.38h-5.32v9.31a2.82,2.82,0,0,0,.66,2.15,3.51,3.51,0,0,0,2.3.59h2.17v3.42Z"/><path class="cls-6" d="M378.91,917a9.54,9.54,0,0,1-4.84-1.23,9,9,0,0,1-3.4-3.46,10.34,10.34,0,0,1-1.26-5.19,10.23,10.23,0,0,1,1.28-5.18,9,9,0,0,1,3.43-3.46,10.07,10.07,0,0,1,9.68,0,9.09,9.09,0,0,1,3.42,3.46,11.22,11.22,0,0,1,0,10.37,9.22,9.22,0,0,1-3.44,3.46A9.71,9.71,0,0,1,378.91,917Zm0-3.46a5.23,5.23,0,0,0,2.68-.72,5.32,5.32,0,0,0,2-2.14,7.59,7.59,0,0,0,.76-3.56,7.68,7.68,0,0,0-.74-3.55,5.21,5.21,0,0,0-9.33,0,8.69,8.69,0,0,0,0,7.11,5.26,5.26,0,0,0,2,2.14A5.13,5.13,0,0,0,378.91,913.55Z"/><path class="cls-6" d="M401.79,917a9.85,9.85,0,0,1-5-1.25,8.94,8.94,0,0,1-3.42-3.48,11.31,11.31,0,0,1,0-10.3,8.85,8.85,0,0,1,3.42-3.47,9.76,9.76,0,0,1,5-1.26,9.32,9.32,0,0,1,5.87,1.83,8.24,8.24,0,0,1,3.06,4.94H406.5a4,4,0,0,0-1.67-2.44,5.6,5.6,0,0,0-5.78-.13,5.42,5.42,0,0,0-2,2.17,8.51,8.51,0,0,0,0,7,5.45,5.45,0,0,0,2,2.18,5.17,5.17,0,0,0,2.74.76,5.32,5.32,0,0,0,3-.87,4,4,0,0,0,1.67-2.47h4.22a8.17,8.17,0,0,1-3,4.9A9.32,9.32,0,0,1,401.79,917Z"/><path class="cls-6" d="M423.9,917a9.54,9.54,0,0,1-4.84-1.23,9,9,0,0,1-3.4-3.46,10.34,10.34,0,0,1-1.26-5.19,10.23,10.23,0,0,1,1.28-5.18,9,9,0,0,1,3.44-3.46,10,10,0,0,1,9.67,0,9.09,9.09,0,0,1,3.42,3.46,11.22,11.22,0,0,1,0,10.37,9.22,9.22,0,0,1-3.44,3.46A9.71,9.71,0,0,1,423.9,917Zm0-3.46a5.19,5.19,0,0,0,4.68-2.86,7.59,7.59,0,0,0,.76-3.56,7.68,7.68,0,0,0-.74-3.55,5.21,5.21,0,0,0-9.33,0,8.69,8.69,0,0,0,0,7.11,5.26,5.26,0,0,0,2,2.14A5.13,5.13,0,0,0,423.9,913.55Z"/><path class="cls-6" d="M437.85,916.56V889.2h4v27.36Z"/><path class="cls-6" d="M463.5,917a7,7,0,0,1-5.38-2.13c-1.3-1.41-1.95-3.53-1.95-6.34V897.71h4v10.41q0,5.48,4.49,5.47a4.75,4.75,0,0,0,3.68-1.59,6.55,6.55,0,0,0,1.45-4.56v-9.73h4v18.85h-3.58l-.3-3.31a6.49,6.49,0,0,1-2.57,2.75A7.35,7.35,0,0,1,463.5,917Z"/><path class="cls-6" d="M486.49,917a9.47,9.47,0,0,1-5.89-1.75,6.53,6.53,0,0,1-2.66-4.63H482a4.07,4.07,0,0,0,1.45,2.22,4.6,4.6,0,0,0,3,.93,3.86,3.86,0,0,0,2.66-.76,2.29,2.29,0,0,0,.84-1.75,1.93,1.93,0,0,0-1.16-1.95,15.45,15.45,0,0,0-3.21-.93,24.44,24.44,0,0,1-3.18-.92,7,7,0,0,1-2.62-1.61,3.81,3.81,0,0,1-1-2.83,5.25,5.25,0,0,1,1.9-4.13,7.84,7.84,0,0,1,5.32-1.65,8.13,8.13,0,0,1,5.11,1.52,6.18,6.18,0,0,1,2.3,4.3h-3.88a2.79,2.79,0,0,0-1.12-1.9,4.09,4.09,0,0,0-2.49-.69,3.87,3.87,0,0,0-2.36.63,2,2,0,0,0-.83,1.61,1.73,1.73,0,0,0,1.16,1.56,15.26,15.26,0,0,0,3.06,1,32.17,32.17,0,0,1,3.51,1,6,6,0,0,1,2.6,1.61,4.43,4.43,0,0,1,1,3.12,5.26,5.26,0,0,1-2,4.29A8.33,8.33,0,0,1,486.49,917Z"/><path class="cls-6" d="M507.24,917a9.71,9.71,0,0,1-4.92-1.23,8.78,8.78,0,0,1-3.37-3.44,10.46,10.46,0,0,1-1.21-5.13,11,11,0,0,1,1.19-5.21,8.73,8.73,0,0,1,3.35-3.49,9.66,9.66,0,0,1,5-1.26,9.14,9.14,0,0,1,4.83,1.24,8.73,8.73,0,0,1,3.19,3.28,9.18,9.18,0,0,1,1.14,4.53c0,.25,0,.52,0,.81s0,.62,0,1H501.69a5.81,5.81,0,0,0,1.8,4.16,5.51,5.51,0,0,0,3.75,1.43,5,5,0,0,0,2.87-.78,4.71,4.71,0,0,0,1.72-2.11h4a8.52,8.52,0,0,1-3,4.45A8.75,8.75,0,0,1,507.24,917Zm0-16.45a5.76,5.76,0,0,0-3.58,1.19,5.29,5.29,0,0,0-1.9,3.6H512.4a4.8,4.8,0,0,0-1.55-3.5A5.24,5.24,0,0,0,507.24,900.56Z"/><path class="cls-6" d="M520.61,916.56V897.71h3.61l.34,3.57a7.51,7.51,0,0,1,2.76-2.94,8,8,0,0,1,4.27-1.09v4.22h-1.1a7.58,7.58,0,0,0-3,.55,4.42,4.42,0,0,0-2.09,1.86,7.14,7.14,0,0,0-.78,3.63v9Z"/><path class="cls-6" d="M542.58,917a9.45,9.45,0,0,1-5.89-1.75,6.49,6.49,0,0,1-2.66-4.63h4.06a4,4,0,0,0,1.45,2.22,4.6,4.6,0,0,0,3,.93,3.88,3.88,0,0,0,2.66-.76,2.28,2.28,0,0,0,.83-1.75,1.93,1.93,0,0,0-1.15-1.95,15.38,15.38,0,0,0-3.22-.93,24.76,24.76,0,0,1-3.17-.92,7,7,0,0,1-2.62-1.61,3.82,3.82,0,0,1-1-2.83,5.28,5.28,0,0,1,1.9-4.13,7.86,7.86,0,0,1,5.32-1.65,8.09,8.09,0,0,1,5.11,1.52,6.11,6.11,0,0,1,2.3,4.3h-3.87a2.79,2.79,0,0,0-1.12-1.9,4.09,4.09,0,0,0-2.49-.69,3.85,3.85,0,0,0-2.36.63,1.93,1.93,0,0,0-.83,1.61,1.73,1.73,0,0,0,1.15,1.56,15.72,15.72,0,0,0,3.06,1,32.37,32.37,0,0,1,3.52,1,6.1,6.1,0,0,1,2.6,1.61,4.43,4.43,0,0,1,1,3.12,5.24,5.24,0,0,1-2,4.29A8.29,8.29,0,0,1,542.58,917Z"/><path class="cls-6" d="M297,1004v-26.6h4V1004Z"/><path class="cls-6" d="M306.24,1004V985.13h3.57l.3,3.31a6.61,6.61,0,0,1,2.57-2.75,7.37,7.37,0,0,1,3.89-1,7,7,0,0,1,5.38,2.13c1.3,1.42,2,3.53,2,6.34V1004h-4V993.57q0-5.48-4.49-5.47a4.81,4.81,0,0,0-3.7,1.59,6.51,6.51,0,0,0-1.47,4.56V1004Z"/><path class="cls-6" d="M330.94,981.56a2.61,2.61,0,0,1-1.88-.7,2.33,2.33,0,0,1-.75-1.77,2.29,2.29,0,0,1,.75-1.76,2.84,2.84,0,0,1,3.76,0,2.32,2.32,0,0,1,.74,1.76,2.35,2.35,0,0,1-.74,1.77A2.62,2.62,0,0,1,330.94,981.56Zm-2,22.42V985.13h4V1004Z"/><path class="cls-6" d="M346.17,1004a6.7,6.7,0,0,1-4.4-1.35q-1.63-1.35-1.64-4.8v-9.31H336.9v-3.39h3.23l.5-4.78h3.53v4.78h5.32v3.39h-5.32v9.31a2.75,2.75,0,0,0,.67,2.14,3.42,3.42,0,0,0,2.29.59h2.17V1004Z"/><path class="cls-6" d="M355.9,981.56a2.62,2.62,0,0,1-1.88-.7,2.35,2.35,0,0,1-.74-1.77,2.32,2.32,0,0,1,.74-1.76,2.84,2.84,0,0,1,3.76,0,2.28,2.28,0,0,1,.74,1.76,2.32,2.32,0,0,1-.74,1.77A2.61,2.61,0,0,1,355.9,981.56Zm-2,22.42V985.13h4V1004Z"/><path class="cls-6" d="M369.62,1004.44a8.65,8.65,0,0,1-3.95-.8,5.5,5.5,0,0,1-2.32-2.11,5.58,5.58,0,0,1-.76-2.87,5.12,5.12,0,0,1,2.13-4.33,10,10,0,0,1,6.08-1.6h4.94v-.34a4.25,4.25,0,0,0-1.2-3.3,4.38,4.38,0,0,0-3.1-1.11,5.17,5.17,0,0,0-2.9.82,3.39,3.39,0,0,0-1.5,2.41h-4a6.33,6.33,0,0,1,1.38-3.51,7.75,7.75,0,0,1,3.05-2.24,10.21,10.21,0,0,1,4-.78,8.49,8.49,0,0,1,6.12,2.07,7.45,7.45,0,0,1,2.17,5.64V1004h-3.5l-.34-3.23a7.17,7.17,0,0,1-2.32,2.62A6.8,6.8,0,0,1,369.62,1004.44Zm.8-3.27a4.67,4.67,0,0,0,2.75-.78,5.28,5.28,0,0,0,1.75-2.07,8.23,8.23,0,0,0,.78-2.85h-4.48a5.34,5.34,0,0,0-3.4.84,2.57,2.57,0,0,0-1,2.09,2.4,2.4,0,0,0,1,2A4.25,4.25,0,0,0,370.42,1001.17Z"/><path class="cls-6" d="M384.48,1004V976.62h4V1004Z"/><path class="cls-6" d="M404.12,1004V988.52h-2.69v-3.39h2.69V982.4c0-2,.52-3.53,1.54-4.43a6.4,6.4,0,0,1,4.35-1.35h2V980h-1.37a2.71,2.71,0,0,0-1.9.55,2.51,2.51,0,0,0-.57,1.85v2.69h4.33v3.39h-4.33V1004Zm12.2,0V976.62h4V1004Z"/><path class="cls-6" d="M434.3,1004.44a9.49,9.49,0,0,1-4.85-1.24,9,9,0,0,1-3.4-3.45,10.39,10.39,0,0,1-1.25-5.19,10.24,10.24,0,0,1,1.27-5.19,9.14,9.14,0,0,1,3.44-3.46,10.12,10.12,0,0,1,9.67,0,9.24,9.24,0,0,1,3.42,3.46,11.24,11.24,0,0,1,0,10.38,9.12,9.12,0,0,1-3.44,3.45A9.58,9.58,0,0,1,434.3,1004.44Zm0-3.46a5.19,5.19,0,0,0,2.67-.72,5.28,5.28,0,0,0,2-2.15,7.43,7.43,0,0,0,.76-3.55A7.73,7.73,0,0,0,439,991a5.26,5.26,0,0,0-7.34-2.14,5.3,5.3,0,0,0-2,2.14,8.69,8.69,0,0,0,0,7.11,5.31,5.31,0,0,0,2,2.15A5.11,5.11,0,0,0,434.3,1001Z"/><path class="cls-6" d="M454.63,1004.44a8.69,8.69,0,0,1-4-.8,5.5,5.5,0,0,1-2.32-2.11,5.67,5.67,0,0,1-.75-2.87,5.12,5.12,0,0,1,2.12-4.33,10,10,0,0,1,6.08-1.6h4.94v-.34a4.28,4.28,0,0,0-1.19-3.3,4.38,4.38,0,0,0-3.1-1.11,5.2,5.2,0,0,0-2.91.82,3.46,3.46,0,0,0-1.5,2.41h-4a6.34,6.34,0,0,1,1.39-3.51,7.72,7.72,0,0,1,3-2.24,10.3,10.3,0,0,1,4.05-.78,8.48,8.48,0,0,1,6.11,2.07,7.41,7.41,0,0,1,2.17,5.64V1004h-3.49l-.35-3.23a7.14,7.14,0,0,1-2.31,2.62A6.84,6.84,0,0,1,454.63,1004.44Zm.79-3.27a4.73,4.73,0,0,0,2.76-.78,5.28,5.28,0,0,0,1.75-2.07,8.45,8.45,0,0,0,.77-2.85h-4.48a5.36,5.36,0,0,0-3.4.84,2.6,2.6,0,0,0-1,2.09,2.43,2.43,0,0,0,1,2A4.29,4.29,0,0,0,455.42,1001.17Z"/><path class="cls-6" d="M477,1004a6.71,6.71,0,0,1-4.41-1.35q-1.64-1.35-1.64-4.8v-9.31h-3.23v-3.39H471l.5-4.78H475v4.78h5.32v3.39H475v9.31a2.75,2.75,0,0,0,.67,2.14,3.44,3.44,0,0,0,2.3.59h2.16V1004Z"/><path class="cls-14" d="M1253.92,505l317.54-338.15c36.75,33.74,66,72.41,89.53,115.52,42.52,78.1,61.22,161.94,55.8,250.46-11.32,184.89-125.33,318.59-239.41,378.66Z"/><path class="cls-15" d="M1254.78,498.56l114.1-444.4c76.32,20,142.67,56.55,200.09,109.45C1566.94,168.48,1261.78,494,1254.78,498.56Z"/><path class="cls-16" d="M1394.8,947.26c-21.29,11.7-112.64,26.47-140.15,23-1.64-4.78-2.14-445.67-.26-455.12Q1325,732.33,1394.8,947.26Z"/><path class="cls-17" d="M1457.88,922.23a385.32,385.32,0,0,1-60.51,24.82q-68-209.31-135.5-416.94l1.16-.47Z"/><path class="cls-18" d="M1475.45,913.46l-15,8L1298.83,595.9l1.58-.83C1358.58,700.88,1416.74,806.68,1475.45,913.46Z"/><path class="cls-19" d="M624.85,457.53v-9.1H602V443L623.74,412h7.93v30.42H638v6h-6.37v9.1Zm-15.34-15.08h15.73V419.64Z"/><path class="cls-19" d="M661.31,458.31a17.48,17.48,0,0,1-8.45-1.88,15.72,15.72,0,0,1-5.56-5,20.87,20.87,0,0,1-3-7,34.84,34.84,0,0,1-.91-8,37.61,37.61,0,0,1,2.11-13.2,19.8,19.8,0,0,1,6.08-8.81,15,15,0,0,1,9.62-3.15,15.67,15.67,0,0,1,7.67,1.76,13.11,13.11,0,0,1,5,4.68,15.4,15.4,0,0,1,2.18,6.37h-6.43a8.28,8.28,0,0,0-2.8-5.2,8.56,8.56,0,0,0-5.65-1.82q-4.75,0-7.84,4.45T650,435.17a13.11,13.11,0,0,1,4.84-4.87,14.15,14.15,0,0,1,7.58-2,14.94,14.94,0,0,1,12.64,6.92,14,14,0,0,1,2.11,7.77,15.39,15.39,0,0,1-7.44,13.16A15.78,15.78,0,0,1,661.31,458.31Zm-.39-6a10,10,0,0,0,4.88-1.17,8.71,8.71,0,0,0,4.61-7.86,8.53,8.53,0,0,0-2.7-6.63A10.6,10.6,0,0,0,656,435.43a9.19,9.19,0,0,0-3.41,3.28,8.54,8.54,0,0,0-1.24,4.52,8.7,8.7,0,0,0,1.27,4.71,8.89,8.89,0,0,0,3.44,3.22A10.21,10.21,0,0,0,660.92,452.33Z"/><path class="cls-19" d="M693.62,433.74a11.08,11.08,0,0,1-5.5-1.36,10,10,0,0,1-3.86-3.87,11.86,11.86,0,0,1-1.43-6,11.73,11.73,0,0,1,1.43-5.95,9.94,9.94,0,0,1,3.9-3.87,11.18,11.18,0,0,1,5.52-1.36,10.94,10.94,0,0,1,5.43,1.36,10.13,10.13,0,0,1,3.87,3.87,11.83,11.83,0,0,1,1.43,5.95,12,12,0,0,1-1.43,6,10.13,10.13,0,0,1-3.87,3.87A11.06,11.06,0,0,1,693.62,433.74Zm0-4.94a4.84,4.84,0,0,0,3.6-1.59,6.54,6.54,0,0,0,1.53-4.71,6.71,6.71,0,0,0-1.49-4.72,4.81,4.81,0,0,0-3.64-1.59,4.94,4.94,0,0,0-3.64,1.59,8,8,0,0,0,0,9.43A4.93,4.93,0,0,0,693.62,428.8Zm-3.25,28.73L716.43,412h6.76l-26,45.5Zm30,.78a11,11,0,0,1-5.49-1.36,10,10,0,0,1-3.87-3.87,13.28,13.28,0,0,1,0-12,9.88,9.88,0,0,1,3.9-3.9,11.25,11.25,0,0,1,5.53-1.37,10.89,10.89,0,0,1,5.42,1.37,9.94,9.94,0,0,1,3.87,3.9,13.28,13.28,0,0,1,0,12,10,10,0,0,1-3.87,3.87A11,11,0,0,1,720.33,458.31Zm0-5a4.89,4.89,0,0,0,3.61-1.56,6.43,6.43,0,0,0,1.53-4.68,6.67,6.67,0,0,0-1.5-4.72,4.81,4.81,0,0,0-3.64-1.59,4.94,4.94,0,0,0-3.64,1.59,6.51,6.51,0,0,0-1.56,4.72,6.43,6.43,0,0,0,1.53,4.68A5,5,0,0,0,720.33,453.31Z"/><path class="cls-19" d="M400.39,458.4a18.74,18.74,0,0,1-8.33-1.72,14,14,0,0,1-5.55-4.75,15.11,15.11,0,0,1-2.5-6.85h6.76a9,9,0,0,0,3.25,5.36,9.84,9.84,0,0,0,6.43,2.11,8.66,8.66,0,0,0,4.94-1.4,9.5,9.5,0,0,0,3.25-3.73,11.66,11.66,0,0,0,1.17-5.27,10.34,10.34,0,0,0-2.6-7.38,8.62,8.62,0,0,0-6.56-2.76,10.25,10.25,0,0,0-5.79,1.59,9.66,9.66,0,0,0-3.51,4h-6.56l3.9-25.48h24.57v6.05H393.89l-2.35,12.15a11.55,11.55,0,0,1,4.13-2.83,14.86,14.86,0,0,1,5.95-1.14,14.43,14.43,0,0,1,7.93,2.12,14,14,0,0,1,5.1,5.69,18.44,18.44,0,0,1-.16,16.18,14.76,14.76,0,0,1-5.56,5.88A16.21,16.21,0,0,1,400.39,458.4Z"/><path class="cls-19" d="M445.3,457.62v-9.1H422.49v-5.46l21.71-30.94h7.92v30.42h6.38v6h-6.38v9.1ZM430,442.54h15.73V419.73Z"/><path class="cls-19" d="M473.12,433.83a11,11,0,0,1-5.49-1.36,10,10,0,0,1-3.87-3.87,12,12,0,0,1-1.43-6,11.82,11.82,0,0,1,1.43-5.94,9.94,9.94,0,0,1,3.9-3.87,11.25,11.25,0,0,1,5.53-1.36,10.88,10.88,0,0,1,5.42,1.36,10,10,0,0,1,3.87,3.87,11.82,11.82,0,0,1,1.43,5.94,12,12,0,0,1-1.43,6,10,10,0,0,1-3.87,3.87A11,11,0,0,1,473.12,433.83Zm0-4.94a4.84,4.84,0,0,0,3.61-1.59,6.55,6.55,0,0,0,1.53-4.72,6.64,6.64,0,0,0-1.5-4.71,4.81,4.81,0,0,0-3.64-1.59,4.94,4.94,0,0,0-3.64,1.59,6.48,6.48,0,0,0-1.56,4.71,6.55,6.55,0,0,0,1.53,4.72A4.91,4.91,0,0,0,473.12,428.89Zm-3.25,28.73,26.07-45.5h6.76l-26,45.5Zm30,.78a11.08,11.08,0,0,1-5.5-1.36,10.11,10.11,0,0,1-3.86-3.87,13.28,13.28,0,0,1,0-12,10,10,0,0,1,3.9-3.91,11.29,11.29,0,0,1,5.52-1.36,11.05,11.05,0,0,1,5.43,1.36,10.17,10.17,0,0,1,3.87,3.91,13.28,13.28,0,0,1,0,12,10.2,10.2,0,0,1-3.87,3.87A11.06,11.06,0,0,1,499.84,458.4Zm0-5a4.85,4.85,0,0,0,3.6-1.57,6.41,6.41,0,0,0,1.53-4.67,6.7,6.7,0,0,0-1.49-4.72,4.81,4.81,0,0,0-3.64-1.59,4.94,4.94,0,0,0-3.64,1.59,6.49,6.49,0,0,0-1.56,4.72,6.41,6.41,0,0,0,1.52,4.67A5,5,0,0,0,499.84,453.4Z"/><path class="cls-15" d="M1513,70.63a14.66,14.66,0,0,1-6.07-1.22,10.64,10.64,0,0,1-4.32-3.43,8.54,8.54,0,0,1-1.61-5.19,9.18,9.18,0,0,1,1.7-5.42,8.48,8.48,0,0,1,4.54-3.27,8.53,8.53,0,0,1-3.94-3,7.18,7.18,0,0,1-1.39-4.29,8.14,8.14,0,0,1,1.3-4.49,9.16,9.16,0,0,1,3.76-3.27,15.49,15.49,0,0,1,12,0,9.13,9.13,0,0,1,3.77,3.27,8.23,8.23,0,0,1,1.3,4.49,7.3,7.3,0,0,1-1.42,4.29,8.25,8.25,0,0,1-4,3,8.78,8.78,0,0,1,4.54,3.29,9.1,9.1,0,0,1,1.7,5.4,8.72,8.72,0,0,1-1.58,5.19,10.51,10.51,0,0,1-4.3,3.43A14.69,14.69,0,0,1,1513,70.63Zm0-4.32a7.24,7.24,0,0,0,5.18-1.65,5.64,5.64,0,0,0,1.73-4.25A5.5,5.5,0,0,0,1518,56a7.6,7.6,0,0,0-5.06-1.56,7.7,7.7,0,0,0-5.09,1.56,5.45,5.45,0,0,0-1.87,4.44,5.59,5.59,0,0,0,1.75,4.25A7.35,7.35,0,0,0,1513,66.31Zm0-15.84a6.35,6.35,0,0,0,4.39-1.44,4.74,4.74,0,0,0,1.61-3.69,4.8,4.8,0,0,0-1.59-3.89,7.89,7.89,0,0,0-8.83,0,5.33,5.33,0,0,0,0,7.58A6.34,6.34,0,0,0,1513,50.47Z"/><path class="cls-15" d="M1537.72,52.49a8.18,8.18,0,0,1-4.06-1,7.42,7.42,0,0,1-2.86-2.86,8.84,8.84,0,0,1-1-4.44,8.75,8.75,0,0,1,1-4.39,7.44,7.44,0,0,1,2.88-2.85,8.23,8.23,0,0,1,4.08-1,8,8,0,0,1,4,1,7.46,7.46,0,0,1,2.86,2.85,8.75,8.75,0,0,1,1,4.39,8.84,8.84,0,0,1-1,4.44,7.42,7.42,0,0,1-2.86,2.86A8.17,8.17,0,0,1,1537.72,52.49Zm0-3.65a3.55,3.55,0,0,0,2.66-1.18,4.84,4.84,0,0,0,1.13-3.48,4.91,4.91,0,0,0-1.11-3.48,3.54,3.54,0,0,0-2.68-1.17A3.65,3.65,0,0,0,1535,40.7a4.79,4.79,0,0,0-1.15,3.48,4.84,4.84,0,0,0,1.12,3.48A3.63,3.63,0,0,0,1537.72,48.84Zm-2.4,21.22,19.24-33.6h5l-19.2,33.6Zm22.12.57a8.06,8.06,0,0,1-4-1,7.46,7.46,0,0,1-2.86-2.85,9.87,9.87,0,0,1,0-8.86,7.38,7.38,0,0,1,2.88-2.88,8.34,8.34,0,0,1,4.08-1,8.1,8.1,0,0,1,4,1,7.4,7.4,0,0,1,2.86,2.88,9.87,9.87,0,0,1,0,8.86,7.46,7.46,0,0,1-2.86,2.85A8.07,8.07,0,0,1,1557.44,70.63Zm0-3.69a3.61,3.61,0,0,0,2.67-1.16,4.75,4.75,0,0,0,1.13-3.45,4.88,4.88,0,0,0-1.11-3.48,3.52,3.52,0,0,0-2.69-1.18,3.61,3.61,0,0,0-2.68,1.18,4.76,4.76,0,0,0-1.16,3.48,4.75,4.75,0,0,0,1.13,3.45A3.66,3.66,0,0,0,1557.44,66.94Z"/><path class="cls-14" d="M1760,556.28a14.6,14.6,0,0,1-5.93-1.18,9.64,9.64,0,0,1-4.25-3.58,11.34,11.34,0,0,1-1.68-6h5a6.72,6.72,0,0,0,1.85,4.54,6.52,6.52,0,0,0,5,1.85,6.19,6.19,0,0,0,4.7-1.71,5.87,5.87,0,0,0,1.63-4.24,5.12,5.12,0,0,0-2.18-4.56,9.23,9.23,0,0,0-5.35-1.49h-2.5v-4.23h2.55a7.31,7.31,0,0,0,4.58-1.34,4.5,4.5,0,0,0,1.75-3.79,4.38,4.38,0,0,0-1.37-3.36,5.37,5.37,0,0,0-3.86-1.3,5.49,5.49,0,0,0-4.08,1.51,5.7,5.7,0,0,0-1.63,3.77h-5a9.93,9.93,0,0,1,1.46-5.09,9.25,9.25,0,0,1,3.77-3.36,13.68,13.68,0,0,1,11.16,0,8.23,8.23,0,0,1,4.63,7.51,7.69,7.69,0,0,1-1.49,4.71,7.06,7.06,0,0,1-4,2.68,8.5,8.5,0,0,1,4.75,2.81,8.36,8.36,0,0,1,1.87,5.64,10.35,10.35,0,0,1-1.29,5.11,9.44,9.44,0,0,1-3.84,3.72A12.85,12.85,0,0,1,1760,556.28Z"/><path class="cls-14" d="M1791.1,556.28a13.83,13.83,0,0,1-7.85-2.19,14,14,0,0,1-5-6.09,24.53,24.53,0,0,1,0-18.2,14,14,0,0,1,5-6.09,15.13,15.13,0,0,1,15.68,0,14.07,14.07,0,0,1,5,6.09,24.54,24.54,0,0,1,0,18.2,14.07,14.07,0,0,1-5,6.09A13.74,13.74,0,0,1,1791.1,556.28Zm0-4.56a8.14,8.14,0,0,0,4.87-1.54,10,10,0,0,0,3.34-4.42,20.21,20.21,0,0,0,0-13.72,10,10,0,0,0-3.34-4.42,8.5,8.5,0,0,0-9.76,0,10.08,10.08,0,0,0-3.32,4.42,20.21,20.21,0,0,0,0,13.72,10.08,10.08,0,0,0,3.32,4.42A8.11,8.11,0,0,0,1791.1,551.72Z"/><path class="cls-14" d="M1817.84,538.13a8.07,8.07,0,0,1-4.06-1,7.36,7.36,0,0,1-2.85-2.85,8.74,8.74,0,0,1-1.06-4.44,8.62,8.62,0,0,1,1.06-4.39,7.27,7.27,0,0,1,2.88-2.86,8.28,8.28,0,0,1,4.08-1,8.06,8.06,0,0,1,4,1,7.42,7.42,0,0,1,2.86,2.86,8.73,8.73,0,0,1,1.06,4.39,8.84,8.84,0,0,1-1.06,4.44,7.46,7.46,0,0,1-2.86,2.85A8.06,8.06,0,0,1,1817.84,538.13Zm0-3.65a3.57,3.57,0,0,0,2.66-1.17,4.87,4.87,0,0,0,1.13-3.48,4.93,4.93,0,0,0-1.1-3.48,3.55,3.55,0,0,0-2.69-1.18,3.63,3.63,0,0,0-2.69,1.18,4.76,4.76,0,0,0-1.15,3.48,4.87,4.87,0,0,0,1.12,3.48A3.66,3.66,0,0,0,1817.84,534.48Zm-2.4,21.22,19.25-33.6h5l-19.2,33.6Zm22.13.58a8.18,8.18,0,0,1-4.06-1,7.48,7.48,0,0,1-2.86-2.86,9.85,9.85,0,0,1,0-8.85,7.38,7.38,0,0,1,2.88-2.88,8.23,8.23,0,0,1,4.08-1,8,8,0,0,1,4,1,7.4,7.4,0,0,1,2.86,2.88,9.85,9.85,0,0,1,0,8.85,7.48,7.48,0,0,1-2.86,2.86A8.17,8.17,0,0,1,1837.57,556.28Zm0-3.7a3.59,3.59,0,0,0,2.66-1.15,4.77,4.77,0,0,0,1.13-3.46,4.91,4.91,0,0,0-1.11-3.48,3.54,3.54,0,0,0-2.68-1.17,3.65,3.65,0,0,0-2.69,1.17,5.87,5.87,0,0,0,0,6.94A3.66,3.66,0,0,0,1837.57,552.58Z"/><path class="cls-18" d="M1523.2,955a13.82,13.82,0,0,1-7.85-2.18,14,14,0,0,1-5-6.1,24.51,24.51,0,0,1,0-18.19,13.42,13.42,0,0,1,12.89-8.28,13.69,13.69,0,0,1,7.82,2.19,14,14,0,0,1,5,6.09,24.51,24.51,0,0,1,0,18.19,14,14,0,0,1-5,6.1A13.68,13.68,0,0,1,1523.2,955Zm0-4.56a8.15,8.15,0,0,0,4.87-1.53,10,10,0,0,0,3.34-4.42,20.24,20.24,0,0,0,0-13.73,9.93,9.93,0,0,0-3.34-4.41,8.52,8.52,0,0,0-9.77,0,10.1,10.1,0,0,0-3.31,4.41,20.24,20.24,0,0,0,0,13.73,10.19,10.19,0,0,0,3.31,4.42A8.13,8.13,0,0,0,1523.2,950.44Z"/><path class="cls-18" d="M1543.36,954.72a3.26,3.26,0,0,1-2.38-.94,3.05,3.05,0,0,1-.93-2.23,3.1,3.1,0,0,1,.93-2.28,3.22,3.22,0,0,1,2.38-.94,3.16,3.16,0,0,1,3.26,3.22,3.07,3.07,0,0,1-.91,2.23A3.16,3.16,0,0,1,1543.36,954.72Z"/><path class="cls-18" d="M1562.85,955a12.79,12.79,0,0,1-6.24-1.39,11.53,11.53,0,0,1-4.11-3.69,15.49,15.49,0,0,1-2.23-5.19,25.79,25.79,0,0,1-.67-5.9,27.86,27.86,0,0,1,1.56-9.75,14.61,14.61,0,0,1,4.49-6.5,11.06,11.06,0,0,1,7.1-2.33,11.53,11.53,0,0,1,5.67,1.3,9.68,9.68,0,0,1,3.67,3.45,11.49,11.49,0,0,1,1.61,4.71h-4.76a6.09,6.09,0,0,0-2.06-3.84,6.34,6.34,0,0,0-4.18-1.35,6.82,6.82,0,0,0-5.78,3.29q-2.28,3.29-2.42,10.11a9.68,9.68,0,0,1,3.57-3.6,10.5,10.5,0,0,1,5.59-1.49,11,11,0,0,1,9.34,5.11,10.39,10.39,0,0,1,1.56,5.74,11.2,11.2,0,0,1-1.44,5.52,11.34,11.34,0,0,1-4.06,4.2A11.62,11.62,0,0,1,1562.85,955Zm-.29-4.41a7.38,7.38,0,0,0,3.6-.87,6.41,6.41,0,0,0,2.5-2.37,6.58,6.58,0,0,0,.91-3.43,6.35,6.35,0,0,0-2-4.9,7.84,7.84,0,0,0-8.69-.91,6.74,6.74,0,0,0-2.52,2.42,6.33,6.33,0,0,0-.91,3.34,6.4,6.4,0,0,0,3.48,5.85A7.48,7.48,0,0,0,1562.56,950.59Z"/><path class="cls-18" d="M1582.29,954.43l13-29.23h-17.47v-4.37h22.71v3.69l-12.92,29.91Z"/><path class="cls-18" d="M1612.05,936.86a8.18,8.18,0,0,1-4.06-1,7.46,7.46,0,0,1-2.86-2.85,9.83,9.83,0,0,1,0-8.84,7.44,7.44,0,0,1,2.88-2.85,8.34,8.34,0,0,1,4.08-1,8.07,8.07,0,0,1,4,1,7.46,7.46,0,0,1,2.86,2.85,9.83,9.83,0,0,1,0,8.84,7.46,7.46,0,0,1-2.86,2.85A8.17,8.17,0,0,1,1612.05,936.86Zm0-3.65a3.57,3.57,0,0,0,2.66-1.17,6,6,0,0,0,0-7,3.51,3.51,0,0,0-2.68-1.18,3.63,3.63,0,0,0-2.69,1.18,4.76,4.76,0,0,0-1.15,3.48,4.87,4.87,0,0,0,1.12,3.48A3.66,3.66,0,0,0,1612.05,933.21Zm-2.4,21.22,19.24-33.6h5l-19.2,33.6Zm22.12.57a8.16,8.16,0,0,1-4-1,7.55,7.55,0,0,1-2.86-2.86,9.87,9.87,0,0,1,0-8.86,7.52,7.52,0,0,1,2.88-2.88,8.33,8.33,0,0,1,4.08-1,8.09,8.09,0,0,1,4,1,7.54,7.54,0,0,1,2.86,2.88,9.87,9.87,0,0,1,0,8.86,7.55,7.55,0,0,1-2.86,2.86A8.17,8.17,0,0,1,1631.77,955Zm0-3.69a3.63,3.63,0,0,0,2.67-1.15,4.77,4.77,0,0,0,1.13-3.46,4.9,4.9,0,0,0-1.11-3.48,3.56,3.56,0,0,0-2.69-1.18,3.64,3.64,0,0,0-2.68,1.18,5.83,5.83,0,0,0,0,6.94A3.69,3.69,0,0,0,1631.77,951.31Z"/><path class="cls-17" d="M1425.07,997.43v-3.65q3.27-2.6,6.24-5.23a67.67,67.67,0,0,0,5.31-5.21,26.46,26.46,0,0,0,3.67-5,10,10,0,0,0,1.34-4.78,8,8,0,0,0-.52-2.9,4.78,4.78,0,0,0-1.73-2.21,5.51,5.51,0,0,0-3.22-.84,5.41,5.41,0,0,0-4.53,1.92,7,7,0,0,0-1.47,4.61h-4.94a11.48,11.48,0,0,1,1.51-6,9.62,9.62,0,0,1,3.94-3.65,12.23,12.23,0,0,1,5.59-1.25,10.7,10.7,0,0,1,7.61,2.67,9.63,9.63,0,0,1,2.85,7.41,12.54,12.54,0,0,1-1.37,5.62,25.48,25.48,0,0,1-3.55,5.35,49.53,49.53,0,0,1-4.68,4.82c-1.66,1.51-3.25,2.87-4.75,4.08h15.36v4.23Z"/><path class="cls-17" d="M1455,997.72a3.24,3.24,0,0,1-2.38-.94,3.06,3.06,0,0,1-.94-2.23,3.11,3.11,0,0,1,.94-2.28,3.2,3.2,0,0,1,2.38-.94,3.12,3.12,0,0,1,2.35.94,3.16,3.16,0,0,1,.91,2.28,3.11,3.11,0,0,1-.91,2.23A3.16,3.16,0,0,1,1455,997.72Z"/><path class="cls-17" d="M1474.37,998a14.6,14.6,0,0,1-5.93-1.17,9.76,9.76,0,0,1-4.25-3.58,11.34,11.34,0,0,1-1.68-6h5a6.72,6.72,0,0,0,1.85,4.54,6.52,6.52,0,0,0,5,1.85,6.19,6.19,0,0,0,4.7-1.71,5.89,5.89,0,0,0,1.64-4.25,5.15,5.15,0,0,0-2.19-4.56,9.3,9.3,0,0,0-5.35-1.48h-2.5v-4.23h2.55a7.37,7.37,0,0,0,4.58-1.34,4.5,4.5,0,0,0,1.75-3.79,4.41,4.41,0,0,0-1.36-3.36,6.34,6.34,0,0,0-8,.21,5.75,5.75,0,0,0-1.63,3.77h-5a9.93,9.93,0,0,1,1.46-5.09,9.25,9.25,0,0,1,3.77-3.36,13.68,13.68,0,0,1,11.16,0,8.23,8.23,0,0,1,4.63,7.51,7.64,7.64,0,0,1-1.49,4.7,7.07,7.07,0,0,1-4,2.69,8.5,8.5,0,0,1,4.75,2.81,8.37,8.37,0,0,1,1.88,5.64,10.35,10.35,0,0,1-1.3,5.11,9.44,9.44,0,0,1-3.84,3.72A12.85,12.85,0,0,1,1474.37,998Z"/><path class="cls-17" d="M1502.79,998a14.56,14.56,0,0,1-5.93-1.17,9.7,9.7,0,0,1-4.25-3.58,11.16,11.16,0,0,1-1.68-6h5a6.68,6.68,0,0,0,1.85,4.54,6.51,6.51,0,0,0,5,1.85,6.2,6.2,0,0,0,4.7-1.71,5.88,5.88,0,0,0,1.63-4.25,5.17,5.17,0,0,0-2.18-4.56,9.31,9.31,0,0,0-5.36-1.48h-2.49v-4.23h2.54a7.38,7.38,0,0,0,4.59-1.34,4.52,4.52,0,0,0,1.75-3.79,4.42,4.42,0,0,0-1.37-3.36,5.37,5.37,0,0,0-3.86-1.3,5.45,5.45,0,0,0-4.08,1.51,5.71,5.71,0,0,0-1.64,3.77h-5a10,10,0,0,1,1.47-5.09,9.25,9.25,0,0,1,3.77-3.36,13.68,13.68,0,0,1,11.16,0,8.28,8.28,0,0,1,4.63,7.51,7.7,7.7,0,0,1-1.49,4.7,7.07,7.07,0,0,1-4,2.69,8.5,8.5,0,0,1,4.75,2.81,8.36,8.36,0,0,1,1.87,5.64,10.35,10.35,0,0,1-1.29,5.11,9.4,9.4,0,0,1-3.85,3.72A12.78,12.78,0,0,1,1502.79,998Z"/><path class="cls-17" d="M1526.31,979.86a8.18,8.18,0,0,1-4.06-1,7.46,7.46,0,0,1-2.86-2.85,9.83,9.83,0,0,1,0-8.84,7.44,7.44,0,0,1,2.88-2.85,8.34,8.34,0,0,1,4.08-1,8.07,8.07,0,0,1,4,1,7.46,7.46,0,0,1,2.86,2.85,9.83,9.83,0,0,1,0,8.84,7.46,7.46,0,0,1-2.86,2.85A8.17,8.17,0,0,1,1526.31,979.86Zm0-3.65A3.57,3.57,0,0,0,1529,975a6,6,0,0,0,0-7,3.51,3.51,0,0,0-2.68-1.18,3.63,3.63,0,0,0-2.69,1.18,4.76,4.76,0,0,0-1.15,3.48,4.87,4.87,0,0,0,1.12,3.48A3.66,3.66,0,0,0,1526.31,976.21Zm-2.4,21.22,19.24-33.6h5l-19.2,33.6ZM1546,998a8.16,8.16,0,0,1-4-1,7.55,7.55,0,0,1-2.86-2.86,9.87,9.87,0,0,1,0-8.86,7.52,7.52,0,0,1,2.88-2.88,8.33,8.33,0,0,1,4.08-1,8.09,8.09,0,0,1,4,1,7.54,7.54,0,0,1,2.86,2.88,9.87,9.87,0,0,1,0,8.86,7.55,7.55,0,0,1-2.86,2.86A8.17,8.17,0,0,1,1546,998Zm0-3.69a3.63,3.63,0,0,0,2.67-1.15,4.77,4.77,0,0,0,1.13-3.46,4.9,4.9,0,0,0-1.11-3.48A3.56,3.56,0,0,0,1546,985a3.64,3.64,0,0,0-2.68,1.18,5.83,5.83,0,0,0,0,6.94A3.69,3.69,0,0,0,1546,994.31Z"/><path class="cls-16" d="M1316.83,1033a13.73,13.73,0,0,1-6.14-1.28,10.28,10.28,0,0,1-4.11-3.5,11.33,11.33,0,0,1-1.85-5.06h5a6.64,6.64,0,0,0,2.4,4,7.28,7.28,0,0,0,4.75,1.56,6.39,6.39,0,0,0,3.65-1,7,7,0,0,0,2.4-2.76,8.61,8.61,0,0,0,.86-3.88,7.62,7.62,0,0,0-1.92-5.45,6.38,6.38,0,0,0-4.85-2,7.58,7.58,0,0,0-4.27,1.17,7.06,7.06,0,0,0-2.59,3h-4.85l2.88-18.82h18.14v4.46H1312l-1.73,9a8.52,8.52,0,0,1,3-2.09,11,11,0,0,1,4.39-.84,10.68,10.68,0,0,1,5.86,1.56,10.41,10.41,0,0,1,3.77,4.2,13.63,13.63,0,0,1-.12,11.95,10.89,10.89,0,0,1-4.11,4.35A12,12,0,0,1,1316.83,1033Z"/><path class="cls-16" d="M1341.17,1014.83a8.07,8.07,0,0,1-4.06-1,7.46,7.46,0,0,1-2.86-2.85,8.84,8.84,0,0,1-1-4.44,8.72,8.72,0,0,1,1-4.39,7.4,7.4,0,0,1,2.88-2.86,8.34,8.34,0,0,1,4.08-1,8.07,8.07,0,0,1,4,1,7.42,7.42,0,0,1,2.86,2.86,8.72,8.72,0,0,1,1.05,4.39,8.84,8.84,0,0,1-1.05,4.44,7.46,7.46,0,0,1-2.86,2.85A8.06,8.06,0,0,1,1341.17,1014.83Zm0-3.65a3.57,3.57,0,0,0,2.66-1.17,6,6,0,0,0,0-7,3.51,3.51,0,0,0-2.68-1.18,3.63,3.63,0,0,0-2.69,1.18,4.76,4.76,0,0,0-1.15,3.48,4.87,4.87,0,0,0,1.12,3.48A3.66,3.66,0,0,0,1341.17,1011.18Zm-2.4,21.22L1358,998.8h5l-19.2,33.6Zm22.12.58a8.17,8.17,0,0,1-4.05-1,7.48,7.48,0,0,1-2.86-2.86,9.85,9.85,0,0,1,0-8.85,7.38,7.38,0,0,1,2.88-2.88,8.23,8.23,0,0,1,4.08-1,8,8,0,0,1,4,1,7.4,7.4,0,0,1,2.86,2.88,9.85,9.85,0,0,1,0,8.85A7.48,7.48,0,0,1,1365,1032,8.18,8.18,0,0,1,1360.89,1033Zm0-3.7a3.6,3.6,0,0,0,2.67-1.15,4.77,4.77,0,0,0,1.13-3.46,4.91,4.91,0,0,0-1.11-3.48,3.55,3.55,0,0,0-2.69-1.17,3.63,3.63,0,0,0-2.68,1.17,5.83,5.83,0,0,0,0,6.94A3.65,3.65,0,0,0,1360.89,1029.28Z"/></svg>