<svg id="Layer_1" data-name="Layer 1" xmlns="http://www.w3.org/2000/svg" viewBox="0 0 1920 400"><defs><style>.cls-1{fill:#009245;}.cls-2{fill:#38af4a;}.cls-3{fill:#fff;}</style></defs><path class="cls-1" d="M968.55,230c-25.49,77.32-86.13,128.55-135.27,112.35-1.71-.57-33.36-8.29-35-9-45.4-19.58-32.28-87.39-7.68-162C815,97.44,839.46,42.4,887.28,52.31c2.25.46,36.25,7.58,38.45,8.31C974.87,76.82,994,152.63,968.55,230Z"/><ellipse class="cls-2" cx="849.59" cy="194.89" rx="147.42" ry="93.69" transform="translate(398.51 940.75) rotate(-71.75)"/><ellipse class="cls-3" cx="850.02" cy="194.92" rx="127.37" ry="80.58" transform="translate(398.77 941.18) rotate(-71.75)"/><path class="cls-2" d="M818.1,294.49l-20.71-6.83c-9.51-3.33-13.7-16-9.27-29.88q9.07-28.84,19-57.6c4.5-13,15.48-20.74,24.49-18,4.37,1.44,8.73,2.87,13.2,4.19,2.81.93,4.23-.78,3.77-4.66a14,14,0,0,0-2.46-6.34c-6-8-12.2-15.8-18.13-23.87a38,38,0,0,1-4.6-8.89c-1.58-4-1.63-9.18-.15-14.23,3.61-12.46,7.22-24.91,11-37.33,2.38-7.74,4.89-9,8.68-4.42,7,8.5,14,17.06,20.83,25.78a57.12,57.12,0,0,1,7.71,12c3.32,7.63,2.55,16.82-.37,26.38q-5.22,17.17-10.6,34.51c-1.63,5.29-1.59,5.65,1.95,6.86l11.84,3.9c8.93,3.1,12.72,16.18,8.59,29.68q-9.09,28.38-18.66,56.63c-4.67,13.72-15.55,21.77-25.19,18.88l-21-6.94Zm3.56-56.73c2.23-6.78,1.05-13.84-2.76-14.82s-8.58,3.59-10.65,10.2-1,12.92,2.59,14.26S819.46,244.16,821.66,237.76Zm13.61,5.16a26.47,26.47,0,0,0-.78,3.25c-1.07,5.47,1.18,10,5,10.21h.1a5.88,5.88,0,0,0,3-.78c5.61-2.88,9.46-15.43,6.44-20.87a4.56,4.56,0,0,0-6.87-2.09c-3.35,1.6-5.23,5.16-6.86,10.18Z"/><path class="cls-2" d="M918.74,143.82c-1.51,4.58-2.93,9.25-4.54,13.76-2.34,7.29-7.37,13-12.79,14.52-9.84,3.3-19.58,6.89-29.37,10.33a13.2,13.2,0,0,1-2.7.81c-2.83.46-3.81-1.26-2.5-5,2.55-7.23,5.26-14.37,8-21.5,1.76-4.48,3.62-8.94,5.65-13.4,1.81-4.26,4.88-7.48,8.18-8.59,10.34-3.67,20.7-7.54,31-11,4.38-1.52,5.44.51,3.57,6.41l-4.54,13.76Z"/><path class="cls-1" d="M914.82,275.56c-42-67.67-28.68-153.78,31.32-191,2.09-1.3,71,43.9,73.14,42.75,59.36-31.79,72.29-51.86,112.81,13.45,40.1,64.64-.42,61-53.81,100.55-2.51,1.86,23.88,87.71,21.19,89.38C1039.47,367.92,956.8,343.23,914.82,275.56Z"/><ellipse class="cls-2" cx="1037.8" cy="196.41" rx="127.85" ry="147.42" transform="translate(55.87 585.54) rotate(-32.33)"/><ellipse class="cls-3" cx="1038.23" cy="196.02" rx="109.96" ry="127.37" transform="translate(56.15 585.71) rotate(-32.33)"/><path class="cls-2" d="M1095.14,283.74,1070,299.65c-11.71,7.2-26.57,4-34.57-8.27q-16.65-25.25-32.43-51.24c-7.12-11.78-3.66-26.74,7.09-33.78,5.3-3.36,10.59-6.71,15.89-10.24,3.41-2.15,3.24-4.5-.55-6.28a16.16,16.16,0,0,0-7.8-1.29c-12.58,1.15-25,2.63-37.56,3.67a48,48,0,0,1-12-.7,19.08,19.08,0,0,1-12.51-8c-7.47-10.61-14.94-21.21-22.25-31.94-4.52-6.72-3.28-9.86,4.21-10.85,13.89-1.84,27.8-3.61,41.73-5.15a78.13,78.13,0,0,1,17.58-.5c9.71,1.2,17,7.21,22.58,15.49q10.08,14.87,20.15,30c3.08,4.58,3.44,4.75,7.77,2.06l14.38-9.1c11-6.77,25.85-2.89,33.76,8.81q16.23,25,31.89,50.38c7.59,12.34,4.49,27.38-7,35l-25.55,16.17Zm-46-36c-3.82-6-11.06-9-15.44-5.86s-4.84,10.27-1,16,10.31,8.37,14.8,5.7S1052.67,253.55,1049.15,247.77Zm17.11-10.07a20.33,20.33,0,0,0,2.1,2.61c3.76,4.16,9.81,4.63,13.52,1.05a.47.47,0,0,0,.1-.1,8.51,8.51,0,0,0,2.08-3.29c2.71-7-4.63-17.92-12.16-18.15a7.73,7.73,0,0,0-8.18,5.38c-1.73,4.13-.37,8,2.48,12.41Z"/><path class="cls-2" d="M1057.57,100.88c2.58,4.07,5.32,8.12,7.75,12.24,4.16,6.43,4.45,14.51.75,20.59-6.26,11.31-12.18,22.7-18.27,34a19,19,0,0,1-1.8,3.05c-2.23,3-4.63,2.93-6.69-.49-3.92-6.58-7.6-13.29-11.24-20-2.27-4.25-4.41-8.59-6.41-13.09a14,14,0,0,1,.13-12.77c6.4-12,12.65-24.15,19.16-36,2.74-5.07,5.48-4.91,8.87.26l7.74,12.25Z"/></svg>