<svg id="Layer_1" data-name="Layer 1" xmlns="http://www.w3.org/2000/svg" viewBox="0 0 1920 700"><defs><style>.cls-1{fill:#009245;}.cls-2{fill:#38af4a;}.cls-3{fill:#fff;}</style></defs><path class="cls-1" d="M979.27,413.65C953.78,491,893.14,542.2,844,526c-1.71-.56-33.36-8.29-35-9-45.39-19.58-32.28-87.38-7.68-162,24.35-73.86,48.86-128.9,96.68-119,2.25.47,36.25,7.58,38.45,8.31C985.59,260.51,1004.76,336.32,979.27,413.65Z"/><ellipse class="cls-2" cx="860.31" cy="378.58" rx="147.42" ry="93.69" transform="translate(231.42 1077.11) rotate(-71.75)"/><ellipse class="cls-3" cx="860.74" cy="378.61" rx="127.37" ry="80.58" transform="translate(231.68 1077.55) rotate(-71.75)"/><path class="cls-2" d="M828.82,478.18l-20.71-6.83c-9.5-3.33-13.7-16-9.27-29.88q9.07-28.85,19-57.59c4.5-13,15.48-20.74,24.49-18,4.37,1.44,8.73,2.87,13.21,4.2,2.8.92,4.22-.79,3.76-4.67a14.08,14.08,0,0,0-2.45-6.34c-6-8.05-12.21-15.8-18.14-23.87a38,38,0,0,1-4.6-8.88c-1.58-4-1.63-9.18-.15-14.24,3.61-12.45,7.22-24.91,11-37.33,2.38-7.74,4.89-9,8.68-4.42,7,8.5,14,17.06,20.83,25.78a57.12,57.12,0,0,1,7.71,12c3.32,7.64,2.55,16.82-.37,26.38q-5.22,17.17-10.6,34.51c-1.63,5.29-1.59,5.65,2,6.86l11.84,3.9c8.93,3.1,12.72,16.19,8.6,29.68q-9.11,28.4-18.67,56.63c-4.67,13.72-15.55,21.77-25.19,18.88l-21-6.94Zm3.56-56.73c2.24-6.78,1-13.84-2.76-14.81s-8.57,3.58-10.65,10.19-1,12.92,2.59,14.26S830.18,427.85,832.38,421.45ZM846,426.61a26.47,26.47,0,0,0-.78,3.25c-1.07,5.47,1.18,10,5,10.21h.1a5.78,5.78,0,0,0,3-.78c5.61-2.88,9.46-15.43,6.44-20.87a4.57,4.57,0,0,0-6.87-2.09c-3.35,1.6-5.23,5.16-6.86,10.18Z"/><path class="cls-2" d="M929.46,327.51c-1.51,4.58-2.93,9.26-4.54,13.76-2.34,7.3-7.36,13-12.79,14.53-9.84,3.29-19.58,6.88-29.37,10.32a12.61,12.61,0,0,1-2.7.81c-2.83.46-3.81-1.26-2.5-5,2.55-7.22,5.27-14.37,8-21.5,1.75-4.48,3.61-8.94,5.64-13.4,1.81-4.26,4.88-7.48,8.18-8.59,10.34-3.67,20.7-7.53,31-11.05,4.39-1.52,5.44.51,3.57,6.41l-4.54,13.76Z"/><path class="cls-1" d="M925.54,459.25c-42-67.67-28.68-153.78,31.32-191,2.09-1.3,71,43.9,73.14,42.75,59.36-31.78,72.29-51.86,112.81,13.46,40.1,64.63-.42,61-53.81,100.54-2.51,1.86,23.89,87.71,21.19,89.38C1050.19,551.61,967.52,526.92,925.54,459.25Z"/><ellipse class="cls-2" cx="1048.53" cy="380.1" rx="127.85" ry="147.42" transform="translate(-40.72 619.76) rotate(-32.33)"/><ellipse class="cls-3" cx="1048.96" cy="379.71" rx="109.96" ry="127.37" transform="translate(-40.44 619.93) rotate(-32.33)"/><path class="cls-2" d="M1105.86,467.43l-25.14,15.92c-11.71,7.19-26.57,4-34.57-8.28q-16.65-25.24-32.43-51.24c-7.12-11.78-3.66-26.73,7.09-33.78,5.3-3.36,10.59-6.71,15.89-10.24,3.41-2.15,3.24-4.49-.55-6.28a16.16,16.16,0,0,0-7.8-1.29c-12.58,1.15-25,2.63-37.56,3.67a48.43,48.43,0,0,1-12-.69,19.11,19.11,0,0,1-12.5-8C958.82,356.58,951.35,346,944,335.25c-4.52-6.72-3.28-9.85,4.21-10.85,13.89-1.84,27.8-3.61,41.73-5.15a78.15,78.15,0,0,1,17.58-.5c9.71,1.2,17,7.21,22.58,15.49q10.08,14.86,20.15,30c3.09,4.59,3.44,4.75,7.77,2.06l14.38-9.1c11-6.77,25.85-2.89,33.76,8.81q16.23,25,31.89,50.38c7.59,12.34,4.5,27.38-7,34.95l-25.55,16.18Zm-46-36c-3.82-6-11.06-8.95-15.43-5.86s-4.85,10.27-1,16.06,10.31,8.36,14.8,5.7S1063.39,437.24,1059.87,431.46ZM1077,421.39a20.33,20.33,0,0,0,2.1,2.61c3.76,4.16,9.81,4.63,13.52,1.06l.11-.11a8.61,8.61,0,0,0,2.07-3.29c2.71-7-4.63-17.92-12.16-18.15a7.73,7.73,0,0,0-8.18,5.38c-1.73,4.13-.37,8,2.49,12.41Z"/><path class="cls-2" d="M1068.29,284.57c2.58,4.07,5.32,8.12,7.75,12.24,4.16,6.44,4.45,14.52.75,20.59-6.26,11.31-12.18,22.7-18.26,34.05a19,19,0,0,1-1.81,3.05c-2.23,3-4.63,2.93-6.69-.49-3.92-6.58-7.6-13.29-11.24-20-2.27-4.25-4.41-8.6-6.41-13.1a13.93,13.93,0,0,1,.13-12.76c6.4-12,12.65-24.16,19.16-36,2.74-5.07,5.48-4.91,8.87.27l7.75,12.24Z"/></svg>